ISO-10303-21;
HEADER;
/* Generated by software containing ST-Developer
 * from STEP Tools, Inc. (www.steptools.com) 
 */

FILE_DESCRIPTION(
/* description */ (''),
/* implementation_level */ '2;1');

FILE_NAME(
/* name */ 'Teflon clamp to spout mount bracket v2.2.step',
/* time_stamp */ '2026-03-27T09:36:48-04:00',
/* author */ (''),
/* organization */ (''),
/* preprocessor_version */ 'ST-DEVELOPER v20.1',
/* originating_system */ 'Autodesk Translation Framework v14.24.0.0',
/* authorisation */ '');

FILE_SCHEMA (('AUTOMOTIVE_DESIGN { 1 0 10303 214 3 1 1 }'));
ENDSEC;

DATA;
#10=MECHANICAL_DESIGN_GEOMETRIC_PRESENTATION_REPRESENTATION('',(#13),#1238);
#11=SHAPE_REPRESENTATION_RELATIONSHIP('SRR','None',#1245,#12);
#12=ADVANCED_BREP_SHAPE_REPRESENTATION('',(#14),#1237);
#13=STYLED_ITEM('',(#1254),#14);
#14=MANIFOLD_SOLID_BREP('Body1',#732);
#15=FACE_BOUND('',#93,.T.);
#16=FACE_BOUND('',#94,.T.);
#17=FACE_BOUND('',#95,.T.);
#18=FACE_BOUND('',#96,.T.);
#19=FACE_BOUND('',#99,.T.);
#20=FACE_BOUND('',#102,.T.);
#21=FACE_BOUND('',#106,.T.);
#22=FACE_BOUND('',#112,.T.);
#23=FACE_BOUND('',#114,.T.);
#24=FACE_BOUND('',#116,.T.);
#25=FACE_BOUND('',#118,.T.);
#26=FACE_BOUND('',#120,.T.);
#27=CYLINDRICAL_SURFACE('',#752,1.);
#28=CYLINDRICAL_SURFACE('',#755,1.);
#29=CYLINDRICAL_SURFACE('',#758,1.);
#30=CYLINDRICAL_SURFACE('',#762,1.);
#31=CYLINDRICAL_SURFACE('',#773,1.);
#32=CYLINDRICAL_SURFACE('',#781,1.);
#33=CYLINDRICAL_SURFACE('',#783,1.);
#34=CYLINDRICAL_SURFACE('',#790,1.);
#35=CYLINDRICAL_SURFACE('',#805,5.);
#36=CYLINDRICAL_SURFACE('',#806,5.);
#37=CYLINDRICAL_SURFACE('',#808,1.2);
#38=CYLINDRICAL_SURFACE('',#809,1.2);
#39=CYLINDRICAL_SURFACE('',#810,1.2);
#40=CYLINDRICAL_SURFACE('',#811,1.2);
#41=CYLINDRICAL_SURFACE('',#814,1.55);
#42=CYLINDRICAL_SURFACE('',#815,1.55);
#43=FACE_OUTER_BOUND('',#82,.T.);
#44=FACE_OUTER_BOUND('',#83,.T.);
#45=FACE_OUTER_BOUND('',#84,.T.);
#46=FACE_OUTER_BOUND('',#85,.T.);
#47=FACE_OUTER_BOUND('',#86,.T.);
#48=FACE_OUTER_BOUND('',#87,.T.);
#49=FACE_OUTER_BOUND('',#88,.T.);
#50=FACE_OUTER_BOUND('',#89,.T.);
#51=FACE_OUTER_BOUND('',#90,.T.);
#52=FACE_OUTER_BOUND('',#91,.T.);
#53=FACE_OUTER_BOUND('',#92,.T.);
#54=FACE_OUTER_BOUND('',#97,.T.);
#55=FACE_OUTER_BOUND('',#98,.T.);
#56=FACE_OUTER_BOUND('',#100,.T.);
#57=FACE_OUTER_BOUND('',#101,.T.);
#58=FACE_OUTER_BOUND('',#103,.T.);
#59=FACE_OUTER_BOUND('',#104,.T.);
#60=FACE_OUTER_BOUND('',#105,.T.);
#61=FACE_OUTER_BOUND('',#107,.T.);
#62=FACE_OUTER_BOUND('',#108,.T.);
#63=FACE_OUTER_BOUND('',#109,.T.);
#64=FACE_OUTER_BOUND('',#110,.T.);
#65=FACE_OUTER_BOUND('',#111,.T.);
#66=FACE_OUTER_BOUND('',#113,.T.);
#67=FACE_OUTER_BOUND('',#115,.T.);
#68=FACE_OUTER_BOUND('',#117,.T.);
#69=FACE_OUTER_BOUND('',#119,.T.);
#70=FACE_OUTER_BOUND('',#121,.T.);
#71=FACE_OUTER_BOUND('',#122,.T.);
#72=FACE_OUTER_BOUND('',#123,.T.);
#73=FACE_OUTER_BOUND('',#124,.T.);
#74=FACE_OUTER_BOUND('',#125,.T.);
#75=FACE_OUTER_BOUND('',#126,.T.);
#76=FACE_OUTER_BOUND('',#127,.T.);
#77=FACE_OUTER_BOUND('',#128,.T.);
#78=FACE_OUTER_BOUND('',#129,.T.);
#79=FACE_OUTER_BOUND('',#130,.T.);
#80=FACE_OUTER_BOUND('',#131,.T.);
#81=FACE_OUTER_BOUND('',#132,.T.);
#82=EDGE_LOOP('',(#468,#469,#470,#471,#472,#473,#474,#475));
#83=EDGE_LOOP('',(#476,#477,#478,#479,#480,#481,#482,#483,#484,#485));
#84=EDGE_LOOP('',(#486,#487,#488,#489));
#85=EDGE_LOOP('',(#490,#491,#492,#493));
#86=EDGE_LOOP('',(#494,#495,#496,#497));
#87=EDGE_LOOP('',(#498,#499,#500,#501));
#88=EDGE_LOOP('',(#502,#503,#504,#505));
#89=EDGE_LOOP('',(#506,#507,#508,#509,#510,#511));
#90=EDGE_LOOP('',(#512,#513,#514,#515));
#91=EDGE_LOOP('',(#516,#517,#518,#519));
#92=EDGE_LOOP('',(#520,#521,#522,#523,#524,#525,#526,#527));
#93=EDGE_LOOP('',(#528));
#94=EDGE_LOOP('',(#529));
#95=EDGE_LOOP('',(#530));
#96=EDGE_LOOP('',(#531));
#97=EDGE_LOOP('',(#532,#533,#534,#535));
#98=EDGE_LOOP('',(#536,#537,#538,#539,#540));
#99=EDGE_LOOP('',(#541));
#100=EDGE_LOOP('',(#542,#543,#544,#545,#546,#547));
#101=EDGE_LOOP('',(#548,#549,#550,#551,#552,#553,#554,#555));
#102=EDGE_LOOP('',(#556));
#103=EDGE_LOOP('',(#557,#558,#559,#560));
#104=EDGE_LOOP('',(#561,#562,#563,#564));
#105=EDGE_LOOP('',(#565,#566,#567,#568,#569,#570,#571,#572));
#106=EDGE_LOOP('',(#573));
#107=EDGE_LOOP('',(#574,#575,#576));
#108=EDGE_LOOP('',(#577,#578,#579,#580));
#109=EDGE_LOOP('',(#581,#582,#583));
#110=EDGE_LOOP('',(#584,#585,#586,#587,#588,#589));
#111=EDGE_LOOP('',(#590,#591,#592,#593,#594,#595,#596));
#112=EDGE_LOOP('',(#597));
#113=EDGE_LOOP('',(#598,#599,#600,#601,#602));
#114=EDGE_LOOP('',(#603));
#115=EDGE_LOOP('',(#604,#605,#606,#607,#608,#609,#610));
#116=EDGE_LOOP('',(#611));
#117=EDGE_LOOP('',(#612,#613,#614,#615));
#118=EDGE_LOOP('',(#616));
#119=EDGE_LOOP('',(#617,#618,#619,#620));
#120=EDGE_LOOP('',(#621));
#121=EDGE_LOOP('',(#622,#623,#624,#625));
#122=EDGE_LOOP('',(#626,#627,#628,#629));
#123=EDGE_LOOP('',(#630,#631,#632,#633));
#124=EDGE_LOOP('',(#634,#635,#636,#637));
#125=EDGE_LOOP('',(#638,#639,#640,#641));
#126=EDGE_LOOP('',(#642,#643,#644,#645));
#127=EDGE_LOOP('',(#646,#647,#648,#649));
#128=EDGE_LOOP('',(#650,#651,#652,#653));
#129=EDGE_LOOP('',(#654,#655,#656,#657));
#130=EDGE_LOOP('',(#658,#659,#660,#661));
#131=EDGE_LOOP('',(#662,#663,#664,#665));
#132=EDGE_LOOP('',(#666,#667,#668,#669));
#133=LINE('',#1036,#202);
#134=LINE('',#1040,#203);
#135=LINE('',#1044,#204);
#136=LINE('',#1047,#205);
#137=LINE('',#1050,#206);
#138=LINE('',#1052,#207);
#139=LINE('',#1054,#208);
#140=LINE('',#1056,#209);
#141=LINE('',#1058,#210);
#142=LINE('',#1060,#211);
#143=LINE('',#1062,#212);
#144=LINE('',#1064,#213);
#145=LINE('',#1065,#214);
#146=LINE('',#1068,#215);
#147=LINE('',#1072,#216);
#148=LINE('',#1073,#217);
#149=LINE('',#1076,#218);
#150=LINE('',#1080,#219);
#151=LINE('',#1081,#220);
#152=LINE('',#1084,#221);
#153=LINE('',#1088,#222);
#154=LINE('',#1090,#223);
#155=LINE('',#1091,#224);
#156=LINE('',#1094,#225);
#157=LINE('',#1095,#226);
#158=LINE('',#1100,#227);
#159=LINE('',#1106,#228);
#160=LINE('',#1110,#229);
#161=LINE('',#1113,#230);
#162=LINE('',#1124,#231);
#163=LINE('',#1127,#232);
#164=LINE('',#1130,#233);
#165=LINE('',#1132,#234);
#166=LINE('',#1134,#235);
#167=LINE('',#1135,#236);
#168=LINE('',#1140,#237);
#169=LINE('',#1142,#238);
#170=LINE('',#1143,#239);
#171=LINE('',#1146,#240);
#172=LINE('',#1150,#241);
#173=LINE('',#1151,#242);
#174=LINE('',#1157,#243);
#175=LINE('',#1161,#244);
#176=LINE('',#1164,#245);
#177=LINE('',#1166,#246);
#178=LINE('',#1170,#247);
#179=LINE('',#1171,#248);
#180=LINE('',#1175,#249);
#181=LINE('',#1179,#250);
#182=LINE('',#1181,#251);
#183=LINE('',#1183,#252);
#184=LINE('',#1184,#253);
#185=LINE('',#1186,#254);
#186=LINE('',#1190,#255);
#187=LINE('',#1194,#256);
#188=LINE('',#1201,#257);
#189=LINE('',#1202,#258);
#190=LINE('',#1209,#259);
#191=LINE('',#1210,#260);
#192=LINE('',#1214,#261);
#193=LINE('',#1215,#262);
#194=LINE('',#1217,#263);
#195=LINE('',#1218,#264);
#196=LINE('',#1221,#265);
#197=LINE('',#1223,#266);
#198=LINE('',#1225,#267);
#199=LINE('',#1227,#268);
#200=LINE('',#1231,#269);
#201=LINE('',#1233,#270);
#202=VECTOR('',#823,10.);
#203=VECTOR('',#826,10.);
#204=VECTOR('',#829,10.);
#205=VECTOR('',#832,10.);
#206=VECTOR('',#835,10.);
#207=VECTOR('',#836,1.);
#208=VECTOR('',#837,1.);
#209=VECTOR('',#838,10.);
#210=VECTOR('',#839,1.);
#211=VECTOR('',#840,10.);
#212=VECTOR('',#841,1.);
#213=VECTOR('',#842,1.);
#214=VECTOR('',#843,10.);
#215=VECTOR('',#846,10.);
#216=VECTOR('',#851,10.);
#217=VECTOR('',#852,10.);
#218=VECTOR('',#855,10.);
#219=VECTOR('',#860,10.);
#220=VECTOR('',#861,10.);
#221=VECTOR('',#864,10.);
#222=VECTOR('',#869,10.);
#223=VECTOR('',#870,10.);
#224=VECTOR('',#871,10.);
#225=VECTOR('',#874,10.);
#226=VECTOR('',#875,10.);
#227=VECTOR('',#880,10.);
#228=VECTOR('',#887,10.);
#229=VECTOR('',#890,1.);
#230=VECTOR('',#893,10.);
#231=VECTOR('',#904,10.);
#232=VECTOR('',#907,10.);
#233=VECTOR('',#910,1.);
#234=VECTOR('',#911,10.);
#235=VECTOR('',#912,1.);
#236=VECTOR('',#913,10.);
#237=VECTOR('',#918,10.);
#238=VECTOR('',#919,1.);
#239=VECTOR('',#920,1.);
#240=VECTOR('',#923,10.);
#241=VECTOR('',#926,10.);
#242=VECTOR('',#927,10.);
#243=VECTOR('',#934,10.);
#244=VECTOR('',#939,10.);
#245=VECTOR('',#942,10.);
#246=VECTOR('',#943,10.);
#247=VECTOR('',#946,10.);
#248=VECTOR('',#947,10.);
#249=VECTOR('',#952,10.);
#250=VECTOR('',#959,10.);
#251=VECTOR('',#962,10.);
#252=VECTOR('',#963,10.);
#253=VECTOR('',#964,10.);
#254=VECTOR('',#967,10.);
#255=VECTOR('',#972,10.);
#256=VECTOR('',#977,1.);
#257=VECTOR('',#984,10.);
#258=VECTOR('',#985,10.);
#259=VECTOR('',#992,10.);
#260=VECTOR('',#993,10.);
#261=VECTOR('',#998,10.);
#262=VECTOR('',#999,10.);
#263=VECTOR('',#1002,10.);
#264=VECTOR('',#1003,10.);
#265=VECTOR('',#1008,1.2);
#266=VECTOR('',#1011,1.2);
#267=VECTOR('',#1014,1.2);
#268=VECTOR('',#1017,1.2);
#269=VECTOR('',#1024,1.55);
#270=VECTOR('',#1027,1.55);
#271=CIRCLE('',#747,1.);
#272=CIRCLE('',#748,1.);
#273=CIRCLE('',#749,1.);
#274=CIRCLE('',#750,1.);
#275=CIRCLE('',#753,1.);
#276=CIRCLE('',#756,1.);
#277=CIRCLE('',#759,1.);
#278=CIRCLE('',#763,1.);
#279=CIRCLE('',#764,1.);
#280=CIRCLE('',#766,1.);
#281=CIRCLE('',#767,1.);
#282=CIRCLE('',#768,1.);
#283=CIRCLE('',#769,1.2);
#284=CIRCLE('',#770,1.2);
#285=CIRCLE('',#771,1.2);
#286=CIRCLE('',#772,1.2);
#287=CIRCLE('',#774,1.);
#288=CIRCLE('',#776,1.2);
#289=CIRCLE('',#779,5.);
#290=CIRCLE('',#780,1.55);
#291=CIRCLE('',#782,1.);
#292=CIRCLE('',#784,1.);
#293=CIRCLE('',#786,5.);
#294=CIRCLE('',#787,1.55);
#295=CIRCLE('',#789,1.);
#296=CIRCLE('',#794,1.2);
#297=CIRCLE('',#796,1.2);
#298=CIRCLE('',#798,1.2);
#299=CIRCLE('',#800,5.);
#300=CIRCLE('',#801,1.55);
#301=CIRCLE('',#803,5.);
#302=CIRCLE('',#804,1.55);
#303=VERTEX_POINT('',#1032);
#304=VERTEX_POINT('',#1033);
#305=VERTEX_POINT('',#1035);
#306=VERTEX_POINT('',#1037);
#307=VERTEX_POINT('',#1039);
#308=VERTEX_POINT('',#1041);
#309=VERTEX_POINT('',#1043);
#310=VERTEX_POINT('',#1045);
#311=VERTEX_POINT('',#1049);
#312=VERTEX_POINT('',#1051);
#313=VERTEX_POINT('',#1053);
#314=VERTEX_POINT('',#1055);
#315=VERTEX_POINT('',#1057);
#316=VERTEX_POINT('',#1059);
#317=VERTEX_POINT('',#1061);
#318=VERTEX_POINT('',#1063);
#319=VERTEX_POINT('',#1067);
#320=VERTEX_POINT('',#1071);
#321=VERTEX_POINT('',#1075);
#322=VERTEX_POINT('',#1079);
#323=VERTEX_POINT('',#1083);
#324=VERTEX_POINT('',#1087);
#325=VERTEX_POINT('',#1089);
#326=VERTEX_POINT('',#1093);
#327=VERTEX_POINT('',#1097);
#328=VERTEX_POINT('',#1099);
#329=VERTEX_POINT('',#1103);
#330=VERTEX_POINT('',#1105);
#331=VERTEX_POINT('',#1107);
#332=VERTEX_POINT('',#1109);
#333=VERTEX_POINT('',#1111);
#334=VERTEX_POINT('',#1114);
#335=VERTEX_POINT('',#1116);
#336=VERTEX_POINT('',#1118);
#337=VERTEX_POINT('',#1120);
#338=VERTEX_POINT('',#1123);
#339=VERTEX_POINT('',#1125);
#340=VERTEX_POINT('',#1129);
#341=VERTEX_POINT('',#1131);
#342=VERTEX_POINT('',#1133);
#343=VERTEX_POINT('',#1136);
#344=VERTEX_POINT('',#1139);
#345=VERTEX_POINT('',#1141);
#346=VERTEX_POINT('',#1145);
#347=VERTEX_POINT('',#1147);
#348=VERTEX_POINT('',#1149);
#349=VERTEX_POINT('',#1152);
#350=VERTEX_POINT('',#1155);
#351=VERTEX_POINT('',#1159);
#352=VERTEX_POINT('',#1163);
#353=VERTEX_POINT('',#1165);
#354=VERTEX_POINT('',#1167);
#355=VERTEX_POINT('',#1169);
#356=VERTEX_POINT('',#1172);
#357=VERTEX_POINT('',#1182);
#358=VERTEX_POINT('',#1187);
#359=VERTEX_POINT('',#1191);
#360=VERTEX_POINT('',#1195);
#361=VERTEX_POINT('',#1198);
#362=VERTEX_POINT('',#1199);
#363=VERTEX_POINT('',#1203);
#364=VERTEX_POINT('',#1206);
#365=VERTEX_POINT('',#1207);
#366=VERTEX_POINT('',#1211);
#367=EDGE_CURVE('',#303,#304,#271,.T.);
#368=EDGE_CURVE('',#305,#303,#133,.T.);
#369=EDGE_CURVE('',#306,#305,#272,.T.);
#370=EDGE_CURVE('',#307,#306,#134,.T.);
#371=EDGE_CURVE('',#308,#307,#273,.T.);
#372=EDGE_CURVE('',#309,#308,#135,.T.);
#373=EDGE_CURVE('',#310,#309,#274,.T.);
#374=EDGE_CURVE('',#304,#310,#136,.T.);
#375=EDGE_CURVE('',#311,#306,#137,.T.);
#376=EDGE_CURVE('',#311,#312,#138,.T.);
#377=EDGE_CURVE('',#312,#313,#139,.T.);
#378=EDGE_CURVE('',#314,#313,#140,.T.);
#379=EDGE_CURVE('',#314,#315,#141,.T.);
#380=EDGE_CURVE('',#316,#315,#142,.T.);
#381=EDGE_CURVE('',#316,#317,#143,.T.);
#382=EDGE_CURVE('',#317,#318,#144,.T.);
#383=EDGE_CURVE('',#307,#318,#145,.T.);
#384=EDGE_CURVE('',#305,#319,#146,.T.);
#385=EDGE_CURVE('',#319,#311,#275,.F.);
#386=EDGE_CURVE('',#320,#303,#147,.T.);
#387=EDGE_CURVE('',#320,#319,#148,.T.);
#388=EDGE_CURVE('',#304,#321,#149,.T.);
#389=EDGE_CURVE('',#320,#321,#276,.T.);
#390=EDGE_CURVE('',#322,#310,#150,.T.);
#391=EDGE_CURVE('',#321,#322,#151,.T.);
#392=EDGE_CURVE('',#309,#323,#152,.T.);
#393=EDGE_CURVE('',#322,#323,#277,.T.);
#394=EDGE_CURVE('',#323,#324,#153,.T.);
#395=EDGE_CURVE('',#324,#325,#154,.T.);
#396=EDGE_CURVE('',#325,#320,#155,.T.);
#397=EDGE_CURVE('',#326,#308,#156,.T.);
#398=EDGE_CURVE('',#326,#323,#157,.T.);
#399=EDGE_CURVE('',#315,#327,#278,.T.);
#400=EDGE_CURVE('',#327,#328,#158,.T.);
#401=EDGE_CURVE('',#328,#316,#279,.T.);
#402=EDGE_CURVE('',#329,#314,#280,.T.);
#403=EDGE_CURVE('',#329,#330,#159,.F.);
#404=EDGE_CURVE('',#331,#330,#281,.T.);
#405=EDGE_CURVE('',#332,#331,#160,.T.);
#406=EDGE_CURVE('',#333,#332,#282,.T.);
#407=EDGE_CURVE('',#327,#333,#161,.T.);
#408=EDGE_CURVE('',#334,#334,#283,.T.);
#409=EDGE_CURVE('',#335,#335,#284,.T.);
#410=EDGE_CURVE('',#336,#336,#285,.T.);
#411=EDGE_CURVE('',#337,#337,#286,.T.);
#412=EDGE_CURVE('',#332,#338,#162,.T.);
#413=EDGE_CURVE('',#338,#339,#287,.T.);
#414=EDGE_CURVE('',#339,#333,#163,.T.);
#415=EDGE_CURVE('',#340,#338,#164,.T.);
#416=EDGE_CURVE('',#341,#340,#165,.T.);
#417=EDGE_CURVE('',#341,#342,#166,.T.);
#418=EDGE_CURVE('',#342,#339,#167,.F.);
#419=EDGE_CURVE('',#343,#343,#288,.T.);
#420=EDGE_CURVE('',#344,#331,#168,.T.);
#421=EDGE_CURVE('',#344,#345,#169,.T.);
#422=EDGE_CURVE('',#345,#340,#170,.T.);
#423=EDGE_CURVE('',#346,#342,#171,.F.);
#424=EDGE_CURVE('',#347,#346,#289,.T.);
#425=EDGE_CURVE('',#347,#348,#172,.T.);
#426=EDGE_CURVE('',#328,#348,#173,.F.);
#427=EDGE_CURVE('',#349,#349,#290,.T.);
#428=EDGE_CURVE('',#313,#350,#291,.T.);
#429=EDGE_CURVE('',#350,#329,#174,.T.);
#430=EDGE_CURVE('',#351,#344,#292,.T.);
#431=EDGE_CURVE('',#330,#351,#175,.T.);
#432=EDGE_CURVE('',#350,#352,#176,.T.);
#433=EDGE_CURVE('',#353,#352,#177,.F.);
#434=EDGE_CURVE('',#354,#353,#293,.T.);
#435=EDGE_CURVE('',#354,#355,#178,.T.);
#436=EDGE_CURVE('',#355,#351,#179,.T.);
#437=EDGE_CURVE('',#356,#356,#294,.T.);
#438=EDGE_CURVE('',#317,#326,#180,.T.);
#439=EDGE_CURVE('',#318,#326,#295,.F.);
#440=EDGE_CURVE('',#319,#312,#181,.T.);
#441=EDGE_CURVE('',#324,#341,#182,.T.);
#442=EDGE_CURVE('',#345,#357,#183,.T.);
#443=EDGE_CURVE('',#357,#325,#184,.T.);
#444=EDGE_CURVE('',#348,#324,#185,.T.);
#445=EDGE_CURVE('',#358,#358,#296,.T.);
#446=EDGE_CURVE('',#355,#357,#186,.T.);
#447=EDGE_CURVE('',#359,#359,#297,.T.);
#448=EDGE_CURVE('',#325,#352,#187,.T.);
#449=EDGE_CURVE('',#360,#360,#298,.T.);
#450=EDGE_CURVE('',#361,#362,#299,.T.);
#451=EDGE_CURVE('',#362,#341,#188,.T.);
#452=EDGE_CURVE('',#324,#361,#189,.T.);
#453=EDGE_CURVE('',#363,#363,#300,.T.);
#454=EDGE_CURVE('',#364,#365,#301,.T.);
#455=EDGE_CURVE('',#365,#325,#190,.T.);
#456=EDGE_CURVE('',#357,#364,#191,.T.);
#457=EDGE_CURVE('',#366,#366,#302,.T.);
#458=EDGE_CURVE('',#354,#364,#192,.T.);
#459=EDGE_CURVE('',#353,#365,#193,.T.);
#460=EDGE_CURVE('',#347,#361,#194,.T.);
#461=EDGE_CURVE('',#346,#362,#195,.T.);
#462=EDGE_CURVE('',#359,#337,#196,.T.);
#463=EDGE_CURVE('',#343,#336,#197,.T.);
#464=EDGE_CURVE('',#360,#335,#198,.T.);
#465=EDGE_CURVE('',#358,#334,#199,.T.);
#466=EDGE_CURVE('',#349,#363,#200,.T.);
#467=EDGE_CURVE('',#366,#356,#201,.T.);
#468=ORIENTED_EDGE('',*,*,#367,.F.);
#469=ORIENTED_EDGE('',*,*,#368,.F.);
#470=ORIENTED_EDGE('',*,*,#369,.F.);
#471=ORIENTED_EDGE('',*,*,#370,.F.);
#472=ORIENTED_EDGE('',*,*,#371,.F.);
#473=ORIENTED_EDGE('',*,*,#372,.F.);
#474=ORIENTED_EDGE('',*,*,#373,.F.);
#475=ORIENTED_EDGE('',*,*,#374,.F.);
#476=ORIENTED_EDGE('',*,*,#370,.T.);
#477=ORIENTED_EDGE('',*,*,#375,.F.);
#478=ORIENTED_EDGE('',*,*,#376,.T.);
#479=ORIENTED_EDGE('',*,*,#377,.T.);
#480=ORIENTED_EDGE('',*,*,#378,.F.);
#481=ORIENTED_EDGE('',*,*,#379,.T.);
#482=ORIENTED_EDGE('',*,*,#380,.F.);
#483=ORIENTED_EDGE('',*,*,#381,.T.);
#484=ORIENTED_EDGE('',*,*,#382,.T.);
#485=ORIENTED_EDGE('',*,*,#383,.F.);
#486=ORIENTED_EDGE('',*,*,#369,.T.);
#487=ORIENTED_EDGE('',*,*,#384,.T.);
#488=ORIENTED_EDGE('',*,*,#385,.T.);
#489=ORIENTED_EDGE('',*,*,#375,.T.);
#490=ORIENTED_EDGE('',*,*,#368,.T.);
#491=ORIENTED_EDGE('',*,*,#386,.F.);
#492=ORIENTED_EDGE('',*,*,#387,.T.);
#493=ORIENTED_EDGE('',*,*,#384,.F.);
#494=ORIENTED_EDGE('',*,*,#367,.T.);
#495=ORIENTED_EDGE('',*,*,#388,.T.);
#496=ORIENTED_EDGE('',*,*,#389,.F.);
#497=ORIENTED_EDGE('',*,*,#386,.T.);
#498=ORIENTED_EDGE('',*,*,#374,.T.);
#499=ORIENTED_EDGE('',*,*,#390,.F.);
#500=ORIENTED_EDGE('',*,*,#391,.F.);
#501=ORIENTED_EDGE('',*,*,#388,.F.);
#502=ORIENTED_EDGE('',*,*,#373,.T.);
#503=ORIENTED_EDGE('',*,*,#392,.T.);
#504=ORIENTED_EDGE('',*,*,#393,.F.);
#505=ORIENTED_EDGE('',*,*,#390,.T.);
#506=ORIENTED_EDGE('',*,*,#391,.T.);
#507=ORIENTED_EDGE('',*,*,#393,.T.);
#508=ORIENTED_EDGE('',*,*,#394,.T.);
#509=ORIENTED_EDGE('',*,*,#395,.T.);
#510=ORIENTED_EDGE('',*,*,#396,.T.);
#511=ORIENTED_EDGE('',*,*,#389,.T.);
#512=ORIENTED_EDGE('',*,*,#372,.T.);
#513=ORIENTED_EDGE('',*,*,#397,.F.);
#514=ORIENTED_EDGE('',*,*,#398,.T.);
#515=ORIENTED_EDGE('',*,*,#392,.F.);
#516=ORIENTED_EDGE('',*,*,#399,.T.);
#517=ORIENTED_EDGE('',*,*,#400,.T.);
#518=ORIENTED_EDGE('',*,*,#401,.T.);
#519=ORIENTED_EDGE('',*,*,#380,.T.);
#520=ORIENTED_EDGE('',*,*,#399,.F.);
#521=ORIENTED_EDGE('',*,*,#379,.F.);
#522=ORIENTED_EDGE('',*,*,#402,.F.);
#523=ORIENTED_EDGE('',*,*,#403,.T.);
#524=ORIENTED_EDGE('',*,*,#404,.F.);
#525=ORIENTED_EDGE('',*,*,#405,.F.);
#526=ORIENTED_EDGE('',*,*,#406,.F.);
#527=ORIENTED_EDGE('',*,*,#407,.F.);
#528=ORIENTED_EDGE('',*,*,#408,.T.);
#529=ORIENTED_EDGE('',*,*,#409,.T.);
#530=ORIENTED_EDGE('',*,*,#410,.T.);
#531=ORIENTED_EDGE('',*,*,#411,.T.);
#532=ORIENTED_EDGE('',*,*,#406,.T.);
#533=ORIENTED_EDGE('',*,*,#412,.T.);
#534=ORIENTED_EDGE('',*,*,#413,.T.);
#535=ORIENTED_EDGE('',*,*,#414,.T.);
#536=ORIENTED_EDGE('',*,*,#413,.F.);
#537=ORIENTED_EDGE('',*,*,#415,.F.);
#538=ORIENTED_EDGE('',*,*,#416,.F.);
#539=ORIENTED_EDGE('',*,*,#417,.T.);
#540=ORIENTED_EDGE('',*,*,#418,.T.);
#541=ORIENTED_EDGE('',*,*,#419,.T.);
#542=ORIENTED_EDGE('',*,*,#412,.F.);
#543=ORIENTED_EDGE('',*,*,#405,.T.);
#544=ORIENTED_EDGE('',*,*,#420,.F.);
#545=ORIENTED_EDGE('',*,*,#421,.T.);
#546=ORIENTED_EDGE('',*,*,#422,.T.);
#547=ORIENTED_EDGE('',*,*,#415,.T.);
#548=ORIENTED_EDGE('',*,*,#400,.F.);
#549=ORIENTED_EDGE('',*,*,#407,.T.);
#550=ORIENTED_EDGE('',*,*,#414,.F.);
#551=ORIENTED_EDGE('',*,*,#418,.F.);
#552=ORIENTED_EDGE('',*,*,#423,.F.);
#553=ORIENTED_EDGE('',*,*,#424,.F.);
#554=ORIENTED_EDGE('',*,*,#425,.T.);
#555=ORIENTED_EDGE('',*,*,#426,.F.);
#556=ORIENTED_EDGE('',*,*,#427,.T.);
#557=ORIENTED_EDGE('',*,*,#428,.T.);
#558=ORIENTED_EDGE('',*,*,#429,.T.);
#559=ORIENTED_EDGE('',*,*,#402,.T.);
#560=ORIENTED_EDGE('',*,*,#378,.T.);
#561=ORIENTED_EDGE('',*,*,#430,.T.);
#562=ORIENTED_EDGE('',*,*,#420,.T.);
#563=ORIENTED_EDGE('',*,*,#404,.T.);
#564=ORIENTED_EDGE('',*,*,#431,.T.);
#565=ORIENTED_EDGE('',*,*,#429,.F.);
#566=ORIENTED_EDGE('',*,*,#432,.T.);
#567=ORIENTED_EDGE('',*,*,#433,.F.);
#568=ORIENTED_EDGE('',*,*,#434,.F.);
#569=ORIENTED_EDGE('',*,*,#435,.T.);
#570=ORIENTED_EDGE('',*,*,#436,.T.);
#571=ORIENTED_EDGE('',*,*,#431,.F.);
#572=ORIENTED_EDGE('',*,*,#403,.F.);
#573=ORIENTED_EDGE('',*,*,#437,.T.);
#574=ORIENTED_EDGE('',*,*,#382,.F.);
#575=ORIENTED_EDGE('',*,*,#438,.T.);
#576=ORIENTED_EDGE('',*,*,#439,.F.);
#577=ORIENTED_EDGE('',*,*,#371,.T.);
#578=ORIENTED_EDGE('',*,*,#383,.T.);
#579=ORIENTED_EDGE('',*,*,#439,.T.);
#580=ORIENTED_EDGE('',*,*,#397,.T.);
#581=ORIENTED_EDGE('',*,*,#440,.T.);
#582=ORIENTED_EDGE('',*,*,#376,.F.);
#583=ORIENTED_EDGE('',*,*,#385,.F.);
#584=ORIENTED_EDGE('',*,*,#395,.F.);
#585=ORIENTED_EDGE('',*,*,#441,.T.);
#586=ORIENTED_EDGE('',*,*,#416,.T.);
#587=ORIENTED_EDGE('',*,*,#422,.F.);
#588=ORIENTED_EDGE('',*,*,#442,.T.);
#589=ORIENTED_EDGE('',*,*,#443,.T.);
#590=ORIENTED_EDGE('',*,*,#401,.F.);
#591=ORIENTED_EDGE('',*,*,#426,.T.);
#592=ORIENTED_EDGE('',*,*,#444,.T.);
#593=ORIENTED_EDGE('',*,*,#394,.F.);
#594=ORIENTED_EDGE('',*,*,#398,.F.);
#595=ORIENTED_EDGE('',*,*,#438,.F.);
#596=ORIENTED_EDGE('',*,*,#381,.F.);
#597=ORIENTED_EDGE('',*,*,#445,.T.);
#598=ORIENTED_EDGE('',*,*,#430,.F.);
#599=ORIENTED_EDGE('',*,*,#436,.F.);
#600=ORIENTED_EDGE('',*,*,#446,.T.);
#601=ORIENTED_EDGE('',*,*,#442,.F.);
#602=ORIENTED_EDGE('',*,*,#421,.F.);
#603=ORIENTED_EDGE('',*,*,#447,.T.);
#604=ORIENTED_EDGE('',*,*,#428,.F.);
#605=ORIENTED_EDGE('',*,*,#377,.F.);
#606=ORIENTED_EDGE('',*,*,#440,.F.);
#607=ORIENTED_EDGE('',*,*,#387,.F.);
#608=ORIENTED_EDGE('',*,*,#396,.F.);
#609=ORIENTED_EDGE('',*,*,#448,.T.);
#610=ORIENTED_EDGE('',*,*,#432,.F.);
#611=ORIENTED_EDGE('',*,*,#449,.T.);
#612=ORIENTED_EDGE('',*,*,#450,.T.);
#613=ORIENTED_EDGE('',*,*,#451,.T.);
#614=ORIENTED_EDGE('',*,*,#441,.F.);
#615=ORIENTED_EDGE('',*,*,#452,.T.);
#616=ORIENTED_EDGE('',*,*,#453,.T.);
#617=ORIENTED_EDGE('',*,*,#454,.T.);
#618=ORIENTED_EDGE('',*,*,#455,.T.);
#619=ORIENTED_EDGE('',*,*,#443,.F.);
#620=ORIENTED_EDGE('',*,*,#456,.T.);
#621=ORIENTED_EDGE('',*,*,#457,.T.);
#622=ORIENTED_EDGE('',*,*,#458,.F.);
#623=ORIENTED_EDGE('',*,*,#434,.T.);
#624=ORIENTED_EDGE('',*,*,#459,.T.);
#625=ORIENTED_EDGE('',*,*,#454,.F.);
#626=ORIENTED_EDGE('',*,*,#460,.F.);
#627=ORIENTED_EDGE('',*,*,#424,.T.);
#628=ORIENTED_EDGE('',*,*,#461,.T.);
#629=ORIENTED_EDGE('',*,*,#450,.F.);
#630=ORIENTED_EDGE('',*,*,#460,.T.);
#631=ORIENTED_EDGE('',*,*,#452,.F.);
#632=ORIENTED_EDGE('',*,*,#444,.F.);
#633=ORIENTED_EDGE('',*,*,#425,.F.);
#634=ORIENTED_EDGE('',*,*,#447,.F.);
#635=ORIENTED_EDGE('',*,*,#462,.T.);
#636=ORIENTED_EDGE('',*,*,#411,.F.);
#637=ORIENTED_EDGE('',*,*,#462,.F.);
#638=ORIENTED_EDGE('',*,*,#419,.F.);
#639=ORIENTED_EDGE('',*,*,#463,.T.);
#640=ORIENTED_EDGE('',*,*,#410,.F.);
#641=ORIENTED_EDGE('',*,*,#463,.F.);
#642=ORIENTED_EDGE('',*,*,#449,.F.);
#643=ORIENTED_EDGE('',*,*,#464,.T.);
#644=ORIENTED_EDGE('',*,*,#409,.F.);
#645=ORIENTED_EDGE('',*,*,#464,.F.);
#646=ORIENTED_EDGE('',*,*,#445,.F.);
#647=ORIENTED_EDGE('',*,*,#465,.T.);
#648=ORIENTED_EDGE('',*,*,#408,.F.);
#649=ORIENTED_EDGE('',*,*,#465,.F.);
#650=ORIENTED_EDGE('',*,*,#461,.F.);
#651=ORIENTED_EDGE('',*,*,#423,.T.);
#652=ORIENTED_EDGE('',*,*,#417,.F.);
#653=ORIENTED_EDGE('',*,*,#451,.F.);
#654=ORIENTED_EDGE('',*,*,#459,.F.);
#655=ORIENTED_EDGE('',*,*,#433,.T.);
#656=ORIENTED_EDGE('',*,*,#448,.F.);
#657=ORIENTED_EDGE('',*,*,#455,.F.);
#658=ORIENTED_EDGE('',*,*,#427,.F.);
#659=ORIENTED_EDGE('',*,*,#466,.T.);
#660=ORIENTED_EDGE('',*,*,#453,.F.);
#661=ORIENTED_EDGE('',*,*,#466,.F.);
#662=ORIENTED_EDGE('',*,*,#457,.F.);
#663=ORIENTED_EDGE('',*,*,#467,.T.);
#664=ORIENTED_EDGE('',*,*,#437,.F.);
#665=ORIENTED_EDGE('',*,*,#467,.F.);
#666=ORIENTED_EDGE('',*,*,#458,.T.);
#667=ORIENTED_EDGE('',*,*,#456,.F.);
#668=ORIENTED_EDGE('',*,*,#446,.F.);
#669=ORIENTED_EDGE('',*,*,#435,.F.);
#670=PLANE('',#746);
#671=PLANE('',#751);
#672=PLANE('',#754);
#673=PLANE('',#757);
#674=PLANE('',#760);
#675=PLANE('',#761);
#676=PLANE('',#765);
#677=PLANE('',#775);
#678=PLANE('',#777);
#679=PLANE('',#778);
#680=PLANE('',#785);
#681=PLANE('',#788);
#682=PLANE('',#791);
#683=PLANE('',#792);
#684=PLANE('',#793);
#685=PLANE('',#795);
#686=PLANE('',#797);
#687=PLANE('',#799);
#688=PLANE('',#802);
#689=PLANE('',#807);
#690=PLANE('',#812);
#691=PLANE('',#813);
#692=PLANE('',#816);
#693=ADVANCED_FACE('',(#43),#670,.T.);
#694=ADVANCED_FACE('',(#44),#671,.T.);
#695=ADVANCED_FACE('',(#45),#27,.T.);
#696=ADVANCED_FACE('',(#46),#672,.T.);
#697=ADVANCED_FACE('',(#47),#28,.T.);
#698=ADVANCED_FACE('',(#48),#673,.F.);
#699=ADVANCED_FACE('',(#49),#29,.T.);
#700=ADVANCED_FACE('',(#50),#674,.F.);
#701=ADVANCED_FACE('',(#51),#675,.T.);
#702=ADVANCED_FACE('',(#52),#30,.T.);
#703=ADVANCED_FACE('',(#53,#15,#16,#17,#18),#676,.F.);
#704=ADVANCED_FACE('',(#54),#31,.T.);
#705=ADVANCED_FACE('',(#55,#19),#677,.F.);
#706=ADVANCED_FACE('',(#56),#678,.F.);
#707=ADVANCED_FACE('',(#57,#20),#679,.F.);
#708=ADVANCED_FACE('',(#58),#32,.T.);
#709=ADVANCED_FACE('',(#59),#33,.T.);
#710=ADVANCED_FACE('',(#60,#21),#680,.F.);
#711=ADVANCED_FACE('',(#61),#681,.F.);
#712=ADVANCED_FACE('',(#62),#34,.T.);
#713=ADVANCED_FACE('',(#63),#682,.F.);
#714=ADVANCED_FACE('',(#64),#683,.F.);
#715=ADVANCED_FACE('',(#65,#22),#684,.F.);
#716=ADVANCED_FACE('',(#66,#23),#685,.F.);
#717=ADVANCED_FACE('',(#67,#24),#686,.F.);
#718=ADVANCED_FACE('',(#68,#25),#687,.F.);
#719=ADVANCED_FACE('',(#69,#26),#688,.F.);
#720=ADVANCED_FACE('',(#70),#35,.T.);
#721=ADVANCED_FACE('',(#71),#36,.T.);
#722=ADVANCED_FACE('',(#72),#689,.F.);
#723=ADVANCED_FACE('',(#73),#37,.F.);
#724=ADVANCED_FACE('',(#74),#38,.F.);
#725=ADVANCED_FACE('',(#75),#39,.F.);
#726=ADVANCED_FACE('',(#76),#40,.F.);
#727=ADVANCED_FACE('',(#77),#690,.F.);
#728=ADVANCED_FACE('',(#78),#691,.F.);
#729=ADVANCED_FACE('',(#79),#41,.F.);
#730=ADVANCED_FACE('',(#80),#42,.F.);
#731=ADVANCED_FACE('',(#81),#692,.F.);
#732=CLOSED_SHELL('',(#693,#694,#695,#696,#697,#698,#699,#700,#701,#702,
#703,#704,#705,#706,#707,#708,#709,#710,#711,#712,#713,#714,#715,#716,#717,
#718,#719,#720,#721,#722,#723,#724,#725,#726,#727,#728,#729,#730,#731));
#733=DERIVED_UNIT_ELEMENT(#735,1.);
#734=DERIVED_UNIT_ELEMENT(#1240,-3.);
#735=(
MASS_UNIT()
NAMED_UNIT(*)
SI_UNIT(.KILO.,.GRAM.)
);
#736=DERIVED_UNIT((#733,#734));
#737=MEASURE_REPRESENTATION_ITEM('density measure',
POSITIVE_RATIO_MEASURE(7850.),#736);
#738=PROPERTY_DEFINITION_REPRESENTATION(#743,#740);
#739=PROPERTY_DEFINITION_REPRESENTATION(#744,#741);
#740=REPRESENTATION('material name',(#742),#1237);
#741=REPRESENTATION('density',(#737),#1237);
#742=DESCRIPTIVE_REPRESENTATION_ITEM('Steel','Steel');
#743=PROPERTY_DEFINITION('material property','material name',#1247);
#744=PROPERTY_DEFINITION('material property','density of part',#1247);
#745=AXIS2_PLACEMENT_3D('',#1030,#817,#818);
#746=AXIS2_PLACEMENT_3D('',#1031,#819,#820);
#747=AXIS2_PLACEMENT_3D('',#1034,#821,#822);
#748=AXIS2_PLACEMENT_3D('',#1038,#824,#825);
#749=AXIS2_PLACEMENT_3D('',#1042,#827,#828);
#750=AXIS2_PLACEMENT_3D('',#1046,#830,#831);
#751=AXIS2_PLACEMENT_3D('',#1048,#833,#834);
#752=AXIS2_PLACEMENT_3D('',#1066,#844,#845);
#753=AXIS2_PLACEMENT_3D('',#1069,#847,#848);
#754=AXIS2_PLACEMENT_3D('',#1070,#849,#850);
#755=AXIS2_PLACEMENT_3D('',#1074,#853,#854);
#756=AXIS2_PLACEMENT_3D('',#1077,#856,#857);
#757=AXIS2_PLACEMENT_3D('',#1078,#858,#859);
#758=AXIS2_PLACEMENT_3D('',#1082,#862,#863);
#759=AXIS2_PLACEMENT_3D('',#1085,#865,#866);
#760=AXIS2_PLACEMENT_3D('',#1086,#867,#868);
#761=AXIS2_PLACEMENT_3D('',#1092,#872,#873);
#762=AXIS2_PLACEMENT_3D('',#1096,#876,#877);
#763=AXIS2_PLACEMENT_3D('',#1098,#878,#879);
#764=AXIS2_PLACEMENT_3D('',#1101,#881,#882);
#765=AXIS2_PLACEMENT_3D('',#1102,#883,#884);
#766=AXIS2_PLACEMENT_3D('',#1104,#885,#886);
#767=AXIS2_PLACEMENT_3D('',#1108,#888,#889);
#768=AXIS2_PLACEMENT_3D('',#1112,#891,#892);
#769=AXIS2_PLACEMENT_3D('',#1115,#894,#895);
#770=AXIS2_PLACEMENT_3D('',#1117,#896,#897);
#771=AXIS2_PLACEMENT_3D('',#1119,#898,#899);
#772=AXIS2_PLACEMENT_3D('',#1121,#900,#901);
#773=AXIS2_PLACEMENT_3D('',#1122,#902,#903);
#774=AXIS2_PLACEMENT_3D('',#1126,#905,#906);
#775=AXIS2_PLACEMENT_3D('',#1128,#908,#909);
#776=AXIS2_PLACEMENT_3D('',#1137,#914,#915);
#777=AXIS2_PLACEMENT_3D('',#1138,#916,#917);
#778=AXIS2_PLACEMENT_3D('',#1144,#921,#922);
#779=AXIS2_PLACEMENT_3D('',#1148,#924,#925);
#780=AXIS2_PLACEMENT_3D('',#1153,#928,#929);
#781=AXIS2_PLACEMENT_3D('',#1154,#930,#931);
#782=AXIS2_PLACEMENT_3D('',#1156,#932,#933);
#783=AXIS2_PLACEMENT_3D('',#1158,#935,#936);
#784=AXIS2_PLACEMENT_3D('',#1160,#937,#938);
#785=AXIS2_PLACEMENT_3D('',#1162,#940,#941);
#786=AXIS2_PLACEMENT_3D('',#1168,#944,#945);
#787=AXIS2_PLACEMENT_3D('',#1173,#948,#949);
#788=AXIS2_PLACEMENT_3D('',#1174,#950,#951);
#789=AXIS2_PLACEMENT_3D('',#1176,#953,#954);
#790=AXIS2_PLACEMENT_3D('',#1177,#955,#956);
#791=AXIS2_PLACEMENT_3D('',#1178,#957,#958);
#792=AXIS2_PLACEMENT_3D('',#1180,#960,#961);
#793=AXIS2_PLACEMENT_3D('',#1185,#965,#966);
#794=AXIS2_PLACEMENT_3D('',#1188,#968,#969);
#795=AXIS2_PLACEMENT_3D('',#1189,#970,#971);
#796=AXIS2_PLACEMENT_3D('',#1192,#973,#974);
#797=AXIS2_PLACEMENT_3D('',#1193,#975,#976);
#798=AXIS2_PLACEMENT_3D('',#1196,#978,#979);
#799=AXIS2_PLACEMENT_3D('',#1197,#980,#981);
#800=AXIS2_PLACEMENT_3D('',#1200,#982,#983);
#801=AXIS2_PLACEMENT_3D('',#1204,#986,#987);
#802=AXIS2_PLACEMENT_3D('',#1205,#988,#989);
#803=AXIS2_PLACEMENT_3D('',#1208,#990,#991);
#804=AXIS2_PLACEMENT_3D('',#1212,#994,#995);
#805=AXIS2_PLACEMENT_3D('',#1213,#996,#997);
#806=AXIS2_PLACEMENT_3D('',#1216,#1000,#1001);
#807=AXIS2_PLACEMENT_3D('',#1219,#1004,#1005);
#808=AXIS2_PLACEMENT_3D('',#1220,#1006,#1007);
#809=AXIS2_PLACEMENT_3D('',#1222,#1009,#1010);
#810=AXIS2_PLACEMENT_3D('',#1224,#1012,#1013);
#811=AXIS2_PLACEMENT_3D('',#1226,#1015,#1016);
#812=AXIS2_PLACEMENT_3D('',#1228,#1018,#1019);
#813=AXIS2_PLACEMENT_3D('',#1229,#1020,#1021);
#814=AXIS2_PLACEMENT_3D('',#1230,#1022,#1023);
#815=AXIS2_PLACEMENT_3D('',#1232,#1025,#1026);
#816=AXIS2_PLACEMENT_3D('',#1234,#1028,#1029);
#817=DIRECTION('axis',(0.,0.,1.));
#818=DIRECTION('refdir',(1.,0.,0.));
#819=DIRECTION('center_axis',(0.,-1.,0.));
#820=DIRECTION('ref_axis',(0.,0.,-1.));
#821=DIRECTION('center_axis',(0.,1.,0.));
#822=DIRECTION('ref_axis',(0.707106781186549,0.,-0.707106781186546));
#823=DIRECTION('',(0.,0.,-1.));
#824=DIRECTION('center_axis',(0.,1.,0.));
#825=DIRECTION('ref_axis',(0.707106781186549,0.,0.707106781186546));
#826=DIRECTION('',(1.,0.,0.));
#827=DIRECTION('center_axis',(0.,1.,0.));
#828=DIRECTION('ref_axis',(-0.707106781186548,0.,0.707106781186547));
#829=DIRECTION('',(0.,0.,1.));
#830=DIRECTION('center_axis',(0.,1.,0.));
#831=DIRECTION('ref_axis',(-0.707106781186549,0.,-0.707106781186546));
#832=DIRECTION('',(-1.,0.,0.));
#833=DIRECTION('center_axis',(0.,0.,1.));
#834=DIRECTION('ref_axis',(0.,-1.,0.));
#835=DIRECTION('',(0.,-1.,0.));
#836=DIRECTION('',(1.,0.,0.));
#837=DIRECTION('',(1.,0.,0.));
#838=DIRECTION('',(0.,-1.,0.));
#839=DIRECTION('',(-1.,0.,0.));
#840=DIRECTION('',(0.,1.,0.));
#841=DIRECTION('',(1.,0.,0.));
#842=DIRECTION('',(1.,0.,0.));
#843=DIRECTION('',(0.,1.,0.));
#844=DIRECTION('center_axis',(0.,-1.,0.));
#845=DIRECTION('ref_axis',(0.707106781186549,0.,0.707106781186546));
#846=DIRECTION('',(0.,1.,0.));
#847=DIRECTION('center_axis',(0.,1.,0.));
#848=DIRECTION('ref_axis',(0.707106781186549,0.,0.707106781186546));
#849=DIRECTION('center_axis',(1.,0.,0.));
#850=DIRECTION('ref_axis',(0.,0.,1.));
#851=DIRECTION('',(0.,-1.,0.));
#852=DIRECTION('',(0.,0.,1.));
#853=DIRECTION('center_axis',(0.,-1.,0.));
#854=DIRECTION('ref_axis',(0.707106781186549,0.,-0.707106781186546));
#855=DIRECTION('',(0.,1.,0.));
#856=DIRECTION('center_axis',(0.,1.,0.));
#857=DIRECTION('ref_axis',(0.707106781186549,0.,-0.707106781186546));
#858=DIRECTION('center_axis',(0.,0.,1.));
#859=DIRECTION('ref_axis',(1.,0.,0.));
#860=DIRECTION('',(0.,-1.,0.));
#861=DIRECTION('',(-1.,0.,0.));
#862=DIRECTION('center_axis',(0.,-1.,0.));
#863=DIRECTION('ref_axis',(-0.707106781186549,0.,-0.707106781186546));
#864=DIRECTION('',(0.,1.,0.));
#865=DIRECTION('center_axis',(0.,1.,0.));
#866=DIRECTION('ref_axis',(-0.707106781186549,0.,-0.707106781186546));
#867=DIRECTION('center_axis',(0.,1.,0.));
#868=DIRECTION('ref_axis',(0.,0.,1.));
#869=DIRECTION('',(0.,0.,-1.));
#870=DIRECTION('',(1.,0.,0.));
#871=DIRECTION('',(0.,0.,1.));
#872=DIRECTION('center_axis',(-1.,0.,0.));
#873=DIRECTION('ref_axis',(0.,0.,-1.));
#874=DIRECTION('',(0.,-1.,0.));
#875=DIRECTION('',(0.,0.,-1.));
#876=DIRECTION('center_axis',(0.,1.,0.));
#877=DIRECTION('ref_axis',(-0.707106781186549,0.,0.707106781186546));
#878=DIRECTION('center_axis',(0.,-1.,0.));
#879=DIRECTION('ref_axis',(-0.707106781186549,0.,0.707106781186546));
#880=DIRECTION('',(0.,-1.,0.));
#881=DIRECTION('center_axis',(0.,1.,0.));
#882=DIRECTION('ref_axis',(-0.707106781186549,0.,0.707106781186546));
#883=DIRECTION('center_axis',(0.,-1.,0.));
#884=DIRECTION('ref_axis',(0.,0.,-1.));
#885=DIRECTION('center_axis',(0.,-1.,0.));
#886=DIRECTION('ref_axis',(0.707106781186548,0.,0.707106781186548));
#887=DIRECTION('',(0.,0.,1.));
#888=DIRECTION('center_axis',(0.,-1.,0.));
#889=DIRECTION('ref_axis',(0.707106781186546,0.,-0.707106781186549));
#890=DIRECTION('',(1.,0.,0.));
#891=DIRECTION('center_axis',(0.,-1.,0.));
#892=DIRECTION('ref_axis',(-0.707106781186547,0.,-0.707106781186548));
#893=DIRECTION('',(0.,0.,-1.));
#894=DIRECTION('center_axis',(0.,-1.,0.));
#895=DIRECTION('ref_axis',(0.,0.,-1.));
#896=DIRECTION('center_axis',(0.,-1.,0.));
#897=DIRECTION('ref_axis',(0.,0.,-1.));
#898=DIRECTION('center_axis',(0.,-1.,0.));
#899=DIRECTION('ref_axis',(0.,0.,-1.));
#900=DIRECTION('center_axis',(0.,-1.,0.));
#901=DIRECTION('ref_axis',(0.,0.,-1.));
#902=DIRECTION('center_axis',(0.,1.,0.));
#903=DIRECTION('ref_axis',(-0.707106781186547,0.,-0.707106781186548));
#904=DIRECTION('',(0.,-1.,0.));
#905=DIRECTION('center_axis',(0.,1.,0.));
#906=DIRECTION('ref_axis',(-0.707106781186547,0.,-0.707106781186548));
#907=DIRECTION('',(0.,1.,0.));
#908=DIRECTION('center_axis',(0.,1.,0.));
#909=DIRECTION('ref_axis',(0.,0.,1.));
#910=DIRECTION('',(-1.,0.,0.));
#911=DIRECTION('',(0.,0.,-1.));
#912=DIRECTION('',(-1.,0.,0.));
#913=DIRECTION('',(0.,0.,1.));
#914=DIRECTION('center_axis',(0.,1.,0.));
#915=DIRECTION('ref_axis',(0.,0.,-1.));
#916=DIRECTION('center_axis',(0.,0.,1.));
#917=DIRECTION('ref_axis',(0.,-1.,0.));
#918=DIRECTION('',(0.,1.,0.));
#919=DIRECTION('',(-1.,0.,0.));
#920=DIRECTION('',(-1.,0.,0.));
#921=DIRECTION('center_axis',(1.,0.,0.));
#922=DIRECTION('ref_axis',(0.,0.,1.));
#923=DIRECTION('',(0.,-1.,0.));
#924=DIRECTION('center_axis',(1.,0.,0.));
#925=DIRECTION('ref_axis',(0.,-0.707106781186547,0.707106781186547));
#926=DIRECTION('',(0.,1.,0.));
#927=DIRECTION('',(0.,0.,1.));
#928=DIRECTION('center_axis',(1.,0.,0.));
#929=DIRECTION('ref_axis',(0.,-1.,0.));
#930=DIRECTION('center_axis',(0.,-1.,0.));
#931=DIRECTION('ref_axis',(0.707106781186548,0.,0.707106781186548));
#932=DIRECTION('center_axis',(0.,1.,0.));
#933=DIRECTION('ref_axis',(0.707106781186548,0.,0.707106781186548));
#934=DIRECTION('',(0.,1.,0.));
#935=DIRECTION('center_axis',(0.,-1.,0.));
#936=DIRECTION('ref_axis',(0.707106781186546,0.,-0.707106781186549));
#937=DIRECTION('center_axis',(0.,1.,0.));
#938=DIRECTION('ref_axis',(0.707106781186546,0.,-0.707106781186549));
#939=DIRECTION('',(0.,-1.,0.));
#940=DIRECTION('center_axis',(-1.,0.,0.));
#941=DIRECTION('ref_axis',(0.,0.,-1.));
#942=DIRECTION('',(0.,0.,-1.));
#943=DIRECTION('',(0.,-1.,0.));
#944=DIRECTION('center_axis',(-1.,0.,0.));
#945=DIRECTION('ref_axis',(0.,-0.707106781186547,0.707106781186547));
#946=DIRECTION('',(0.,1.,0.));
#947=DIRECTION('',(0.,0.,-1.));
#948=DIRECTION('center_axis',(-1.,0.,0.));
#949=DIRECTION('ref_axis',(0.,-1.,0.));
#950=DIRECTION('center_axis',(0.,1.,0.));
#951=DIRECTION('ref_axis',(0.,0.,1.));
#952=DIRECTION('',(0.,0.,-1.));
#953=DIRECTION('center_axis',(0.,1.,0.));
#954=DIRECTION('ref_axis',(-0.707106781186548,0.,0.707106781186547));
#955=DIRECTION('center_axis',(0.,-1.,0.));
#956=DIRECTION('ref_axis',(-0.707106781186548,0.,0.707106781186547));
#957=DIRECTION('center_axis',(0.,1.,0.));
#958=DIRECTION('ref_axis',(0.,0.,1.));
#959=DIRECTION('',(0.,0.,1.));
#960=DIRECTION('center_axis',(0.,1.,0.));
#961=DIRECTION('ref_axis',(0.,0.,1.));
#962=DIRECTION('',(0.,0.,-1.));
#963=DIRECTION('',(0.,0.,1.));
#964=DIRECTION('',(0.,0.,1.));
#965=DIRECTION('center_axis',(0.,1.,0.));
#966=DIRECTION('ref_axis',(0.,0.,1.));
#967=DIRECTION('',(1.,0.,0.));
#968=DIRECTION('center_axis',(0.,1.,0.));
#969=DIRECTION('ref_axis',(0.,0.,-1.));
#970=DIRECTION('center_axis',(0.,1.,0.));
#971=DIRECTION('ref_axis',(0.,0.,1.));
#972=DIRECTION('',(-1.,0.,0.));
#973=DIRECTION('center_axis',(0.,1.,0.));
#974=DIRECTION('ref_axis',(0.,0.,-1.));
#975=DIRECTION('center_axis',(0.,1.,0.));
#976=DIRECTION('ref_axis',(0.,0.,1.));
#977=DIRECTION('',(1.,0.,0.));
#978=DIRECTION('center_axis',(0.,1.,0.));
#979=DIRECTION('ref_axis',(0.,0.,-1.));
#980=DIRECTION('center_axis',(-1.,0.,0.));
#981=DIRECTION('ref_axis',(0.,1.,0.));
#982=DIRECTION('center_axis',(1.,0.,0.));
#983=DIRECTION('ref_axis',(0.,-0.707106781186547,0.707106781186547));
#984=DIRECTION('',(0.,1.,0.));
#985=DIRECTION('',(0.,-1.,0.));
#986=DIRECTION('center_axis',(-1.,0.,0.));
#987=DIRECTION('ref_axis',(0.,-1.,0.));
#988=DIRECTION('center_axis',(1.,0.,0.));
#989=DIRECTION('ref_axis',(0.,-1.,0.));
#990=DIRECTION('center_axis',(-1.,0.,0.));
#991=DIRECTION('ref_axis',(0.,-0.707106781186547,-0.707106781186547));
#992=DIRECTION('',(0.,1.,0.));
#993=DIRECTION('',(0.,-1.,0.));
#994=DIRECTION('center_axis',(1.,0.,0.));
#995=DIRECTION('ref_axis',(0.,-1.,0.));
#996=DIRECTION('center_axis',(-1.,0.,0.));
#997=DIRECTION('ref_axis',(0.,-0.707106781186547,0.707106781186547));
#998=DIRECTION('',(-1.,0.,0.));
#999=DIRECTION('',(-1.,0.,0.));
#1000=DIRECTION('center_axis',(1.,0.,0.));
#1001=DIRECTION('ref_axis',(0.,-0.707106781186547,0.707106781186547));
#1002=DIRECTION('',(1.,0.,0.));
#1003=DIRECTION('',(1.,0.,0.));
#1004=DIRECTION('center_axis',(0.,0.,-1.));
#1005=DIRECTION('ref_axis',(0.,1.,0.));
#1006=DIRECTION('center_axis',(0.,1.,0.));
#1007=DIRECTION('ref_axis',(0.,0.,-1.));
#1008=DIRECTION('',(0.,1.,0.));
#1009=DIRECTION('center_axis',(0.,1.,0.));
#1010=DIRECTION('ref_axis',(0.,0.,-1.));
#1011=DIRECTION('',(0.,1.,0.));
#1012=DIRECTION('center_axis',(0.,1.,0.));
#1013=DIRECTION('ref_axis',(0.,0.,-1.));
#1014=DIRECTION('',(0.,1.,0.));
#1015=DIRECTION('center_axis',(0.,1.,0.));
#1016=DIRECTION('ref_axis',(0.,0.,-1.));
#1017=DIRECTION('',(0.,1.,0.));
#1018=DIRECTION('center_axis',(0.,0.,1.));
#1019=DIRECTION('ref_axis',(0.,-1.,0.));
#1020=DIRECTION('center_axis',(0.,0.,-1.));
#1021=DIRECTION('ref_axis',(0.,1.,0.));
#1022=DIRECTION('center_axis',(1.,0.,0.));
#1023=DIRECTION('ref_axis',(0.,-1.,0.));
#1024=DIRECTION('',(1.,0.,0.));
#1025=DIRECTION('center_axis',(1.,0.,0.));
#1026=DIRECTION('ref_axis',(0.,-1.,0.));
#1027=DIRECTION('',(1.,0.,0.));
#1028=DIRECTION('center_axis',(0.,0.,1.));
#1029=DIRECTION('ref_axis',(0.,-1.,0.));
#1030=CARTESIAN_POINT('',(0.,0.,0.));
#1031=CARTESIAN_POINT('Origin',(11.5,-6.5,15.));
#1032=CARTESIAN_POINT('',(18.0500002682209,-6.5,26.0000003278255));
#1033=CARTESIAN_POINT('',(17.0500002682209,-6.5,25.0000003278255));
#1034=CARTESIAN_POINT('Origin',(17.0500002682209,-6.5,26.0000003278255));
#1035=CARTESIAN_POINT('',(18.0500002682209,-6.5,29.));
#1036=CARTESIAN_POINT('',(18.0500002682209,-6.5,18.5000001639128));
#1037=CARTESIAN_POINT('',(17.0500002682209,-6.5,30.));
#1038=CARTESIAN_POINT('Origin',(17.0500002682209,-6.5,29.));
#1039=CARTESIAN_POINT('',(5.95,-6.5,30.));
#1040=CARTESIAN_POINT('',(11.5,-6.5,30.));
#1041=CARTESIAN_POINT('',(4.95,-6.5,29.));
#1042=CARTESIAN_POINT('Origin',(5.95,-6.5,29.));
#1043=CARTESIAN_POINT('',(4.95,-6.5,26.0000003278255));
#1044=CARTESIAN_POINT('',(4.95,-6.5,22.5));
#1045=CARTESIAN_POINT('',(5.95,-6.5,25.0000003278255));
#1046=CARTESIAN_POINT('Origin',(5.95,-6.5,26.0000003278255));
#1047=CARTESIAN_POINT('',(8.225,-6.5,25.0000003278255));
#1048=CARTESIAN_POINT('Origin',(11.5,-2.5,30.));
#1049=CARTESIAN_POINT('',(17.0500002682209,-5.,30.));
#1050=CARTESIAN_POINT('',(17.0500002682209,-3.75,30.));
#1051=CARTESIAN_POINT('',(18.0500002682209,-5.,30.));
#1052=CARTESIAN_POINT('',(11.5,-5.,30.));
#1053=CARTESIAN_POINT('',(22.05,-5.,30.));
#1054=CARTESIAN_POINT('',(11.5,-5.,30.));
#1055=CARTESIAN_POINT('',(22.05,0.,30.));
#1056=CARTESIAN_POINT('',(22.05,-2.5,30.));
#1057=CARTESIAN_POINT('',(0.95,0.,30.));
#1058=CARTESIAN_POINT('',(11.5,0.,30.));
#1059=CARTESIAN_POINT('',(0.95,-5.,30.));
#1060=CARTESIAN_POINT('',(0.95,-2.5,30.));
#1061=CARTESIAN_POINT('',(4.95,-5.,30.));
#1062=CARTESIAN_POINT('',(11.5,-5.,30.));
#1063=CARTESIAN_POINT('',(5.95,-5.,30.));
#1064=CARTESIAN_POINT('',(11.5,-5.,30.));
#1065=CARTESIAN_POINT('',(5.95,-3.75,30.));
#1066=CARTESIAN_POINT('Origin',(17.0500002682209,-3.75,29.));
#1067=CARTESIAN_POINT('',(18.0500002682209,-5.,29.));
#1068=CARTESIAN_POINT('',(18.0500002682209,-3.75,29.));
#1069=CARTESIAN_POINT('Origin',(17.0500002682209,-5.,29.));
#1070=CARTESIAN_POINT('Origin',(18.0500002682209,-5.,22.0000003278255));
#1071=CARTESIAN_POINT('',(18.0500002682209,-5.,26.0000003278255));
#1072=CARTESIAN_POINT('',(18.0500002682209,-5.,26.0000003278255));
#1073=CARTESIAN_POINT('',(18.0500002682209,-5.,16.0000001639128));
#1074=CARTESIAN_POINT('Origin',(17.0500002682209,-5.,26.0000003278255));
#1075=CARTESIAN_POINT('',(17.0500002682209,-5.,25.0000003278255));
#1076=CARTESIAN_POINT('',(17.0500002682209,-5.,25.0000003278255));
#1077=CARTESIAN_POINT('Origin',(17.0500002682209,-5.,26.0000003278255));
#1078=CARTESIAN_POINT('Origin',(4.95,-5.,25.0000003278255));
#1079=CARTESIAN_POINT('',(5.95,-5.,25.0000003278255));
#1080=CARTESIAN_POINT('',(5.95,-5.,25.0000003278255));
#1081=CARTESIAN_POINT('',(8.225,-5.,25.0000003278255));
#1082=CARTESIAN_POINT('Origin',(5.95,-5.,26.0000003278255));
#1083=CARTESIAN_POINT('',(4.95,-5.,26.0000003278255));
#1084=CARTESIAN_POINT('',(4.95,-5.,26.0000003278255));
#1085=CARTESIAN_POINT('Origin',(5.95,-5.,26.0000003278255));
#1086=CARTESIAN_POINT('Origin',(11.5,-5.,15.));
#1087=CARTESIAN_POINT('',(4.95,-5.,22.0000003278255));
#1088=CARTESIAN_POINT('',(4.95,-5.,15.));
#1089=CARTESIAN_POINT('',(18.0500002682209,-5.,22.0000003278255));
#1090=CARTESIAN_POINT('',(11.5000001341355,-5.,22.0000003278255));
#1091=CARTESIAN_POINT('',(18.0500002682209,-5.,16.0000001639128));
#1092=CARTESIAN_POINT('Origin',(4.95,-5.,30.));
#1093=CARTESIAN_POINT('',(4.95,-5.,29.));
#1094=CARTESIAN_POINT('',(4.95,-3.75,29.));
#1095=CARTESIAN_POINT('',(4.95,-5.,15.));
#1096=CARTESIAN_POINT('Origin',(0.95,-2.5,29.));
#1097=CARTESIAN_POINT('',(-0.0499999999999989,0.,29.));
#1098=CARTESIAN_POINT('Origin',(0.95,0.,29.));
#1099=CARTESIAN_POINT('',(-0.0499999999999989,-5.,29.));
#1100=CARTESIAN_POINT('',(-0.05,-2.5,29.));
#1101=CARTESIAN_POINT('Origin',(0.95,-5.,29.));
#1102=CARTESIAN_POINT('Origin',(11.5,0.,15.));
#1103=CARTESIAN_POINT('',(23.05,0.,29.));
#1104=CARTESIAN_POINT('Origin',(22.05,0.,29.));
#1105=CARTESIAN_POINT('',(23.05,0.,1.));
#1106=CARTESIAN_POINT('',(23.05,0.,15.));
#1107=CARTESIAN_POINT('',(22.05,0.,0.));
#1108=CARTESIAN_POINT('Origin',(22.05,0.,1.));
#1109=CARTESIAN_POINT('',(0.95,0.,0.));
#1110=CARTESIAN_POINT('',(11.5,0.,0.));
#1111=CARTESIAN_POINT('',(-0.0499999999999989,0.,1.));
#1112=CARTESIAN_POINT('Origin',(0.95,0.,1.));
#1113=CARTESIAN_POINT('',(-0.0499999999999989,0.,15.));
#1114=CARTESIAN_POINT('',(1.75,0.,28.935));
#1115=CARTESIAN_POINT('Origin',(1.75,0.,27.735));
#1116=CARTESIAN_POINT('',(21.25,0.,28.935));
#1117=CARTESIAN_POINT('Origin',(21.25,0.,27.735));
#1118=CARTESIAN_POINT('',(1.75,0.,3.465));
#1119=CARTESIAN_POINT('Origin',(1.75,0.,2.265));
#1120=CARTESIAN_POINT('',(21.25,0.,3.465));
#1121=CARTESIAN_POINT('Origin',(21.25,0.,2.265));
#1122=CARTESIAN_POINT('Origin',(0.95,-2.5,1.));
#1123=CARTESIAN_POINT('',(0.95,-5.,0.));
#1124=CARTESIAN_POINT('',(0.95,-2.5,0.));
#1125=CARTESIAN_POINT('',(-0.0499999999999989,-5.,1.));
#1126=CARTESIAN_POINT('Origin',(0.95,-5.,1.));
#1127=CARTESIAN_POINT('',(-0.05,-2.5,1.));
#1128=CARTESIAN_POINT('Origin',(11.5,-5.,15.));
#1129=CARTESIAN_POINT('',(4.95,-5.,0.));
#1130=CARTESIAN_POINT('',(11.5,-5.,0.));
#1131=CARTESIAN_POINT('',(4.95,-5.,12.0000003278255));
#1132=CARTESIAN_POINT('',(4.95,-5.,16.0000001639128));
#1133=CARTESIAN_POINT('',(-0.0499999999999995,-5.,12.0000003278255));
#1134=CARTESIAN_POINT('',(7.,-5.,12.0000003278255));
#1135=CARTESIAN_POINT('',(-0.0499999999999989,-5.,15.));
#1136=CARTESIAN_POINT('',(1.75,-5.,3.465));
#1137=CARTESIAN_POINT('Origin',(1.75,-5.,2.265));
#1138=CARTESIAN_POINT('Origin',(11.5,-2.5,0.));
#1139=CARTESIAN_POINT('',(22.05,-5.,0.));
#1140=CARTESIAN_POINT('',(22.05,-2.5,0.));
#1141=CARTESIAN_POINT('',(18.0500002682209,-5.,0.));
#1142=CARTESIAN_POINT('',(11.5,-5.,0.));
#1143=CARTESIAN_POINT('',(11.5,-5.,0.));
#1144=CARTESIAN_POINT('Origin',(-0.05,-2.5,15.));
#1145=CARTESIAN_POINT('',(-0.05,-11.,12.0000003278255));
#1146=CARTESIAN_POINT('',(-0.05,-7.5,12.0000003278255));
#1147=CARTESIAN_POINT('',(-0.05,-11.,22.0000003278255));
#1148=CARTESIAN_POINT('Origin',(-0.05,-11.,17.0000003278255));
#1149=CARTESIAN_POINT('',(-0.05,-5.,22.0000003278255));
#1150=CARTESIAN_POINT('',(-0.05,-7.5,22.0000003278255));
#1151=CARTESIAN_POINT('',(-0.0499999999999989,-5.,15.));
#1152=CARTESIAN_POINT('',(-0.0499999999999989,-9.45,17.0000003278255));
#1153=CARTESIAN_POINT('Origin',(-0.0499999999999989,-11.,17.0000003278255));
#1154=CARTESIAN_POINT('Origin',(22.05,-2.5,29.));
#1155=CARTESIAN_POINT('',(23.05,-5.,29.));
#1156=CARTESIAN_POINT('Origin',(22.05,-5.,29.));
#1157=CARTESIAN_POINT('',(23.05,-2.5,29.));
#1158=CARTESIAN_POINT('Origin',(22.05,-2.5,1.));
#1159=CARTESIAN_POINT('',(23.05,-5.,1.));
#1160=CARTESIAN_POINT('Origin',(22.05,-5.,1.));
#1161=CARTESIAN_POINT('',(23.05,-2.5,1.));
#1162=CARTESIAN_POINT('Origin',(23.05,-2.5,15.));
#1163=CARTESIAN_POINT('',(23.05,-5.,22.0000003278255));
#1164=CARTESIAN_POINT('',(23.05,-5.,15.));
#1165=CARTESIAN_POINT('',(23.05,-11.,22.0000003278255));
#1166=CARTESIAN_POINT('',(23.05,-6.5,22.0000003278255));
#1167=CARTESIAN_POINT('',(23.05,-11.,12.0000003278255));
#1168=CARTESIAN_POINT('Origin',(23.05,-11.,17.0000003278255));
#1169=CARTESIAN_POINT('',(23.05,-5.,12.0000003278255));
#1170=CARTESIAN_POINT('',(23.05,-6.5,12.0000003278255));
#1171=CARTESIAN_POINT('',(23.05,-5.,15.));
#1172=CARTESIAN_POINT('',(23.05,-9.45,17.0000003278255));
#1173=CARTESIAN_POINT('Origin',(23.05,-11.,17.0000003278255));
#1174=CARTESIAN_POINT('Origin',(11.5,-5.,15.));
#1175=CARTESIAN_POINT('',(4.95,-5.,15.));
#1176=CARTESIAN_POINT('Origin',(5.95,-5.,29.));
#1177=CARTESIAN_POINT('Origin',(5.95,-3.75,29.));
#1178=CARTESIAN_POINT('Origin',(11.5,-5.,15.));
#1179=CARTESIAN_POINT('',(18.0500002682209,-5.,16.0000001639128));
#1180=CARTESIAN_POINT('Origin',(11.5,-5.,15.));
#1181=CARTESIAN_POINT('',(4.95,-5.,16.0000001639128));
#1182=CARTESIAN_POINT('',(18.0500002682209,-5.,12.0000003278255));
#1183=CARTESIAN_POINT('',(18.0500002682209,-5.,16.0000001639128));
#1184=CARTESIAN_POINT('',(18.0500002682209,-5.,16.0000001639128));
#1185=CARTESIAN_POINT('Origin',(11.5,-5.,15.));
#1186=CARTESIAN_POINT('',(8.2,-5.,22.0000003278255));
#1187=CARTESIAN_POINT('',(1.75,-5.,28.935));
#1188=CARTESIAN_POINT('Origin',(1.75,-5.,27.735));
#1189=CARTESIAN_POINT('Origin',(11.5,-5.,15.));
#1190=CARTESIAN_POINT('',(14.8000001341105,-5.,12.0000003278255));
#1191=CARTESIAN_POINT('',(21.25,-5.,3.465));
#1192=CARTESIAN_POINT('Origin',(21.25,-5.,2.265));
#1193=CARTESIAN_POINT('Origin',(11.5,-5.,15.));
#1194=CARTESIAN_POINT('',(16.0000001341105,-5.,22.0000003278255));
#1195=CARTESIAN_POINT('',(21.25,-5.,28.935));
#1196=CARTESIAN_POINT('Origin',(21.25,-5.,27.735));
#1197=CARTESIAN_POINT('Origin',(4.95,-12.5,17.0000003278255));
#1198=CARTESIAN_POINT('',(4.95,-11.,22.0000003278255));
#1199=CARTESIAN_POINT('',(4.95,-11.,12.0000003278255));
#1200=CARTESIAN_POINT('Origin',(4.95,-11.,17.0000003278255));
#1201=CARTESIAN_POINT('',(4.95,-12.5,12.0000003278255));
#1202=CARTESIAN_POINT('',(4.95,-12.5,22.0000003278255));
#1203=CARTESIAN_POINT('',(4.95,-9.45,17.0000003278255));
#1204=CARTESIAN_POINT('Origin',(4.95,-11.,17.0000003278255));
#1205=CARTESIAN_POINT('Origin',(18.0500002682209,-10.5,17.0000003278255));
#1206=CARTESIAN_POINT('',(18.0500002682209,-11.,12.0000003278255));
#1207=CARTESIAN_POINT('',(18.0500002682209,-11.,22.0000003278255));
#1208=CARTESIAN_POINT('Origin',(18.0500002682209,-11.,17.0000003278255));
#1209=CARTESIAN_POINT('',(18.0500002682209,-10.5,22.0000003278255));
#1210=CARTESIAN_POINT('',(18.0500002682209,-10.5,12.0000003278255));
#1211=CARTESIAN_POINT('',(18.0500002682209,-9.45,17.0000003278255));
#1212=CARTESIAN_POINT('Origin',(18.0500002682209,-11.,17.0000003278255));
#1213=CARTESIAN_POINT('Origin',(20.5000002682209,-11.,17.0000003278255));
#1214=CARTESIAN_POINT('',(18.1000002682209,-11.,12.0000003278255));
#1215=CARTESIAN_POINT('',(18.1000002682209,-11.,22.0000003278255));
#1216=CARTESIAN_POINT('Origin',(2.5,-11.,17.0000003278255));
#1217=CARTESIAN_POINT('',(4.9,-11.,22.0000003278255));
#1218=CARTESIAN_POINT('',(4.9,-11.,12.0000003278255));
#1219=CARTESIAN_POINT('Origin',(2.5,-12.5,22.0000003278255));
#1220=CARTESIAN_POINT('Origin',(21.25,-2.5,2.265));
#1221=CARTESIAN_POINT('',(21.25,-2.5,3.465));
#1222=CARTESIAN_POINT('Origin',(1.75,-2.5,2.265));
#1223=CARTESIAN_POINT('',(1.75,-2.5,3.465));
#1224=CARTESIAN_POINT('Origin',(21.25,-2.5,27.735));
#1225=CARTESIAN_POINT('',(21.25,-2.5,28.935));
#1226=CARTESIAN_POINT('Origin',(1.75,-2.25,27.735));
#1227=CARTESIAN_POINT('',(1.75,-2.25,28.935));
#1228=CARTESIAN_POINT('Origin',(2.5,-12.5,12.0000003278255));
#1229=CARTESIAN_POINT('Origin',(20.5000002682209,-10.5,22.0000003278255));
#1230=CARTESIAN_POINT('Origin',(12.650000295098,-11.,17.0000003278255));
#1231=CARTESIAN_POINT('',(12.650000295098,-9.45,17.0000003278255));
#1232=CARTESIAN_POINT('Origin',(12.650000295098,-11.,17.0000003278255));
#1233=CARTESIAN_POINT('',(12.650000295098,-9.45,17.0000003278255));
#1234=CARTESIAN_POINT('Origin',(20.5000002682209,-10.5,12.0000003278255));
#1235=UNCERTAINTY_MEASURE_WITH_UNIT(LENGTH_MEASURE(0.01),#1239,
'DISTANCE_ACCURACY_VALUE',
'Maximum model space distance between geometric entities at asserted c
onnectivities');
#1236=UNCERTAINTY_MEASURE_WITH_UNIT(LENGTH_MEASURE(0.01),#1239,
'DISTANCE_ACCURACY_VALUE',
'Maximum model space distance between geometric entities at asserted c
onnectivities');
#1237=(
GEOMETRIC_REPRESENTATION_CONTEXT(3)
GLOBAL_UNCERTAINTY_ASSIGNED_CONTEXT((#1235))
GLOBAL_UNIT_ASSIGNED_CONTEXT((#1239,#1241,#1242))
REPRESENTATION_CONTEXT('','3D')
);
#1238=(
GEOMETRIC_REPRESENTATION_CONTEXT(3)
GLOBAL_UNCERTAINTY_ASSIGNED_CONTEXT((#1236))
GLOBAL_UNIT_ASSIGNED_CONTEXT((#1239,#1241,#1242))
REPRESENTATION_CONTEXT('','3D')
);
#1239=(
LENGTH_UNIT()
NAMED_UNIT(*)
SI_UNIT(.MILLI.,.METRE.)
);
#1240=(
LENGTH_UNIT()
NAMED_UNIT(*)
SI_UNIT($,.METRE.)
);
#1241=(
NAMED_UNIT(*)
PLANE_ANGLE_UNIT()
SI_UNIT($,.RADIAN.)
);
#1242=(
NAMED_UNIT(*)
SI_UNIT($,.STERADIAN.)
SOLID_ANGLE_UNIT()
);
#1243=SHAPE_DEFINITION_REPRESENTATION(#1244,#1245);
#1244=PRODUCT_DEFINITION_SHAPE('',$,#1247);
#1245=SHAPE_REPRESENTATION('',(#745),#1237);
#1246=PRODUCT_DEFINITION_CONTEXT('part definition',#1251,'design');
#1247=PRODUCT_DEFINITION('2026-03-21-14-11-09-656',
'Teflon clamp to spout mount bracket v2.2',#1248,#1246);
#1248=PRODUCT_DEFINITION_FORMATION('',$,#1253);
#1249=PRODUCT_RELATED_PRODUCT_CATEGORY(
'Teflon clamp to spout mount bracket v2.2',
'Teflon clamp to spout mount bracket v2.2',(#1253));
#1250=APPLICATION_PROTOCOL_DEFINITION('international standard',
'automotive_design',2009,#1251);
#1251=APPLICATION_CONTEXT(
'Core Data for Automotive Mechanical Design Process');
#1252=PRODUCT_CONTEXT('part definition',#1251,'mechanical');
#1253=PRODUCT('2026-03-21-14-11-09-656',
'Teflon clamp to spout mount bracket v2.2',$,(#1252));
#1254=PRESENTATION_STYLE_ASSIGNMENT((#1255));
#1255=SURFACE_STYLE_USAGE(.BOTH.,#1256);
#1256=SURFACE_SIDE_STYLE('',(#1257));
#1257=SURFACE_STYLE_FILL_AREA(#1258);
#1258=FILL_AREA_STYLE('Opaque(202,209,238)',(#1259));
#1259=FILL_AREA_STYLE_COLOUR('Opaque(202,209,238)',#1260);
#1260=COLOUR_RGB('Opaque(202,209,238)',0.792156862745098,0.819607843137255,
0.933333333333333);
ENDSEC;
END-ISO-10303-21;
