ISO-10303-21;
HEADER;
/* Generated by software containing ST-Developer
 * from STEP Tools, Inc. (www.steptools.com) 
 */

FILE_DESCRIPTION(
/* description */ ('STEP AP214'),
/* implementation_level */ '2;1');

FILE_NAME(
/* name */ 'Spout Vac Tube to Teflon Clamp.step',
/* time_stamp */ '2025-10-23T18:55:13-04:00',
/* author */ (''),
/* organization */ (''),
/* preprocessor_version */ 'ST-DEVELOPER v20.1',
/* originating_system */ 'Autodesk Translation Framework v14.17.0.0',
/* authorisation */ '');

FILE_SCHEMA (('AUTOMOTIVE_DESIGN { 1 0 10303 214 3 1 1 }'));
ENDSEC;

DATA;
#10=MECHANICAL_DESIGN_GEOMETRIC_PRESENTATION_REPRESENTATION('',(#13),#663);
#11=SHAPE_REPRESENTATION_RELATIONSHIP('SRR','None',#669,#12);
#12=ADVANCED_BREP_SHAPE_REPRESENTATION('',(#14),#662);
#13=STYLED_ITEM('',(#679),#14);
#14=MANIFOLD_SOLID_BREP('Body1',#399);
#15=CYLINDRICAL_SURFACE('',#421,0.0155);
#16=CYLINDRICAL_SURFACE('',#426,0.0016);
#17=CYLINDRICAL_SURFACE('',#441,0.00228203125);
#18=CYLINDRICAL_SURFACE('',#442,0.01);
#19=FACE_BOUND('',#57,.T.);
#20=FACE_BOUND('',#60,.T.);
#21=FACE_BOUND('',#65,.T.);
#22=FACE_BOUND('',#74,.T.);
#23=ELLIPSE('',#420,0.00162468257901719,0.0016);
#24=ELLIPSE('',#425,0.00162471964936438,0.0016);
#25=CIRCLE('',#416,0.01);
#26=CIRCLE('',#417,0.0155);
#27=CIRCLE('',#418,0.0155);
#28=CIRCLE('',#422,0.0155);
#29=CIRCLE('',#423,0.0155);
#30=CIRCLE('',#428,0.01);
#31=CIRCLE('',#431,0.00228203125);
#32=CIRCLE('',#440,0.00228203125);
#33=FACE_OUTER_BOUND('',#53,.T.);
#34=FACE_OUTER_BOUND('',#54,.T.);
#35=FACE_OUTER_BOUND('',#55,.T.);
#36=FACE_OUTER_BOUND('',#56,.T.);
#37=FACE_OUTER_BOUND('',#58,.T.);
#38=FACE_OUTER_BOUND('',#59,.T.);
#39=FACE_OUTER_BOUND('',#61,.T.);
#40=FACE_OUTER_BOUND('',#62,.T.);
#41=FACE_OUTER_BOUND('',#63,.T.);
#42=FACE_OUTER_BOUND('',#64,.T.);
#43=FACE_OUTER_BOUND('',#66,.T.);
#44=FACE_OUTER_BOUND('',#67,.T.);
#45=FACE_OUTER_BOUND('',#68,.T.);
#46=FACE_OUTER_BOUND('',#69,.T.);
#47=FACE_OUTER_BOUND('',#70,.T.);
#48=FACE_OUTER_BOUND('',#71,.T.);
#49=FACE_OUTER_BOUND('',#72,.T.);
#50=FACE_OUTER_BOUND('',#73,.T.);
#51=FACE_OUTER_BOUND('',#75,.T.);
#52=FACE_OUTER_BOUND('',#76,.T.);
#53=EDGE_LOOP('',(#255,#256,#257,#258));
#54=EDGE_LOOP('',(#259,#260,#261,#262));
#55=EDGE_LOOP('',(#263,#264,#265,#266,#267,#268,#269,#270,#271,#272,#273,
#274,#275,#276,#277,#278));
#56=EDGE_LOOP('',(#279,#280,#281,#282));
#57=EDGE_LOOP('',(#283));
#58=EDGE_LOOP('',(#284,#285,#286,#287,#288,#289,#290,#291));
#59=EDGE_LOOP('',(#292,#293,#294,#295));
#60=EDGE_LOOP('',(#296));
#61=EDGE_LOOP('',(#297,#298,#299,#300));
#62=EDGE_LOOP('',(#301,#302,#303,#304,#305,#306,#307,#308,#309,#310));
#63=EDGE_LOOP('',(#311,#312,#313,#314));
#64=EDGE_LOOP('',(#315,#316,#317,#318));
#65=EDGE_LOOP('',(#319));
#66=EDGE_LOOP('',(#320,#321,#322,#323,#324,#325));
#67=EDGE_LOOP('',(#326,#327,#328,#329));
#68=EDGE_LOOP('',(#330,#331,#332,#333));
#69=EDGE_LOOP('',(#334,#335,#336,#337));
#70=EDGE_LOOP('',(#338,#339,#340,#341));
#71=EDGE_LOOP('',(#342,#343,#344,#345));
#72=EDGE_LOOP('',(#346,#347,#348,#349));
#73=EDGE_LOOP('',(#350,#351,#352,#353));
#74=EDGE_LOOP('',(#354));
#75=EDGE_LOOP('',(#355,#356,#357,#358));
#76=EDGE_LOOP('',(#359,#360,#361,#362));
#77=LINE('',#553,#121);
#78=LINE('',#555,#122);
#79=LINE('',#557,#123);
#80=LINE('',#558,#124);
#81=LINE('',#561,#125);
#82=LINE('',#563,#126);
#83=LINE('',#564,#127);
#84=LINE('',#567,#128);
#85=LINE('',#571,#129);
#86=LINE('',#573,#130);
#87=LINE('',#575,#131);
#88=LINE('',#577,#132);
#89=LINE('',#581,#133);
#90=LINE('',#583,#134);
#91=LINE('',#585,#135);
#92=LINE('',#587,#136);
#93=LINE('',#589,#137);
#94=LINE('',#592,#138);
#95=LINE('',#595,#139);
#96=LINE('',#596,#140);
#97=LINE('',#601,#141);
#98=LINE('',#603,#142);
#99=LINE('',#606,#143);
#100=LINE('',#608,#144);
#101=LINE('',#611,#145);
#102=LINE('',#615,#146);
#103=LINE('',#618,#147);
#104=LINE('',#620,#148);
#105=LINE('',#622,#149);
#106=LINE('',#624,#150);
#107=LINE('',#627,#151);
#108=LINE('',#628,#152);
#109=LINE('',#630,#153);
#110=LINE('',#636,#154);
#111=LINE('',#637,#155);
#112=LINE('',#639,#156);
#113=LINE('',#641,#157);
#114=LINE('',#642,#158);
#115=LINE('',#644,#159);
#116=LINE('',#646,#160);
#117=LINE('',#648,#161);
#118=LINE('',#650,#162);
#119=LINE('',#653,#163);
#120=LINE('',#658,#164);
#121=VECTOR('',#447,0.01);
#122=VECTOR('',#448,0.01);
#123=VECTOR('',#449,0.01);
#124=VECTOR('',#450,0.01);
#125=VECTOR('',#453,0.01);
#126=VECTOR('',#454,0.01);
#127=VECTOR('',#455,0.01);
#128=VECTOR('',#458,0.01);
#129=VECTOR('',#461,0.01);
#130=VECTOR('',#462,0.01);
#131=VECTOR('',#463,0.01);
#132=VECTOR('',#464,0.01);
#133=VECTOR('',#467,0.01);
#134=VECTOR('',#468,0.01);
#135=VECTOR('',#469,0.01);
#136=VECTOR('',#470,0.01);
#137=VECTOR('',#471,0.01);
#138=VECTOR('',#474,0.01);
#139=VECTOR('',#477,0.01);
#140=VECTOR('',#478,0.01);
#141=VECTOR('',#483,0.01);
#142=VECTOR('',#484,0.01);
#143=VECTOR('',#487,0.01);
#144=VECTOR('',#488,0.01);
#145=VECTOR('',#493,0.01);
#146=VECTOR('',#498,0.0016);
#147=VECTOR('',#501,0.01);
#148=VECTOR('',#502,0.01);
#149=VECTOR('',#503,0.01);
#150=VECTOR('',#504,0.01);
#151=VECTOR('',#509,0.01);
#152=VECTOR('',#510,0.01);
#153=VECTOR('',#513,0.01);
#154=VECTOR('',#518,0.01);
#155=VECTOR('',#519,0.01);
#156=VECTOR('',#520,0.01);
#157=VECTOR('',#521,0.01);
#158=VECTOR('',#522,0.01);
#159=VECTOR('',#525,0.01);
#160=VECTOR('',#528,0.01);
#161=VECTOR('',#531,0.01);
#162=VECTOR('',#534,0.01);
#163=VECTOR('',#539,0.01);
#164=VECTOR('',#546,0.00228203125);
#165=VERTEX_POINT('',#551);
#166=VERTEX_POINT('',#552);
#167=VERTEX_POINT('',#554);
#168=VERTEX_POINT('',#556);
#169=VERTEX_POINT('',#560);
#170=VERTEX_POINT('',#562);
#171=VERTEX_POINT('',#566);
#172=VERTEX_POINT('',#568);
#173=VERTEX_POINT('',#570);
#174=VERTEX_POINT('',#572);
#175=VERTEX_POINT('',#574);
#176=VERTEX_POINT('',#576);
#177=VERTEX_POINT('',#578);
#178=VERTEX_POINT('',#580);
#179=VERTEX_POINT('',#582);
#180=VERTEX_POINT('',#584);
#181=VERTEX_POINT('',#586);
#182=VERTEX_POINT('',#588);
#183=VERTEX_POINT('',#590);
#184=VERTEX_POINT('',#594);
#185=VERTEX_POINT('',#597);
#186=VERTEX_POINT('',#600);
#187=VERTEX_POINT('',#602);
#188=VERTEX_POINT('',#604);
#189=VERTEX_POINT('',#607);
#190=VERTEX_POINT('',#612);
#191=VERTEX_POINT('',#617);
#192=VERTEX_POINT('',#619);
#193=VERTEX_POINT('',#621);
#194=VERTEX_POINT('',#623);
#195=VERTEX_POINT('',#631);
#196=VERTEX_POINT('',#634);
#197=VERTEX_POINT('',#635);
#198=VERTEX_POINT('',#638);
#199=VERTEX_POINT('',#640);
#200=VERTEX_POINT('',#655);
#201=EDGE_CURVE('',#165,#166,#77,.T.);
#202=EDGE_CURVE('',#166,#167,#78,.T.);
#203=EDGE_CURVE('',#167,#168,#79,.T.);
#204=EDGE_CURVE('',#168,#165,#80,.T.);
#205=EDGE_CURVE('',#168,#169,#81,.F.);
#206=EDGE_CURVE('',#170,#169,#82,.F.);
#207=EDGE_CURVE('',#165,#170,#83,.T.);
#208=EDGE_CURVE('',#171,#167,#84,.T.);
#209=EDGE_CURVE('',#172,#171,#25,.T.);
#210=EDGE_CURVE('',#173,#172,#85,.T.);
#211=EDGE_CURVE('',#174,#173,#86,.T.);
#212=EDGE_CURVE('',#175,#174,#87,.T.);
#213=EDGE_CURVE('',#176,#175,#88,.T.);
#214=EDGE_CURVE('',#177,#176,#26,.T.);
#215=EDGE_CURVE('',#178,#177,#89,.T.);
#216=EDGE_CURVE('',#179,#178,#90,.T.);
#217=EDGE_CURVE('',#180,#179,#91,.T.);
#218=EDGE_CURVE('',#181,#180,#92,.T.);
#219=EDGE_CURVE('',#182,#181,#93,.T.);
#220=EDGE_CURVE('',#183,#182,#27,.T.);
#221=EDGE_CURVE('',#183,#169,#94,.F.);
#222=EDGE_CURVE('',#166,#184,#95,.T.);
#223=EDGE_CURVE('',#171,#184,#96,.F.);
#224=EDGE_CURVE('',#185,#185,#23,.F.);
#225=EDGE_CURVE('',#186,#183,#97,.F.);
#226=EDGE_CURVE('',#182,#187,#98,.T.);
#227=EDGE_CURVE('',#187,#188,#28,.T.);
#228=EDGE_CURVE('',#188,#177,#99,.T.);
#229=EDGE_CURVE('',#189,#176,#100,.T.);
#230=EDGE_CURVE('',#189,#186,#29,.T.);
#231=EDGE_CURVE('',#170,#186,#101,.F.);
#232=EDGE_CURVE('',#190,#190,#24,.F.);
#233=EDGE_CURVE('',#190,#185,#102,.T.);
#234=EDGE_CURVE('',#189,#191,#103,.F.);
#235=EDGE_CURVE('',#192,#191,#104,.T.);
#236=EDGE_CURVE('',#193,#192,#105,.T.);
#237=EDGE_CURVE('',#194,#193,#106,.F.);
#238=EDGE_CURVE('',#184,#194,#30,.F.);
#239=EDGE_CURVE('',#192,#174,#107,.T.);
#240=EDGE_CURVE('',#173,#193,#108,.T.);
#241=EDGE_CURVE('',#194,#172,#109,.T.);
#242=EDGE_CURVE('',#195,#195,#31,.F.);
#243=EDGE_CURVE('',#196,#197,#110,.T.);
#244=EDGE_CURVE('',#188,#196,#111,.T.);
#245=EDGE_CURVE('',#198,#187,#112,.T.);
#246=EDGE_CURVE('',#199,#198,#113,.T.);
#247=EDGE_CURVE('',#197,#199,#114,.T.);
#248=EDGE_CURVE('',#178,#196,#115,.T.);
#249=EDGE_CURVE('',#197,#179,#116,.T.);
#250=EDGE_CURVE('',#198,#181,#117,.T.);
#251=EDGE_CURVE('',#180,#199,#118,.T.);
#252=EDGE_CURVE('',#191,#175,#119,.T.);
#253=EDGE_CURVE('',#200,#200,#32,.T.);
#254=EDGE_CURVE('',#195,#200,#120,.T.);
#255=ORIENTED_EDGE('',*,*,#201,.T.);
#256=ORIENTED_EDGE('',*,*,#202,.T.);
#257=ORIENTED_EDGE('',*,*,#203,.T.);
#258=ORIENTED_EDGE('',*,*,#204,.T.);
#259=ORIENTED_EDGE('',*,*,#204,.F.);
#260=ORIENTED_EDGE('',*,*,#205,.T.);
#261=ORIENTED_EDGE('',*,*,#206,.F.);
#262=ORIENTED_EDGE('',*,*,#207,.F.);
#263=ORIENTED_EDGE('',*,*,#203,.F.);
#264=ORIENTED_EDGE('',*,*,#208,.F.);
#265=ORIENTED_EDGE('',*,*,#209,.F.);
#266=ORIENTED_EDGE('',*,*,#210,.F.);
#267=ORIENTED_EDGE('',*,*,#211,.F.);
#268=ORIENTED_EDGE('',*,*,#212,.F.);
#269=ORIENTED_EDGE('',*,*,#213,.F.);
#270=ORIENTED_EDGE('',*,*,#214,.F.);
#271=ORIENTED_EDGE('',*,*,#215,.F.);
#272=ORIENTED_EDGE('',*,*,#216,.F.);
#273=ORIENTED_EDGE('',*,*,#217,.F.);
#274=ORIENTED_EDGE('',*,*,#218,.F.);
#275=ORIENTED_EDGE('',*,*,#219,.F.);
#276=ORIENTED_EDGE('',*,*,#220,.F.);
#277=ORIENTED_EDGE('',*,*,#221,.T.);
#278=ORIENTED_EDGE('',*,*,#205,.F.);
#279=ORIENTED_EDGE('',*,*,#202,.F.);
#280=ORIENTED_EDGE('',*,*,#222,.T.);
#281=ORIENTED_EDGE('',*,*,#223,.F.);
#282=ORIENTED_EDGE('',*,*,#208,.T.);
#283=ORIENTED_EDGE('',*,*,#224,.F.);
#284=ORIENTED_EDGE('',*,*,#225,.T.);
#285=ORIENTED_EDGE('',*,*,#220,.T.);
#286=ORIENTED_EDGE('',*,*,#226,.T.);
#287=ORIENTED_EDGE('',*,*,#227,.T.);
#288=ORIENTED_EDGE('',*,*,#228,.T.);
#289=ORIENTED_EDGE('',*,*,#214,.T.);
#290=ORIENTED_EDGE('',*,*,#229,.F.);
#291=ORIENTED_EDGE('',*,*,#230,.T.);
#292=ORIENTED_EDGE('',*,*,#225,.F.);
#293=ORIENTED_EDGE('',*,*,#231,.F.);
#294=ORIENTED_EDGE('',*,*,#206,.T.);
#295=ORIENTED_EDGE('',*,*,#221,.F.);
#296=ORIENTED_EDGE('',*,*,#232,.F.);
#297=ORIENTED_EDGE('',*,*,#232,.T.);
#298=ORIENTED_EDGE('',*,*,#233,.T.);
#299=ORIENTED_EDGE('',*,*,#224,.T.);
#300=ORIENTED_EDGE('',*,*,#233,.F.);
#301=ORIENTED_EDGE('',*,*,#201,.F.);
#302=ORIENTED_EDGE('',*,*,#207,.T.);
#303=ORIENTED_EDGE('',*,*,#231,.T.);
#304=ORIENTED_EDGE('',*,*,#230,.F.);
#305=ORIENTED_EDGE('',*,*,#234,.T.);
#306=ORIENTED_EDGE('',*,*,#235,.F.);
#307=ORIENTED_EDGE('',*,*,#236,.F.);
#308=ORIENTED_EDGE('',*,*,#237,.F.);
#309=ORIENTED_EDGE('',*,*,#238,.F.);
#310=ORIENTED_EDGE('',*,*,#222,.F.);
#311=ORIENTED_EDGE('',*,*,#236,.T.);
#312=ORIENTED_EDGE('',*,*,#239,.T.);
#313=ORIENTED_EDGE('',*,*,#211,.T.);
#314=ORIENTED_EDGE('',*,*,#240,.T.);
#315=ORIENTED_EDGE('',*,*,#240,.F.);
#316=ORIENTED_EDGE('',*,*,#210,.T.);
#317=ORIENTED_EDGE('',*,*,#241,.F.);
#318=ORIENTED_EDGE('',*,*,#237,.T.);
#319=ORIENTED_EDGE('',*,*,#242,.F.);
#320=ORIENTED_EDGE('',*,*,#243,.F.);
#321=ORIENTED_EDGE('',*,*,#244,.F.);
#322=ORIENTED_EDGE('',*,*,#227,.F.);
#323=ORIENTED_EDGE('',*,*,#245,.F.);
#324=ORIENTED_EDGE('',*,*,#246,.F.);
#325=ORIENTED_EDGE('',*,*,#247,.F.);
#326=ORIENTED_EDGE('',*,*,#244,.T.);
#327=ORIENTED_EDGE('',*,*,#248,.F.);
#328=ORIENTED_EDGE('',*,*,#215,.T.);
#329=ORIENTED_EDGE('',*,*,#228,.F.);
#330=ORIENTED_EDGE('',*,*,#243,.T.);
#331=ORIENTED_EDGE('',*,*,#249,.T.);
#332=ORIENTED_EDGE('',*,*,#216,.T.);
#333=ORIENTED_EDGE('',*,*,#248,.T.);
#334=ORIENTED_EDGE('',*,*,#245,.T.);
#335=ORIENTED_EDGE('',*,*,#226,.F.);
#336=ORIENTED_EDGE('',*,*,#219,.T.);
#337=ORIENTED_EDGE('',*,*,#250,.F.);
#338=ORIENTED_EDGE('',*,*,#246,.T.);
#339=ORIENTED_EDGE('',*,*,#250,.T.);
#340=ORIENTED_EDGE('',*,*,#218,.T.);
#341=ORIENTED_EDGE('',*,*,#251,.T.);
#342=ORIENTED_EDGE('',*,*,#247,.T.);
#343=ORIENTED_EDGE('',*,*,#251,.F.);
#344=ORIENTED_EDGE('',*,*,#217,.T.);
#345=ORIENTED_EDGE('',*,*,#249,.F.);
#346=ORIENTED_EDGE('',*,*,#239,.F.);
#347=ORIENTED_EDGE('',*,*,#235,.T.);
#348=ORIENTED_EDGE('',*,*,#252,.T.);
#349=ORIENTED_EDGE('',*,*,#212,.T.);
#350=ORIENTED_EDGE('',*,*,#213,.T.);
#351=ORIENTED_EDGE('',*,*,#252,.F.);
#352=ORIENTED_EDGE('',*,*,#234,.F.);
#353=ORIENTED_EDGE('',*,*,#229,.T.);
#354=ORIENTED_EDGE('',*,*,#253,.T.);
#355=ORIENTED_EDGE('',*,*,#242,.T.);
#356=ORIENTED_EDGE('',*,*,#254,.T.);
#357=ORIENTED_EDGE('',*,*,#253,.F.);
#358=ORIENTED_EDGE('',*,*,#254,.F.);
#359=ORIENTED_EDGE('',*,*,#209,.T.);
#360=ORIENTED_EDGE('',*,*,#223,.T.);
#361=ORIENTED_EDGE('',*,*,#238,.T.);
#362=ORIENTED_EDGE('',*,*,#241,.T.);
#363=PLANE('',#413);
#364=PLANE('',#414);
#365=PLANE('',#415);
#366=PLANE('',#419);
#367=PLANE('',#424);
#368=PLANE('',#427);
#369=PLANE('',#429);
#370=PLANE('',#430);
#371=PLANE('',#432);
#372=PLANE('',#433);
#373=PLANE('',#434);
#374=PLANE('',#435);
#375=PLANE('',#436);
#376=PLANE('',#437);
#377=PLANE('',#438);
#378=PLANE('',#439);
#379=ADVANCED_FACE('',(#33),#363,.T.);
#380=ADVANCED_FACE('',(#34),#364,.T.);
#381=ADVANCED_FACE('',(#35),#365,.F.);
#382=ADVANCED_FACE('',(#36,#19),#366,.F.);
#383=ADVANCED_FACE('',(#37),#15,.T.);
#384=ADVANCED_FACE('',(#38,#20),#367,.F.);
#385=ADVANCED_FACE('',(#39),#16,.F.);
#386=ADVANCED_FACE('',(#40),#368,.F.);
#387=ADVANCED_FACE('',(#41),#369,.T.);
#388=ADVANCED_FACE('',(#42,#21),#370,.F.);
#389=ADVANCED_FACE('',(#43),#371,.F.);
#390=ADVANCED_FACE('',(#44),#372,.T.);
#391=ADVANCED_FACE('',(#45),#373,.T.);
#392=ADVANCED_FACE('',(#46),#374,.T.);
#393=ADVANCED_FACE('',(#47),#375,.T.);
#394=ADVANCED_FACE('',(#48),#376,.T.);
#395=ADVANCED_FACE('',(#49),#377,.T.);
#396=ADVANCED_FACE('',(#50,#22),#378,.F.);
#397=ADVANCED_FACE('',(#51),#17,.F.);
#398=ADVANCED_FACE('',(#52),#18,.F.);
#399=CLOSED_SHELL('',(#379,#380,#381,#382,#383,#384,#385,#386,#387,#388,
#389,#390,#391,#392,#393,#394,#395,#396,#397,#398));
#400=DERIVED_UNIT_ELEMENT(#402,1.);
#401=DERIVED_UNIT_ELEMENT(#664,-3.);
#402=(
MASS_UNIT()
NAMED_UNIT(*)
SI_UNIT(.KILO.,.GRAM.)
);
#403=DERIVED_UNIT((#400,#401));
#404=MEASURE_REPRESENTATION_ITEM('density measure',
POSITIVE_RATIO_MEASURE(7850.),#403);
#405=PROPERTY_DEFINITION_REPRESENTATION(#410,#407);
#406=PROPERTY_DEFINITION_REPRESENTATION(#411,#408);
#407=REPRESENTATION('material name',(#409),#662);
#408=REPRESENTATION('density',(#404),#662);
#409=DESCRIPTIVE_REPRESENTATION_ITEM('Steel','Steel');
#410=PROPERTY_DEFINITION('material property','material name',#671);
#411=PROPERTY_DEFINITION('material property','density of part',#671);
#412=AXIS2_PLACEMENT_3D('',#549,#443,#444);
#413=AXIS2_PLACEMENT_3D('',#550,#445,#446);
#414=AXIS2_PLACEMENT_3D('',#559,#451,#452);
#415=AXIS2_PLACEMENT_3D('',#565,#456,#457);
#416=AXIS2_PLACEMENT_3D('',#569,#459,#460);
#417=AXIS2_PLACEMENT_3D('',#579,#465,#466);
#418=AXIS2_PLACEMENT_3D('',#591,#472,#473);
#419=AXIS2_PLACEMENT_3D('',#593,#475,#476);
#420=AXIS2_PLACEMENT_3D('',#598,#479,#480);
#421=AXIS2_PLACEMENT_3D('',#599,#481,#482);
#422=AXIS2_PLACEMENT_3D('',#605,#485,#486);
#423=AXIS2_PLACEMENT_3D('',#609,#489,#490);
#424=AXIS2_PLACEMENT_3D('',#610,#491,#492);
#425=AXIS2_PLACEMENT_3D('',#613,#494,#495);
#426=AXIS2_PLACEMENT_3D('',#614,#496,#497);
#427=AXIS2_PLACEMENT_3D('',#616,#499,#500);
#428=AXIS2_PLACEMENT_3D('',#625,#505,#506);
#429=AXIS2_PLACEMENT_3D('',#626,#507,#508);
#430=AXIS2_PLACEMENT_3D('',#629,#511,#512);
#431=AXIS2_PLACEMENT_3D('',#632,#514,#515);
#432=AXIS2_PLACEMENT_3D('',#633,#516,#517);
#433=AXIS2_PLACEMENT_3D('',#643,#523,#524);
#434=AXIS2_PLACEMENT_3D('',#645,#526,#527);
#435=AXIS2_PLACEMENT_3D('',#647,#529,#530);
#436=AXIS2_PLACEMENT_3D('',#649,#532,#533);
#437=AXIS2_PLACEMENT_3D('',#651,#535,#536);
#438=AXIS2_PLACEMENT_3D('',#652,#537,#538);
#439=AXIS2_PLACEMENT_3D('',#654,#540,#541);
#440=AXIS2_PLACEMENT_3D('',#656,#542,#543);
#441=AXIS2_PLACEMENT_3D('',#657,#544,#545);
#442=AXIS2_PLACEMENT_3D('',#659,#547,#548);
#443=DIRECTION('axis',(0.,0.,1.));
#444=DIRECTION('refdir',(1.,0.,0.));
#445=DIRECTION('center_axis',(-0.642787609686539,0.,0.766044443118978));
#446=DIRECTION('ref_axis',(0.766044443118978,0.,0.642787609686539));
#447=DIRECTION('',(-0.766044443118978,0.,-0.642787609686539));
#448=DIRECTION('',(0.,-1.,0.));
#449=DIRECTION('',(0.766044443118978,0.,0.642787609686539));
#450=DIRECTION('',(0.,1.,0.));
#451=DIRECTION('center_axis',(0.,0.,1.));
#452=DIRECTION('ref_axis',(1.,0.,0.));
#453=DIRECTION('',(-1.,0.,0.));
#454=DIRECTION('',(-1.22912823762549E-16,1.,0.));
#455=DIRECTION('',(1.,0.,0.));
#456=DIRECTION('center_axis',(0.,1.,0.));
#457=DIRECTION('ref_axis',(0.,0.,1.));
#458=DIRECTION('',(0.17364817766693,0.,0.984807753012208));
#459=DIRECTION('center_axis',(0.,-1.,0.));
#460=DIRECTION('ref_axis',(0.,0.,-1.));
#461=DIRECTION('',(0.,0.,-1.));
#462=DIRECTION('',(0.707106781186547,0.,-0.707106781186548));
#463=DIRECTION('',(1.,0.,0.));
#464=DIRECTION('',(0.,0.,1.));
#465=DIRECTION('center_axis',(0.,1.,0.));
#466=DIRECTION('ref_axis',(0.,0.,-1.));
#467=DIRECTION('',(0.,0.,1.));
#468=DIRECTION('',(-0.707106781186548,0.,0.707106781186547));
#469=DIRECTION('',(-1.,0.,0.));
#470=DIRECTION('',(-0.707106781186548,0.,-0.707106781186547));
#471=DIRECTION('',(0.,0.,-1.));
#472=DIRECTION('center_axis',(0.,1.,0.));
#473=DIRECTION('ref_axis',(0.,0.,-1.));
#474=DIRECTION('',(-0.173775562196821,0.,-0.984785283187751));
#475=DIRECTION('center_axis',(0.984807753012208,0.,-0.17364817766693));
#476=DIRECTION('ref_axis',(-0.17364817766693,0.,-0.984807753012208));
#477=DIRECTION('',(-0.17364817766693,0.,-0.984807753012208));
#478=DIRECTION('',(0.,-1.,0.));
#479=DIRECTION('center_axis',(0.984807753012208,0.,-0.17364817766693));
#480=DIRECTION('ref_axis',(0.17364817766693,-3.33493560285361E-17,0.984807753012208));
#481=DIRECTION('center_axis',(0.,-1.,0.));
#482=DIRECTION('ref_axis',(0.,0.,-1.));
#483=DIRECTION('',(0.,1.,0.));
#484=DIRECTION('',(0.,1.,0.));
#485=DIRECTION('center_axis',(0.,1.,0.));
#486=DIRECTION('ref_axis',(0.,0.,-1.));
#487=DIRECTION('',(0.,-1.,0.));
#488=DIRECTION('',(0.,-1.,0.));
#489=DIRECTION('center_axis',(0.,-1.,0.));
#490=DIRECTION('ref_axis',(0.,0.,-1.));
#491=DIRECTION('center_axis',(-0.984785283187751,-1.21042739956408E-16,
0.173775562196821));
#492=DIRECTION('ref_axis',(1.22912823762549E-16,-1.,0.));
#493=DIRECTION('',(0.173775562196821,0.,0.984785283187751));
#494=DIRECTION('center_axis',(-0.984785283187751,-1.21042739956408E-16,
0.173775562196821));
#495=DIRECTION('ref_axis',(0.173775562196821,-3.3373820391462E-17,0.984785283187751));
#496=DIRECTION('center_axis',(-1.,1.92051287128982E-16,0.));
#497=DIRECTION('ref_axis',(-1.92051287128982E-16,-1.,0.));
#498=DIRECTION('',(-1.,1.92051287128982E-16,0.));
#499=DIRECTION('center_axis',(0.,-1.,0.));
#500=DIRECTION('ref_axis',(0.,0.,-1.));
#501=DIRECTION('',(0.,0.,-1.));
#502=DIRECTION('',(-1.,0.,0.));
#503=DIRECTION('',(-0.707106781186547,0.,0.707106781186548));
#504=DIRECTION('',(0.,0.,-1.));
#505=DIRECTION('center_axis',(0.,-1.,0.));
#506=DIRECTION('ref_axis',(0.,0.,-1.));
#507=DIRECTION('center_axis',(0.707106781186548,0.,0.707106781186547));
#508=DIRECTION('ref_axis',(0.707106781186547,0.,-0.707106781186548));
#509=DIRECTION('',(0.,-1.,0.));
#510=DIRECTION('',(0.,1.,0.));
#511=DIRECTION('center_axis',(-1.,0.,0.));
#512=DIRECTION('ref_axis',(0.,0.,1.));
#513=DIRECTION('',(0.,-1.,0.));
#514=DIRECTION('center_axis',(-1.,0.,0.));
#515=DIRECTION('ref_axis',(-1.92051287128982E-16,-1.,-2.36721487833483E-48));
#516=DIRECTION('center_axis',(0.,-1.,0.));
#517=DIRECTION('ref_axis',(1.,0.,0.));
#518=DIRECTION('',(0.707106781186548,0.,-0.707106781186547));
#519=DIRECTION('',(0.,0.,-1.));
#520=DIRECTION('',(0.,0.,1.));
#521=DIRECTION('',(0.707106781186548,0.,0.707106781186547));
#522=DIRECTION('',(1.,0.,0.));
#523=DIRECTION('center_axis',(-1.,0.,0.));
#524=DIRECTION('ref_axis',(0.,0.,1.));
#525=DIRECTION('',(0.,1.,0.));
#526=DIRECTION('center_axis',(-0.707106781186547,0.,-0.707106781186548));
#527=DIRECTION('ref_axis',(-0.707106781186548,0.,0.707106781186547));
#528=DIRECTION('',(0.,-1.,0.));
#529=DIRECTION('center_axis',(1.,0.,0.));
#530=DIRECTION('ref_axis',(0.,0.,-1.));
#531=DIRECTION('',(0.,-1.,0.));
#532=DIRECTION('center_axis',(0.707106781186547,0.,-0.707106781186548));
#533=DIRECTION('ref_axis',(-0.707106781186548,0.,-0.707106781186547));
#534=DIRECTION('',(0.,1.,0.));
#535=DIRECTION('center_axis',(0.,0.,-1.));
#536=DIRECTION('ref_axis',(-1.,0.,0.));
#537=DIRECTION('center_axis',(0.,0.,1.));
#538=DIRECTION('ref_axis',(1.,0.,0.));
#539=DIRECTION('',(-1.92051287128982E-16,-1.,0.));
#540=DIRECTION('center_axis',(1.,-1.92051287128982E-16,0.));
#541=DIRECTION('ref_axis',(1.92051287128982E-16,1.,0.));
#542=DIRECTION('center_axis',(1.,-1.92051287128982E-16,0.));
#543=DIRECTION('ref_axis',(-1.92051287128982E-16,-1.,-2.36721487833483E-48));
#544=DIRECTION('center_axis',(-1.,1.92051287128982E-16,-1.23259516440783E-32));
#545=DIRECTION('ref_axis',(-1.92051287128982E-16,-1.,-2.36721487833483E-48));
#546=DIRECTION('',(-1.,1.92051287128982E-16,-1.23259516440783E-32));
#547=DIRECTION('center_axis',(0.,-1.,0.));
#548=DIRECTION('ref_axis',(0.,0.,-1.));
#549=CARTESIAN_POINT('',(0.,0.,0.));
#550=CARTESIAN_POINT('Origin',(0.00532451358548462,0.0115844007965865,0.0229819506844607));
#551=CARTESIAN_POINT('',(0.00649816176315155,0.0227014069035022,0.0239667584374729));
#552=CARTESIAN_POINT('',(0.00415086540781769,0.0227014069035022,0.0219971429314485));
#553=CARTESIAN_POINT('',(-0.00308209998774587,0.0227014069035022,0.0159279643357131));
#554=CARTESIAN_POINT('',(0.00415086540781769,0.013668801593173,0.0219971429314485));
#555=CARTESIAN_POINT('',(0.00415086540781769,0.0115844007965865,0.0219971429314485));
#556=CARTESIAN_POINT('',(0.00649816176315155,0.013668801593173,0.0239667584374729));
#557=CARTESIAN_POINT('',(-0.00308209998774587,0.013668801593173,0.0159279643357131));
#558=CARTESIAN_POINT('',(0.00649816176315155,0.0115844007965865,0.0239667584374729));
#559=CARTESIAN_POINT('Origin',(0.,0.,0.0239667584374729));
#560=CARTESIAN_POINT('',(0.0104398144814993,0.013668801593173,0.0239667584374729));
#561=CARTESIAN_POINT('',(0.0075,0.013668801593173,0.0239667584374729));
#562=CARTESIAN_POINT('',(0.0104398144814993,0.0227014069035022,0.0239667584374729));
#563=CARTESIAN_POINT('',(0.0104398144814993,0.00900000013411045,0.0239667584374729));
#564=CARTESIAN_POINT('',(0.0075,0.0227014069035022,0.0239667584374729));
#565=CARTESIAN_POINT('Origin',(0.015,0.013668801593173,-0.0226940415625271));
#566=CARTESIAN_POINT('',(0.0019998263816793,0.013668801593173,0.00979799440922169));
#567=CARTESIAN_POINT('',(-0.000703092324261544,0.013668801593173,-0.00553101930768527));
#568=CARTESIAN_POINT('',(-0.00249816176315155,0.013668801593173,0.00968293281011118));
#569=CARTESIAN_POINT('Origin',(0.,0.013668801593173,0.));
#570=CARTESIAN_POINT('',(-0.00249816176315155,0.013668801593173,0.0229667584374729));
#571=CARTESIAN_POINT('',(-0.00249816176315155,0.013668801593173,-0.00725232381156658));
#572=CARTESIAN_POINT('',(-0.00449816176315155,0.013668801593173,0.0249667584374729));
#573=CARTESIAN_POINT('',(0.0127915786776363,0.013668801593173,0.007677017996685));
#574=CARTESIAN_POINT('',(-0.00851977107559714,0.013668801593173,0.0249667584374729));
#575=CARTESIAN_POINT('',(0.0075,0.013668801593173,0.0249667584374729));
#576=CARTESIAN_POINT('',(-0.00851977107559545,0.013668801593173,0.0129484941525856));
#577=CARTESIAN_POINT('',(-0.00851977107559714,0.013668801593173,-0.0226945415625271));
#578=CARTESIAN_POINT('',(-0.00600000010430799,0.013668801593173,-0.0142916058841656));
#579=CARTESIAN_POINT('Origin',(0.,0.013668801593173,0.));
#580=CARTESIAN_POINT('',(-0.00600000010430813,0.013668801593173,-0.0150000002980232));
#581=CARTESIAN_POINT('',(-0.00600000010430813,0.013668801593173,-0.0213470209302752));
#582=CARTESIAN_POINT('',(-0.00400000010430813,0.013668801593173,-0.0170000002980232));
#583=CARTESIAN_POINT('',(0.00167351023789488,0.013668801593173,-0.0226735106402262));
#584=CARTESIAN_POINT('',(0.00390491390909741,0.013668801593173,-0.0170000002980232));
#585=CARTESIAN_POINT('',(0.0109524569545487,0.013668801593173,-0.0170000002980232));
#586=CARTESIAN_POINT('',(0.00590491390909741,0.013668801593173,-0.0150000002980232));
#587=CARTESIAN_POINT('',(0.00575517511569708,0.013668801593173,-0.0151497390914235));
#588=CARTESIAN_POINT('',(0.00590491390909728,0.013668801593173,-0.0143311545845462));
#589=CARTESIAN_POINT('',(0.00590491390909741,0.013668801593173,-0.0196584912273993));
#590=CARTESIAN_POINT('',(0.00849804550904876,0.013668801593173,0.0129627629202318));
#591=CARTESIAN_POINT('Origin',(0.,0.013668801593173,0.));
#592=CARTESIAN_POINT('',(0.0061002092614963,0.013668801593173,-0.000625763672530994));
#593=CARTESIAN_POINT('Origin',(0.00175845116967321,0.023168801593173,0.00842908755766517));
#594=CARTESIAN_POINT('',(0.0019998263816793,0.0227014069035022,0.00979799440922169));
#595=CARTESIAN_POINT('',(-0.000703092324261544,0.0227014069035022,-0.00553101930768527));
#596=CARTESIAN_POINT('',(0.0019998263816793,0.03688,0.00979799440922169));
#597=CARTESIAN_POINT('',(0.00360561922429886,0.0196474445434006,0.0189048981636422));
#598=CARTESIAN_POINT('Origin',(0.00360561922429886,0.0180474445434006,0.0189048981636422));
#599=CARTESIAN_POINT('Origin',(0.,0.03688,0.));
#600=CARTESIAN_POINT('',(0.00849804550904876,0.0227014069035022,0.0129627629202318));
#601=CARTESIAN_POINT('',(0.00849804550904876,0.03688,0.0129627629202318));
#602=CARTESIAN_POINT('',(0.00590491390909728,0.022668801593173,-0.0143311545845462));
#603=CARTESIAN_POINT('',(0.00590491390909741,0.03688,-0.0143311545845458));
#604=CARTESIAN_POINT('',(-0.00600000010430799,0.022668801593173,-0.0142916058841656));
#605=CARTESIAN_POINT('Origin',(0.,0.022668801593173,0.));
#606=CARTESIAN_POINT('',(-0.00600000010430813,0.03688,-0.0142916058841651));
#607=CARTESIAN_POINT('',(-0.00851977107559544,0.0227014069035022,0.0129484941525856));
#608=CARTESIAN_POINT('',(-0.00851977107559714,0.03688,0.0129484941525808));
#609=CARTESIAN_POINT('Origin',(0.,0.0227014069035022,0.));
#610=CARTESIAN_POINT('Origin',(0.00960803392392206,0.0180000002682209,0.0192530619798778));
#611=CARTESIAN_POINT('',(0.0061002092614963,0.0227014069035022,-0.000625763672530994));
#612=CARTESIAN_POINT('',(0.0095465968127712,0.0196474445434006,0.0189048981636422));
#613=CARTESIAN_POINT('Origin',(0.0095465968127712,0.0180474445434006,0.0189048981636422));
#614=CARTESIAN_POINT('Origin',(0.015,0.0180474445434006,0.0189048981636422));
#615=CARTESIAN_POINT('',(0.015,0.0196474445434006,0.0189048981636422));
#616=CARTESIAN_POINT('Origin',(0.015,0.0227014069035022,-0.0226940415625271));
#617=CARTESIAN_POINT('',(-0.00851977107559714,0.0227014069035022,0.0249667584374729));
#618=CARTESIAN_POINT('',(-0.00851977107559714,0.0227014069035022,-0.0226945415625271));
#619=CARTESIAN_POINT('',(-0.00449816176315155,0.0227014069035022,0.0249667584374729));
#620=CARTESIAN_POINT('',(0.0075,0.0227014069035022,0.0249667584374729));
#621=CARTESIAN_POINT('',(-0.00249816176315155,0.0227014069035022,0.0229667584374729));
#622=CARTESIAN_POINT('',(0.0127915786776363,0.0227014069035022,0.007677017996685));
#623=CARTESIAN_POINT('',(-0.00249816176315155,0.0227014069035022,0.00968293281011118));
#624=CARTESIAN_POINT('',(-0.00249816176315155,0.0227014069035022,-0.00725232381156658));
#625=CARTESIAN_POINT('Origin',(0.,0.0227014069035022,0.));
#626=CARTESIAN_POINT('Origin',(-0.00349816176315155,0.0115844007965865,
0.0239667584374729));
#627=CARTESIAN_POINT('',(-0.00449816176315155,0.0115844007965865,0.0249667584374729));
#628=CARTESIAN_POINT('',(-0.00249816176315155,0.0115844007965865,0.0229667584374729));
#629=CARTESIAN_POINT('Origin',(-0.00249816176315155,0.023168801593173,0.00818939393939394));
#630=CARTESIAN_POINT('',(-0.00249816176315155,0.03688,0.00968293281011118));
#631=CARTESIAN_POINT('',(-0.00249816176315155,0.020409378316696,0.0188697476515725));
#632=CARTESIAN_POINT('Origin',(-0.00249816176315155,0.018127347066696,0.0188697476515725));
#633=CARTESIAN_POINT('Origin',(0.,0.022668801593173,0.00148337906972484));
#634=CARTESIAN_POINT('',(-0.00600000010430813,0.022668801593173,-0.0150000002980232));
#635=CARTESIAN_POINT('',(-0.00400000010430813,0.022668801593173,-0.0170000002980232));
#636=CARTESIAN_POINT('',(-0.00812084492016811,0.022668801593173,-0.0128791554821632));
#637=CARTESIAN_POINT('',(-0.00600000010430813,0.022668801593173,-0.00925831061414918));
#638=CARTESIAN_POINT('',(0.00590491390909741,0.022668801593173,-0.0150000002980232));
#639=CARTESIAN_POINT('',(0.00590491390909741,0.022668801593173,-0.00756978091127333));
#640=CARTESIAN_POINT('',(0.00390491390909741,0.022668801593173,-0.0170000002980232));
#641=CARTESIAN_POINT('',(0.00804953027376007,0.022668801593173,-0.0128553839333605));
#642=CARTESIAN_POINT('',(0.0034524569545487,0.022668801593173,-0.0170000002980232));
#643=CARTESIAN_POINT('Origin',(-0.00600000010430813,0.012168801593173,-0.0200000002980232));
#644=CARTESIAN_POINT('',(-0.00600000010430813,0.012168801593173,-0.0150000002980232));
#645=CARTESIAN_POINT('Origin',(-0.00500000010430813,0.012168801593173,-0.0160000002980232));
#646=CARTESIAN_POINT('',(-0.00400000010430813,0.012168801593173,-0.0170000002980232));
#647=CARTESIAN_POINT('Origin',(0.00590491390909741,0.012168801593173,-0.0166229408922715));
#648=CARTESIAN_POINT('',(0.00590491390909741,0.012168801593173,-0.0150000002980232));
#649=CARTESIAN_POINT('Origin',(0.00490491390909741,0.012168801593173,-0.0160000002980232));
#650=CARTESIAN_POINT('',(0.00390491390909741,0.012168801593173,-0.0170000002980232));
#651=CARTESIAN_POINT('Origin',(0.00690491390909741,0.012168801593173,-0.0170000002980232));
#652=CARTESIAN_POINT('Origin',(0.,0.,0.0249667584374729));
#653=CARTESIAN_POINT('',(-0.00851977107559714,0.0111007034517511,0.0249667584374729));
#654=CARTESIAN_POINT('Origin',(-0.00851977107559714,0.0222014069035022,
-0.0226950415625271));
#655=CARTESIAN_POINT('',(-0.00851977107559714,0.020409378316696,0.0188697476515725));
#656=CARTESIAN_POINT('Origin',(-0.00851977107559714,0.018127347066696,0.0188697476515725));
#657=CARTESIAN_POINT('Origin',(0.0054563973238669,0.018127347066696,0.0188697476515725));
#658=CARTESIAN_POINT('',(0.0054563973238669,0.020409378316696,0.0188697476515725));
#659=CARTESIAN_POINT('Origin',(0.,0.03688,0.));
#660=UNCERTAINTY_MEASURE_WITH_UNIT(LENGTH_MEASURE(1.E-5),#664,
'DISTANCE_ACCURACY_VALUE',
'Maximum model space distance between geometric entities at asserted c
onnectivities');
#661=UNCERTAINTY_MEASURE_WITH_UNIT(LENGTH_MEASURE(1.E-5),#664,
'DISTANCE_ACCURACY_VALUE',
'Maximum model space distance between geometric entities at asserted c
onnectivities');
#662=(
GEOMETRIC_REPRESENTATION_CONTEXT(3)
GLOBAL_UNCERTAINTY_ASSIGNED_CONTEXT((#660))
GLOBAL_UNIT_ASSIGNED_CONTEXT((#664,#665,#666))
REPRESENTATION_CONTEXT('','3D')
);
#663=(
GEOMETRIC_REPRESENTATION_CONTEXT(3)
GLOBAL_UNCERTAINTY_ASSIGNED_CONTEXT((#661))
GLOBAL_UNIT_ASSIGNED_CONTEXT((#664,#665,#666))
REPRESENTATION_CONTEXT('','3D')
);
#664=(
LENGTH_UNIT()
NAMED_UNIT(*)
SI_UNIT($,.METRE.)
);
#665=(
NAMED_UNIT(*)
PLANE_ANGLE_UNIT()
SI_UNIT($,.RADIAN.)
);
#666=(
NAMED_UNIT(*)
SI_UNIT($,.STERADIAN.)
SOLID_ANGLE_UNIT()
);
#667=SHAPE_DEFINITION_REPRESENTATION(#668,#669);
#668=PRODUCT_DEFINITION_SHAPE('',$,#671);
#669=SHAPE_REPRESENTATION('',(#412),#662);
#670=PRODUCT_DEFINITION_CONTEXT('part definition',#675,'design');
#671=PRODUCT_DEFINITION('Teflon Tube Spout Clamp',
'Spout Vac Tube to Teflon Clamp v2',#672,#670);
#672=PRODUCT_DEFINITION_FORMATION('',$,#677);
#673=PRODUCT_RELATED_PRODUCT_CATEGORY(
'Spout Vac Tube to Teflon Clamp v2','Spout Vac Tube to Teflon Clamp v2',
(#677));
#674=APPLICATION_PROTOCOL_DEFINITION('international standard',
'automotive_design',2009,#675);
#675=APPLICATION_CONTEXT(
'Core Data for Automotive Mechanical Design Process');
#676=PRODUCT_CONTEXT('part definition',#675,'mechanical');
#677=PRODUCT('Teflon Tube Spout Clamp',
'Spout Vac Tube to Teflon Clamp v2','STEP AP214',(#676));
#678=PRESENTATION_STYLE_ASSIGNMENT((#680));
#679=PRESENTATION_STYLE_ASSIGNMENT((#681));
#680=SURFACE_STYLE_USAGE(.BOTH.,#682);
#681=SURFACE_STYLE_USAGE(.BOTH.,#683);
#682=SURFACE_SIDE_STYLE('',(#684));
#683=SURFACE_SIDE_STYLE('',(#685));
#684=SURFACE_STYLE_FILL_AREA(#686);
#685=SURFACE_STYLE_FILL_AREA(#687);
#686=FILL_AREA_STYLE('Steel - Satin',(#688));
#687=FILL_AREA_STYLE('Opaque(202,209,238)',(#689));
#688=FILL_AREA_STYLE_COLOUR('Steel - Satin',#690);
#689=FILL_AREA_STYLE_COLOUR('Opaque(202,209,238)',#691);
#690=COLOUR_RGB('Steel - Satin',0.627450980392157,0.627450980392157,0.627450980392157);
#691=COLOUR_RGB('Opaque(202,209,238)',0.792156862745098,0.819607843137255,
0.933333333333333);
ENDSEC;
END-ISO-10303-21;
