ISO-10303-21;
HEADER;
/* Generated by software containing ST-Developer
 * from STEP Tools, Inc. (www.steptools.com) 
 */

FILE_DESCRIPTION(
/* description */ ('STEP AP214'),
/* implementation_level */ '2;1');

FILE_NAME(
/* name */ 'Clamp to Base Bracket v3 - TVD edit1.step',
/* time_stamp */ '2026-01-19T12:29:29-05:00',
/* author */ (''),
/* organization */ (''),
/* preprocessor_version */ 'ST-DEVELOPER v20.1',
/* originating_system */ 'Autodesk Translation Framework v14.21.0.0',
/* authorisation */ '');

FILE_SCHEMA (('AUTOMOTIVE_DESIGN { 1 0 10303 214 3 1 1 }'));
ENDSEC;

DATA;
#10=MECHANICAL_DESIGN_GEOMETRIC_PRESENTATION_REPRESENTATION('',(#13),#537);
#11=SHAPE_REPRESENTATION_RELATIONSHIP('SRR','None',#544,#12);
#12=ADVANCED_BREP_SHAPE_REPRESENTATION('',(#14),#536);
#13=STYLED_ITEM('',(#554),#14);
#14=MANIFOLD_SOLID_BREP('Body1',#325);
#15=CYLINDRICAL_SURFACE('',#359,1.60000000000005);
#16=CYLINDRICAL_SURFACE('',#360,1.60000000000005);
#17=CYLINDRICAL_SURFACE('',#361,1.60000000000005);
#18=CYLINDRICAL_SURFACE('',#362,1.60000000000005);
#19=FACE_BOUND('',#54,.T.);
#20=FACE_BOUND('',#55,.T.);
#21=FACE_BOUND('',#56,.T.);
#22=FACE_BOUND('',#57,.T.);
#23=FACE_BOUND('',#64,.T.);
#24=FACE_BOUND('',#65,.T.);
#25=FACE_BOUND('',#69,.T.);
#26=FACE_BOUND('',#70,.T.);
#27=CIRCLE('',#342,1.60000000000005);
#28=CIRCLE('',#343,1.60000000000005);
#29=CIRCLE('',#344,1.60000000000005);
#30=CIRCLE('',#345,1.60000000000005);
#31=CIRCLE('',#352,1.60000000000005);
#32=CIRCLE('',#353,1.60000000000005);
#33=CIRCLE('',#357,1.60000000000005);
#34=CIRCLE('',#358,1.60000000000005);
#35=FACE_OUTER_BOUND('',#51,.T.);
#36=FACE_OUTER_BOUND('',#52,.T.);
#37=FACE_OUTER_BOUND('',#53,.T.);
#38=FACE_OUTER_BOUND('',#58,.T.);
#39=FACE_OUTER_BOUND('',#59,.T.);
#40=FACE_OUTER_BOUND('',#60,.T.);
#41=FACE_OUTER_BOUND('',#61,.T.);
#42=FACE_OUTER_BOUND('',#62,.T.);
#43=FACE_OUTER_BOUND('',#63,.T.);
#44=FACE_OUTER_BOUND('',#66,.T.);
#45=FACE_OUTER_BOUND('',#67,.T.);
#46=FACE_OUTER_BOUND('',#68,.T.);
#47=FACE_OUTER_BOUND('',#71,.T.);
#48=FACE_OUTER_BOUND('',#72,.T.);
#49=FACE_OUTER_BOUND('',#73,.T.);
#50=FACE_OUTER_BOUND('',#74,.T.);
#51=EDGE_LOOP('',(#213,#214,#215,#216));
#52=EDGE_LOOP('',(#217,#218,#219,#220));
#53=EDGE_LOOP('',(#221,#222,#223,#224,#225,#226,#227,#228));
#54=EDGE_LOOP('',(#229));
#55=EDGE_LOOP('',(#230));
#56=EDGE_LOOP('',(#231));
#57=EDGE_LOOP('',(#232));
#58=EDGE_LOOP('',(#233,#234,#235,#236));
#59=EDGE_LOOP('',(#237,#238,#239,#240,#241,#242));
#60=EDGE_LOOP('',(#243,#244,#245,#246));
#61=EDGE_LOOP('',(#247,#248,#249,#250));
#62=EDGE_LOOP('',(#251,#252,#253,#254));
#63=EDGE_LOOP('',(#255,#256,#257,#258,#259,#260));
#64=EDGE_LOOP('',(#261));
#65=EDGE_LOOP('',(#262));
#66=EDGE_LOOP('',(#263,#264,#265,#266,#267,#268));
#67=EDGE_LOOP('',(#269,#270,#271,#272));
#68=EDGE_LOOP('',(#273,#274,#275,#276,#277,#278));
#69=EDGE_LOOP('',(#279));
#70=EDGE_LOOP('',(#280));
#71=EDGE_LOOP('',(#281,#282,#283,#284));
#72=EDGE_LOOP('',(#285,#286,#287,#288));
#73=EDGE_LOOP('',(#289,#290,#291,#292));
#74=EDGE_LOOP('',(#293,#294,#295,#296));
#75=LINE('',#451,#109);
#76=LINE('',#453,#110);
#77=LINE('',#455,#111);
#78=LINE('',#456,#112);
#79=LINE('',#459,#113);
#80=LINE('',#461,#114);
#81=LINE('',#462,#115);
#82=LINE('',#465,#116);
#83=LINE('',#467,#117);
#84=LINE('',#469,#118);
#85=LINE('',#471,#119);
#86=LINE('',#473,#120);
#87=LINE('',#474,#121);
#88=LINE('',#485,#122);
#89=LINE('',#486,#123);
#90=LINE('',#489,#124);
#91=LINE('',#491,#125);
#92=LINE('',#493,#126);
#93=LINE('',#494,#127);
#94=LINE('',#497,#128);
#95=LINE('',#498,#129);
#96=LINE('',#501,#130);
#97=LINE('',#502,#131);
#98=LINE('',#505,#132);
#99=LINE('',#506,#133);
#100=LINE('',#509,#134);
#101=LINE('',#510,#135);
#102=LINE('',#517,#136);
#103=LINE('',#518,#137);
#104=LINE('',#520,#138);
#105=LINE('',#527,#139);
#106=LINE('',#529,#140);
#107=LINE('',#531,#141);
#108=LINE('',#533,#142);
#109=VECTOR('',#367,10.);
#110=VECTOR('',#368,10.);
#111=VECTOR('',#369,10.);
#112=VECTOR('',#370,10.);
#113=VECTOR('',#373,10.);
#114=VECTOR('',#374,10.);
#115=VECTOR('',#375,10.);
#116=VECTOR('',#378,10.);
#117=VECTOR('',#379,10.);
#118=VECTOR('',#380,10.);
#119=VECTOR('',#381,10.);
#120=VECTOR('',#382,10.);
#121=VECTOR('',#383,10.);
#122=VECTOR('',#394,10.);
#123=VECTOR('',#395,10.);
#124=VECTOR('',#398,10.);
#125=VECTOR('',#399,10.);
#126=VECTOR('',#400,10.);
#127=VECTOR('',#401,10.);
#128=VECTOR('',#404,10.);
#129=VECTOR('',#405,10.);
#130=VECTOR('',#408,10.);
#131=VECTOR('',#409,10.);
#132=VECTOR('',#412,10.);
#133=VECTOR('',#413,10.);
#134=VECTOR('',#416,10.);
#135=VECTOR('',#417,10.);
#136=VECTOR('',#424,10.);
#137=VECTOR('',#425,10.);
#138=VECTOR('',#428,10.);
#139=VECTOR('',#437,1.60000000000005);
#140=VECTOR('',#440,1.60000000000005);
#141=VECTOR('',#443,1.60000000000005);
#142=VECTOR('',#446,1.60000000000005);
#143=VERTEX_POINT('',#449);
#144=VERTEX_POINT('',#450);
#145=VERTEX_POINT('',#452);
#146=VERTEX_POINT('',#454);
#147=VERTEX_POINT('',#458);
#148=VERTEX_POINT('',#460);
#149=VERTEX_POINT('',#464);
#150=VERTEX_POINT('',#466);
#151=VERTEX_POINT('',#468);
#152=VERTEX_POINT('',#470);
#153=VERTEX_POINT('',#472);
#154=VERTEX_POINT('',#475);
#155=VERTEX_POINT('',#477);
#156=VERTEX_POINT('',#479);
#157=VERTEX_POINT('',#481);
#158=VERTEX_POINT('',#484);
#159=VERTEX_POINT('',#488);
#160=VERTEX_POINT('',#490);
#161=VERTEX_POINT('',#492);
#162=VERTEX_POINT('',#496);
#163=VERTEX_POINT('',#500);
#164=VERTEX_POINT('',#504);
#165=VERTEX_POINT('',#508);
#166=VERTEX_POINT('',#511);
#167=VERTEX_POINT('',#513);
#168=VERTEX_POINT('',#516);
#169=VERTEX_POINT('',#522);
#170=VERTEX_POINT('',#524);
#171=EDGE_CURVE('',#143,#144,#75,.T.);
#172=EDGE_CURVE('',#144,#145,#76,.T.);
#173=EDGE_CURVE('',#145,#146,#77,.T.);
#174=EDGE_CURVE('',#146,#143,#78,.T.);
#175=EDGE_CURVE('',#147,#144,#79,.T.);
#176=EDGE_CURVE('',#148,#147,#80,.T.);
#177=EDGE_CURVE('',#145,#148,#81,.T.);
#178=EDGE_CURVE('',#143,#149,#82,.T.);
#179=EDGE_CURVE('',#150,#149,#83,.T.);
#180=EDGE_CURVE('',#150,#151,#84,.T.);
#181=EDGE_CURVE('',#152,#151,#85,.T.);
#182=EDGE_CURVE('',#152,#153,#86,.T.);
#183=EDGE_CURVE('',#147,#153,#87,.T.);
#184=EDGE_CURVE('',#154,#154,#27,.T.);
#185=EDGE_CURVE('',#155,#155,#28,.T.);
#186=EDGE_CURVE('',#156,#156,#29,.T.);
#187=EDGE_CURVE('',#157,#157,#30,.T.);
#188=EDGE_CURVE('',#158,#148,#88,.T.);
#189=EDGE_CURVE('',#153,#158,#89,.T.);
#190=EDGE_CURVE('',#159,#152,#90,.T.);
#191=EDGE_CURVE('',#160,#159,#91,.T.);
#192=EDGE_CURVE('',#161,#160,#92,.T.);
#193=EDGE_CURVE('',#158,#161,#93,.T.);
#194=EDGE_CURVE('',#151,#162,#94,.T.);
#195=EDGE_CURVE('',#162,#159,#95,.T.);
#196=EDGE_CURVE('',#163,#150,#96,.T.);
#197=EDGE_CURVE('',#162,#163,#97,.T.);
#198=EDGE_CURVE('',#164,#163,#98,.T.);
#199=EDGE_CURVE('',#149,#164,#99,.T.);
#200=EDGE_CURVE('',#164,#165,#100,.T.);
#201=EDGE_CURVE('',#165,#160,#101,.T.);
#202=EDGE_CURVE('',#166,#166,#31,.T.);
#203=EDGE_CURVE('',#167,#167,#32,.T.);
#204=EDGE_CURVE('',#168,#146,#102,.T.);
#205=EDGE_CURVE('',#165,#168,#103,.T.);
#206=EDGE_CURVE('',#161,#168,#104,.T.);
#207=EDGE_CURVE('',#169,#169,#33,.T.);
#208=EDGE_CURVE('',#170,#170,#34,.T.);
#209=EDGE_CURVE('',#167,#157,#105,.T.);
#210=EDGE_CURVE('',#170,#156,#106,.T.);
#211=EDGE_CURVE('',#166,#155,#107,.T.);
#212=EDGE_CURVE('',#169,#154,#108,.T.);
#213=ORIENTED_EDGE('',*,*,#171,.T.);
#214=ORIENTED_EDGE('',*,*,#172,.T.);
#215=ORIENTED_EDGE('',*,*,#173,.T.);
#216=ORIENTED_EDGE('',*,*,#174,.T.);
#217=ORIENTED_EDGE('',*,*,#172,.F.);
#218=ORIENTED_EDGE('',*,*,#175,.F.);
#219=ORIENTED_EDGE('',*,*,#176,.F.);
#220=ORIENTED_EDGE('',*,*,#177,.F.);
#221=ORIENTED_EDGE('',*,*,#171,.F.);
#222=ORIENTED_EDGE('',*,*,#178,.T.);
#223=ORIENTED_EDGE('',*,*,#179,.F.);
#224=ORIENTED_EDGE('',*,*,#180,.T.);
#225=ORIENTED_EDGE('',*,*,#181,.F.);
#226=ORIENTED_EDGE('',*,*,#182,.T.);
#227=ORIENTED_EDGE('',*,*,#183,.F.);
#228=ORIENTED_EDGE('',*,*,#175,.T.);
#229=ORIENTED_EDGE('',*,*,#184,.F.);
#230=ORIENTED_EDGE('',*,*,#185,.F.);
#231=ORIENTED_EDGE('',*,*,#186,.F.);
#232=ORIENTED_EDGE('',*,*,#187,.F.);
#233=ORIENTED_EDGE('',*,*,#188,.T.);
#234=ORIENTED_EDGE('',*,*,#176,.T.);
#235=ORIENTED_EDGE('',*,*,#183,.T.);
#236=ORIENTED_EDGE('',*,*,#189,.T.);
#237=ORIENTED_EDGE('',*,*,#189,.F.);
#238=ORIENTED_EDGE('',*,*,#182,.F.);
#239=ORIENTED_EDGE('',*,*,#190,.F.);
#240=ORIENTED_EDGE('',*,*,#191,.F.);
#241=ORIENTED_EDGE('',*,*,#192,.F.);
#242=ORIENTED_EDGE('',*,*,#193,.F.);
#243=ORIENTED_EDGE('',*,*,#181,.T.);
#244=ORIENTED_EDGE('',*,*,#194,.T.);
#245=ORIENTED_EDGE('',*,*,#195,.T.);
#246=ORIENTED_EDGE('',*,*,#190,.T.);
#247=ORIENTED_EDGE('',*,*,#194,.F.);
#248=ORIENTED_EDGE('',*,*,#180,.F.);
#249=ORIENTED_EDGE('',*,*,#196,.F.);
#250=ORIENTED_EDGE('',*,*,#197,.F.);
#251=ORIENTED_EDGE('',*,*,#198,.T.);
#252=ORIENTED_EDGE('',*,*,#196,.T.);
#253=ORIENTED_EDGE('',*,*,#179,.T.);
#254=ORIENTED_EDGE('',*,*,#199,.T.);
#255=ORIENTED_EDGE('',*,*,#195,.F.);
#256=ORIENTED_EDGE('',*,*,#197,.T.);
#257=ORIENTED_EDGE('',*,*,#198,.F.);
#258=ORIENTED_EDGE('',*,*,#200,.T.);
#259=ORIENTED_EDGE('',*,*,#201,.T.);
#260=ORIENTED_EDGE('',*,*,#191,.T.);
#261=ORIENTED_EDGE('',*,*,#202,.F.);
#262=ORIENTED_EDGE('',*,*,#203,.F.);
#263=ORIENTED_EDGE('',*,*,#174,.F.);
#264=ORIENTED_EDGE('',*,*,#204,.F.);
#265=ORIENTED_EDGE('',*,*,#205,.F.);
#266=ORIENTED_EDGE('',*,*,#200,.F.);
#267=ORIENTED_EDGE('',*,*,#199,.F.);
#268=ORIENTED_EDGE('',*,*,#178,.F.);
#269=ORIENTED_EDGE('',*,*,#205,.T.);
#270=ORIENTED_EDGE('',*,*,#206,.F.);
#271=ORIENTED_EDGE('',*,*,#192,.T.);
#272=ORIENTED_EDGE('',*,*,#201,.F.);
#273=ORIENTED_EDGE('',*,*,#173,.F.);
#274=ORIENTED_EDGE('',*,*,#177,.T.);
#275=ORIENTED_EDGE('',*,*,#188,.F.);
#276=ORIENTED_EDGE('',*,*,#193,.T.);
#277=ORIENTED_EDGE('',*,*,#206,.T.);
#278=ORIENTED_EDGE('',*,*,#204,.T.);
#279=ORIENTED_EDGE('',*,*,#207,.F.);
#280=ORIENTED_EDGE('',*,*,#208,.F.);
#281=ORIENTED_EDGE('',*,*,#203,.T.);
#282=ORIENTED_EDGE('',*,*,#209,.T.);
#283=ORIENTED_EDGE('',*,*,#187,.T.);
#284=ORIENTED_EDGE('',*,*,#209,.F.);
#285=ORIENTED_EDGE('',*,*,#208,.T.);
#286=ORIENTED_EDGE('',*,*,#210,.T.);
#287=ORIENTED_EDGE('',*,*,#186,.T.);
#288=ORIENTED_EDGE('',*,*,#210,.F.);
#289=ORIENTED_EDGE('',*,*,#202,.T.);
#290=ORIENTED_EDGE('',*,*,#211,.T.);
#291=ORIENTED_EDGE('',*,*,#185,.T.);
#292=ORIENTED_EDGE('',*,*,#211,.F.);
#293=ORIENTED_EDGE('',*,*,#207,.T.);
#294=ORIENTED_EDGE('',*,*,#212,.T.);
#295=ORIENTED_EDGE('',*,*,#184,.T.);
#296=ORIENTED_EDGE('',*,*,#212,.F.);
#297=PLANE('',#339);
#298=PLANE('',#340);
#299=PLANE('',#341);
#300=PLANE('',#346);
#301=PLANE('',#347);
#302=PLANE('',#348);
#303=PLANE('',#349);
#304=PLANE('',#350);
#305=PLANE('',#351);
#306=PLANE('',#354);
#307=PLANE('',#355);
#308=PLANE('',#356);
#309=ADVANCED_FACE('',(#35),#297,.T.);
#310=ADVANCED_FACE('',(#36),#298,.F.);
#311=ADVANCED_FACE('',(#37,#19,#20,#21,#22),#299,.T.);
#312=ADVANCED_FACE('',(#38),#300,.T.);
#313=ADVANCED_FACE('',(#39),#301,.F.);
#314=ADVANCED_FACE('',(#40),#302,.T.);
#315=ADVANCED_FACE('',(#41),#303,.F.);
#316=ADVANCED_FACE('',(#42),#304,.T.);
#317=ADVANCED_FACE('',(#43,#23,#24),#305,.F.);
#318=ADVANCED_FACE('',(#44),#306,.F.);
#319=ADVANCED_FACE('',(#45),#307,.F.);
#320=ADVANCED_FACE('',(#46,#25,#26),#308,.F.);
#321=ADVANCED_FACE('',(#47),#15,.F.);
#322=ADVANCED_FACE('',(#48),#16,.F.);
#323=ADVANCED_FACE('',(#49),#17,.F.);
#324=ADVANCED_FACE('',(#50),#18,.F.);
#325=CLOSED_SHELL('',(#309,#310,#311,#312,#313,#314,#315,#316,#317,#318,
#319,#320,#321,#322,#323,#324));
#326=DERIVED_UNIT_ELEMENT(#328,1.);
#327=DERIVED_UNIT_ELEMENT(#539,-3.);
#328=(
MASS_UNIT()
NAMED_UNIT(*)
SI_UNIT(.KILO.,.GRAM.)
);
#329=DERIVED_UNIT((#326,#327));
#330=MEASURE_REPRESENTATION_ITEM('density measure',
POSITIVE_RATIO_MEASURE(7850.),#329);
#331=PROPERTY_DEFINITION_REPRESENTATION(#336,#333);
#332=PROPERTY_DEFINITION_REPRESENTATION(#337,#334);
#333=REPRESENTATION('material name',(#335),#536);
#334=REPRESENTATION('density',(#330),#536);
#335=DESCRIPTIVE_REPRESENTATION_ITEM('Steel','Steel');
#336=PROPERTY_DEFINITION('material property','material name',#546);
#337=PROPERTY_DEFINITION('material property','density of part',#546);
#338=AXIS2_PLACEMENT_3D('',#447,#363,#364);
#339=AXIS2_PLACEMENT_3D('',#448,#365,#366);
#340=AXIS2_PLACEMENT_3D('',#457,#371,#372);
#341=AXIS2_PLACEMENT_3D('',#463,#376,#377);
#342=AXIS2_PLACEMENT_3D('',#476,#384,#385);
#343=AXIS2_PLACEMENT_3D('',#478,#386,#387);
#344=AXIS2_PLACEMENT_3D('',#480,#388,#389);
#345=AXIS2_PLACEMENT_3D('',#482,#390,#391);
#346=AXIS2_PLACEMENT_3D('',#483,#392,#393);
#347=AXIS2_PLACEMENT_3D('',#487,#396,#397);
#348=AXIS2_PLACEMENT_3D('',#495,#402,#403);
#349=AXIS2_PLACEMENT_3D('',#499,#406,#407);
#350=AXIS2_PLACEMENT_3D('',#503,#410,#411);
#351=AXIS2_PLACEMENT_3D('',#507,#414,#415);
#352=AXIS2_PLACEMENT_3D('',#512,#418,#419);
#353=AXIS2_PLACEMENT_3D('',#514,#420,#421);
#354=AXIS2_PLACEMENT_3D('',#515,#422,#423);
#355=AXIS2_PLACEMENT_3D('',#519,#426,#427);
#356=AXIS2_PLACEMENT_3D('',#521,#429,#430);
#357=AXIS2_PLACEMENT_3D('',#523,#431,#432);
#358=AXIS2_PLACEMENT_3D('',#525,#433,#434);
#359=AXIS2_PLACEMENT_3D('',#526,#435,#436);
#360=AXIS2_PLACEMENT_3D('',#528,#438,#439);
#361=AXIS2_PLACEMENT_3D('',#530,#441,#442);
#362=AXIS2_PLACEMENT_3D('',#532,#444,#445);
#363=DIRECTION('axis',(0.,0.,1.));
#364=DIRECTION('refdir',(1.,0.,0.));
#365=DIRECTION('center_axis',(-0.707106781186548,-0.707106781186548,0.));
#366=DIRECTION('ref_axis',(0.,0.,1.));
#367=DIRECTION('',(0.707106781186548,-0.707106781186548,0.));
#368=DIRECTION('',(0.,0.,1.));
#369=DIRECTION('',(-0.707106781186548,0.707106781186548,0.));
#370=DIRECTION('',(0.,0.,-1.));
#371=DIRECTION('center_axis',(0.,1.,0.));
#372=DIRECTION('ref_axis',(0.,0.,1.));
#373=DIRECTION('',(-1.,0.,0.));
#374=DIRECTION('',(0.,0.,-1.));
#375=DIRECTION('',(1.,0.,0.));
#376=DIRECTION('center_axis',(0.,0.,-1.));
#377=DIRECTION('ref_axis',(-1.,0.,0.));
#378=DIRECTION('',(0.,1.,0.));
#379=DIRECTION('',(-0.707106781186548,-0.707106781186548,0.));
#380=DIRECTION('',(1.,0.,0.));
#381=DIRECTION('',(-0.707106781186548,0.707106781186548,0.));
#382=DIRECTION('',(0.,-1.,0.));
#383=DIRECTION('',(0.707106781186548,0.707106781186548,0.));
#384=DIRECTION('center_axis',(0.,0.,-1.));
#385=DIRECTION('ref_axis',(-1.,0.,0.));
#386=DIRECTION('center_axis',(0.,0.,-1.));
#387=DIRECTION('ref_axis',(-1.,0.,0.));
#388=DIRECTION('center_axis',(0.,0.,-1.));
#389=DIRECTION('ref_axis',(-1.,0.,0.));
#390=DIRECTION('center_axis',(0.,0.,-1.));
#391=DIRECTION('ref_axis',(-1.,0.,0.));
#392=DIRECTION('center_axis',(0.707106781186548,-0.707106781186548,0.));
#393=DIRECTION('ref_axis',(0.,0.,-1.));
#394=DIRECTION('',(-0.707106781186548,-0.707106781186548,0.));
#395=DIRECTION('',(0.,0.,1.));
#396=DIRECTION('center_axis',(-1.,0.,0.));
#397=DIRECTION('ref_axis',(0.,0.,1.));
#398=DIRECTION('',(0.,0.,-1.));
#399=DIRECTION('',(0.,1.,0.));
#400=DIRECTION('',(0.,0.,-1.));
#401=DIRECTION('',(0.,1.,0.));
#402=DIRECTION('center_axis',(0.707106781186548,0.707106781186548,0.));
#403=DIRECTION('ref_axis',(0.,0.,-1.));
#404=DIRECTION('',(0.,0.,1.));
#405=DIRECTION('',(0.707106781186548,-0.707106781186548,0.));
#406=DIRECTION('center_axis',(0.,-1.,0.));
#407=DIRECTION('ref_axis',(0.,0.,-1.));
#408=DIRECTION('',(0.,0.,-1.));
#409=DIRECTION('',(-1.,0.,0.));
#410=DIRECTION('center_axis',(-0.707106781186548,0.707106781186548,0.));
#411=DIRECTION('ref_axis',(0.,0.,1.));
#412=DIRECTION('',(0.707106781186548,0.707106781186548,0.));
#413=DIRECTION('',(0.,0.,1.));
#414=DIRECTION('center_axis',(0.,0.,-1.));
#415=DIRECTION('ref_axis',(-1.,0.,0.));
#416=DIRECTION('',(0.,-1.,0.));
#417=DIRECTION('',(1.,0.,0.));
#418=DIRECTION('center_axis',(0.,0.,1.));
#419=DIRECTION('ref_axis',(-1.,0.,0.));
#420=DIRECTION('center_axis',(0.,0.,1.));
#421=DIRECTION('ref_axis',(-1.,0.,0.));
#422=DIRECTION('center_axis',(1.,0.,0.));
#423=DIRECTION('ref_axis',(0.,0.,-1.));
#424=DIRECTION('',(0.,-1.,0.));
#425=DIRECTION('',(0.,0.,1.));
#426=DIRECTION('center_axis',(0.,-1.,0.));
#427=DIRECTION('ref_axis',(0.,0.,-1.));
#428=DIRECTION('',(-1.,0.,0.));
#429=DIRECTION('center_axis',(0.,0.,-1.));
#430=DIRECTION('ref_axis',(-1.,0.,0.));
#431=DIRECTION('center_axis',(0.,0.,1.));
#432=DIRECTION('ref_axis',(-1.,0.,0.));
#433=DIRECTION('center_axis',(0.,0.,1.));
#434=DIRECTION('ref_axis',(-1.,0.,0.));
#435=DIRECTION('center_axis',(0.,0.,-1.));
#436=DIRECTION('ref_axis',(-1.,0.,0.));
#437=DIRECTION('',(0.,0.,-1.));
#438=DIRECTION('center_axis',(0.,0.,-1.));
#439=DIRECTION('ref_axis',(-1.,0.,0.));
#440=DIRECTION('',(0.,0.,-1.));
#441=DIRECTION('center_axis',(0.,0.,-1.));
#442=DIRECTION('ref_axis',(-1.,0.,0.));
#443=DIRECTION('',(0.,0.,-1.));
#444=DIRECTION('center_axis',(0.,0.,-1.));
#445=DIRECTION('ref_axis',(-1.,0.,0.));
#446=DIRECTION('',(0.,0.,-1.));
#447=CARTESIAN_POINT('',(0.,0.,0.));
#448=CARTESIAN_POINT('Origin',(1229.92129412173,1195.40855234614,4580.70470573538));
#449=CARTESIAN_POINT('',(1228.42129412173,1196.90855234614,4578.70470573538));
#450=CARTESIAN_POINT('',(1231.42129412173,1193.90855234614,4578.70470573538));
#451=CARTESIAN_POINT('',(1221.29310867784,1204.03673779004,4578.70470573538));
#452=CARTESIAN_POINT('',(1231.42129412173,1193.90855234614,4582.70470573538));
#453=CARTESIAN_POINT('',(1231.42129412173,1193.90855234614,4580.70470573538));
#454=CARTESIAN_POINT('',(1228.42129412173,1196.90855234614,4582.70470573538));
#455=CARTESIAN_POINT('',(1221.29310867784,1204.03673779004,4582.70470573538));
#456=CARTESIAN_POINT('',(1228.42129412173,1196.90855234614,4580.70470573538));
#457=CARTESIAN_POINT('Origin',(1227.92129412173,1193.90855234614,4580.70470573538));
#458=CARTESIAN_POINT('',(1239.26432883956,1193.90855234614,4578.70470573538));
#459=CARTESIAN_POINT('',(613.960647060867,1193.90855234614,4578.70470573538));
#460=CARTESIAN_POINT('',(1239.26432883956,1193.90855234614,4582.70470573538));
#461=CARTESIAN_POINT('',(1239.26432883956,1193.90855234614,4580.70470573538));
#462=CARTESIAN_POINT('',(613.960647060867,1193.90855234614,4582.70470573538));
#463=CARTESIAN_POINT('Origin',(0.,0.,4578.70470573538));
#464=CARTESIAN_POINT('',(1228.42129412173,1210.40855234614,4578.70470573538));
#465=CARTESIAN_POINT('',(1228.42129412173,599.754276173071,4578.70470573538));
#466=CARTESIAN_POINT('',(1231.42129412173,1213.40855234614,4578.70470573538));
#467=CARTESIAN_POINT('',(619.463832504765,601.451090729173,4578.70470573538));
#468=CARTESIAN_POINT('',(1239.26432883956,1213.40855234614,4578.70470573538));
#469=CARTESIAN_POINT('',(613.960647060867,1213.40855234614,4578.70470573538));
#470=CARTESIAN_POINT('',(1242.26432883956,1210.40855234614,4578.70470573538));
#471=CARTESIAN_POINT('',(1233.5503847162,1219.1224964695,4578.70470573538));
#472=CARTESIAN_POINT('',(1242.26432883956,1196.90855234614,4578.70470573538));
#473=CARTESIAN_POINT('',(1242.26432883956,599.754276173071,4578.70470573538));
#474=CARTESIAN_POINT('',(631.721108543132,586.365332049717,4578.70470573538));
#475=CARTESIAN_POINT('',(1233.52129412173,1199.57307604372,4578.70470573538));
#476=CARTESIAN_POINT('Origin',(1231.92129412173,1199.57307604372,4578.70470573538));
#477=CARTESIAN_POINT('',(1240.36429412173,1208.27307604372,4578.70470573538));
#478=CARTESIAN_POINT('Origin',(1238.76429412173,1208.27307604372,4578.70470573538));
#479=CARTESIAN_POINT('',(1240.36429412173,1199.57307604372,4578.70470573538));
#480=CARTESIAN_POINT('Origin',(1238.76429412173,1199.57307604372,4578.70470573538));
#481=CARTESIAN_POINT('',(1233.52129412173,1208.27307604372,4578.70470573538));
#482=CARTESIAN_POINT('Origin',(1231.92129412173,1208.27307604372,4578.70470573538));
#483=CARTESIAN_POINT('Origin',(1240.76432883956,1195.40855234614,4580.70470573538));
#484=CARTESIAN_POINT('',(1242.26432883956,1196.90855234614,4582.70470573538));
#485=CARTESIAN_POINT('',(631.721108543132,586.365332049717,4582.70470573538));
#486=CARTESIAN_POINT('',(1242.26432883956,1196.90855234614,4580.70470573538));
#487=CARTESIAN_POINT('Origin',(1242.26432883956,1199.50855234614,4580.70470573538));
#488=CARTESIAN_POINT('',(1242.26432883956,1210.40855234614,4581.70470573538));
#489=CARTESIAN_POINT('',(1242.26432883956,1210.40855234614,4580.70470573538));
#490=CARTESIAN_POINT('',(1242.26432883956,1203.05855234614,4581.70470573538));
#491=CARTESIAN_POINT('',(1242.26432883956,599.754276173071,4581.70470573538));
#492=CARTESIAN_POINT('',(1242.26432883956,1203.05855234614,4582.70470573538));
#493=CARTESIAN_POINT('',(1242.26432883956,1203.05855234614,4581.20470573538));
#494=CARTESIAN_POINT('',(1242.26432883956,599.754276173071,4582.70470573538));
#495=CARTESIAN_POINT('Origin',(1240.76432883956,1211.90855234614,4580.70470573538));
#496=CARTESIAN_POINT('',(1239.26432883956,1213.40855234614,4581.70470573538));
#497=CARTESIAN_POINT('',(1239.26432883956,1213.40855234614,4580.70470573538));
#498=CARTESIAN_POINT('',(1233.5503847162,1219.1224964695,4581.70470573538));
#499=CARTESIAN_POINT('Origin',(1227.92129412173,1213.40855234614,4580.70470573538));
#500=CARTESIAN_POINT('',(1231.42129412173,1213.40855234614,4581.70470573538));
#501=CARTESIAN_POINT('',(1231.42129412173,1213.40855234614,4580.70470573538));
#502=CARTESIAN_POINT('',(613.960647060867,1213.40855234614,4581.70470573538));
#503=CARTESIAN_POINT('Origin',(1229.92129412173,1211.90855234614,4580.70470573538));
#504=CARTESIAN_POINT('',(1228.42129412173,1210.40855234614,4581.70470573538));
#505=CARTESIAN_POINT('',(619.463832504765,601.451090729173,4581.70470573538));
#506=CARTESIAN_POINT('',(1228.42129412173,1210.40855234614,4580.70470573538));
#507=CARTESIAN_POINT('Origin',(0.,0.,4581.70470573538));
#508=CARTESIAN_POINT('',(1228.42129412173,1203.05855234614,4581.70470573538));
#509=CARTESIAN_POINT('',(1228.42129412173,599.754276173071,4581.70470573538));
#510=CARTESIAN_POINT('',(617.671405740323,1203.05855234614,4581.70470573538));
#511=CARTESIAN_POINT('',(1240.36429412173,1208.27307604372,4581.70470573538));
#512=CARTESIAN_POINT('Origin',(1238.76429412173,1208.27307604372,4581.70470573538));
#513=CARTESIAN_POINT('',(1233.52129412173,1208.27307604372,4581.70470573538));
#514=CARTESIAN_POINT('Origin',(1231.92129412173,1208.27307604372,4581.70470573538));
#515=CARTESIAN_POINT('Origin',(1228.42129412173,1199.50855234614,4580.70470573538));
#516=CARTESIAN_POINT('',(1228.42129412173,1203.05855234614,4582.70470573538));
#517=CARTESIAN_POINT('',(1228.42129412173,599.754276173071,4582.70470573538));
#518=CARTESIAN_POINT('',(1228.42129412173,1203.05855234614,4581.20470573538));
#519=CARTESIAN_POINT('Origin',(1243.26432883956,1203.05855234614,4581.70470573538));
#520=CARTESIAN_POINT('',(621.632164419778,1203.05855234614,4582.70470573538));
#521=CARTESIAN_POINT('Origin',(0.,0.,4582.70470573538));
#522=CARTESIAN_POINT('',(1233.52129412173,1199.57307604372,4582.70470573538));
#523=CARTESIAN_POINT('Origin',(1231.92129412173,1199.57307604372,4582.70470573538));
#524=CARTESIAN_POINT('',(1240.36429412173,1199.57307604372,4582.70470573538));
#525=CARTESIAN_POINT('Origin',(1238.76429412173,1199.57307604372,4582.70470573538));
#526=CARTESIAN_POINT('Origin',(1231.92129412173,1208.27307604372,4580.70470573538));
#527=CARTESIAN_POINT('',(1233.52129412173,1208.27307604372,4580.70470573538));
#528=CARTESIAN_POINT('Origin',(1238.76429412173,1199.57307604372,4580.70470573538));
#529=CARTESIAN_POINT('',(1240.36429412173,1199.57307604372,4580.70470573538));
#530=CARTESIAN_POINT('Origin',(1238.76429412173,1208.27307604372,4580.70470573538));
#531=CARTESIAN_POINT('',(1240.36429412173,1208.27307604372,4580.70470573538));
#532=CARTESIAN_POINT('Origin',(1231.92129412173,1199.57307604372,4580.70470573538));
#533=CARTESIAN_POINT('',(1233.52129412173,1199.57307604372,4580.70470573538));
#534=UNCERTAINTY_MEASURE_WITH_UNIT(LENGTH_MEASURE(0.01),#538,
'DISTANCE_ACCURACY_VALUE',
'Maximum model space distance between geometric entities at asserted c
onnectivities');
#535=UNCERTAINTY_MEASURE_WITH_UNIT(LENGTH_MEASURE(0.01),#538,
'DISTANCE_ACCURACY_VALUE',
'Maximum model space distance between geometric entities at asserted c
onnectivities');
#536=(
GEOMETRIC_REPRESENTATION_CONTEXT(3)
GLOBAL_UNCERTAINTY_ASSIGNED_CONTEXT((#534))
GLOBAL_UNIT_ASSIGNED_CONTEXT((#538,#540,#541))
REPRESENTATION_CONTEXT('','3D')
);
#537=(
GEOMETRIC_REPRESENTATION_CONTEXT(3)
GLOBAL_UNCERTAINTY_ASSIGNED_CONTEXT((#535))
GLOBAL_UNIT_ASSIGNED_CONTEXT((#538,#540,#541))
REPRESENTATION_CONTEXT('','3D')
);
#538=(
LENGTH_UNIT()
NAMED_UNIT(*)
SI_UNIT(.MILLI.,.METRE.)
);
#539=(
LENGTH_UNIT()
NAMED_UNIT(*)
SI_UNIT($,.METRE.)
);
#540=(
NAMED_UNIT(*)
PLANE_ANGLE_UNIT()
SI_UNIT($,.RADIAN.)
);
#541=(
NAMED_UNIT(*)
SI_UNIT($,.STERADIAN.)
SOLID_ANGLE_UNIT()
);
#542=SHAPE_DEFINITION_REPRESENTATION(#543,#544);
#543=PRODUCT_DEFINITION_SHAPE('',$,#546);
#544=SHAPE_REPRESENTATION('',(#338),#536);
#545=PRODUCT_DEFINITION_CONTEXT('part definition',#550,'design');
#546=PRODUCT_DEFINITION('2026-01-16-22-15-52-970',
'Clamp to Base Bracket v3 - TVD edit1',#547,#545);
#547=PRODUCT_DEFINITION_FORMATION('',$,#552);
#548=PRODUCT_RELATED_PRODUCT_CATEGORY(
'Clamp to Base Bracket v3 - TVD edit1',
'Clamp to Base Bracket v3 - TVD edit1',(#552));
#549=APPLICATION_PROTOCOL_DEFINITION('international standard',
'automotive_design',2009,#550);
#550=APPLICATION_CONTEXT(
'Core Data for Automotive Mechanical Design Process');
#551=PRODUCT_CONTEXT('part definition',#550,'mechanical');
#552=PRODUCT('2026-01-16-22-15-52-970',
'Clamp to Base Bracket v3 - TVD edit1','STEP AP214',(#551));
#553=PRESENTATION_STYLE_ASSIGNMENT((#555));
#554=PRESENTATION_STYLE_ASSIGNMENT((#556));
#555=SURFACE_STYLE_USAGE(.BOTH.,#557);
#556=SURFACE_STYLE_USAGE(.BOTH.,#558);
#557=SURFACE_SIDE_STYLE('',(#559));
#558=SURFACE_SIDE_STYLE('',(#560));
#559=SURFACE_STYLE_FILL_AREA(#561);
#560=SURFACE_STYLE_FILL_AREA(#562);
#561=FILL_AREA_STYLE('Steel - Satin',(#563));
#562=FILL_AREA_STYLE('Opaque(202,209,238)',(#564));
#563=FILL_AREA_STYLE_COLOUR('Steel - Satin',#565);
#564=FILL_AREA_STYLE_COLOUR('Opaque(202,209,238)',#566);
#565=COLOUR_RGB('Steel - Satin',0.627450980392157,0.627450980392157,0.627450980392157);
#566=COLOUR_RGB('Opaque(202,209,238)',0.792156862745098,0.819607843137255,
0.933333333333333);
ENDSEC;
END-ISO-10303-21;
