ISO-10303-21;
HEADER;
/* Generated by software containing ST-Developer
 * from STEP Tools, Inc. (www.steptools.com) 
 */

FILE_DESCRIPTION(
/* description */ ('STEP AP214'),
/* implementation_level */ '2;1');

FILE_NAME(
/* name */ '10x100mm Linear Rod Clamp v3 - TVD edit.step',
/* time_stamp */ '2026-01-19T12:28:27-05:00',
/* author */ (''),
/* organization */ (''),
/* preprocessor_version */ 'ST-DEVELOPER v20.1',
/* originating_system */ 'Autodesk Translation Framework v14.21.0.0',
/* authorisation */ '');

FILE_SCHEMA (('AUTOMOTIVE_DESIGN { 1 0 10303 214 3 1 1 }'));
ENDSEC;

DATA;
#10=MECHANICAL_DESIGN_GEOMETRIC_PRESENTATION_REPRESENTATION('',(#13),#1008);
#11=SHAPE_REPRESENTATION_RELATIONSHIP('SRR','None',#1015,#12);
#12=ADVANCED_BREP_SHAPE_REPRESENTATION('',(#14),#1007);
#13=STYLED_ITEM('',(#1025),#14);
#14=MANIFOLD_SOLID_BREP('Body1',#550);
#15=TOROIDAL_SURFACE('',#576,1.5,0.5);
#16=TOROIDAL_SURFACE('',#582,1.5,0.5);
#17=FACE_BOUND('',#78,.T.);
#18=FACE_BOUND('',#93,.T.);
#19=FACE_BOUND('',#95,.T.);
#20=FACE_BOUND('',#97,.T.);
#21=FACE_BOUND('',#98,.T.);
#22=FACE_BOUND('',#100,.T.);
#23=FACE_BOUND('',#106,.T.);
#24=FACE_BOUND('',#112,.T.);
#25=PLANE('',#566);
#26=PLANE('',#570);
#27=PLANE('',#572);
#28=PLANE('',#587);
#29=PLANE('',#590);
#30=PLANE('',#592);
#31=PLANE('',#594);
#32=PLANE('',#595);
#33=PLANE('',#603);
#34=PLANE('',#606);
#35=PLANE('',#608);
#36=PLANE('',#612);
#37=PLANE('',#617);
#38=PLANE('',#624);
#39=PLANE('',#625);
#40=PLANE('',#626);
#41=FACE_OUTER_BOUND('',#74,.T.);
#42=FACE_OUTER_BOUND('',#75,.T.);
#43=FACE_OUTER_BOUND('',#76,.T.);
#44=FACE_OUTER_BOUND('',#77,.T.);
#45=FACE_OUTER_BOUND('',#79,.T.);
#46=FACE_OUTER_BOUND('',#80,.T.);
#47=FACE_OUTER_BOUND('',#81,.T.);
#48=FACE_OUTER_BOUND('',#82,.T.);
#49=FACE_OUTER_BOUND('',#83,.T.);
#50=FACE_OUTER_BOUND('',#84,.T.);
#51=FACE_OUTER_BOUND('',#85,.T.);
#52=FACE_OUTER_BOUND('',#86,.T.);
#53=FACE_OUTER_BOUND('',#87,.T.);
#54=FACE_OUTER_BOUND('',#88,.T.);
#55=FACE_OUTER_BOUND('',#89,.T.);
#56=FACE_OUTER_BOUND('',#90,.T.);
#57=FACE_OUTER_BOUND('',#91,.T.);
#58=FACE_OUTER_BOUND('',#92,.T.);
#59=FACE_OUTER_BOUND('',#94,.T.);
#60=FACE_OUTER_BOUND('',#96,.T.);
#61=FACE_OUTER_BOUND('',#99,.T.);
#62=FACE_OUTER_BOUND('',#101,.T.);
#63=FACE_OUTER_BOUND('',#102,.T.);
#64=FACE_OUTER_BOUND('',#103,.T.);
#65=FACE_OUTER_BOUND('',#104,.T.);
#66=FACE_OUTER_BOUND('',#105,.T.);
#67=FACE_OUTER_BOUND('',#107,.T.);
#68=FACE_OUTER_BOUND('',#108,.T.);
#69=FACE_OUTER_BOUND('',#109,.T.);
#70=FACE_OUTER_BOUND('',#110,.T.);
#71=FACE_OUTER_BOUND('',#111,.T.);
#72=FACE_OUTER_BOUND('',#113,.T.);
#73=FACE_OUTER_BOUND('',#114,.T.);
#74=EDGE_LOOP('',(#352,#353,#354,#355));
#75=EDGE_LOOP('',(#356,#357,#358));
#76=EDGE_LOOP('',(#359,#360,#361,#362));
#77=EDGE_LOOP('',(#363,#364,#365,#366,#367,#368));
#78=EDGE_LOOP('',(#369));
#79=EDGE_LOOP('',(#370,#371,#372));
#80=EDGE_LOOP('',(#373,#374,#375,#376));
#81=EDGE_LOOP('',(#377,#378,#379,#380));
#82=EDGE_LOOP('',(#381,#382,#383,#384,#385));
#83=EDGE_LOOP('',(#386,#387,#388,#389));
#84=EDGE_LOOP('',(#390,#391,#392,#393));
#85=EDGE_LOOP('',(#394,#395,#396));
#86=EDGE_LOOP('',(#397,#398,#399,#400));
#87=EDGE_LOOP('',(#401,#402,#403,#404));
#88=EDGE_LOOP('',(#405,#406,#407,#408));
#89=EDGE_LOOP('',(#409,#410,#411));
#90=EDGE_LOOP('',(#412,#413,#414,#415));
#91=EDGE_LOOP('',(#416,#417,#418,#419,#420,#421,#422,#423));
#92=EDGE_LOOP('',(#424,#425,#426,#427));
#93=EDGE_LOOP('',(#428,#429,#430,#431,#432,#433));
#94=EDGE_LOOP('',(#434,#435,#436,#437));
#95=EDGE_LOOP('',(#438,#439,#440,#441,#442,#443,#444,#445));
#96=EDGE_LOOP('',(#446,#447,#448,#449));
#97=EDGE_LOOP('',(#450));
#98=EDGE_LOOP('',(#451));
#99=EDGE_LOOP('',(#452,#453,#454,#455));
#100=EDGE_LOOP('',(#456));
#101=EDGE_LOOP('',(#457,#458,#459,#460,#461,#462));
#102=EDGE_LOOP('',(#463,#464,#465,#466));
#103=EDGE_LOOP('',(#467,#468,#469,#470,#471,#472));
#104=EDGE_LOOP('',(#473,#474,#475,#476));
#105=EDGE_LOOP('',(#477));
#106=EDGE_LOOP('',(#478));
#107=EDGE_LOOP('',(#479,#480,#481,#482));
#108=EDGE_LOOP('',(#483,#484,#485,#486));
#109=EDGE_LOOP('',(#487,#488,#489,#490));
#110=EDGE_LOOP('',(#491,#492,#493,#494));
#111=EDGE_LOOP('',(#495,#496,#497,#498));
#112=EDGE_LOOP('',(#499));
#113=EDGE_LOOP('',(#500));
#114=EDGE_LOOP('',(#501));
#115=B_SPLINE_CURVE_WITH_KNOTS('',3,(#802,#803,#804,#805,#806,#807,#808,
#809,#810,#811),.UNSPECIFIED.,.F.,.F.,(4,2,2,2,4),(0.256191177023609,0.322614004139064,
0.389036831254519,0.444887661176039,0.50073849109756),.UNSPECIFIED.);
#116=B_SPLINE_CURVE_WITH_KNOTS('',3,(#824,#825,#826,#827,#828,#829,#830,
#831,#832,#833),.UNSPECIFIED.,.F.,.F.,(4,2,2,2,4),(0.,0.0558508299215202,
0.11170165984304,0.178124486958495,0.24454731407395),.UNSPECIFIED.);
#117=B_SPLINE_CURVE_WITH_KNOTS('',3,(#851,#852,#853,#854,#855,#856,#857,
#858,#859,#860),.UNSPECIFIED.,.F.,.F.,(4,2,2,2,4),(0.,0.0186722388929367,
0.0373444777858733,0.0593988836998511,0.0814532896138289),.UNSPECIFIED.);
#118=B_SPLINE_CURVE_WITH_KNOTS('',3,(#885,#886,#887,#888,#889,#890,#891,
#892,#893,#894),.UNSPECIFIED.,.F.,.F.,(4,2,2,2,4),(0.0825448188686059,0.104599224782584,
0.126653630696561,0.145325869589498,0.163998108482435),.UNSPECIFIED.);
#119=B_SPLINE_CURVE_WITH_KNOTS('',3,(#904,#905,#906,#907,#908,#909,#910,
#911,#912,#913),.UNSPECIFIED.,.F.,.F.,(4,2,2,2,4),(0.690563547109986,0.764781799720159,
0.839000052330332,0.930495305119994,1.02199055790966),.UNSPECIFIED.);
#120=B_SPLINE_CURVE_WITH_KNOTS('',3,(#921,#922,#923,#924,#925,#926,#927,
#928,#929,#930),.UNSPECIFIED.,.F.,.F.,(4,2,2,2,4),(-0.33142701079967,-0.239931758010008,
-0.148436505220346,-0.0742182526101729,0.),.UNSPECIFIED.);
#121=LINE('',#800,#160);
#122=LINE('',#812,#161);
#123=LINE('',#815,#162);
#124=LINE('',#822,#163);
#125=LINE('',#834,#164);
#126=LINE('',#836,#165);
#127=LINE('',#838,#166);
#128=LINE('',#839,#167);
#129=LINE('',#849,#168);
#130=LINE('',#861,#169);
#131=LINE('',#873,#170);
#132=LINE('',#874,#171);
#133=LINE('',#875,#172);
#134=LINE('',#895,#173);
#135=LINE('',#896,#174);
#136=LINE('',#899,#175);
#137=LINE('',#903,#176);
#138=LINE('',#916,#177);
#139=LINE('',#917,#178);
#140=LINE('',#920,#179);
#141=LINE('',#934,#180);
#142=LINE('',#936,#181);
#143=LINE('',#941,#182);
#144=LINE('',#945,#183);
#145=LINE('',#950,#184);
#146=LINE('',#954,#185);
#147=LINE('',#957,#186);
#148=LINE('',#958,#187);
#149=LINE('',#965,#188);
#150=LINE('',#967,#189);
#151=LINE('',#968,#190);
#152=LINE('',#973,#191);
#153=LINE('',#977,#192);
#154=LINE('',#982,#193);
#155=LINE('',#987,#194);
#156=LINE('',#991,#195);
#157=LINE('',#995,#196);
#158=LINE('',#999,#197);
#159=LINE('',#1001,#198);
#160=VECTOR('',#633,10.);
#161=VECTOR('',#634,10.);
#162=VECTOR('',#637,10.);
#163=VECTOR('',#644,10.);
#164=VECTOR('',#645,10.);
#165=VECTOR('',#648,10.);
#166=VECTOR('',#649,10.);
#167=VECTOR('',#650,10.);
#168=VECTOR('',#661,10.);
#169=VECTOR('',#662,10.);
#170=VECTOR('',#675,10.);
#171=VECTOR('',#676,10.);
#172=VECTOR('',#677,10.);
#173=VECTOR('',#688,10.);
#174=VECTOR('',#689,10.);
#175=VECTOR('',#692,10.);
#176=VECTOR('',#697,10.);
#177=VECTOR('',#700,10.);
#178=VECTOR('',#701,10.);
#179=VECTOR('',#704,10.);
#180=VECTOR('',#711,10.);
#181=VECTOR('',#714,10.);
#182=VECTOR('',#719,10.);
#183=VECTOR('',#722,10.);
#184=VECTOR('',#727,10.);
#185=VECTOR('',#730,10.);
#186=VECTOR('',#735,10.);
#187=VECTOR('',#736,10.);
#188=VECTOR('',#743,10.);
#189=VECTOR('',#744,10.);
#190=VECTOR('',#745,10.);
#191=VECTOR('',#750,10.);
#192=VECTOR('',#755,2.1828125);
#193=VECTOR('',#762,10.);
#194=VECTOR('',#767,2.05);
#195=VECTOR('',#774,1.6);
#196=VECTOR('',#779,2.1828125);
#197=VECTOR('',#784,2.1828125);
#198=VECTOR('',#787,10.);
#199=CIRCLE('',#565,1.5);
#200=CIRCLE('',#567,13.2);
#201=CIRCLE('',#569,1.5);
#202=CIRCLE('',#571,1.6);
#203=CIRCLE('',#573,13.2);
#204=CIRCLE('',#575,0.5);
#205=CIRCLE('',#577,0.499999999999999);
#206=CIRCLE('',#578,1.5);
#207=CIRCLE('',#579,2.);
#208=CIRCLE('',#581,0.5);
#209=CIRCLE('',#583,0.5);
#210=CIRCLE('',#584,1.5);
#211=CIRCLE('',#585,2.);
#212=CIRCLE('',#588,13.2);
#213=CIRCLE('',#593,13.2);
#214=CIRCLE('',#596,2.1828125);
#215=CIRCLE('',#598,13.2);
#216=CIRCLE('',#599,13.2);
#217=CIRCLE('',#601,13.2);
#218=CIRCLE('',#602,13.2);
#219=CIRCLE('',#604,2.1828125);
#220=CIRCLE('',#605,2.1828125);
#221=CIRCLE('',#607,1.6);
#222=CIRCLE('',#609,5.);
#223=CIRCLE('',#611,2.1828125);
#224=CIRCLE('',#613,5.);
#225=CIRCLE('',#615,2.05);
#226=CIRCLE('',#616,2.05);
#227=CIRCLE('',#620,2.1828125);
#228=CIRCLE('',#622,2.1828125);
#229=VERTEX_POINT('',#796);
#230=VERTEX_POINT('',#797);
#231=VERTEX_POINT('',#799);
#232=VERTEX_POINT('',#801);
#233=VERTEX_POINT('',#814);
#234=VERTEX_POINT('',#818);
#235=VERTEX_POINT('',#819);
#236=VERTEX_POINT('',#821);
#237=VERTEX_POINT('',#823);
#238=VERTEX_POINT('',#837);
#239=VERTEX_POINT('',#840);
#240=VERTEX_POINT('',#845);
#241=VERTEX_POINT('',#846);
#242=VERTEX_POINT('',#848);
#243=VERTEX_POINT('',#850);
#244=VERTEX_POINT('',#863);
#245=VERTEX_POINT('',#864);
#246=VERTEX_POINT('',#869);
#247=VERTEX_POINT('',#870);
#248=VERTEX_POINT('',#872);
#249=VERTEX_POINT('',#877);
#250=VERTEX_POINT('',#878);
#251=VERTEX_POINT('',#883);
#252=VERTEX_POINT('',#884);
#253=VERTEX_POINT('',#898);
#254=VERTEX_POINT('',#902);
#255=VERTEX_POINT('',#915);
#256=VERTEX_POINT('',#919);
#257=VERTEX_POINT('',#939);
#258=VERTEX_POINT('',#940);
#259=VERTEX_POINT('',#942);
#260=VERTEX_POINT('',#944);
#261=VERTEX_POINT('',#948);
#262=VERTEX_POINT('',#949);
#263=VERTEX_POINT('',#951);
#264=VERTEX_POINT('',#953);
#265=VERTEX_POINT('',#959);
#266=VERTEX_POINT('',#961);
#267=VERTEX_POINT('',#964);
#268=VERTEX_POINT('',#966);
#269=VERTEX_POINT('',#969);
#270=VERTEX_POINT('',#972);
#271=VERTEX_POINT('',#976);
#272=VERTEX_POINT('',#980);
#273=VERTEX_POINT('',#984);
#274=VERTEX_POINT('',#986);
#275=VERTEX_POINT('',#993);
#276=VERTEX_POINT('',#997);
#277=EDGE_CURVE('',#229,#230,#199,.T.);
#278=EDGE_CURVE('',#229,#231,#121,.T.);
#279=EDGE_CURVE('',#231,#232,#115,.T.);
#280=EDGE_CURVE('',#232,#230,#122,.T.);
#281=EDGE_CURVE('',#233,#229,#123,.T.);
#282=EDGE_CURVE('',#233,#231,#200,.F.);
#283=EDGE_CURVE('',#234,#235,#201,.T.);
#284=EDGE_CURVE('',#234,#236,#124,.T.);
#285=EDGE_CURVE('',#236,#237,#116,.T.);
#286=EDGE_CURVE('',#237,#235,#125,.T.);
#287=EDGE_CURVE('',#234,#230,#126,.T.);
#288=EDGE_CURVE('',#235,#238,#127,.T.);
#289=EDGE_CURVE('',#233,#238,#128,.F.);
#290=EDGE_CURVE('',#239,#239,#202,.F.);
#291=EDGE_CURVE('',#237,#238,#203,.F.);
#292=EDGE_CURVE('',#240,#241,#204,.T.);
#293=EDGE_CURVE('',#241,#242,#129,.T.);
#294=EDGE_CURVE('',#242,#243,#117,.T.);
#295=EDGE_CURVE('',#243,#240,#130,.T.);
#296=EDGE_CURVE('',#244,#245,#205,.T.);
#297=EDGE_CURVE('',#245,#241,#206,.T.);
#298=EDGE_CURVE('',#240,#244,#207,.T.);
#299=EDGE_CURVE('',#246,#247,#208,.T.);
#300=EDGE_CURVE('',#247,#248,#131,.T.);
#301=EDGE_CURVE('',#248,#245,#132,.T.);
#302=EDGE_CURVE('',#244,#246,#133,.T.);
#303=EDGE_CURVE('',#249,#250,#209,.T.);
#304=EDGE_CURVE('',#250,#247,#210,.T.);
#305=EDGE_CURVE('',#246,#249,#211,.T.);
#306=EDGE_CURVE('',#251,#252,#118,.T.);
#307=EDGE_CURVE('',#252,#250,#134,.T.);
#308=EDGE_CURVE('',#249,#251,#135,.T.);
#309=EDGE_CURVE('',#253,#249,#136,.T.);
#310=EDGE_CURVE('',#253,#251,#212,.T.);
#311=EDGE_CURVE('',#246,#254,#137,.T.);
#312=EDGE_CURVE('',#254,#253,#119,.T.);
#313=EDGE_CURVE('',#255,#244,#138,.T.);
#314=EDGE_CURVE('',#254,#255,#139,.T.);
#315=EDGE_CURVE('',#240,#256,#140,.T.);
#316=EDGE_CURVE('',#256,#255,#120,.T.);
#317=EDGE_CURVE('',#243,#256,#213,.F.);
#318=EDGE_CURVE('',#236,#232,#141,.F.);
#319=EDGE_CURVE('',#242,#252,#142,.T.);
#320=EDGE_CURVE('',#248,#248,#214,.T.);
#321=EDGE_CURVE('',#257,#258,#143,.F.);
#322=EDGE_CURVE('',#258,#259,#215,.F.);
#323=EDGE_CURVE('',#259,#260,#144,.F.);
#324=EDGE_CURVE('',#260,#257,#216,.F.);
#325=EDGE_CURVE('',#261,#262,#145,.F.);
#326=EDGE_CURVE('',#262,#263,#217,.F.);
#327=EDGE_CURVE('',#263,#264,#146,.F.);
#328=EDGE_CURVE('',#264,#261,#218,.F.);
#329=EDGE_CURVE('',#258,#261,#147,.T.);
#330=EDGE_CURVE('',#262,#257,#148,.T.);
#331=EDGE_CURVE('',#265,#265,#219,.F.);
#332=EDGE_CURVE('',#266,#266,#220,.F.);
#333=EDGE_CURVE('',#267,#259,#149,.T.);
#334=EDGE_CURVE('',#268,#267,#150,.F.);
#335=EDGE_CURVE('',#260,#268,#151,.T.);
#336=EDGE_CURVE('',#269,#269,#221,.F.);
#337=EDGE_CURVE('',#264,#270,#152,.T.);
#338=EDGE_CURVE('',#270,#267,#222,.T.);
#339=EDGE_CURVE('',#248,#271,#153,.T.);
#340=EDGE_CURVE('',#271,#271,#223,.T.);
#341=EDGE_CURVE('',#268,#272,#224,.T.);
#342=EDGE_CURVE('',#272,#263,#154,.T.);
#343=EDGE_CURVE('',#273,#273,#225,.T.);
#344=EDGE_CURVE('',#273,#274,#155,.T.);
#345=EDGE_CURVE('',#274,#274,#226,.T.);
#346=EDGE_CURVE('',#239,#269,#156,.T.);
#347=EDGE_CURVE('',#275,#275,#227,.T.);
#348=EDGE_CURVE('',#275,#266,#157,.T.);
#349=EDGE_CURVE('',#276,#276,#228,.T.);
#350=EDGE_CURVE('',#276,#265,#158,.T.);
#351=EDGE_CURVE('',#270,#272,#159,.T.);
#352=ORIENTED_EDGE('',*,*,#277,.F.);
#353=ORIENTED_EDGE('',*,*,#278,.T.);
#354=ORIENTED_EDGE('',*,*,#279,.T.);
#355=ORIENTED_EDGE('',*,*,#280,.T.);
#356=ORIENTED_EDGE('',*,*,#278,.F.);
#357=ORIENTED_EDGE('',*,*,#281,.F.);
#358=ORIENTED_EDGE('',*,*,#282,.T.);
#359=ORIENTED_EDGE('',*,*,#283,.F.);
#360=ORIENTED_EDGE('',*,*,#284,.T.);
#361=ORIENTED_EDGE('',*,*,#285,.T.);
#362=ORIENTED_EDGE('',*,*,#286,.T.);
#363=ORIENTED_EDGE('',*,*,#277,.T.);
#364=ORIENTED_EDGE('',*,*,#287,.F.);
#365=ORIENTED_EDGE('',*,*,#283,.T.);
#366=ORIENTED_EDGE('',*,*,#288,.T.);
#367=ORIENTED_EDGE('',*,*,#289,.F.);
#368=ORIENTED_EDGE('',*,*,#281,.T.);
#369=ORIENTED_EDGE('',*,*,#290,.F.);
#370=ORIENTED_EDGE('',*,*,#286,.F.);
#371=ORIENTED_EDGE('',*,*,#291,.T.);
#372=ORIENTED_EDGE('',*,*,#288,.F.);
#373=ORIENTED_EDGE('',*,*,#292,.T.);
#374=ORIENTED_EDGE('',*,*,#293,.T.);
#375=ORIENTED_EDGE('',*,*,#294,.T.);
#376=ORIENTED_EDGE('',*,*,#295,.T.);
#377=ORIENTED_EDGE('',*,*,#296,.T.);
#378=ORIENTED_EDGE('',*,*,#297,.T.);
#379=ORIENTED_EDGE('',*,*,#292,.F.);
#380=ORIENTED_EDGE('',*,*,#298,.T.);
#381=ORIENTED_EDGE('',*,*,#299,.T.);
#382=ORIENTED_EDGE('',*,*,#300,.T.);
#383=ORIENTED_EDGE('',*,*,#301,.T.);
#384=ORIENTED_EDGE('',*,*,#296,.F.);
#385=ORIENTED_EDGE('',*,*,#302,.T.);
#386=ORIENTED_EDGE('',*,*,#303,.T.);
#387=ORIENTED_EDGE('',*,*,#304,.T.);
#388=ORIENTED_EDGE('',*,*,#299,.F.);
#389=ORIENTED_EDGE('',*,*,#305,.T.);
#390=ORIENTED_EDGE('',*,*,#306,.T.);
#391=ORIENTED_EDGE('',*,*,#307,.T.);
#392=ORIENTED_EDGE('',*,*,#303,.F.);
#393=ORIENTED_EDGE('',*,*,#308,.T.);
#394=ORIENTED_EDGE('',*,*,#308,.F.);
#395=ORIENTED_EDGE('',*,*,#309,.F.);
#396=ORIENTED_EDGE('',*,*,#310,.T.);
#397=ORIENTED_EDGE('',*,*,#305,.F.);
#398=ORIENTED_EDGE('',*,*,#311,.T.);
#399=ORIENTED_EDGE('',*,*,#312,.T.);
#400=ORIENTED_EDGE('',*,*,#309,.T.);
#401=ORIENTED_EDGE('',*,*,#302,.F.);
#402=ORIENTED_EDGE('',*,*,#313,.F.);
#403=ORIENTED_EDGE('',*,*,#314,.F.);
#404=ORIENTED_EDGE('',*,*,#311,.F.);
#405=ORIENTED_EDGE('',*,*,#298,.F.);
#406=ORIENTED_EDGE('',*,*,#315,.T.);
#407=ORIENTED_EDGE('',*,*,#316,.T.);
#408=ORIENTED_EDGE('',*,*,#313,.T.);
#409=ORIENTED_EDGE('',*,*,#295,.F.);
#410=ORIENTED_EDGE('',*,*,#317,.T.);
#411=ORIENTED_EDGE('',*,*,#315,.F.);
#412=ORIENTED_EDGE('',*,*,#280,.F.);
#413=ORIENTED_EDGE('',*,*,#318,.F.);
#414=ORIENTED_EDGE('',*,*,#284,.F.);
#415=ORIENTED_EDGE('',*,*,#287,.T.);
#416=ORIENTED_EDGE('',*,*,#307,.F.);
#417=ORIENTED_EDGE('',*,*,#319,.F.);
#418=ORIENTED_EDGE('',*,*,#293,.F.);
#419=ORIENTED_EDGE('',*,*,#297,.F.);
#420=ORIENTED_EDGE('',*,*,#301,.F.);
#421=ORIENTED_EDGE('',*,*,#320,.F.);
#422=ORIENTED_EDGE('',*,*,#300,.F.);
#423=ORIENTED_EDGE('',*,*,#304,.F.);
#424=ORIENTED_EDGE('',*,*,#321,.T.);
#425=ORIENTED_EDGE('',*,*,#322,.T.);
#426=ORIENTED_EDGE('',*,*,#323,.T.);
#427=ORIENTED_EDGE('',*,*,#324,.T.);
#428=ORIENTED_EDGE('',*,*,#289,.T.);
#429=ORIENTED_EDGE('',*,*,#291,.F.);
#430=ORIENTED_EDGE('',*,*,#285,.F.);
#431=ORIENTED_EDGE('',*,*,#318,.T.);
#432=ORIENTED_EDGE('',*,*,#279,.F.);
#433=ORIENTED_EDGE('',*,*,#282,.F.);
#434=ORIENTED_EDGE('',*,*,#325,.T.);
#435=ORIENTED_EDGE('',*,*,#326,.T.);
#436=ORIENTED_EDGE('',*,*,#327,.T.);
#437=ORIENTED_EDGE('',*,*,#328,.T.);
#438=ORIENTED_EDGE('',*,*,#319,.T.);
#439=ORIENTED_EDGE('',*,*,#306,.F.);
#440=ORIENTED_EDGE('',*,*,#310,.F.);
#441=ORIENTED_EDGE('',*,*,#312,.F.);
#442=ORIENTED_EDGE('',*,*,#314,.T.);
#443=ORIENTED_EDGE('',*,*,#316,.F.);
#444=ORIENTED_EDGE('',*,*,#317,.F.);
#445=ORIENTED_EDGE('',*,*,#294,.F.);
#446=ORIENTED_EDGE('',*,*,#325,.F.);
#447=ORIENTED_EDGE('',*,*,#329,.F.);
#448=ORIENTED_EDGE('',*,*,#321,.F.);
#449=ORIENTED_EDGE('',*,*,#330,.F.);
#450=ORIENTED_EDGE('',*,*,#331,.F.);
#451=ORIENTED_EDGE('',*,*,#332,.F.);
#452=ORIENTED_EDGE('',*,*,#323,.F.);
#453=ORIENTED_EDGE('',*,*,#333,.F.);
#454=ORIENTED_EDGE('',*,*,#334,.F.);
#455=ORIENTED_EDGE('',*,*,#335,.F.);
#456=ORIENTED_EDGE('',*,*,#336,.F.);
#457=ORIENTED_EDGE('',*,*,#328,.F.);
#458=ORIENTED_EDGE('',*,*,#337,.T.);
#459=ORIENTED_EDGE('',*,*,#338,.T.);
#460=ORIENTED_EDGE('',*,*,#333,.T.);
#461=ORIENTED_EDGE('',*,*,#322,.F.);
#462=ORIENTED_EDGE('',*,*,#329,.T.);
#463=ORIENTED_EDGE('',*,*,#320,.T.);
#464=ORIENTED_EDGE('',*,*,#339,.T.);
#465=ORIENTED_EDGE('',*,*,#340,.T.);
#466=ORIENTED_EDGE('',*,*,#339,.F.);
#467=ORIENTED_EDGE('',*,*,#326,.F.);
#468=ORIENTED_EDGE('',*,*,#330,.T.);
#469=ORIENTED_EDGE('',*,*,#324,.F.);
#470=ORIENTED_EDGE('',*,*,#335,.T.);
#471=ORIENTED_EDGE('',*,*,#341,.T.);
#472=ORIENTED_EDGE('',*,*,#342,.T.);
#473=ORIENTED_EDGE('',*,*,#343,.F.);
#474=ORIENTED_EDGE('',*,*,#344,.T.);
#475=ORIENTED_EDGE('',*,*,#345,.F.);
#476=ORIENTED_EDGE('',*,*,#344,.F.);
#477=ORIENTED_EDGE('',*,*,#340,.F.);
#478=ORIENTED_EDGE('',*,*,#343,.T.);
#479=ORIENTED_EDGE('',*,*,#290,.T.);
#480=ORIENTED_EDGE('',*,*,#346,.T.);
#481=ORIENTED_EDGE('',*,*,#336,.T.);
#482=ORIENTED_EDGE('',*,*,#346,.F.);
#483=ORIENTED_EDGE('',*,*,#347,.F.);
#484=ORIENTED_EDGE('',*,*,#348,.T.);
#485=ORIENTED_EDGE('',*,*,#332,.T.);
#486=ORIENTED_EDGE('',*,*,#348,.F.);
#487=ORIENTED_EDGE('',*,*,#349,.F.);
#488=ORIENTED_EDGE('',*,*,#350,.T.);
#489=ORIENTED_EDGE('',*,*,#331,.T.);
#490=ORIENTED_EDGE('',*,*,#350,.F.);
#491=ORIENTED_EDGE('',*,*,#334,.T.);
#492=ORIENTED_EDGE('',*,*,#338,.F.);
#493=ORIENTED_EDGE('',*,*,#351,.T.);
#494=ORIENTED_EDGE('',*,*,#341,.F.);
#495=ORIENTED_EDGE('',*,*,#327,.F.);
#496=ORIENTED_EDGE('',*,*,#342,.F.);
#497=ORIENTED_EDGE('',*,*,#351,.F.);
#498=ORIENTED_EDGE('',*,*,#337,.F.);
#499=ORIENTED_EDGE('',*,*,#345,.T.);
#500=ORIENTED_EDGE('',*,*,#349,.T.);
#501=ORIENTED_EDGE('',*,*,#347,.T.);
#502=CYLINDRICAL_SURFACE('',#564,1.5);
#503=CYLINDRICAL_SURFACE('',#568,1.5);
#504=CYLINDRICAL_SURFACE('',#574,0.5);
#505=CYLINDRICAL_SURFACE('',#580,0.5);
#506=CYLINDRICAL_SURFACE('',#586,0.5);
#507=CYLINDRICAL_SURFACE('',#589,2.);
#508=CYLINDRICAL_SURFACE('',#591,2.);
#509=CYLINDRICAL_SURFACE('',#597,13.2);
#510=CYLINDRICAL_SURFACE('',#600,13.2);
#511=CYLINDRICAL_SURFACE('',#610,2.1828125);
#512=CYLINDRICAL_SURFACE('',#614,2.05);
#513=CYLINDRICAL_SURFACE('',#618,1.6);
#514=CYLINDRICAL_SURFACE('',#619,2.1828125);
#515=CYLINDRICAL_SURFACE('',#621,2.1828125);
#516=CYLINDRICAL_SURFACE('',#623,5.);
#517=ADVANCED_FACE('',(#41),#502,.F.);
#518=ADVANCED_FACE('',(#42),#25,.T.);
#519=ADVANCED_FACE('',(#43),#503,.F.);
#520=ADVANCED_FACE('',(#44,#17),#26,.F.);
#521=ADVANCED_FACE('',(#45),#27,.T.);
#522=ADVANCED_FACE('',(#46),#504,.F.);
#523=ADVANCED_FACE('',(#47),#15,.F.);
#524=ADVANCED_FACE('',(#48),#505,.F.);
#525=ADVANCED_FACE('',(#49),#16,.F.);
#526=ADVANCED_FACE('',(#50),#506,.F.);
#527=ADVANCED_FACE('',(#51),#28,.F.);
#528=ADVANCED_FACE('',(#52),#507,.F.);
#529=ADVANCED_FACE('',(#53),#29,.T.);
#530=ADVANCED_FACE('',(#54),#508,.F.);
#531=ADVANCED_FACE('',(#55),#30,.T.);
#532=ADVANCED_FACE('',(#56),#31,.F.);
#533=ADVANCED_FACE('',(#57),#32,.T.);
#534=ADVANCED_FACE('',(#58,#18),#509,.T.);
#535=ADVANCED_FACE('',(#59,#19),#510,.T.);
#536=ADVANCED_FACE('',(#60,#20,#21),#33,.F.);
#537=ADVANCED_FACE('',(#61,#22),#34,.F.);
#538=ADVANCED_FACE('',(#62),#35,.F.);
#539=ADVANCED_FACE('',(#63),#511,.F.);
#540=ADVANCED_FACE('',(#64),#36,.F.);
#541=ADVANCED_FACE('',(#65),#512,.F.);
#542=ADVANCED_FACE('',(#66,#23),#37,.T.);
#543=ADVANCED_FACE('',(#67),#513,.F.);
#544=ADVANCED_FACE('',(#68),#514,.F.);
#545=ADVANCED_FACE('',(#69),#515,.F.);
#546=ADVANCED_FACE('',(#70),#516,.F.);
#547=ADVANCED_FACE('',(#71,#24),#38,.F.);
#548=ADVANCED_FACE('',(#72),#39,.T.);
#549=ADVANCED_FACE('',(#73),#40,.T.);
#550=CLOSED_SHELL('',(#517,#518,#519,#520,#521,#522,#523,#524,#525,#526,
#527,#528,#529,#530,#531,#532,#533,#534,#535,#536,#537,#538,#539,#540,#541,
#542,#543,#544,#545,#546,#547,#548,#549));
#551=DERIVED_UNIT_ELEMENT(#553,1.);
#552=DERIVED_UNIT_ELEMENT(#1010,-3.);
#553=(
MASS_UNIT()
NAMED_UNIT(*)
SI_UNIT(.KILO.,.GRAM.)
);
#554=DERIVED_UNIT((#551,#552));
#555=MEASURE_REPRESENTATION_ITEM('density measure',
POSITIVE_RATIO_MEASURE(7850.),#554);
#556=PROPERTY_DEFINITION_REPRESENTATION(#561,#558);
#557=PROPERTY_DEFINITION_REPRESENTATION(#562,#559);
#558=REPRESENTATION('material name',(#560),#1007);
#559=REPRESENTATION('density',(#555),#1007);
#560=DESCRIPTIVE_REPRESENTATION_ITEM('Steel','Steel');
#561=PROPERTY_DEFINITION('material property','material name',#1017);
#562=PROPERTY_DEFINITION('material property','density of part',#1017);
#563=AXIS2_PLACEMENT_3D('',#794,#627,#628);
#564=AXIS2_PLACEMENT_3D('',#795,#629,#630);
#565=AXIS2_PLACEMENT_3D('',#798,#631,#632);
#566=AXIS2_PLACEMENT_3D('',#813,#635,#636);
#567=AXIS2_PLACEMENT_3D('',#816,#638,#639);
#568=AXIS2_PLACEMENT_3D('',#817,#640,#641);
#569=AXIS2_PLACEMENT_3D('',#820,#642,#643);
#570=AXIS2_PLACEMENT_3D('',#835,#646,#647);
#571=AXIS2_PLACEMENT_3D('',#841,#651,#652);
#572=AXIS2_PLACEMENT_3D('',#842,#653,#654);
#573=AXIS2_PLACEMENT_3D('',#843,#655,#656);
#574=AXIS2_PLACEMENT_3D('',#844,#657,#658);
#575=AXIS2_PLACEMENT_3D('',#847,#659,#660);
#576=AXIS2_PLACEMENT_3D('',#862,#663,#664);
#577=AXIS2_PLACEMENT_3D('',#865,#665,#666);
#578=AXIS2_PLACEMENT_3D('',#866,#667,#668);
#579=AXIS2_PLACEMENT_3D('',#867,#669,#670);
#580=AXIS2_PLACEMENT_3D('',#868,#671,#672);
#581=AXIS2_PLACEMENT_3D('',#871,#673,#674);
#582=AXIS2_PLACEMENT_3D('',#876,#678,#679);
#583=AXIS2_PLACEMENT_3D('',#879,#680,#681);
#584=AXIS2_PLACEMENT_3D('',#880,#682,#683);
#585=AXIS2_PLACEMENT_3D('',#881,#684,#685);
#586=AXIS2_PLACEMENT_3D('',#882,#686,#687);
#587=AXIS2_PLACEMENT_3D('',#897,#690,#691);
#588=AXIS2_PLACEMENT_3D('',#900,#693,#694);
#589=AXIS2_PLACEMENT_3D('',#901,#695,#696);
#590=AXIS2_PLACEMENT_3D('',#914,#698,#699);
#591=AXIS2_PLACEMENT_3D('',#918,#702,#703);
#592=AXIS2_PLACEMENT_3D('',#931,#705,#706);
#593=AXIS2_PLACEMENT_3D('',#932,#707,#708);
#594=AXIS2_PLACEMENT_3D('',#933,#709,#710);
#595=AXIS2_PLACEMENT_3D('',#935,#712,#713);
#596=AXIS2_PLACEMENT_3D('',#937,#715,#716);
#597=AXIS2_PLACEMENT_3D('',#938,#717,#718);
#598=AXIS2_PLACEMENT_3D('',#943,#720,#721);
#599=AXIS2_PLACEMENT_3D('',#946,#723,#724);
#600=AXIS2_PLACEMENT_3D('',#947,#725,#726);
#601=AXIS2_PLACEMENT_3D('',#952,#728,#729);
#602=AXIS2_PLACEMENT_3D('',#955,#731,#732);
#603=AXIS2_PLACEMENT_3D('',#956,#733,#734);
#604=AXIS2_PLACEMENT_3D('',#960,#737,#738);
#605=AXIS2_PLACEMENT_3D('',#962,#739,#740);
#606=AXIS2_PLACEMENT_3D('',#963,#741,#742);
#607=AXIS2_PLACEMENT_3D('',#970,#746,#747);
#608=AXIS2_PLACEMENT_3D('',#971,#748,#749);
#609=AXIS2_PLACEMENT_3D('',#974,#751,#752);
#610=AXIS2_PLACEMENT_3D('',#975,#753,#754);
#611=AXIS2_PLACEMENT_3D('',#978,#756,#757);
#612=AXIS2_PLACEMENT_3D('',#979,#758,#759);
#613=AXIS2_PLACEMENT_3D('',#981,#760,#761);
#614=AXIS2_PLACEMENT_3D('',#983,#763,#764);
#615=AXIS2_PLACEMENT_3D('',#985,#765,#766);
#616=AXIS2_PLACEMENT_3D('',#988,#768,#769);
#617=AXIS2_PLACEMENT_3D('',#989,#770,#771);
#618=AXIS2_PLACEMENT_3D('',#990,#772,#773);
#619=AXIS2_PLACEMENT_3D('',#992,#775,#776);
#620=AXIS2_PLACEMENT_3D('',#994,#777,#778);
#621=AXIS2_PLACEMENT_3D('',#996,#780,#781);
#622=AXIS2_PLACEMENT_3D('',#998,#782,#783);
#623=AXIS2_PLACEMENT_3D('',#1000,#785,#786);
#624=AXIS2_PLACEMENT_3D('',#1002,#788,#789);
#625=AXIS2_PLACEMENT_3D('',#1003,#790,#791);
#626=AXIS2_PLACEMENT_3D('',#1004,#792,#793);
#627=DIRECTION('axis',(0.,0.,1.));
#628=DIRECTION('refdir',(1.,0.,0.));
#629=DIRECTION('center_axis',(-1.,0.,0.));
#630=DIRECTION('ref_axis',(0.,0.707106781186549,-0.707106781186546));
#631=DIRECTION('center_axis',(-1.,0.,0.));
#632=DIRECTION('ref_axis',(0.,0.707106781186549,-0.707106781186546));
#633=DIRECTION('',(-1.,0.,0.));
#634=DIRECTION('',(1.,0.,0.));
#635=DIRECTION('center_axis',(0.,-1.,0.));
#636=DIRECTION('ref_axis',(0.,0.,1.));
#637=DIRECTION('',(0.,0.,-1.));
#638=DIRECTION('center_axis',(0.,1.,0.));
#639=DIRECTION('ref_axis',(0.,-2.22044604925031E-16,1.));
#640=DIRECTION('center_axis',(1.,0.,0.));
#641=DIRECTION('ref_axis',(0.,-0.707106781186548,-0.707106781186547));
#642=DIRECTION('center_axis',(-1.,0.,0.));
#643=DIRECTION('ref_axis',(0.,-0.707106781186548,-0.707106781186547));
#644=DIRECTION('',(-1.,0.,0.));
#645=DIRECTION('',(1.,0.,0.));
#646=DIRECTION('center_axis',(1.,0.,0.));
#647=DIRECTION('ref_axis',(0.,1.23259516440782E-31,-1.));
#648=DIRECTION('',(0.,1.,0.));
#649=DIRECTION('',(0.,0.,1.));
#650=DIRECTION('',(0.,1.,2.22044604925031E-16));
#651=DIRECTION('center_axis',(1.,0.,0.));
#652=DIRECTION('ref_axis',(0.,0.,-1.));
#653=DIRECTION('center_axis',(0.,1.,0.));
#654=DIRECTION('ref_axis',(0.,0.,-1.));
#655=DIRECTION('center_axis',(0.,-1.,0.));
#656=DIRECTION('ref_axis',(0.,-2.22044604925031E-16,1.));
#657=DIRECTION('center_axis',(0.,0.,-1.));
#658=DIRECTION('ref_axis',(-0.707106781186548,-0.707106781186548,0.));
#659=DIRECTION('center_axis',(0.,0.,-1.));
#660=DIRECTION('ref_axis',(0.,-1.,0.));
#661=DIRECTION('',(0.,0.,1.));
#662=DIRECTION('',(0.,0.,-1.));
#663=DIRECTION('center_axis',(1.,0.,0.));
#664=DIRECTION('ref_axis',(0.,0.,-1.));
#665=DIRECTION('center_axis',(0.,1.,0.));
#666=DIRECTION('ref_axis',(0.,0.,-1.));
#667=DIRECTION('center_axis',(-1.,0.,0.));
#668=DIRECTION('ref_axis',(0.,-0.707106781186548,-0.707106781186547));
#669=DIRECTION('center_axis',(1.,0.,0.));
#670=DIRECTION('ref_axis',(0.,-0.707106781186548,-0.707106781186547));
#671=DIRECTION('center_axis',(0.,1.,0.));
#672=DIRECTION('ref_axis',(-0.707106781186546,0.,-0.707106781186549));
#673=DIRECTION('center_axis',(0.,1.,0.));
#674=DIRECTION('ref_axis',(0.,0.,-1.));
#675=DIRECTION('',(0.,-1.,0.));
#676=DIRECTION('',(0.,-1.,0.));
#677=DIRECTION('',(0.,1.,0.));
#678=DIRECTION('center_axis',(1.,0.,0.));
#679=DIRECTION('ref_axis',(0.,0.,-1.));
#680=DIRECTION('center_axis',(0.,0.,1.));
#681=DIRECTION('ref_axis',(0.,1.,0.));
#682=DIRECTION('center_axis',(-1.,0.,0.));
#683=DIRECTION('ref_axis',(0.,0.707106781186547,-0.707106781186547));
#684=DIRECTION('center_axis',(1.,0.,0.));
#685=DIRECTION('ref_axis',(0.,0.707106781186548,-0.707106781186548));
#686=DIRECTION('center_axis',(0.,0.,1.));
#687=DIRECTION('ref_axis',(-0.707106781186544,0.707106781186551,0.));
#688=DIRECTION('',(0.,0.,-1.));
#689=DIRECTION('',(0.,0.,1.));
#690=DIRECTION('center_axis',(0.,1.,0.));
#691=DIRECTION('ref_axis',(0.,0.,1.));
#692=DIRECTION('',(-1.,0.,0.));
#693=DIRECTION('center_axis',(0.,-1.,0.));
#694=DIRECTION('ref_axis',(0.,-2.22044604925031E-16,1.));
#695=DIRECTION('center_axis',(-1.,0.,0.));
#696=DIRECTION('ref_axis',(0.,0.707106781186547,-0.707106781186548));
#697=DIRECTION('',(1.,0.,0.));
#698=DIRECTION('center_axis',(0.,0.,1.));
#699=DIRECTION('ref_axis',(0.,-1.,0.));
#700=DIRECTION('',(-1.,0.,0.));
#701=DIRECTION('',(0.,-1.,-2.22044604925031E-16));
#702=DIRECTION('center_axis',(1.,0.,0.));
#703=DIRECTION('ref_axis',(0.,-0.707106781186548,-0.707106781186547));
#704=DIRECTION('',(1.,0.,0.));
#705=DIRECTION('center_axis',(0.,1.,0.));
#706=DIRECTION('ref_axis',(0.,0.,1.));
#707=DIRECTION('center_axis',(0.,-1.,0.));
#708=DIRECTION('ref_axis',(0.,-2.22044604925031E-16,1.));
#709=DIRECTION('center_axis',(0.,1.56873630482355E-16,-1.));
#710=DIRECTION('ref_axis',(0.,1.,1.56873630482355E-16));
#711=DIRECTION('',(0.,-1.,-2.22044604925031E-16));
#712=DIRECTION('center_axis',(1.,0.,0.));
#713=DIRECTION('ref_axis',(0.,0.,1.));
#714=DIRECTION('',(0.,1.,2.22044604925031E-16));
#715=DIRECTION('center_axis',(1.,0.,0.));
#716=DIRECTION('ref_axis',(0.,0.,1.));
#717=DIRECTION('center_axis',(0.,1.,2.22044604925031E-16));
#718=DIRECTION('ref_axis',(0.,-2.22044604925031E-16,1.));
#719=DIRECTION('',(0.,1.,2.22044604925031E-16));
#720=DIRECTION('center_axis',(0.,-1.,0.));
#721=DIRECTION('ref_axis',(0.,-2.22044604925031E-16,1.));
#722=DIRECTION('',(0.,-1.,-2.22044604925031E-16));
#723=DIRECTION('center_axis',(0.,1.,0.));
#724=DIRECTION('ref_axis',(0.,-2.22044604925031E-16,1.));
#725=DIRECTION('center_axis',(0.,1.,2.22044604925031E-16));
#726=DIRECTION('ref_axis',(0.,-2.22044604925031E-16,1.));
#727=DIRECTION('',(0.,-1.,-2.22044604925031E-16));
#728=DIRECTION('center_axis',(0.,1.,0.));
#729=DIRECTION('ref_axis',(0.,-2.22044604925031E-16,1.));
#730=DIRECTION('',(0.,1.,2.22044604925031E-16));
#731=DIRECTION('center_axis',(0.,-1.,0.));
#732=DIRECTION('ref_axis',(0.,-2.22044604925031E-16,1.));
#733=DIRECTION('center_axis',(0.,0.,1.));
#734=DIRECTION('ref_axis',(1.,0.,0.));
#735=DIRECTION('',(1.,0.,0.));
#736=DIRECTION('',(-1.,0.,0.));
#737=DIRECTION('center_axis',(0.,0.,1.));
#738=DIRECTION('ref_axis',(-1.,0.,0.));
#739=DIRECTION('center_axis',(0.,0.,1.));
#740=DIRECTION('ref_axis',(-1.,0.,0.));
#741=DIRECTION('center_axis',(-1.,0.,0.));
#742=DIRECTION('ref_axis',(0.,0.,1.));
#743=DIRECTION('',(0.,0.,1.));
#744=DIRECTION('',(0.,1.,0.));
#745=DIRECTION('',(0.,0.,-1.));
#746=DIRECTION('center_axis',(-1.,0.,0.));
#747=DIRECTION('ref_axis',(0.,0.,-1.));
#748=DIRECTION('center_axis',(0.,1.,0.));
#749=DIRECTION('ref_axis',(0.,0.,1.));
#750=DIRECTION('',(0.,0.,-1.));
#751=DIRECTION('center_axis',(0.,1.,0.));
#752=DIRECTION('ref_axis',(0.,0.,-1.));
#753=DIRECTION('center_axis',(-1.,0.,0.));
#754=DIRECTION('ref_axis',(0.,0.,1.));
#755=DIRECTION('',(-1.,0.,0.));
#756=DIRECTION('center_axis',(-1.,0.,0.));
#757=DIRECTION('ref_axis',(0.,0.,1.));
#758=DIRECTION('center_axis',(0.,-1.,0.));
#759=DIRECTION('ref_axis',(0.,0.,-1.));
#760=DIRECTION('center_axis',(0.,-1.,0.));
#761=DIRECTION('ref_axis',(0.,0.,-1.));
#762=DIRECTION('',(0.,0.,1.));
#763=DIRECTION('center_axis',(-1.,0.,0.));
#764=DIRECTION('ref_axis',(0.,1.,0.));
#765=DIRECTION('center_axis',(-1.,0.,0.));
#766=DIRECTION('ref_axis',(0.,1.,0.));
#767=DIRECTION('',(-1.,0.,0.));
#768=DIRECTION('center_axis',(1.,0.,0.));
#769=DIRECTION('ref_axis',(0.,1.,0.));
#770=DIRECTION('center_axis',(1.,0.,0.));
#771=DIRECTION('ref_axis',(0.,0.,1.));
#772=DIRECTION('center_axis',(1.,0.,0.));
#773=DIRECTION('ref_axis',(0.,0.,-1.));
#774=DIRECTION('',(1.,0.,0.));
#775=DIRECTION('center_axis',(0.,0.,-1.));
#776=DIRECTION('ref_axis',(-1.,0.,0.));
#777=DIRECTION('center_axis',(0.,0.,-1.));
#778=DIRECTION('ref_axis',(-1.,0.,0.));
#779=DIRECTION('',(0.,0.,-1.));
#780=DIRECTION('center_axis',(0.,0.,-1.));
#781=DIRECTION('ref_axis',(-1.,0.,0.));
#782=DIRECTION('center_axis',(0.,0.,-1.));
#783=DIRECTION('ref_axis',(-1.,0.,0.));
#784=DIRECTION('',(0.,0.,-1.));
#785=DIRECTION('center_axis',(0.,-1.,0.));
#786=DIRECTION('ref_axis',(0.,0.,-1.));
#787=DIRECTION('',(0.,1.,0.));
#788=DIRECTION('center_axis',(1.,0.,0.));
#789=DIRECTION('ref_axis',(0.,0.,-1.));
#790=DIRECTION('center_axis',(0.,0.,-1.));
#791=DIRECTION('ref_axis',(-1.,0.,0.));
#792=DIRECTION('center_axis',(0.,0.,-1.));
#793=DIRECTION('ref_axis',(-1.,0.,0.));
#794=CARTESIAN_POINT('',(0.,0.,0.));
#795=CARTESIAN_POINT('Origin',(-6.66142899505658,19.250891323632,7.32360037846755));
#796=CARTESIAN_POINT('',(-7.26142899505658,20.750891323632,7.32360037846755));
#797=CARTESIAN_POINT('',(-7.26142899505658,19.250891323632,5.8236003784673));
#798=CARTESIAN_POINT('Origin',(-7.26142899505658,19.250891323632,7.32360037846755));
#799=CARTESIAN_POINT('',(-10.98202520014,20.750891323632,7.32360037846755));
#800=CARTESIAN_POINT('',(-6.66142899505658,20.750891323632,7.32360037846755));
#801=CARTESIAN_POINT('',(-11.8459140057622,19.250891323632,5.82360037846754));
#802=CARTESIAN_POINT('Ctrl Pts',(-10.98202520014,20.750891323632,7.32360037846755));
#803=CARTESIAN_POINT('Ctrl Pts',(-11.1048671803929,20.750891323632,7.13939402461743));
#804=CARTESIAN_POINT('Ctrl Pts',(-11.2322102061566,20.7149539374406,6.93733922455705));
#805=CARTESIAN_POINT('Ctrl Pts',(-11.4589990669468,20.5560348253748,6.55595621148184));
#806=CARTESIAN_POINT('Ctrl Pts',(-11.5586312183678,20.4327723743453,6.3768558755207));
#807=CARTESIAN_POINT('Ctrl Pts',(-11.6994783078367,20.1549605168134,6.11398101231576));
#808=CARTESIAN_POINT('Ctrl Pts',(-11.7548714021045,19.9931059995282,6.0057980530376));
#809=CARTESIAN_POINT('Ctrl Pts',(-11.8279689453234,19.6341647622824,5.86052577314076));
#810=CARTESIAN_POINT('Ctrl Pts',(-11.8459140057622,19.4370607567038,5.82360037846755));
#811=CARTESIAN_POINT('Ctrl Pts',(-11.8459140057622,19.250891323632,5.82360037846755));
#812=CARTESIAN_POINT('',(-6.66142899505658,19.250891323632,5.82360037846755));
#813=CARTESIAN_POINT('Origin',(-7.26142899505658,20.750891323632,5.8236003784673));
#814=CARTESIAN_POINT('',(-7.26142899505658,20.750891323632,11.0232322369508));
#815=CARTESIAN_POINT('',(-7.26142899505658,20.750891323632,2.91180018923365));
#816=CARTESIAN_POINT('Origin',(0.,20.750891323632,1.84942003826106E-15));
#817=CARTESIAN_POINT('Origin',(-6.66142899505658,16.121843928468,7.32360037846754));
#818=CARTESIAN_POINT('',(-7.26142899505658,16.121843928468,5.8236003784673));
#819=CARTESIAN_POINT('',(-7.26142899505658,14.621843928468,7.32360037846754));
#820=CARTESIAN_POINT('Origin',(-7.26142899505658,16.121843928468,7.32360037846754));
#821=CARTESIAN_POINT('',(-11.8459140057622,16.121843928468,5.82360037846754));
#822=CARTESIAN_POINT('',(-6.66142899505658,16.121843928468,5.82360037846754));
#823=CARTESIAN_POINT('',(-10.98202520014,14.621843928468,7.32360037846754));
#824=CARTESIAN_POINT('Ctrl Pts',(-11.8459140057622,16.121843928468,5.82360037846754));
#825=CARTESIAN_POINT('Ctrl Pts',(-11.8459140057622,15.9356744953962,5.82360037846754));
#826=CARTESIAN_POINT('Ctrl Pts',(-11.8279689453234,15.7385704898176,5.86052577314076));
#827=CARTESIAN_POINT('Ctrl Pts',(-11.7548714021045,15.3796292525718,6.0057980530376));
#828=CARTESIAN_POINT('Ctrl Pts',(-11.6994783078367,15.2177747352866,6.11398101231576));
#829=CARTESIAN_POINT('Ctrl Pts',(-11.5586312183678,14.9399628777547,6.3768558755207));
#830=CARTESIAN_POINT('Ctrl Pts',(-11.4589990669468,14.8167004267252,6.55595621148183));
#831=CARTESIAN_POINT('Ctrl Pts',(-11.2322102061566,14.6577813146593,6.93733922455705));
#832=CARTESIAN_POINT('Ctrl Pts',(-11.1048671803929,14.621843928468,7.13939402461742));
#833=CARTESIAN_POINT('Ctrl Pts',(-10.98202520014,14.621843928468,7.32360037846754));
#834=CARTESIAN_POINT('',(-6.66142899505658,14.621843928468,7.32360037846754));
#835=CARTESIAN_POINT('Origin',(-7.26142899505658,0.,0.));
#836=CARTESIAN_POINT('',(-7.26142899505658,20.4508913236321,5.8236003784673));
#837=CARTESIAN_POINT('',(-7.26142899505658,14.621843928468,11.0232322369508));
#838=CARTESIAN_POINT('',(-7.26142899505658,14.621843928468,5.39146661284644));
#839=CARTESIAN_POINT('',(-7.26142899505658,18.421843928468,11.0232322369508));
#840=CARTESIAN_POINT('',(-7.26142899505658,17.68636762605,10.3236003784671));
#841=CARTESIAN_POINT('Origin',(-7.26142899505658,17.68636762605,8.72360037846711));
#842=CARTESIAN_POINT('Origin',(-7.26142899505658,14.621843928468,10.7829332256929));
#843=CARTESIAN_POINT('Origin',(0.,14.621843928468,4.88498130835069E-16));
#844=CARTESIAN_POINT('Origin',(6.89094893263646,15.4217997061158,9.04078787846711));
#845=CARTESIAN_POINT('',(6.89094893263646,14.9217997061158,8.04078787846711));
#846=CARTESIAN_POINT('',(6.39094893263646,15.4217997061158,8.04078787846711));
#847=CARTESIAN_POINT('Origin',(6.89094893263646,15.4217997061158,8.04078787846711));
#848=CARTESIAN_POINT('',(6.39094893263646,15.4217997061158,11.5497087296794));
#849=CARTESIAN_POINT('',(6.39094893263646,15.4217997061158,9.04078787846711));
#850=CARTESIAN_POINT('',(6.89094893263646,14.9217997061158,11.2585444355741));
#851=CARTESIAN_POINT('Ctrl Pts',(6.39094893263646,15.4217997061158,11.5497087296794));
#852=CARTESIAN_POINT('Ctrl Pts',(6.39094893263646,15.3595589098061,11.5497087296794));
#853=CARTESIAN_POINT('Ctrl Pts',(6.40332531007388,15.2938339879027,11.5428849019469));
#854=CARTESIAN_POINT('Ctrl Pts',(6.45170133015771,15.1743859733858,11.5159158057859));
#855=CARTESIAN_POINT('Ctrl Pts',(6.48763525016115,15.1206368034871,11.4957681913861));
#856=CARTESIAN_POINT('Ctrl Pts',(6.5744584139056,15.0287060389232,11.4463715938877));
#857=CARTESIAN_POINT('Ctrl Pts',(6.63347943367722,14.9876918614716,11.4123780464234));
#858=CARTESIAN_POINT('Ctrl Pts',(6.76038801519413,14.9342609829548,11.3376618384221));
#859=CARTESIAN_POINT('Ctrl Pts',(6.82824678390345,14.9217997061158,11.2969221590319));
#860=CARTESIAN_POINT('Ctrl Pts',(6.89094893263646,14.9217997061158,11.2585444355741));
#861=CARTESIAN_POINT('',(6.89094893263646,14.9217997061158,9.04078787846711));
#862=CARTESIAN_POINT('Origin',(6.89094893263646,16.9217997061158,8.04078787846711));
#863=CARTESIAN_POINT('',(6.89094893263646,16.9217997061158,6.04078787846711));
#864=CARTESIAN_POINT('',(6.39094893263646,16.9217997061158,6.54078787846711));
#865=CARTESIAN_POINT('Origin',(6.89094893263646,16.9217997061158,6.54078787846711));
#866=CARTESIAN_POINT('Origin',(6.39094893263646,16.9217997061158,8.04078787846711));
#867=CARTESIAN_POINT('Origin',(6.89094893263646,16.9217997061158,8.04078787846711));
#868=CARTESIAN_POINT('Origin',(6.89094893263646,17.6733497061158,6.54078787846711));
#869=CARTESIAN_POINT('',(6.89094893263646,18.450891323632,6.04078787846711));
#870=CARTESIAN_POINT('',(6.39094893263646,18.450891323632,6.54078787846711));
#871=CARTESIAN_POINT('Origin',(6.89094893263646,18.450891323632,6.54078787846711));
#872=CARTESIAN_POINT('',(6.39094893263646,17.68636762605,6.54078787846711));
#873=CARTESIAN_POINT('',(6.39094893263646,17.6733497061158,6.54078787846711));
#874=CARTESIAN_POINT('',(6.39094893263646,17.6733497061158,6.54078787846711));
#875=CARTESIAN_POINT('',(6.89094893263646,17.6733497061158,6.04078787846711));
#876=CARTESIAN_POINT('Origin',(6.89094893263646,18.450891323632,8.04078787846711));
#877=CARTESIAN_POINT('',(6.89094893263646,20.450891323632,8.04078787846711));
#878=CARTESIAN_POINT('',(6.39094893263646,19.950891323632,8.04078787846711));
#879=CARTESIAN_POINT('Origin',(6.89094893263646,19.950891323632,8.04078787846711));
#880=CARTESIAN_POINT('Origin',(6.39094893263646,18.450891323632,8.04078787846711));
#881=CARTESIAN_POINT('Origin',(6.89094893263646,18.450891323632,8.04078787846711));
#882=CARTESIAN_POINT('Origin',(6.89094893263646,19.950891323632,8.86073856114289));
#883=CARTESIAN_POINT('',(6.89094893263646,20.450891323632,11.2585444355741));
#884=CARTESIAN_POINT('',(6.39094893263646,19.950891323632,11.5497087296794));
#885=CARTESIAN_POINT('Ctrl Pts',(6.89094893263646,20.450891323632,11.2585444355741));
#886=CARTESIAN_POINT('Ctrl Pts',(6.82824678390345,20.450891323632,11.2969221590319));
#887=CARTESIAN_POINT('Ctrl Pts',(6.76038801519413,20.438430046793,11.3376618384221));
#888=CARTESIAN_POINT('Ctrl Pts',(6.63347943367722,20.3849991682763,11.4123780464234));
#889=CARTESIAN_POINT('Ctrl Pts',(6.5744584139056,20.3439849908247,11.4463715938877));
#890=CARTESIAN_POINT('Ctrl Pts',(6.48763525016115,20.2520542262608,11.4957681913861));
#891=CARTESIAN_POINT('Ctrl Pts',(6.45170133015771,20.1983050563621,11.5159158057859));
#892=CARTESIAN_POINT('Ctrl Pts',(6.40332531007389,20.0788570418451,11.5428849019469));
#893=CARTESIAN_POINT('Ctrl Pts',(6.39094893263646,20.0131321199418,11.5497087296794));
#894=CARTESIAN_POINT('Ctrl Pts',(6.39094893263646,19.950891323632,11.5497087296794));
#895=CARTESIAN_POINT('',(6.39094893263646,19.950891323632,8.86073856114289));
#896=CARTESIAN_POINT('',(6.89094893263646,20.450891323632,8.86073856114289));
#897=CARTESIAN_POINT('Origin',(8.9510995802256,20.450891323632,8.68068924381866));
#898=CARTESIAN_POINT('',(10.4683203186326,20.450891323632,8.04078787846711));
#899=CARTESIAN_POINT('',(9.64609925643103,20.450891323632,8.04078787846711));
#900=CARTESIAN_POINT('Origin',(0.,20.450891323632,1.78280665678355E-15));
#901=CARTESIAN_POINT('Origin',(9.64609925643103,18.450891323632,8.04078787846711));
#902=CARTESIAN_POINT('',(11.736646957601,18.450891323632,6.04078787846711));
#903=CARTESIAN_POINT('',(9.64609925643103,18.450891323632,6.04078787846711));
#904=CARTESIAN_POINT('Ctrl Pts',(11.736646957601,18.450891323632,6.04078787846711));
#905=CARTESIAN_POINT('Ctrl Pts',(11.736646957601,18.6982854989993,6.04078787846711));
#906=CARTESIAN_POINT('Ctrl Pts',(11.7118318124348,18.9600839782572,6.08972805229958));
#907=CARTESIAN_POINT('Ctrl Pts',(11.6100561985717,19.4363546621325,6.28159118220727));
#908=CARTESIAN_POINT('Ctrl Pts',(11.5326414814151,19.6508301552731,6.42426466465806));
#909=CARTESIAN_POINT('Ctrl Pts',(11.3304124374261,20.0258309862951,6.77583206007636));
#910=CARTESIAN_POINT('Ctrl Pts',(11.1835770228737,20.1921556125027,7.01866365208641));
#911=CARTESIAN_POINT('Ctrl Pts',(10.845585264197,20.4044188092548,7.53042597338171));
#912=CARTESIAN_POINT('Ctrl Pts',(10.6541016114529,20.450891323632,7.79891878406396));
#913=CARTESIAN_POINT('Ctrl Pts',(10.4683203186326,20.450891323632,8.04078787846711));
#914=CARTESIAN_POINT('Origin',(10.3410989326365,17.6733497061158,6.04078787846711));
#915=CARTESIAN_POINT('',(11.736646957601,16.9217997061158,6.04078787846711));
#916=CARTESIAN_POINT('',(10.3410989326365,16.9217997061158,6.04078787846711));
#917=CARTESIAN_POINT('',(11.736646957601,18.421843928468,6.04078787846711));
#918=CARTESIAN_POINT('Origin',(10.3410989326365,16.9217997061158,8.04078787846711));
#919=CARTESIAN_POINT('',(10.4683203186326,14.9217997061158,8.04078787846711));
#920=CARTESIAN_POINT('',(10.3410989326365,14.9217997061158,8.04078787846711));
#921=CARTESIAN_POINT('Ctrl Pts',(10.4683203186326,14.9217997061158,8.04078787846711));
#922=CARTESIAN_POINT('Ctrl Pts',(10.6541016114529,14.9217997061158,7.79891878406396));
#923=CARTESIAN_POINT('Ctrl Pts',(10.845585264197,14.9682722204931,7.53042597338171));
#924=CARTESIAN_POINT('Ctrl Pts',(11.1835770228737,15.1805354172452,7.0186636520864));
#925=CARTESIAN_POINT('Ctrl Pts',(11.3304124374261,15.3468600434528,6.77583206007636));
#926=CARTESIAN_POINT('Ctrl Pts',(11.5326414814151,15.7218608744748,6.42426466465806));
#927=CARTESIAN_POINT('Ctrl Pts',(11.6100561985717,15.9363363676154,6.28159118220727));
#928=CARTESIAN_POINT('Ctrl Pts',(11.7118318124348,16.4126070514906,6.08972805229958));
#929=CARTESIAN_POINT('Ctrl Pts',(11.736646957601,16.6744055307486,6.04078787846711));
#930=CARTESIAN_POINT('Ctrl Pts',(11.736646957601,16.9217997061158,6.04078787846711));
#931=CARTESIAN_POINT('Origin',(10.3410989326365,14.9217997061158,9.04078787846711));
#932=CARTESIAN_POINT('Origin',(0.,14.9217997061158,5.55101692977871E-16));
#933=CARTESIAN_POINT('Origin',(-6.06142899505658,0.,5.82360037846754));
#934=CARTESIAN_POINT('',(-11.8459140057622,18.421843928468,5.82360037846754));
#935=CARTESIAN_POINT('Origin',(6.39094893263646,17.6733497061158,9.04078787846711));
#936=CARTESIAN_POINT('',(6.39094893263646,18.421843928468,11.5497087296794));
#937=CARTESIAN_POINT('Origin',(6.39094893263646,17.68636762605,8.72360037846711));
#938=CARTESIAN_POINT('Origin',(0.,18.421843928468,1.33226762955019E-15));
#939=CARTESIAN_POINT('',(-7.27352433785241,22.950891323632,-11.0152550450124));
#940=CARTESIAN_POINT('',(-7.27352433785242,12.421843928468,-11.0152550450124));
#941=CARTESIAN_POINT('',(-7.27352433785218,18.421843928468,-11.0152550450124));
#942=CARTESIAN_POINT('',(-0.596128995056677,12.421843928468,13.1865321529678));
#943=CARTESIAN_POINT('Origin',(0.,12.421843928468,-7.39557098644699E-31));
#944=CARTESIAN_POINT('',(-0.596128995056677,22.950891323632,13.1865321529678));
#945=CARTESIAN_POINT('',(-0.596128995056678,18.421843928468,13.1865321529678));
#946=CARTESIAN_POINT('Origin',(0.,22.950891323632,2.33791816909613E-15));
#947=CARTESIAN_POINT('Origin',(0.,18.421843928468,1.33226762955019E-15));
#948=CARTESIAN_POINT('',(7.27352433794893,12.421843928468,-11.0152550449862));
#949=CARTESIAN_POINT('',(7.27352433794893,22.950891323632,-11.0152550449862));
#950=CARTESIAN_POINT('',(7.27352433785218,18.421843928468,-11.0152550450124));
#951=CARTESIAN_POINT('',(0.625862558187505,22.950891323632,13.1851543812827));
#952=CARTESIAN_POINT('Origin',(0.,22.950891323632,2.33791816909613E-15));
#953=CARTESIAN_POINT('',(0.625862558187505,12.421843928468,13.1851543812827));
#954=CARTESIAN_POINT('',(0.625862558187505,18.421843928468,13.1851543812827));
#955=CARTESIAN_POINT('Origin',(0.,12.421843928468,-7.39557098644699E-31));
#956=CARTESIAN_POINT('Origin',(-9.9851332184725,14.921843928468,-11.0152550450124));
#957=CARTESIAN_POINT('',(-0.394225718453545,12.421843928468,-11.0152550450124));
#958=CARTESIAN_POINT('',(-0.394225718453545,22.950891323632,-11.0152550450124));
#959=CARTESIAN_POINT('',(5.60429514108867,17.6863676260499,-11.0152550450124));
#960=CARTESIAN_POINT('Origin',(3.42148264108866,17.6863676260499,-11.0152550450124));
#961=CARTESIAN_POINT('',(-1.23870485891134,17.68636762605,-11.0152550450124));
#962=CARTESIAN_POINT('Origin',(-3.42151735891134,17.68636762605,-11.0152550450124));
#963=CARTESIAN_POINT('Origin',(-0.596128995056678,21.043053928468,4.99764496256001));
#964=CARTESIAN_POINT('',(-0.596128995056677,12.421843928468,4.94727295600852));
#965=CARTESIAN_POINT('',(-0.596128995056677,12.421843928468,-4.45455474887569));
#966=CARTESIAN_POINT('',(-0.596128995056677,22.950891323632,4.94727295600852));
#967=CARTESIAN_POINT('',(-0.596128995056678,29.4359664084533,4.94727295600852));
#968=CARTESIAN_POINT('',(-0.596128995056677,22.950891323632,-4.45455474887569));
#969=CARTESIAN_POINT('',(-0.596128995056677,17.68636762605,10.3236003784671));
#970=CARTESIAN_POINT('Origin',(-0.596128995056677,17.68636762605,8.72360037846711));
#971=CARTESIAN_POINT('Origin',(9.19668178156541,12.421843928468,-13.9067544603114));
#972=CARTESIAN_POINT('',(0.625862558187504,12.421843928468,4.94727295600852));
#973=CARTESIAN_POINT('',(0.625862558187505,12.421843928468,-4.45455474887569));
#974=CARTESIAN_POINT('Origin',(0.0148667815654136,12.421843928468,-0.0152550450157509));
#975=CARTESIAN_POINT('Origin',(12.4653220385704,17.68636762605,8.72360037846711));
#976=CARTESIAN_POINT('',(2.6258625581875,17.68636762605,6.54078787846711));
#977=CARTESIAN_POINT('',(12.4653220385704,17.68636762605,6.54078787846711));
#978=CARTESIAN_POINT('Origin',(2.6258625581875,17.68636762605,8.72360037846711));
#979=CARTESIAN_POINT('Origin',(9.19668178156541,22.950891323632,-13.9067544603114));
#980=CARTESIAN_POINT('',(0.625862558187504,22.950891323632,4.94727295600852));
#981=CARTESIAN_POINT('Origin',(0.0148667815654136,22.950891323632,-0.0152550450157509));
#982=CARTESIAN_POINT('',(0.625862558187505,22.950891323632,-4.45455474887569));
#983=CARTESIAN_POINT('Origin',(1.62586255818751,17.68636762605,8.72360037846711));
#984=CARTESIAN_POINT('',(2.6258625581875,15.63636762605,8.72360037846711));
#985=CARTESIAN_POINT('Origin',(2.6258625581875,17.68636762605,8.72360037846711));
#986=CARTESIAN_POINT('',(0.625862558187505,15.63636762605,8.72360037846711));
#987=CARTESIAN_POINT('',(1.62586255818751,15.63636762605,8.72360037846711));
#988=CARTESIAN_POINT('Origin',(0.625862558187505,17.68636762605,8.72360037846711));
#989=CARTESIAN_POINT('Origin',(2.6258625581875,17.700891323632,8.49764496256));
#990=CARTESIAN_POINT('Origin',(-12.4653220385704,17.68636762605,8.72360037846711));
#991=CARTESIAN_POINT('',(-12.4653220385704,17.68636762605,10.3236003784671));
#992=CARTESIAN_POINT('Origin',(-3.42151735891134,17.68636762605,-5.01525504501244));
#993=CARTESIAN_POINT('',(-1.23870485891134,17.68636762605,-5.01525504501244));
#994=CARTESIAN_POINT('Origin',(-3.42151735891134,17.68636762605,-5.01525504501244));
#995=CARTESIAN_POINT('',(-1.23870485891134,17.68636762605,-5.01525504501244));
#996=CARTESIAN_POINT('Origin',(3.42148264108866,17.6863676260499,-5.01525504501244));
#997=CARTESIAN_POINT('',(5.60429514108867,17.6863676260499,-5.01525504501244));
#998=CARTESIAN_POINT('Origin',(3.42148264108866,17.6863676260499,-5.01525504501244));
#999=CARTESIAN_POINT('',(5.60429514108867,17.6863676260499,-5.01525504501244));
#1000=CARTESIAN_POINT('Origin',(0.0148667815654136,29.4359664084533,-0.0152550450157509));
#1001=CARTESIAN_POINT('',(0.625862558187505,20.450891323632,4.94727295600852));
#1002=CARTESIAN_POINT('Origin',(0.625862558187505,21.043053928468,4.99764496256001));
#1003=CARTESIAN_POINT('Origin',(3.42148264108866,17.6863676260499,-5.01525504501244));
#1004=CARTESIAN_POINT('Origin',(-3.42151735891134,17.68636762605,-5.01525504501244));
#1005=UNCERTAINTY_MEASURE_WITH_UNIT(LENGTH_MEASURE(0.01),#1009,
'DISTANCE_ACCURACY_VALUE',
'Maximum model space distance between geometric entities at asserted c
onnectivities');
#1006=UNCERTAINTY_MEASURE_WITH_UNIT(LENGTH_MEASURE(0.01),#1009,
'DISTANCE_ACCURACY_VALUE',
'Maximum model space distance between geometric entities at asserted c
onnectivities');
#1007=(
GEOMETRIC_REPRESENTATION_CONTEXT(3)
GLOBAL_UNCERTAINTY_ASSIGNED_CONTEXT((#1005))
GLOBAL_UNIT_ASSIGNED_CONTEXT((#1009,#1011,#1012))
REPRESENTATION_CONTEXT('','3D')
);
#1008=(
GEOMETRIC_REPRESENTATION_CONTEXT(3)
GLOBAL_UNCERTAINTY_ASSIGNED_CONTEXT((#1006))
GLOBAL_UNIT_ASSIGNED_CONTEXT((#1009,#1011,#1012))
REPRESENTATION_CONTEXT('','3D')
);
#1009=(
LENGTH_UNIT()
NAMED_UNIT(*)
SI_UNIT(.MILLI.,.METRE.)
);
#1010=(
LENGTH_UNIT()
NAMED_UNIT(*)
SI_UNIT($,.METRE.)
);
#1011=(
NAMED_UNIT(*)
PLANE_ANGLE_UNIT()
SI_UNIT($,.RADIAN.)
);
#1012=(
NAMED_UNIT(*)
SI_UNIT($,.STERADIAN.)
SOLID_ANGLE_UNIT()
);
#1013=SHAPE_DEFINITION_REPRESENTATION(#1014,#1015);
#1014=PRODUCT_DEFINITION_SHAPE('',$,#1017);
#1015=SHAPE_REPRESENTATION('',(#563),#1007);
#1016=PRODUCT_DEFINITION_CONTEXT('part definition',#1021,'design');
#1017=PRODUCT_DEFINITION('2026-01-16-21-26-41-557',
'10x100mm Linear Rod Clamp v2',#1018,#1016);
#1018=PRODUCT_DEFINITION_FORMATION('',$,#1023);
#1019=PRODUCT_RELATED_PRODUCT_CATEGORY('10x100mm Linear Rod Clamp v2',
'10x100mm Linear Rod Clamp v2',(#1023));
#1020=APPLICATION_PROTOCOL_DEFINITION('international standard',
'automotive_design',2009,#1021);
#1021=APPLICATION_CONTEXT(
'Core Data for Automotive Mechanical Design Process');
#1022=PRODUCT_CONTEXT('part definition',#1021,'mechanical');
#1023=PRODUCT('2026-01-16-21-26-41-557','10x100mm Linear Rod Clamp v2',
'STEP AP214',(#1022));
#1024=PRESENTATION_STYLE_ASSIGNMENT((#1026));
#1025=PRESENTATION_STYLE_ASSIGNMENT((#1027));
#1026=SURFACE_STYLE_USAGE(.BOTH.,#1028);
#1027=SURFACE_STYLE_USAGE(.BOTH.,#1029);
#1028=SURFACE_SIDE_STYLE('',(#1030));
#1029=SURFACE_SIDE_STYLE('',(#1031));
#1030=SURFACE_STYLE_FILL_AREA(#1032);
#1031=SURFACE_STYLE_FILL_AREA(#1033);
#1032=FILL_AREA_STYLE('Steel - Satin',(#1034));
#1033=FILL_AREA_STYLE('Opaque(202,209,238)',(#1035));
#1034=FILL_AREA_STYLE_COLOUR('Steel - Satin',#1036);
#1035=FILL_AREA_STYLE_COLOUR('Opaque(202,209,238)',#1037);
#1036=COLOUR_RGB('Steel - Satin',0.627450980392157,0.627450980392157,0.627450980392157);
#1037=COLOUR_RGB('Opaque(202,209,238)',0.792156862745098,0.819607843137255,
0.933333333333333);
ENDSEC;
END-ISO-10303-21;
