0
SECTION
2
HEADER
9
$INSUNITS
70
1
9
$ACADVER
1
AC1014
9
$HANDSEED
5
FFFF
0
ENDSEC
0
SECTION
2
TABLES
0
TABLE
2
VPORT
5
8
100
AcDbSymbolTable
0
ENDTAB
0
TABLE
2
LTYPE
5
5
100
AcDbSymbolTable
0
LTYPE
5
14
100
AcDbSymbolTableRecord
100
AcDbLinetypeTableRecord
2
BYBLOCK
70
0
0
LTYPE
5
15
100
AcDbSymbolTableRecord
100
AcDbLinetypeTableRecord
2
BYLAYER
70
0
0
LTYPE
5
16
100
AcDbSymbolTableRecord
100
AcDbLinetypeTableRecord
2
DASHED
70
0
3
Dashed __ __ __ __ __ __ __ __ __ __ __ __ __ _
72
65
73
2
40
0.75
49
0.5
74
0
49
-0.25
74
0
0
ENDTAB
0
TABLE
2
LAYER
5
2
100
AcDbSymbolTable
70
2
0
LAYER
5
50
100
AcDbSymbolTableRecord
100
AcDbLayerTableRecord
2
0
70
0
62
7
6
CONTINUOUS
0
ENDTAB
0
TABLE
2
STYLE
5
3
100
AcDbSymbolTable
70
1
0
STYLE
5
11
100
AcDbSymbolTableRecord
100
AcDbTextStyleTableRecord
2
STANDARD
70
0
0
ENDTAB
0
TABLE
2
VIEW
5
6
100
AcDbSymbolTable
70
0
0
ENDTAB
0
TABLE
2
UCS
5
7
100
AcDbSymbolTable
70
0
0
ENDTAB
0
TABLE
2
APPID
5
9
100
AcDbSymbolTable
70
2
0
APPID
5
12
100
AcDbSymbolTableRecord
100
AcDbRegAppTableRecord
2
ACAD
70
0
0
ENDTAB
0
TABLE
2
DIMSTYLE
5
A
100
AcDbSymbolTable
70
1
0
ENDTAB
0
TABLE
2
BLOCK_RECORD
5
1
100
AcDbSymbolTable
70
1
0
BLOCK_RECORD
5
1F
100
AcDbSymbolTableRecord
100
AcDbBlockTableRecord
2
*MODEL_SPACE
0
BLOCK_RECORD
5
1B
100
AcDbSymbolTableRecord
100
AcDbBlockTableRecord
2
*PAPER_SPACE
0
ENDTAB
0
ENDSEC
0
SECTION
2
BLOCKS
0
BLOCK
5
20
100
AcDbEntity
100
AcDbBlockBegin
2
*MODEL_SPACE
0
ENDBLK
5
21
100
AcDbEntity
100
AcDbBlockEnd
0
BLOCK
5
1C
100
AcDbEntity
100
AcDbBlockBegin
2
*PAPER_SPACE
0
ENDBLK
5
1D
100
AcDbEntity
100
AcDbBlockEnd
0
ENDSEC
0
SECTION
2
ENTITIES
0
POINT
5
100
100
AcDbEntity
8
0
100
AcDbPoint
10
-2.3368110236220545
20
1.3307086614173196
30
0
0
LWPOLYLINE
5
101
100
AcDbEntity
8
0
100
AcDbPolyline
90
4
70
1
43
0.0
10
-9.4883700787401644
20
6.830803149633323
42
0.99999999999999989
10
-10.000370078740165
20
6.830803149633323
10
-10.000370078740165
20
5.8268661417333227
42
0.99999999999999989
10
-9.4883700787401644
20
5.8268661417333227
0
LWPOLYLINE
5
102
100
AcDbEntity
8
0
100
AcDbPolyline
90
4
70
1
43
0.0
10
-3.7283700787401139
20
6.8308031496333168
42
0.99999999999999989
10
-4.2403700787402148
20
6.8308031496333372
10
-4.240370078740165
20
5.8268661417333227
42
0.99999999999999989
10
-3.7283700787401637
20
5.8268661417333218
0
LWPOLYLINE
5
103
100
AcDbEntity
8
0
100
AcDbPolyline
90
4
70
1
43
0.0
10
-6.608370078739128
20
6.830803149633323
42
0.99999999999999989
10
-7.1203700787412005
20
6.830803149633323
10
-7.1203700787412005
20
5.8268661417333227
42
0.99999999999999989
10
-6.608370078739128
20
5.8268661417333227
0
LWPOLYLINE
5
104
100
AcDbEntity
8
0
100
AcDbPolyline
90
4
70
1
43
0.0
10
-11.391929133858275
20
1.3307086614173196
10
-2.3368110236220545
20
1.3307086614173209
10
-2.3368110236220545
20
9.3307086614173222
10
-11.391929133858275
20
9.3307086614173205
0
LINE
5
105
100
AcDbEntity
8
0
100
AcDbLine
10
-6.8643700787401647
20
9.3307086614173205
30
0
11
-6.8643700787401647
21
1.3307086614173202
31
0
6
DASHED
0
CIRCLE
5
106
100
AcDbEntity
8
0
100
AcDbCircle
10
-11.28070866141733
20
5.7874015748031473
30
0
40
0.078740157480315182
210
0
220
0
230
1
0
CIRCLE
5
107
100
AcDbEntity
8
0
100
AcDbCircle
10
-11.280708661417338
20
2.8346456692913375
30
0
40
0.07874015748031496
210
0
220
0
230
1
0
CIRCLE
5
108
100
AcDbEntity
8
0
100
AcDbCircle
10
-11.280708661417336
20
8.7401574803149629
30
0
40
0.078740157480314973
210
0
220
0
230
1
0
LINE
5
109
100
AcDbEntity
8
0
100
AcDbLine
10
-11.155708661417329
20
2.8346456692913353
30
0
11
-11.280708661417329
21
2.8346456692913353
31
0
6
DASHED
0
LINE
5
110
100
AcDbEntity
8
0
100
AcDbLine
10
-11.280708661417329
20
2.8346456692913353
30
0
11
-11.28070866141733
21
9.7966578714366523
31
0
6
DASHED
0
LINE
5
111
100
AcDbEntity
8
0
100
AcDbLine
10
-11.280708661417329
20
5.7874015748031464
30
0
11
-11.641059755679525
21
5.7874015748031464
31
0
6
DASHED
0
LINE
5
112
100
AcDbEntity
8
0
100
AcDbLine
10
-11.28070866141733
20
8.7401574803149646
30
0
11
-11.450000365418711
21
8.7401574803149646
31
0
6
DASHED
0
LINE
5
113
100
AcDbEntity
8
0
100
AcDbLine
10
-2.4480314960630003
20
5.7874015748031464
30
0
11
-2.0876804018008044
21
5.7874015748031464
31
0
6
DASHED
0
LINE
5
114
100
AcDbEntity
8
0
100
AcDbLine
10
-2.5730314960629999
20
2.8346456692913353
30
0
11
-2.4480314960630003
21
2.8346456692913353
31
0
6
DASHED
0
CIRCLE
5
115
100
AcDbEntity
8
0
100
AcDbCircle
10
-2.4480314960629976
20
5.7874015748031473
30
0
40
0.078740157480315182
210
0
220
0
230
1
0
CIRCLE
5
116
100
AcDbEntity
8
0
100
AcDbCircle
10
-2.4480314960629932
20
8.7401574803149629
30
0
40
0.078740157480314973
210
0
220
0
230
1
0
CIRCLE
5
117
100
AcDbEntity
8
0
100
AcDbCircle
10
-2.4480314960629905
20
2.8346456692913367
30
0
40
0.07874015748031496
210
0
220
0
230
1
0
LINE
5
118
100
AcDbEntity
8
0
100
AcDbLine
10
-2.448031496062999
20
8.7401574803149646
30
0
11
-2.2787397920616175
21
8.7401574803149646
31
0
6
DASHED
0
ENDSEC
0
SECTION
2
OBJECTS
0
DICTIONARY
5
C
100
AcDbDictionary
3
ACAD_GROUP
350
D
3
ACAD_MLINESTYLE
350
17
0
DICTIONARY
5
D
100
AcDbDictionary
0
DICTIONARY
5
1A
330
C
100
AcDbDictionary
0
DICTIONARY
5
17
100
AcDbDictionary
0
ENDSEC
0
EOF
