ISO-10303-21;
HEADER;
/* Generated by software containing ST-Developer
 * from STEP Tools, Inc. (www.steptools.com) 
 */

FILE_DESCRIPTION(
/* description */ (''),
/* implementation_level */ '2;1');

FILE_NAME(
/* name */ 'Spout Drain Platform v2.step',
/* time_stamp */ '2026-03-27T09:40:08-04:00',
/* author */ (''),
/* organization */ (''),
/* preprocessor_version */ 'ST-DEVELOPER v20.1',
/* originating_system */ 'Autodesk Translation Framework v14.24.0.0',
/* authorisation */ '');

FILE_SCHEMA (('AUTOMOTIVE_DESIGN { 1 0 10303 214 3 1 1 }'));
ENDSEC;

DATA;
#10=MECHANICAL_DESIGN_GEOMETRIC_PRESENTATION_REPRESENTATION('',(#13),#1375);
#11=SHAPE_REPRESENTATION_RELATIONSHIP('SRR','None',#1382,#12);
#12=ADVANCED_BREP_SHAPE_REPRESENTATION('',(#14),#1374);
#13=STYLED_ITEM('',(#1392),#14);
#14=MANIFOLD_SOLID_BREP('Body2',#803);
#15=FACE_BOUND('',#107,.T.);
#16=FACE_BOUND('',#108,.T.);
#17=FACE_BOUND('',#109,.T.);
#18=FACE_BOUND('',#110,.T.);
#19=FACE_BOUND('',#111,.T.);
#20=FACE_BOUND('',#112,.T.);
#21=FACE_BOUND('',#113,.T.);
#22=FACE_BOUND('',#114,.T.);
#23=FACE_BOUND('',#115,.T.);
#24=FACE_BOUND('',#116,.T.);
#25=FACE_BOUND('',#117,.T.);
#26=FACE_BOUND('',#118,.T.);
#27=FACE_BOUND('',#119,.T.);
#28=FACE_BOUND('',#120,.T.);
#29=FACE_BOUND('',#121,.T.);
#30=FACE_BOUND('',#122,.T.);
#31=FACE_BOUND('',#123,.T.);
#32=FACE_BOUND('',#124,.T.);
#33=FACE_BOUND('',#125,.T.);
#34=FACE_BOUND('',#126,.T.);
#35=FACE_BOUND('',#133,.T.);
#36=FACE_BOUND('',#134,.T.);
#37=FACE_BOUND('',#135,.T.);
#38=FACE_BOUND('',#136,.T.);
#39=FACE_BOUND('',#137,.T.);
#40=FACE_BOUND('',#138,.T.);
#41=FACE_BOUND('',#139,.T.);
#42=FACE_BOUND('',#140,.T.);
#43=FACE_BOUND('',#141,.T.);
#44=FACE_BOUND('',#142,.T.);
#45=FACE_BOUND('',#143,.T.);
#46=FACE_BOUND('',#144,.T.);
#47=FACE_BOUND('',#145,.T.);
#48=FACE_BOUND('',#146,.T.);
#49=FACE_BOUND('',#147,.T.);
#50=FACE_BOUND('',#148,.T.);
#51=FACE_BOUND('',#149,.T.);
#52=FACE_BOUND('',#150,.T.);
#53=FACE_BOUND('',#151,.T.);
#54=FACE_BOUND('',#152,.T.);
#55=PLANE('',#820);
#56=PLANE('',#824);
#57=PLANE('',#851);
#58=PLANE('',#852);
#59=PLANE('',#855);
#60=PLANE('',#858);
#61=PLANE('',#883);
#62=PLANE('',#888);
#63=PLANE('',#907);
#64=PLANE('',#908);
#65=FACE_OUTER_BOUND('',#103,.T.);
#66=FACE_OUTER_BOUND('',#104,.T.);
#67=FACE_OUTER_BOUND('',#105,.T.);
#68=FACE_OUTER_BOUND('',#106,.T.);
#69=FACE_OUTER_BOUND('',#127,.T.);
#70=FACE_OUTER_BOUND('',#128,.T.);
#71=FACE_OUTER_BOUND('',#129,.T.);
#72=FACE_OUTER_BOUND('',#130,.T.);
#73=FACE_OUTER_BOUND('',#131,.T.);
#74=FACE_OUTER_BOUND('',#132,.T.);
#75=FACE_OUTER_BOUND('',#153,.T.);
#76=FACE_OUTER_BOUND('',#154,.T.);
#77=FACE_OUTER_BOUND('',#155,.T.);
#78=FACE_OUTER_BOUND('',#156,.T.);
#79=FACE_OUTER_BOUND('',#157,.T.);
#80=FACE_OUTER_BOUND('',#158,.T.);
#81=FACE_OUTER_BOUND('',#159,.T.);
#82=FACE_OUTER_BOUND('',#160,.T.);
#83=FACE_OUTER_BOUND('',#161,.T.);
#84=FACE_OUTER_BOUND('',#162,.T.);
#85=FACE_OUTER_BOUND('',#163,.T.);
#86=FACE_OUTER_BOUND('',#164,.T.);
#87=FACE_OUTER_BOUND('',#165,.T.);
#88=FACE_OUTER_BOUND('',#166,.T.);
#89=FACE_OUTER_BOUND('',#167,.T.);
#90=FACE_OUTER_BOUND('',#168,.T.);
#91=FACE_OUTER_BOUND('',#169,.T.);
#92=FACE_OUTER_BOUND('',#170,.T.);
#93=FACE_OUTER_BOUND('',#171,.T.);
#94=FACE_OUTER_BOUND('',#172,.T.);
#95=FACE_OUTER_BOUND('',#173,.T.);
#96=FACE_OUTER_BOUND('',#174,.T.);
#97=FACE_OUTER_BOUND('',#175,.T.);
#98=FACE_OUTER_BOUND('',#176,.T.);
#99=FACE_OUTER_BOUND('',#177,.T.);
#100=FACE_OUTER_BOUND('',#178,.T.);
#101=FACE_OUTER_BOUND('',#179,.T.);
#102=FACE_OUTER_BOUND('',#180,.T.);
#103=EDGE_LOOP('',(#521,#522,#523,#524));
#104=EDGE_LOOP('',(#525,#526,#527,#528));
#105=EDGE_LOOP('',(#529,#530,#531,#532));
#106=EDGE_LOOP('',(#533,#534,#535,#536,#537,#538,#539,#540,#541,#542,#543,
#544,#545,#546,#547,#548));
#107=EDGE_LOOP('',(#549));
#108=EDGE_LOOP('',(#550));
#109=EDGE_LOOP('',(#551));
#110=EDGE_LOOP('',(#552));
#111=EDGE_LOOP('',(#553));
#112=EDGE_LOOP('',(#554));
#113=EDGE_LOOP('',(#555));
#114=EDGE_LOOP('',(#556));
#115=EDGE_LOOP('',(#557));
#116=EDGE_LOOP('',(#558));
#117=EDGE_LOOP('',(#559));
#118=EDGE_LOOP('',(#560));
#119=EDGE_LOOP('',(#561));
#120=EDGE_LOOP('',(#562));
#121=EDGE_LOOP('',(#563));
#122=EDGE_LOOP('',(#564));
#123=EDGE_LOOP('',(#565));
#124=EDGE_LOOP('',(#566));
#125=EDGE_LOOP('',(#567));
#126=EDGE_LOOP('',(#568));
#127=EDGE_LOOP('',(#569,#570,#571,#572));
#128=EDGE_LOOP('',(#573,#574,#575,#576));
#129=EDGE_LOOP('',(#577,#578,#579,#580));
#130=EDGE_LOOP('',(#581,#582,#583,#584));
#131=EDGE_LOOP('',(#585,#586,#587,#588));
#132=EDGE_LOOP('',(#589,#590,#591,#592,#593,#594,#595,#596,#597,#598,#599,
#600,#601,#602,#603,#604));
#133=EDGE_LOOP('',(#605));
#134=EDGE_LOOP('',(#606));
#135=EDGE_LOOP('',(#607));
#136=EDGE_LOOP('',(#608));
#137=EDGE_LOOP('',(#609));
#138=EDGE_LOOP('',(#610));
#139=EDGE_LOOP('',(#611));
#140=EDGE_LOOP('',(#612));
#141=EDGE_LOOP('',(#613));
#142=EDGE_LOOP('',(#614));
#143=EDGE_LOOP('',(#615));
#144=EDGE_LOOP('',(#616));
#145=EDGE_LOOP('',(#617));
#146=EDGE_LOOP('',(#618));
#147=EDGE_LOOP('',(#619));
#148=EDGE_LOOP('',(#620));
#149=EDGE_LOOP('',(#621));
#150=EDGE_LOOP('',(#622));
#151=EDGE_LOOP('',(#623));
#152=EDGE_LOOP('',(#624));
#153=EDGE_LOOP('',(#625,#626,#627,#628));
#154=EDGE_LOOP('',(#629,#630,#631,#632));
#155=EDGE_LOOP('',(#633,#634,#635,#636));
#156=EDGE_LOOP('',(#637,#638,#639,#640));
#157=EDGE_LOOP('',(#641,#642,#643,#644));
#158=EDGE_LOOP('',(#645,#646,#647,#648));
#159=EDGE_LOOP('',(#649,#650,#651,#652));
#160=EDGE_LOOP('',(#653,#654,#655,#656));
#161=EDGE_LOOP('',(#657,#658,#659,#660));
#162=EDGE_LOOP('',(#661,#662,#663,#664));
#163=EDGE_LOOP('',(#665,#666,#667,#668));
#164=EDGE_LOOP('',(#669,#670,#671,#672));
#165=EDGE_LOOP('',(#673,#674,#675,#676));
#166=EDGE_LOOP('',(#677,#678,#679,#680));
#167=EDGE_LOOP('',(#681,#682,#683,#684));
#168=EDGE_LOOP('',(#685,#686,#687,#688));
#169=EDGE_LOOP('',(#689,#690,#691,#692));
#170=EDGE_LOOP('',(#693,#694,#695,#696));
#171=EDGE_LOOP('',(#697,#698,#699,#700));
#172=EDGE_LOOP('',(#701,#702,#703,#704));
#173=EDGE_LOOP('',(#705,#706,#707,#708));
#174=EDGE_LOOP('',(#709,#710,#711,#712));
#175=EDGE_LOOP('',(#713,#714,#715,#716));
#176=EDGE_LOOP('',(#717,#718,#719,#720));
#177=EDGE_LOOP('',(#721,#722,#723,#724));
#178=EDGE_LOOP('',(#725,#726,#727,#728));
#179=EDGE_LOOP('',(#729,#730,#731,#732));
#180=EDGE_LOOP('',(#733,#734,#735,#736));
#181=LINE('',#1159,#233);
#182=LINE('',#1162,#234);
#183=LINE('',#1165,#235);
#184=LINE('',#1167,#236);
#185=LINE('',#1168,#237);
#186=LINE('',#1173,#238);
#187=LINE('',#1177,#239);
#188=LINE('',#1181,#240);
#189=LINE('',#1185,#241);
#190=LINE('',#1189,#242);
#191=LINE('',#1193,#243);
#192=LINE('',#1197,#244);
#193=LINE('',#1200,#245);
#194=LINE('',#1243,#246);
#195=LINE('',#1244,#247);
#196=LINE('',#1247,#248);
#197=LINE('',#1248,#249);
#198=LINE('',#1251,#250);
#199=LINE('',#1255,#251);
#200=LINE('',#1256,#252);
#201=LINE('',#1259,#253);
#202=LINE('',#1263,#254);
#203=LINE('',#1267,#255);
#204=LINE('',#1271,#256);
#205=LINE('',#1275,#257);
#206=LINE('',#1318,#258);
#207=LINE('',#1320,#259);
#208=LINE('',#1322,#260);
#209=LINE('',#1324,#261);
#210=LINE('',#1326,#262);
#211=LINE('',#1328,#263);
#212=LINE('',#1329,#264);
#213=LINE('',#1332,#265);
#214=LINE('',#1334,#266);
#215=LINE('',#1336,#267);
#216=LINE('',#1338,#268);
#217=LINE('',#1340,#269);
#218=LINE('',#1342,#270);
#219=LINE('',#1344,#271);
#220=LINE('',#1346,#272);
#221=LINE('',#1348,#273);
#222=LINE('',#1350,#274);
#223=LINE('',#1352,#275);
#224=LINE('',#1354,#276);
#225=LINE('',#1356,#277);
#226=LINE('',#1358,#278);
#227=LINE('',#1360,#279);
#228=LINE('',#1362,#280);
#229=LINE('',#1364,#281);
#230=LINE('',#1366,#282);
#231=LINE('',#1368,#283);
#232=LINE('',#1369,#284);
#233=VECTOR('',#917,10.);
#234=VECTOR('',#920,10.);
#235=VECTOR('',#923,10.);
#236=VECTOR('',#924,10.);
#237=VECTOR('',#925,10.);
#238=VECTOR('',#930,10.);
#239=VECTOR('',#935,1000.);
#240=VECTOR('',#938,1000.);
#241=VECTOR('',#941,1000.);
#242=VECTOR('',#944,1000.);
#243=VECTOR('',#947,1000.);
#244=VECTOR('',#950,10.);
#245=VECTOR('',#953,10.);
#246=VECTOR('',#996,1000.);
#247=VECTOR('',#997,1000.);
#248=VECTOR('',#1000,10.);
#249=VECTOR('',#1001,10.);
#250=VECTOR('',#1004,10.);
#251=VECTOR('',#1009,10.);
#252=VECTOR('',#1010,10.);
#253=VECTOR('',#1013,10.);
#254=VECTOR('',#1018,1000.);
#255=VECTOR('',#1021,1000.);
#256=VECTOR('',#1024,1000.);
#257=VECTOR('',#1027,1000.);
#258=VECTOR('',#1072,1000.);
#259=VECTOR('',#1075,2.18281249999996);
#260=VECTOR('',#1078,2.18281249999996);
#261=VECTOR('',#1081,2.18281249999996);
#262=VECTOR('',#1084,2.18281249999996);
#263=VECTOR('',#1087,1000.);
#264=VECTOR('',#1088,1000.);
#265=VECTOR('',#1093,1000.);
#266=VECTOR('',#1096,1.5);
#267=VECTOR('',#1099,1.5);
#268=VECTOR('',#1102,1.5);
#269=VECTOR('',#1105,1.5);
#270=VECTOR('',#1108,1.5);
#271=VECTOR('',#1111,1.5);
#272=VECTOR('',#1114,1.5);
#273=VECTOR('',#1117,1.5);
#274=VECTOR('',#1120,1.5);
#275=VECTOR('',#1123,1.5);
#276=VECTOR('',#1126,1.5);
#277=VECTOR('',#1129,1.5);
#278=VECTOR('',#1132,2.18281249999996);
#279=VECTOR('',#1135,2.18281249999996);
#280=VECTOR('',#1138,2.18281249999996);
#281=VECTOR('',#1141,2.18281249999996);
#282=VECTOR('',#1144,1000.);
#283=VECTOR('',#1147,1000.);
#284=VECTOR('',#1148,1000.);
#285=CIRCLE('',#818,10.);
#286=CIRCLE('',#819,10.);
#287=CIRCLE('',#822,3.);
#288=CIRCLE('',#823,3.);
#289=CIRCLE('',#825,3.);
#290=CIRCLE('',#826,3.);
#291=CIRCLE('',#827,3.);
#292=CIRCLE('',#828,3.);
#293=CIRCLE('',#829,3.);
#294=CIRCLE('',#830,10.);
#295=CIRCLE('',#831,2.18281249999996);
#296=CIRCLE('',#832,2.18281249999996);
#297=CIRCLE('',#833,2.18281249999996);
#298=CIRCLE('',#834,2.18281249999996);
#299=CIRCLE('',#835,1.5);
#300=CIRCLE('',#836,1.5);
#301=CIRCLE('',#837,1.5);
#302=CIRCLE('',#838,1.5);
#303=CIRCLE('',#839,1.5);
#304=CIRCLE('',#840,1.5);
#305=CIRCLE('',#841,1.5);
#306=CIRCLE('',#842,1.5);
#307=CIRCLE('',#843,1.5);
#308=CIRCLE('',#844,1.5);
#309=CIRCLE('',#845,1.5);
#310=CIRCLE('',#846,1.5);
#311=CIRCLE('',#847,2.18281249999996);
#312=CIRCLE('',#848,2.18281249999996);
#313=CIRCLE('',#849,2.18281249999996);
#314=CIRCLE('',#850,2.18281249999996);
#315=CIRCLE('',#854,10.);
#316=CIRCLE('',#857,3.);
#317=CIRCLE('',#859,3.);
#318=CIRCLE('',#860,3.);
#319=CIRCLE('',#861,3.);
#320=CIRCLE('',#862,3.);
#321=CIRCLE('',#863,2.18281249999996);
#322=CIRCLE('',#864,2.18281249999996);
#323=CIRCLE('',#865,2.18281249999996);
#324=CIRCLE('',#866,2.18281249999996);
#325=CIRCLE('',#867,1.5);
#326=CIRCLE('',#868,1.5);
#327=CIRCLE('',#869,1.5);
#328=CIRCLE('',#870,1.5);
#329=CIRCLE('',#871,1.5);
#330=CIRCLE('',#872,1.5);
#331=CIRCLE('',#873,1.5);
#332=CIRCLE('',#874,1.5);
#333=CIRCLE('',#875,1.5);
#334=CIRCLE('',#876,1.5);
#335=CIRCLE('',#877,1.5);
#336=CIRCLE('',#878,1.5);
#337=CIRCLE('',#879,2.18281249999996);
#338=CIRCLE('',#880,2.18281249999996);
#339=CIRCLE('',#881,2.18281249999996);
#340=CIRCLE('',#882,2.18281249999996);
#341=VERTEX_POINT('',#1155);
#342=VERTEX_POINT('',#1156);
#343=VERTEX_POINT('',#1158);
#344=VERTEX_POINT('',#1160);
#345=VERTEX_POINT('',#1164);
#346=VERTEX_POINT('',#1166);
#347=VERTEX_POINT('',#1170);
#348=VERTEX_POINT('',#1172);
#349=VERTEX_POINT('',#1176);
#350=VERTEX_POINT('',#1178);
#351=VERTEX_POINT('',#1180);
#352=VERTEX_POINT('',#1182);
#353=VERTEX_POINT('',#1184);
#354=VERTEX_POINT('',#1186);
#355=VERTEX_POINT('',#1188);
#356=VERTEX_POINT('',#1190);
#357=VERTEX_POINT('',#1192);
#358=VERTEX_POINT('',#1194);
#359=VERTEX_POINT('',#1196);
#360=VERTEX_POINT('',#1198);
#361=VERTEX_POINT('',#1201);
#362=VERTEX_POINT('',#1203);
#363=VERTEX_POINT('',#1205);
#364=VERTEX_POINT('',#1207);
#365=VERTEX_POINT('',#1209);
#366=VERTEX_POINT('',#1211);
#367=VERTEX_POINT('',#1213);
#368=VERTEX_POINT('',#1215);
#369=VERTEX_POINT('',#1217);
#370=VERTEX_POINT('',#1219);
#371=VERTEX_POINT('',#1221);
#372=VERTEX_POINT('',#1223);
#373=VERTEX_POINT('',#1225);
#374=VERTEX_POINT('',#1227);
#375=VERTEX_POINT('',#1229);
#376=VERTEX_POINT('',#1231);
#377=VERTEX_POINT('',#1233);
#378=VERTEX_POINT('',#1235);
#379=VERTEX_POINT('',#1237);
#380=VERTEX_POINT('',#1239);
#381=VERTEX_POINT('',#1242);
#382=VERTEX_POINT('',#1246);
#383=VERTEX_POINT('',#1250);
#384=VERTEX_POINT('',#1254);
#385=VERTEX_POINT('',#1258);
#386=VERTEX_POINT('',#1262);
#387=VERTEX_POINT('',#1264);
#388=VERTEX_POINT('',#1266);
#389=VERTEX_POINT('',#1268);
#390=VERTEX_POINT('',#1270);
#391=VERTEX_POINT('',#1272);
#392=VERTEX_POINT('',#1274);
#393=VERTEX_POINT('',#1277);
#394=VERTEX_POINT('',#1279);
#395=VERTEX_POINT('',#1281);
#396=VERTEX_POINT('',#1283);
#397=VERTEX_POINT('',#1285);
#398=VERTEX_POINT('',#1287);
#399=VERTEX_POINT('',#1289);
#400=VERTEX_POINT('',#1291);
#401=VERTEX_POINT('',#1293);
#402=VERTEX_POINT('',#1295);
#403=VERTEX_POINT('',#1297);
#404=VERTEX_POINT('',#1299);
#405=VERTEX_POINT('',#1301);
#406=VERTEX_POINT('',#1303);
#407=VERTEX_POINT('',#1305);
#408=VERTEX_POINT('',#1307);
#409=VERTEX_POINT('',#1309);
#410=VERTEX_POINT('',#1311);
#411=VERTEX_POINT('',#1313);
#412=VERTEX_POINT('',#1315);
#413=EDGE_CURVE('',#341,#342,#285,.T.);
#414=EDGE_CURVE('',#342,#343,#181,.T.);
#415=EDGE_CURVE('',#343,#344,#286,.T.);
#416=EDGE_CURVE('',#344,#341,#182,.T.);
#417=EDGE_CURVE('',#345,#342,#183,.T.);
#418=EDGE_CURVE('',#346,#345,#184,.T.);
#419=EDGE_CURVE('',#343,#346,#185,.F.);
#420=EDGE_CURVE('',#345,#347,#287,.T.);
#421=EDGE_CURVE('',#347,#348,#186,.T.);
#422=EDGE_CURVE('',#348,#346,#288,.T.);
#423=EDGE_CURVE('',#349,#348,#187,.T.);
#424=EDGE_CURVE('',#349,#350,#289,.T.);
#425=EDGE_CURVE('',#351,#350,#188,.T.);
#426=EDGE_CURVE('',#351,#352,#290,.T.);
#427=EDGE_CURVE('',#353,#352,#189,.T.);
#428=EDGE_CURVE('',#353,#354,#291,.T.);
#429=EDGE_CURVE('',#355,#354,#190,.T.);
#430=EDGE_CURVE('',#355,#356,#292,.T.);
#431=EDGE_CURVE('',#357,#356,#191,.T.);
#432=EDGE_CURVE('',#358,#357,#293,.T.);
#433=EDGE_CURVE('',#358,#359,#192,.F.);
#434=EDGE_CURVE('',#360,#359,#294,.T.);
#435=EDGE_CURVE('',#360,#344,#193,.T.);
#436=EDGE_CURVE('',#361,#361,#295,.T.);
#437=EDGE_CURVE('',#362,#362,#296,.T.);
#438=EDGE_CURVE('',#363,#363,#297,.T.);
#439=EDGE_CURVE('',#364,#364,#298,.T.);
#440=EDGE_CURVE('',#365,#365,#299,.T.);
#441=EDGE_CURVE('',#366,#366,#300,.T.);
#442=EDGE_CURVE('',#367,#367,#301,.T.);
#443=EDGE_CURVE('',#368,#368,#302,.T.);
#444=EDGE_CURVE('',#369,#369,#303,.T.);
#445=EDGE_CURVE('',#370,#370,#304,.T.);
#446=EDGE_CURVE('',#371,#371,#305,.T.);
#447=EDGE_CURVE('',#372,#372,#306,.T.);
#448=EDGE_CURVE('',#373,#373,#307,.T.);
#449=EDGE_CURVE('',#374,#374,#308,.T.);
#450=EDGE_CURVE('',#375,#375,#309,.T.);
#451=EDGE_CURVE('',#376,#376,#310,.T.);
#452=EDGE_CURVE('',#377,#377,#311,.T.);
#453=EDGE_CURVE('',#378,#378,#312,.T.);
#454=EDGE_CURVE('',#379,#379,#313,.T.);
#455=EDGE_CURVE('',#380,#380,#314,.T.);
#456=EDGE_CURVE('',#381,#347,#194,.T.);
#457=EDGE_CURVE('',#381,#349,#195,.T.);
#458=EDGE_CURVE('',#382,#360,#196,.T.);
#459=EDGE_CURVE('',#341,#382,#197,.T.);
#460=EDGE_CURVE('',#359,#383,#198,.T.);
#461=EDGE_CURVE('',#383,#382,#315,.T.);
#462=EDGE_CURVE('',#384,#358,#199,.T.);
#463=EDGE_CURVE('',#383,#384,#200,.T.);
#464=EDGE_CURVE('',#357,#385,#201,.T.);
#465=EDGE_CURVE('',#385,#384,#316,.T.);
#466=EDGE_CURVE('',#385,#386,#202,.T.);
#467=EDGE_CURVE('',#386,#387,#317,.T.);
#468=EDGE_CURVE('',#387,#388,#203,.T.);
#469=EDGE_CURVE('',#388,#389,#318,.T.);
#470=EDGE_CURVE('',#389,#390,#204,.T.);
#471=EDGE_CURVE('',#390,#391,#319,.T.);
#472=EDGE_CURVE('',#391,#392,#205,.T.);
#473=EDGE_CURVE('',#392,#381,#320,.T.);
#474=EDGE_CURVE('',#393,#393,#321,.T.);
#475=EDGE_CURVE('',#394,#394,#322,.T.);
#476=EDGE_CURVE('',#395,#395,#323,.T.);
#477=EDGE_CURVE('',#396,#396,#324,.T.);
#478=EDGE_CURVE('',#397,#397,#325,.T.);
#479=EDGE_CURVE('',#398,#398,#326,.T.);
#480=EDGE_CURVE('',#399,#399,#327,.T.);
#481=EDGE_CURVE('',#400,#400,#328,.T.);
#482=EDGE_CURVE('',#401,#401,#329,.T.);
#483=EDGE_CURVE('',#402,#402,#330,.T.);
#484=EDGE_CURVE('',#403,#403,#331,.T.);
#485=EDGE_CURVE('',#404,#404,#332,.T.);
#486=EDGE_CURVE('',#405,#405,#333,.T.);
#487=EDGE_CURVE('',#406,#406,#334,.T.);
#488=EDGE_CURVE('',#407,#407,#335,.T.);
#489=EDGE_CURVE('',#408,#408,#336,.T.);
#490=EDGE_CURVE('',#409,#409,#337,.T.);
#491=EDGE_CURVE('',#410,#410,#338,.T.);
#492=EDGE_CURVE('',#411,#411,#339,.T.);
#493=EDGE_CURVE('',#412,#412,#340,.T.);
#494=EDGE_CURVE('',#356,#386,#206,.T.);
#495=EDGE_CURVE('',#364,#396,#207,.T.);
#496=EDGE_CURVE('',#363,#395,#208,.T.);
#497=EDGE_CURVE('',#362,#394,#209,.T.);
#498=EDGE_CURVE('',#361,#393,#210,.T.);
#499=EDGE_CURVE('',#387,#355,#211,.T.);
#500=EDGE_CURVE('',#354,#388,#212,.T.);
#501=EDGE_CURVE('',#389,#353,#213,.T.);
#502=EDGE_CURVE('',#397,#376,#214,.T.);
#503=EDGE_CURVE('',#398,#375,#215,.T.);
#504=EDGE_CURVE('',#399,#374,#216,.T.);
#505=EDGE_CURVE('',#400,#373,#217,.T.);
#506=EDGE_CURVE('',#401,#372,#218,.T.);
#507=EDGE_CURVE('',#402,#371,#219,.T.);
#508=EDGE_CURVE('',#403,#370,#220,.T.);
#509=EDGE_CURVE('',#404,#369,#221,.T.);
#510=EDGE_CURVE('',#408,#365,#222,.T.);
#511=EDGE_CURVE('',#407,#366,#223,.T.);
#512=EDGE_CURVE('',#406,#367,#224,.T.);
#513=EDGE_CURVE('',#405,#368,#225,.T.);
#514=EDGE_CURVE('',#380,#409,#226,.T.);
#515=EDGE_CURVE('',#379,#410,#227,.T.);
#516=EDGE_CURVE('',#378,#411,#228,.T.);
#517=EDGE_CURVE('',#377,#412,#229,.T.);
#518=EDGE_CURVE('',#352,#390,#230,.T.);
#519=EDGE_CURVE('',#350,#392,#231,.T.);
#520=EDGE_CURVE('',#391,#351,#232,.T.);
#521=ORIENTED_EDGE('',*,*,#413,.T.);
#522=ORIENTED_EDGE('',*,*,#414,.T.);
#523=ORIENTED_EDGE('',*,*,#415,.T.);
#524=ORIENTED_EDGE('',*,*,#416,.T.);
#525=ORIENTED_EDGE('',*,*,#414,.F.);
#526=ORIENTED_EDGE('',*,*,#417,.F.);
#527=ORIENTED_EDGE('',*,*,#418,.F.);
#528=ORIENTED_EDGE('',*,*,#419,.F.);
#529=ORIENTED_EDGE('',*,*,#420,.T.);
#530=ORIENTED_EDGE('',*,*,#421,.T.);
#531=ORIENTED_EDGE('',*,*,#422,.T.);
#532=ORIENTED_EDGE('',*,*,#418,.T.);
#533=ORIENTED_EDGE('',*,*,#422,.F.);
#534=ORIENTED_EDGE('',*,*,#423,.F.);
#535=ORIENTED_EDGE('',*,*,#424,.T.);
#536=ORIENTED_EDGE('',*,*,#425,.F.);
#537=ORIENTED_EDGE('',*,*,#426,.T.);
#538=ORIENTED_EDGE('',*,*,#427,.F.);
#539=ORIENTED_EDGE('',*,*,#428,.T.);
#540=ORIENTED_EDGE('',*,*,#429,.F.);
#541=ORIENTED_EDGE('',*,*,#430,.T.);
#542=ORIENTED_EDGE('',*,*,#431,.F.);
#543=ORIENTED_EDGE('',*,*,#432,.F.);
#544=ORIENTED_EDGE('',*,*,#433,.T.);
#545=ORIENTED_EDGE('',*,*,#434,.F.);
#546=ORIENTED_EDGE('',*,*,#435,.T.);
#547=ORIENTED_EDGE('',*,*,#415,.F.);
#548=ORIENTED_EDGE('',*,*,#419,.T.);
#549=ORIENTED_EDGE('',*,*,#436,.T.);
#550=ORIENTED_EDGE('',*,*,#437,.T.);
#551=ORIENTED_EDGE('',*,*,#438,.T.);
#552=ORIENTED_EDGE('',*,*,#439,.T.);
#553=ORIENTED_EDGE('',*,*,#440,.T.);
#554=ORIENTED_EDGE('',*,*,#441,.T.);
#555=ORIENTED_EDGE('',*,*,#442,.T.);
#556=ORIENTED_EDGE('',*,*,#443,.T.);
#557=ORIENTED_EDGE('',*,*,#444,.T.);
#558=ORIENTED_EDGE('',*,*,#445,.T.);
#559=ORIENTED_EDGE('',*,*,#446,.T.);
#560=ORIENTED_EDGE('',*,*,#447,.T.);
#561=ORIENTED_EDGE('',*,*,#448,.T.);
#562=ORIENTED_EDGE('',*,*,#449,.T.);
#563=ORIENTED_EDGE('',*,*,#450,.T.);
#564=ORIENTED_EDGE('',*,*,#451,.T.);
#565=ORIENTED_EDGE('',*,*,#452,.T.);
#566=ORIENTED_EDGE('',*,*,#453,.T.);
#567=ORIENTED_EDGE('',*,*,#454,.T.);
#568=ORIENTED_EDGE('',*,*,#455,.T.);
#569=ORIENTED_EDGE('',*,*,#421,.F.);
#570=ORIENTED_EDGE('',*,*,#456,.F.);
#571=ORIENTED_EDGE('',*,*,#457,.T.);
#572=ORIENTED_EDGE('',*,*,#423,.T.);
#573=ORIENTED_EDGE('',*,*,#416,.F.);
#574=ORIENTED_EDGE('',*,*,#435,.F.);
#575=ORIENTED_EDGE('',*,*,#458,.F.);
#576=ORIENTED_EDGE('',*,*,#459,.F.);
#577=ORIENTED_EDGE('',*,*,#434,.T.);
#578=ORIENTED_EDGE('',*,*,#460,.T.);
#579=ORIENTED_EDGE('',*,*,#461,.T.);
#580=ORIENTED_EDGE('',*,*,#458,.T.);
#581=ORIENTED_EDGE('',*,*,#460,.F.);
#582=ORIENTED_EDGE('',*,*,#433,.F.);
#583=ORIENTED_EDGE('',*,*,#462,.F.);
#584=ORIENTED_EDGE('',*,*,#463,.F.);
#585=ORIENTED_EDGE('',*,*,#432,.T.);
#586=ORIENTED_EDGE('',*,*,#464,.T.);
#587=ORIENTED_EDGE('',*,*,#465,.T.);
#588=ORIENTED_EDGE('',*,*,#462,.T.);
#589=ORIENTED_EDGE('',*,*,#420,.F.);
#590=ORIENTED_EDGE('',*,*,#417,.T.);
#591=ORIENTED_EDGE('',*,*,#413,.F.);
#592=ORIENTED_EDGE('',*,*,#459,.T.);
#593=ORIENTED_EDGE('',*,*,#461,.F.);
#594=ORIENTED_EDGE('',*,*,#463,.T.);
#595=ORIENTED_EDGE('',*,*,#465,.F.);
#596=ORIENTED_EDGE('',*,*,#466,.T.);
#597=ORIENTED_EDGE('',*,*,#467,.T.);
#598=ORIENTED_EDGE('',*,*,#468,.T.);
#599=ORIENTED_EDGE('',*,*,#469,.T.);
#600=ORIENTED_EDGE('',*,*,#470,.T.);
#601=ORIENTED_EDGE('',*,*,#471,.T.);
#602=ORIENTED_EDGE('',*,*,#472,.T.);
#603=ORIENTED_EDGE('',*,*,#473,.T.);
#604=ORIENTED_EDGE('',*,*,#456,.T.);
#605=ORIENTED_EDGE('',*,*,#474,.F.);
#606=ORIENTED_EDGE('',*,*,#475,.F.);
#607=ORIENTED_EDGE('',*,*,#476,.F.);
#608=ORIENTED_EDGE('',*,*,#477,.F.);
#609=ORIENTED_EDGE('',*,*,#478,.T.);
#610=ORIENTED_EDGE('',*,*,#479,.T.);
#611=ORIENTED_EDGE('',*,*,#480,.T.);
#612=ORIENTED_EDGE('',*,*,#481,.T.);
#613=ORIENTED_EDGE('',*,*,#482,.T.);
#614=ORIENTED_EDGE('',*,*,#483,.T.);
#615=ORIENTED_EDGE('',*,*,#484,.T.);
#616=ORIENTED_EDGE('',*,*,#485,.T.);
#617=ORIENTED_EDGE('',*,*,#486,.T.);
#618=ORIENTED_EDGE('',*,*,#487,.T.);
#619=ORIENTED_EDGE('',*,*,#488,.T.);
#620=ORIENTED_EDGE('',*,*,#489,.T.);
#621=ORIENTED_EDGE('',*,*,#490,.F.);
#622=ORIENTED_EDGE('',*,*,#491,.F.);
#623=ORIENTED_EDGE('',*,*,#492,.F.);
#624=ORIENTED_EDGE('',*,*,#493,.F.);
#625=ORIENTED_EDGE('',*,*,#464,.F.);
#626=ORIENTED_EDGE('',*,*,#431,.T.);
#627=ORIENTED_EDGE('',*,*,#494,.T.);
#628=ORIENTED_EDGE('',*,*,#466,.F.);
#629=ORIENTED_EDGE('',*,*,#439,.F.);
#630=ORIENTED_EDGE('',*,*,#495,.T.);
#631=ORIENTED_EDGE('',*,*,#477,.T.);
#632=ORIENTED_EDGE('',*,*,#495,.F.);
#633=ORIENTED_EDGE('',*,*,#438,.F.);
#634=ORIENTED_EDGE('',*,*,#496,.T.);
#635=ORIENTED_EDGE('',*,*,#476,.T.);
#636=ORIENTED_EDGE('',*,*,#496,.F.);
#637=ORIENTED_EDGE('',*,*,#437,.F.);
#638=ORIENTED_EDGE('',*,*,#497,.T.);
#639=ORIENTED_EDGE('',*,*,#475,.T.);
#640=ORIENTED_EDGE('',*,*,#497,.F.);
#641=ORIENTED_EDGE('',*,*,#436,.F.);
#642=ORIENTED_EDGE('',*,*,#498,.T.);
#643=ORIENTED_EDGE('',*,*,#474,.T.);
#644=ORIENTED_EDGE('',*,*,#498,.F.);
#645=ORIENTED_EDGE('',*,*,#468,.F.);
#646=ORIENTED_EDGE('',*,*,#499,.T.);
#647=ORIENTED_EDGE('',*,*,#429,.T.);
#648=ORIENTED_EDGE('',*,*,#500,.T.);
#649=ORIENTED_EDGE('',*,*,#467,.F.);
#650=ORIENTED_EDGE('',*,*,#494,.F.);
#651=ORIENTED_EDGE('',*,*,#430,.F.);
#652=ORIENTED_EDGE('',*,*,#499,.F.);
#653=ORIENTED_EDGE('',*,*,#469,.F.);
#654=ORIENTED_EDGE('',*,*,#500,.F.);
#655=ORIENTED_EDGE('',*,*,#428,.F.);
#656=ORIENTED_EDGE('',*,*,#501,.F.);
#657=ORIENTED_EDGE('',*,*,#478,.F.);
#658=ORIENTED_EDGE('',*,*,#502,.T.);
#659=ORIENTED_EDGE('',*,*,#451,.F.);
#660=ORIENTED_EDGE('',*,*,#502,.F.);
#661=ORIENTED_EDGE('',*,*,#479,.F.);
#662=ORIENTED_EDGE('',*,*,#503,.T.);
#663=ORIENTED_EDGE('',*,*,#450,.F.);
#664=ORIENTED_EDGE('',*,*,#503,.F.);
#665=ORIENTED_EDGE('',*,*,#480,.F.);
#666=ORIENTED_EDGE('',*,*,#504,.T.);
#667=ORIENTED_EDGE('',*,*,#449,.F.);
#668=ORIENTED_EDGE('',*,*,#504,.F.);
#669=ORIENTED_EDGE('',*,*,#481,.F.);
#670=ORIENTED_EDGE('',*,*,#505,.T.);
#671=ORIENTED_EDGE('',*,*,#448,.F.);
#672=ORIENTED_EDGE('',*,*,#505,.F.);
#673=ORIENTED_EDGE('',*,*,#482,.F.);
#674=ORIENTED_EDGE('',*,*,#506,.T.);
#675=ORIENTED_EDGE('',*,*,#447,.F.);
#676=ORIENTED_EDGE('',*,*,#506,.F.);
#677=ORIENTED_EDGE('',*,*,#483,.F.);
#678=ORIENTED_EDGE('',*,*,#507,.T.);
#679=ORIENTED_EDGE('',*,*,#446,.F.);
#680=ORIENTED_EDGE('',*,*,#507,.F.);
#681=ORIENTED_EDGE('',*,*,#484,.F.);
#682=ORIENTED_EDGE('',*,*,#508,.T.);
#683=ORIENTED_EDGE('',*,*,#445,.F.);
#684=ORIENTED_EDGE('',*,*,#508,.F.);
#685=ORIENTED_EDGE('',*,*,#485,.F.);
#686=ORIENTED_EDGE('',*,*,#509,.T.);
#687=ORIENTED_EDGE('',*,*,#444,.F.);
#688=ORIENTED_EDGE('',*,*,#509,.F.);
#689=ORIENTED_EDGE('',*,*,#489,.F.);
#690=ORIENTED_EDGE('',*,*,#510,.T.);
#691=ORIENTED_EDGE('',*,*,#440,.F.);
#692=ORIENTED_EDGE('',*,*,#510,.F.);
#693=ORIENTED_EDGE('',*,*,#488,.F.);
#694=ORIENTED_EDGE('',*,*,#511,.T.);
#695=ORIENTED_EDGE('',*,*,#441,.F.);
#696=ORIENTED_EDGE('',*,*,#511,.F.);
#697=ORIENTED_EDGE('',*,*,#487,.F.);
#698=ORIENTED_EDGE('',*,*,#512,.T.);
#699=ORIENTED_EDGE('',*,*,#442,.F.);
#700=ORIENTED_EDGE('',*,*,#512,.F.);
#701=ORIENTED_EDGE('',*,*,#486,.F.);
#702=ORIENTED_EDGE('',*,*,#513,.T.);
#703=ORIENTED_EDGE('',*,*,#443,.F.);
#704=ORIENTED_EDGE('',*,*,#513,.F.);
#705=ORIENTED_EDGE('',*,*,#455,.F.);
#706=ORIENTED_EDGE('',*,*,#514,.T.);
#707=ORIENTED_EDGE('',*,*,#490,.T.);
#708=ORIENTED_EDGE('',*,*,#514,.F.);
#709=ORIENTED_EDGE('',*,*,#454,.F.);
#710=ORIENTED_EDGE('',*,*,#515,.T.);
#711=ORIENTED_EDGE('',*,*,#491,.T.);
#712=ORIENTED_EDGE('',*,*,#515,.F.);
#713=ORIENTED_EDGE('',*,*,#453,.F.);
#714=ORIENTED_EDGE('',*,*,#516,.T.);
#715=ORIENTED_EDGE('',*,*,#492,.T.);
#716=ORIENTED_EDGE('',*,*,#516,.F.);
#717=ORIENTED_EDGE('',*,*,#452,.F.);
#718=ORIENTED_EDGE('',*,*,#517,.T.);
#719=ORIENTED_EDGE('',*,*,#493,.T.);
#720=ORIENTED_EDGE('',*,*,#517,.F.);
#721=ORIENTED_EDGE('',*,*,#427,.T.);
#722=ORIENTED_EDGE('',*,*,#518,.T.);
#723=ORIENTED_EDGE('',*,*,#470,.F.);
#724=ORIENTED_EDGE('',*,*,#501,.T.);
#725=ORIENTED_EDGE('',*,*,#425,.T.);
#726=ORIENTED_EDGE('',*,*,#519,.T.);
#727=ORIENTED_EDGE('',*,*,#472,.F.);
#728=ORIENTED_EDGE('',*,*,#520,.T.);
#729=ORIENTED_EDGE('',*,*,#473,.F.);
#730=ORIENTED_EDGE('',*,*,#519,.F.);
#731=ORIENTED_EDGE('',*,*,#424,.F.);
#732=ORIENTED_EDGE('',*,*,#457,.F.);
#733=ORIENTED_EDGE('',*,*,#471,.F.);
#734=ORIENTED_EDGE('',*,*,#518,.F.);
#735=ORIENTED_EDGE('',*,*,#426,.F.);
#736=ORIENTED_EDGE('',*,*,#520,.F.);
#737=CYLINDRICAL_SURFACE('',#817,10.);
#738=CYLINDRICAL_SURFACE('',#821,3.);
#739=CYLINDRICAL_SURFACE('',#853,10.);
#740=CYLINDRICAL_SURFACE('',#856,3.);
#741=CYLINDRICAL_SURFACE('',#884,2.18281249999996);
#742=CYLINDRICAL_SURFACE('',#885,2.18281249999996);
#743=CYLINDRICAL_SURFACE('',#886,2.18281249999996);
#744=CYLINDRICAL_SURFACE('',#887,2.18281249999996);
#745=CYLINDRICAL_SURFACE('',#889,3.);
#746=CYLINDRICAL_SURFACE('',#890,3.);
#747=CYLINDRICAL_SURFACE('',#891,1.5);
#748=CYLINDRICAL_SURFACE('',#892,1.5);
#749=CYLINDRICAL_SURFACE('',#893,1.5);
#750=CYLINDRICAL_SURFACE('',#894,1.5);
#751=CYLINDRICAL_SURFACE('',#895,1.5);
#752=CYLINDRICAL_SURFACE('',#896,1.5);
#753=CYLINDRICAL_SURFACE('',#897,1.5);
#754=CYLINDRICAL_SURFACE('',#898,1.5);
#755=CYLINDRICAL_SURFACE('',#899,1.5);
#756=CYLINDRICAL_SURFACE('',#900,1.5);
#757=CYLINDRICAL_SURFACE('',#901,1.5);
#758=CYLINDRICAL_SURFACE('',#902,1.5);
#759=CYLINDRICAL_SURFACE('',#903,2.18281249999996);
#760=CYLINDRICAL_SURFACE('',#904,2.18281249999996);
#761=CYLINDRICAL_SURFACE('',#905,2.18281249999996);
#762=CYLINDRICAL_SURFACE('',#906,2.18281249999996);
#763=CYLINDRICAL_SURFACE('',#909,3.);
#764=CYLINDRICAL_SURFACE('',#910,3.);
#765=ADVANCED_FACE('',(#65),#737,.F.);
#766=ADVANCED_FACE('',(#66),#55,.F.);
#767=ADVANCED_FACE('',(#67),#738,.T.);
#768=ADVANCED_FACE('',(#68,#15,#16,#17,#18,#19,#20,#21,#22,#23,#24,#25,
#26,#27,#28,#29,#30,#31,#32,#33,#34),#56,.F.);
#769=ADVANCED_FACE('',(#69),#57,.F.);
#770=ADVANCED_FACE('',(#70),#58,.F.);
#771=ADVANCED_FACE('',(#71),#739,.F.);
#772=ADVANCED_FACE('',(#72),#59,.F.);
#773=ADVANCED_FACE('',(#73),#740,.T.);
#774=ADVANCED_FACE('',(#74,#35,#36,#37,#38,#39,#40,#41,#42,#43,#44,#45,
#46,#47,#48,#49,#50,#51,#52,#53,#54),#60,.T.);
#775=ADVANCED_FACE('',(#75),#61,.F.);
#776=ADVANCED_FACE('',(#76),#741,.F.);
#777=ADVANCED_FACE('',(#77),#742,.F.);
#778=ADVANCED_FACE('',(#78),#743,.F.);
#779=ADVANCED_FACE('',(#79),#744,.F.);
#780=ADVANCED_FACE('',(#80),#62,.F.);
#781=ADVANCED_FACE('',(#81),#745,.T.);
#782=ADVANCED_FACE('',(#82),#746,.T.);
#783=ADVANCED_FACE('',(#83),#747,.F.);
#784=ADVANCED_FACE('',(#84),#748,.F.);
#785=ADVANCED_FACE('',(#85),#749,.F.);
#786=ADVANCED_FACE('',(#86),#750,.F.);
#787=ADVANCED_FACE('',(#87),#751,.F.);
#788=ADVANCED_FACE('',(#88),#752,.F.);
#789=ADVANCED_FACE('',(#89),#753,.F.);
#790=ADVANCED_FACE('',(#90),#754,.F.);
#791=ADVANCED_FACE('',(#91),#755,.F.);
#792=ADVANCED_FACE('',(#92),#756,.F.);
#793=ADVANCED_FACE('',(#93),#757,.F.);
#794=ADVANCED_FACE('',(#94),#758,.F.);
#795=ADVANCED_FACE('',(#95),#759,.F.);
#796=ADVANCED_FACE('',(#96),#760,.F.);
#797=ADVANCED_FACE('',(#97),#761,.F.);
#798=ADVANCED_FACE('',(#98),#762,.F.);
#799=ADVANCED_FACE('',(#99),#63,.F.);
#800=ADVANCED_FACE('',(#100),#64,.F.);
#801=ADVANCED_FACE('',(#101),#763,.T.);
#802=ADVANCED_FACE('',(#102),#764,.T.);
#803=CLOSED_SHELL('',(#765,#766,#767,#768,#769,#770,#771,#772,#773,#774,
#775,#776,#777,#778,#779,#780,#781,#782,#783,#784,#785,#786,#787,#788,#789,
#790,#791,#792,#793,#794,#795,#796,#797,#798,#799,#800,#801,#802));
#804=DERIVED_UNIT_ELEMENT(#806,1.);
#805=DERIVED_UNIT_ELEMENT(#1377,-3.);
#806=(
MASS_UNIT()
NAMED_UNIT(*)
SI_UNIT(.KILO.,.GRAM.)
);
#807=DERIVED_UNIT((#804,#805));
#808=MEASURE_REPRESENTATION_ITEM('density measure',
POSITIVE_RATIO_MEASURE(7850.),#807);
#809=PROPERTY_DEFINITION_REPRESENTATION(#814,#811);
#810=PROPERTY_DEFINITION_REPRESENTATION(#815,#812);
#811=REPRESENTATION('material name',(#813),#1374);
#812=REPRESENTATION('density',(#808),#1374);
#813=DESCRIPTIVE_REPRESENTATION_ITEM('Steel','Steel');
#814=PROPERTY_DEFINITION('material property','material name',#1384);
#815=PROPERTY_DEFINITION('material property','density of part',#1384);
#816=AXIS2_PLACEMENT_3D('',#1153,#911,#912);
#817=AXIS2_PLACEMENT_3D('',#1154,#913,#914);
#818=AXIS2_PLACEMENT_3D('',#1157,#915,#916);
#819=AXIS2_PLACEMENT_3D('',#1161,#918,#919);
#820=AXIS2_PLACEMENT_3D('',#1163,#921,#922);
#821=AXIS2_PLACEMENT_3D('',#1169,#926,#927);
#822=AXIS2_PLACEMENT_3D('',#1171,#928,#929);
#823=AXIS2_PLACEMENT_3D('',#1174,#931,#932);
#824=AXIS2_PLACEMENT_3D('',#1175,#933,#934);
#825=AXIS2_PLACEMENT_3D('',#1179,#936,#937);
#826=AXIS2_PLACEMENT_3D('',#1183,#939,#940);
#827=AXIS2_PLACEMENT_3D('',#1187,#942,#943);
#828=AXIS2_PLACEMENT_3D('',#1191,#945,#946);
#829=AXIS2_PLACEMENT_3D('',#1195,#948,#949);
#830=AXIS2_PLACEMENT_3D('',#1199,#951,#952);
#831=AXIS2_PLACEMENT_3D('',#1202,#954,#955);
#832=AXIS2_PLACEMENT_3D('',#1204,#956,#957);
#833=AXIS2_PLACEMENT_3D('',#1206,#958,#959);
#834=AXIS2_PLACEMENT_3D('',#1208,#960,#961);
#835=AXIS2_PLACEMENT_3D('',#1210,#962,#963);
#836=AXIS2_PLACEMENT_3D('',#1212,#964,#965);
#837=AXIS2_PLACEMENT_3D('',#1214,#966,#967);
#838=AXIS2_PLACEMENT_3D('',#1216,#968,#969);
#839=AXIS2_PLACEMENT_3D('',#1218,#970,#971);
#840=AXIS2_PLACEMENT_3D('',#1220,#972,#973);
#841=AXIS2_PLACEMENT_3D('',#1222,#974,#975);
#842=AXIS2_PLACEMENT_3D('',#1224,#976,#977);
#843=AXIS2_PLACEMENT_3D('',#1226,#978,#979);
#844=AXIS2_PLACEMENT_3D('',#1228,#980,#981);
#845=AXIS2_PLACEMENT_3D('',#1230,#982,#983);
#846=AXIS2_PLACEMENT_3D('',#1232,#984,#985);
#847=AXIS2_PLACEMENT_3D('',#1234,#986,#987);
#848=AXIS2_PLACEMENT_3D('',#1236,#988,#989);
#849=AXIS2_PLACEMENT_3D('',#1238,#990,#991);
#850=AXIS2_PLACEMENT_3D('',#1240,#992,#993);
#851=AXIS2_PLACEMENT_3D('',#1241,#994,#995);
#852=AXIS2_PLACEMENT_3D('',#1245,#998,#999);
#853=AXIS2_PLACEMENT_3D('',#1249,#1002,#1003);
#854=AXIS2_PLACEMENT_3D('',#1252,#1005,#1006);
#855=AXIS2_PLACEMENT_3D('',#1253,#1007,#1008);
#856=AXIS2_PLACEMENT_3D('',#1257,#1011,#1012);
#857=AXIS2_PLACEMENT_3D('',#1260,#1014,#1015);
#858=AXIS2_PLACEMENT_3D('',#1261,#1016,#1017);
#859=AXIS2_PLACEMENT_3D('',#1265,#1019,#1020);
#860=AXIS2_PLACEMENT_3D('',#1269,#1022,#1023);
#861=AXIS2_PLACEMENT_3D('',#1273,#1025,#1026);
#862=AXIS2_PLACEMENT_3D('',#1276,#1028,#1029);
#863=AXIS2_PLACEMENT_3D('',#1278,#1030,#1031);
#864=AXIS2_PLACEMENT_3D('',#1280,#1032,#1033);
#865=AXIS2_PLACEMENT_3D('',#1282,#1034,#1035);
#866=AXIS2_PLACEMENT_3D('',#1284,#1036,#1037);
#867=AXIS2_PLACEMENT_3D('',#1286,#1038,#1039);
#868=AXIS2_PLACEMENT_3D('',#1288,#1040,#1041);
#869=AXIS2_PLACEMENT_3D('',#1290,#1042,#1043);
#870=AXIS2_PLACEMENT_3D('',#1292,#1044,#1045);
#871=AXIS2_PLACEMENT_3D('',#1294,#1046,#1047);
#872=AXIS2_PLACEMENT_3D('',#1296,#1048,#1049);
#873=AXIS2_PLACEMENT_3D('',#1298,#1050,#1051);
#874=AXIS2_PLACEMENT_3D('',#1300,#1052,#1053);
#875=AXIS2_PLACEMENT_3D('',#1302,#1054,#1055);
#876=AXIS2_PLACEMENT_3D('',#1304,#1056,#1057);
#877=AXIS2_PLACEMENT_3D('',#1306,#1058,#1059);
#878=AXIS2_PLACEMENT_3D('',#1308,#1060,#1061);
#879=AXIS2_PLACEMENT_3D('',#1310,#1062,#1063);
#880=AXIS2_PLACEMENT_3D('',#1312,#1064,#1065);
#881=AXIS2_PLACEMENT_3D('',#1314,#1066,#1067);
#882=AXIS2_PLACEMENT_3D('',#1316,#1068,#1069);
#883=AXIS2_PLACEMENT_3D('',#1317,#1070,#1071);
#884=AXIS2_PLACEMENT_3D('',#1319,#1073,#1074);
#885=AXIS2_PLACEMENT_3D('',#1321,#1076,#1077);
#886=AXIS2_PLACEMENT_3D('',#1323,#1079,#1080);
#887=AXIS2_PLACEMENT_3D('',#1325,#1082,#1083);
#888=AXIS2_PLACEMENT_3D('',#1327,#1085,#1086);
#889=AXIS2_PLACEMENT_3D('',#1330,#1089,#1090);
#890=AXIS2_PLACEMENT_3D('',#1331,#1091,#1092);
#891=AXIS2_PLACEMENT_3D('',#1333,#1094,#1095);
#892=AXIS2_PLACEMENT_3D('',#1335,#1097,#1098);
#893=AXIS2_PLACEMENT_3D('',#1337,#1100,#1101);
#894=AXIS2_PLACEMENT_3D('',#1339,#1103,#1104);
#895=AXIS2_PLACEMENT_3D('',#1341,#1106,#1107);
#896=AXIS2_PLACEMENT_3D('',#1343,#1109,#1110);
#897=AXIS2_PLACEMENT_3D('',#1345,#1112,#1113);
#898=AXIS2_PLACEMENT_3D('',#1347,#1115,#1116);
#899=AXIS2_PLACEMENT_3D('',#1349,#1118,#1119);
#900=AXIS2_PLACEMENT_3D('',#1351,#1121,#1122);
#901=AXIS2_PLACEMENT_3D('',#1353,#1124,#1125);
#902=AXIS2_PLACEMENT_3D('',#1355,#1127,#1128);
#903=AXIS2_PLACEMENT_3D('',#1357,#1130,#1131);
#904=AXIS2_PLACEMENT_3D('',#1359,#1133,#1134);
#905=AXIS2_PLACEMENT_3D('',#1361,#1136,#1137);
#906=AXIS2_PLACEMENT_3D('',#1363,#1139,#1140);
#907=AXIS2_PLACEMENT_3D('',#1365,#1142,#1143);
#908=AXIS2_PLACEMENT_3D('',#1367,#1145,#1146);
#909=AXIS2_PLACEMENT_3D('',#1370,#1149,#1150);
#910=AXIS2_PLACEMENT_3D('',#1371,#1151,#1152);
#911=DIRECTION('axis',(0.,0.,1.));
#912=DIRECTION('refdir',(1.,0.,0.));
#913=DIRECTION('center_axis',(0.,-1.,0.));
#914=DIRECTION('ref_axis',(-0.707106781186547,0.,0.707106781186547));
#915=DIRECTION('center_axis',(0.,1.,0.));
#916=DIRECTION('ref_axis',(-0.707106781186547,0.,0.707106781186547));
#917=DIRECTION('',(0.,-1.,0.));
#918=DIRECTION('center_axis',(0.,-1.,0.));
#919=DIRECTION('ref_axis',(-0.707106781186547,0.,0.707106781186547));
#920=DIRECTION('',(0.,1.,0.));
#921=DIRECTION('center_axis',(0.,0.,1.));
#922=DIRECTION('ref_axis',(0.,1.,0.));
#923=DIRECTION('',(-1.,0.,0.));
#924=DIRECTION('',(0.,1.,0.));
#925=DIRECTION('',(-1.,0.,0.));
#926=DIRECTION('center_axis',(0.,1.,0.));
#927=DIRECTION('ref_axis',(0.707106781186547,0.,-0.707106781186547));
#928=DIRECTION('center_axis',(0.,-1.,0.));
#929=DIRECTION('ref_axis',(0.707106781186547,0.,-0.707106781186547));
#930=DIRECTION('',(0.,-1.,0.));
#931=DIRECTION('center_axis',(0.,1.,0.));
#932=DIRECTION('ref_axis',(0.707106781186547,0.,-0.707106781186547));
#933=DIRECTION('center_axis',(0.,1.,0.));
#934=DIRECTION('ref_axis',(0.,0.,1.));
#935=DIRECTION('',(0.,0.,-1.));
#936=DIRECTION('center_axis',(0.,-1.,0.));
#937=DIRECTION('ref_axis',(0.,0.,1.));
#938=DIRECTION('',(1.,0.,0.));
#939=DIRECTION('center_axis',(0.,-1.,0.));
#940=DIRECTION('ref_axis',(0.,0.,1.));
#941=DIRECTION('',(0.,0.,1.));
#942=DIRECTION('center_axis',(0.,-1.,0.));
#943=DIRECTION('ref_axis',(0.,0.,1.));
#944=DIRECTION('',(-1.,0.,0.));
#945=DIRECTION('center_axis',(0.,-1.,0.));
#946=DIRECTION('ref_axis',(0.,0.,1.));
#947=DIRECTION('',(0.,0.,-1.));
#948=DIRECTION('center_axis',(0.,1.,0.));
#949=DIRECTION('ref_axis',(0.707106781186547,0.,0.707106781186547));
#950=DIRECTION('',(1.,0.,0.));
#951=DIRECTION('center_axis',(0.,-1.,0.));
#952=DIRECTION('ref_axis',(-0.707106781186547,0.,-0.707106781186547));
#953=DIRECTION('',(0.,0.,1.));
#954=DIRECTION('center_axis',(0.,1.,0.));
#955=DIRECTION('ref_axis',(0.,0.,-1.));
#956=DIRECTION('center_axis',(0.,1.,0.));
#957=DIRECTION('ref_axis',(0.,0.,-1.));
#958=DIRECTION('center_axis',(0.,1.,0.));
#959=DIRECTION('ref_axis',(0.,0.,-1.));
#960=DIRECTION('center_axis',(0.,1.,0.));
#961=DIRECTION('ref_axis',(0.,0.,-1.));
#962=DIRECTION('center_axis',(0.,1.,0.));
#963=DIRECTION('ref_axis',(0.,0.,1.));
#964=DIRECTION('center_axis',(0.,1.,0.));
#965=DIRECTION('ref_axis',(0.,0.,1.));
#966=DIRECTION('center_axis',(0.,1.,0.));
#967=DIRECTION('ref_axis',(0.,0.,1.));
#968=DIRECTION('center_axis',(0.,1.,0.));
#969=DIRECTION('ref_axis',(0.,0.,1.));
#970=DIRECTION('center_axis',(0.,1.,0.));
#971=DIRECTION('ref_axis',(0.,0.,1.));
#972=DIRECTION('center_axis',(0.,1.,0.));
#973=DIRECTION('ref_axis',(0.,0.,1.));
#974=DIRECTION('center_axis',(0.,1.,0.));
#975=DIRECTION('ref_axis',(0.,0.,1.));
#976=DIRECTION('center_axis',(0.,1.,0.));
#977=DIRECTION('ref_axis',(0.,0.,1.));
#978=DIRECTION('center_axis',(0.,1.,0.));
#979=DIRECTION('ref_axis',(0.,0.,1.));
#980=DIRECTION('center_axis',(0.,1.,0.));
#981=DIRECTION('ref_axis',(0.,0.,1.));
#982=DIRECTION('center_axis',(0.,1.,0.));
#983=DIRECTION('ref_axis',(0.,0.,1.));
#984=DIRECTION('center_axis',(0.,1.,0.));
#985=DIRECTION('ref_axis',(0.,0.,1.));
#986=DIRECTION('center_axis',(0.,1.,0.));
#987=DIRECTION('ref_axis',(0.,0.,1.));
#988=DIRECTION('center_axis',(0.,1.,0.));
#989=DIRECTION('ref_axis',(0.,0.,1.));
#990=DIRECTION('center_axis',(0.,1.,0.));
#991=DIRECTION('ref_axis',(0.,0.,1.));
#992=DIRECTION('center_axis',(0.,1.,0.));
#993=DIRECTION('ref_axis',(0.,0.,1.));
#994=DIRECTION('center_axis',(-1.,0.,0.));
#995=DIRECTION('ref_axis',(0.,0.,1.));
#996=DIRECTION('',(0.,0.,-1.));
#997=DIRECTION('',(0.,-1.,0.));
#998=DIRECTION('center_axis',(-1.,0.,0.));
#999=DIRECTION('ref_axis',(0.,0.,1.));
#1000=DIRECTION('',(0.,-1.,0.));
#1001=DIRECTION('',(0.,0.,-1.));
#1002=DIRECTION('center_axis',(0.,1.,0.));
#1003=DIRECTION('ref_axis',(-0.707106781186547,0.,-0.707106781186547));
#1004=DIRECTION('',(0.,1.,0.));
#1005=DIRECTION('center_axis',(0.,1.,0.));
#1006=DIRECTION('ref_axis',(-0.707106781186547,0.,-0.707106781186547));
#1007=DIRECTION('center_axis',(0.,0.,-1.));
#1008=DIRECTION('ref_axis',(0.,-1.,0.));
#1009=DIRECTION('',(0.,-1.,0.));
#1010=DIRECTION('',(1.,0.,0.));
#1011=DIRECTION('center_axis',(0.,-1.,0.));
#1012=DIRECTION('ref_axis',(0.707106781186547,0.,0.707106781186547));
#1013=DIRECTION('',(0.,1.,0.));
#1014=DIRECTION('center_axis',(0.,-1.,0.));
#1015=DIRECTION('ref_axis',(0.707106781186547,0.,0.707106781186547));
#1016=DIRECTION('center_axis',(0.,1.,0.));
#1017=DIRECTION('ref_axis',(0.,0.,1.));
#1018=DIRECTION('',(0.,0.,-1.));
#1019=DIRECTION('center_axis',(0.,1.,0.));
#1020=DIRECTION('ref_axis',(0.,0.,1.));
#1021=DIRECTION('',(-1.,0.,0.));
#1022=DIRECTION('center_axis',(0.,1.,0.));
#1023=DIRECTION('ref_axis',(0.,0.,1.));
#1024=DIRECTION('',(0.,0.,1.));
#1025=DIRECTION('center_axis',(0.,1.,0.));
#1026=DIRECTION('ref_axis',(0.,0.,1.));
#1027=DIRECTION('',(1.,0.,0.));
#1028=DIRECTION('center_axis',(0.,1.,0.));
#1029=DIRECTION('ref_axis',(0.,0.,1.));
#1030=DIRECTION('center_axis',(0.,1.,0.));
#1031=DIRECTION('ref_axis',(0.,0.,-1.));
#1032=DIRECTION('center_axis',(0.,1.,0.));
#1033=DIRECTION('ref_axis',(0.,0.,-1.));
#1034=DIRECTION('center_axis',(0.,1.,0.));
#1035=DIRECTION('ref_axis',(0.,0.,-1.));
#1036=DIRECTION('center_axis',(0.,1.,0.));
#1037=DIRECTION('ref_axis',(0.,0.,-1.));
#1038=DIRECTION('center_axis',(0.,-1.,0.));
#1039=DIRECTION('ref_axis',(0.,0.,1.));
#1040=DIRECTION('center_axis',(0.,-1.,0.));
#1041=DIRECTION('ref_axis',(0.,0.,1.));
#1042=DIRECTION('center_axis',(0.,-1.,0.));
#1043=DIRECTION('ref_axis',(0.,0.,1.));
#1044=DIRECTION('center_axis',(0.,-1.,0.));
#1045=DIRECTION('ref_axis',(0.,0.,1.));
#1046=DIRECTION('center_axis',(0.,-1.,0.));
#1047=DIRECTION('ref_axis',(0.,0.,1.));
#1048=DIRECTION('center_axis',(0.,-1.,0.));
#1049=DIRECTION('ref_axis',(0.,0.,1.));
#1050=DIRECTION('center_axis',(0.,-1.,0.));
#1051=DIRECTION('ref_axis',(0.,0.,1.));
#1052=DIRECTION('center_axis',(0.,-1.,0.));
#1053=DIRECTION('ref_axis',(0.,0.,1.));
#1054=DIRECTION('center_axis',(0.,-1.,0.));
#1055=DIRECTION('ref_axis',(0.,0.,1.));
#1056=DIRECTION('center_axis',(0.,-1.,0.));
#1057=DIRECTION('ref_axis',(0.,0.,1.));
#1058=DIRECTION('center_axis',(0.,-1.,0.));
#1059=DIRECTION('ref_axis',(0.,0.,1.));
#1060=DIRECTION('center_axis',(0.,-1.,0.));
#1061=DIRECTION('ref_axis',(0.,0.,1.));
#1062=DIRECTION('center_axis',(0.,1.,0.));
#1063=DIRECTION('ref_axis',(0.,0.,1.));
#1064=DIRECTION('center_axis',(0.,1.,0.));
#1065=DIRECTION('ref_axis',(0.,0.,1.));
#1066=DIRECTION('center_axis',(0.,1.,0.));
#1067=DIRECTION('ref_axis',(0.,0.,1.));
#1068=DIRECTION('center_axis',(0.,1.,0.));
#1069=DIRECTION('ref_axis',(0.,0.,1.));
#1070=DIRECTION('center_axis',(-1.,0.,0.));
#1071=DIRECTION('ref_axis',(0.,0.,1.));
#1072=DIRECTION('',(0.,1.,0.));
#1073=DIRECTION('center_axis',(0.,1.,0.));
#1074=DIRECTION('ref_axis',(0.,0.,1.));
#1075=DIRECTION('',(0.,1.,0.));
#1076=DIRECTION('center_axis',(0.,1.,0.));
#1077=DIRECTION('ref_axis',(0.,0.,1.));
#1078=DIRECTION('',(0.,1.,0.));
#1079=DIRECTION('center_axis',(0.,1.,0.));
#1080=DIRECTION('ref_axis',(0.,0.,1.));
#1081=DIRECTION('',(0.,1.,0.));
#1082=DIRECTION('center_axis',(0.,1.,0.));
#1083=DIRECTION('ref_axis',(0.,0.,1.));
#1084=DIRECTION('',(0.,1.,0.));
#1085=DIRECTION('center_axis',(0.,0.,1.));
#1086=DIRECTION('ref_axis',(1.,0.,0.));
#1087=DIRECTION('',(0.,-1.,0.));
#1088=DIRECTION('',(0.,1.,0.));
#1089=DIRECTION('center_axis',(0.,-1.,0.));
#1090=DIRECTION('ref_axis',(0.,0.,-1.));
#1091=DIRECTION('center_axis',(0.,-1.,0.));
#1092=DIRECTION('ref_axis',(0.,0.,-1.));
#1093=DIRECTION('',(0.,-1.,0.));
#1094=DIRECTION('center_axis',(0.,-1.,0.));
#1095=DIRECTION('ref_axis',(0.,0.,1.));
#1096=DIRECTION('',(0.,-1.,0.));
#1097=DIRECTION('center_axis',(0.,-1.,0.));
#1098=DIRECTION('ref_axis',(0.,0.,1.));
#1099=DIRECTION('',(0.,-1.,0.));
#1100=DIRECTION('center_axis',(0.,-1.,0.));
#1101=DIRECTION('ref_axis',(0.,0.,1.));
#1102=DIRECTION('',(0.,-1.,0.));
#1103=DIRECTION('center_axis',(0.,-1.,0.));
#1104=DIRECTION('ref_axis',(0.,0.,1.));
#1105=DIRECTION('',(0.,-1.,0.));
#1106=DIRECTION('center_axis',(0.,-1.,0.));
#1107=DIRECTION('ref_axis',(0.,0.,1.));
#1108=DIRECTION('',(0.,-1.,0.));
#1109=DIRECTION('center_axis',(0.,-1.,0.));
#1110=DIRECTION('ref_axis',(0.,0.,1.));
#1111=DIRECTION('',(0.,-1.,0.));
#1112=DIRECTION('center_axis',(0.,-1.,0.));
#1113=DIRECTION('ref_axis',(0.,0.,1.));
#1114=DIRECTION('',(0.,-1.,0.));
#1115=DIRECTION('center_axis',(0.,-1.,0.));
#1116=DIRECTION('ref_axis',(0.,0.,1.));
#1117=DIRECTION('',(0.,-1.,0.));
#1118=DIRECTION('center_axis',(0.,-1.,0.));
#1119=DIRECTION('ref_axis',(0.,0.,1.));
#1120=DIRECTION('',(0.,-1.,0.));
#1121=DIRECTION('center_axis',(0.,-1.,0.));
#1122=DIRECTION('ref_axis',(0.,0.,1.));
#1123=DIRECTION('',(0.,-1.,0.));
#1124=DIRECTION('center_axis',(0.,-1.,0.));
#1125=DIRECTION('ref_axis',(0.,0.,1.));
#1126=DIRECTION('',(0.,-1.,0.));
#1127=DIRECTION('center_axis',(0.,-1.,0.));
#1128=DIRECTION('ref_axis',(0.,0.,1.));
#1129=DIRECTION('',(0.,-1.,0.));
#1130=DIRECTION('center_axis',(0.,1.,0.));
#1131=DIRECTION('ref_axis',(0.,0.,1.));
#1132=DIRECTION('',(0.,1.,0.));
#1133=DIRECTION('center_axis',(0.,1.,0.));
#1134=DIRECTION('ref_axis',(0.,0.,1.));
#1135=DIRECTION('',(0.,1.,0.));
#1136=DIRECTION('center_axis',(0.,1.,0.));
#1137=DIRECTION('ref_axis',(0.,0.,1.));
#1138=DIRECTION('',(0.,1.,0.));
#1139=DIRECTION('center_axis',(0.,1.,0.));
#1140=DIRECTION('ref_axis',(0.,0.,1.));
#1141=DIRECTION('',(0.,1.,0.));
#1142=DIRECTION('center_axis',(1.,0.,0.));
#1143=DIRECTION('ref_axis',(0.,0.,-1.));
#1144=DIRECTION('',(0.,1.,0.));
#1145=DIRECTION('center_axis',(0.,0.,-1.));
#1146=DIRECTION('ref_axis',(-1.,0.,0.));
#1147=DIRECTION('',(0.,1.,0.));
#1148=DIRECTION('',(0.,-1.,0.));
#1149=DIRECTION('center_axis',(0.,-1.,0.));
#1150=DIRECTION('ref_axis',(0.,0.,-1.));
#1151=DIRECTION('center_axis',(0.,-1.,0.));
#1152=DIRECTION('ref_axis',(0.,0.,-1.));
#1153=CARTESIAN_POINT('',(0.,0.,0.));
#1154=CARTESIAN_POINT('Origin',(663.095064864809,605.99203530794,-705.465735504884));
#1155=CARTESIAN_POINT('',(653.095064864809,611.04203530794,-705.465735504884));
#1156=CARTESIAN_POINT('',(663.095064864809,611.04203530794,-695.465735504884));
#1157=CARTESIAN_POINT('Origin',(663.095064864809,611.04203530794,-705.465735504884));
#1158=CARTESIAN_POINT('',(663.095064864809,600.94203530794,-695.465735504884));
#1159=CARTESIAN_POINT('',(663.095064864809,605.99203530794,-695.465735504884));
#1160=CARTESIAN_POINT('',(653.095064864809,600.94203530794,-705.465735504884));
#1161=CARTESIAN_POINT('Origin',(663.095064864809,600.94203530794,-705.465735504884));
#1162=CARTESIAN_POINT('',(653.095064864809,605.99203530794,-705.465735504884));
#1163=CARTESIAN_POINT('Origin',(668.095064864809,600.94203530794,-695.465735504884));
#1164=CARTESIAN_POINT('',(680.095064864809,611.04203530794,-695.465735504884));
#1165=CARTESIAN_POINT('',(334.047532432404,611.04203530794,-695.465735504884));
#1166=CARTESIAN_POINT('',(680.095064864809,600.94203530794,-695.465735504884));
#1167=CARTESIAN_POINT('',(680.095064864809,605.99203530794,-695.465735504884));
#1168=CARTESIAN_POINT('',(334.047532432404,600.94203530794,-695.465735504884));
#1169=CARTESIAN_POINT('Origin',(680.095064864809,605.99203530794,-692.465735504884));
#1170=CARTESIAN_POINT('',(683.095064864809,611.04203530794,-692.465735504884));
#1171=CARTESIAN_POINT('Origin',(680.095064864809,611.04203530794,-692.465735504884));
#1172=CARTESIAN_POINT('',(683.095064864809,600.94203530794,-692.465735504884));
#1173=CARTESIAN_POINT('',(683.095064864809,605.99203530794,-692.465735504884));
#1174=CARTESIAN_POINT('Origin',(680.095064864809,600.94203530794,-692.465735504884));
#1175=CARTESIAN_POINT('Origin',(0.,600.94203530794,0.));
#1176=CARTESIAN_POINT('',(683.095064864809,600.94203530794,-678.465735504884));
#1177=CARTESIAN_POINT('',(683.095064864809,600.94203530794,-875.465735504884));
#1178=CARTESIAN_POINT('',(680.095064864809,600.94203530794,-675.465735504884));
#1179=CARTESIAN_POINT('Origin',(680.095064864809,600.94203530794,-678.465735504884));
#1180=CARTESIAN_POINT('',(622.095064864809,600.94203530794,-675.465735504884));
#1181=CARTESIAN_POINT('',(619.095064864809,600.94203530794,-675.465735504884));
#1182=CARTESIAN_POINT('',(619.095064864809,600.94203530794,-678.465735504884));
#1183=CARTESIAN_POINT('Origin',(622.095064864809,600.94203530794,-678.465735504884));
#1184=CARTESIAN_POINT('',(619.095064864809,600.94203530794,-872.465735504884));
#1185=CARTESIAN_POINT('',(619.095064864809,600.94203530794,-875.465735504884));
#1186=CARTESIAN_POINT('',(622.095064864809,600.94203530794,-875.465735504884));
#1187=CARTESIAN_POINT('Origin',(622.095064864809,600.94203530794,-872.465735504884));
#1188=CARTESIAN_POINT('',(680.095064864809,600.94203530794,-875.465735504884));
#1189=CARTESIAN_POINT('',(619.095064864809,600.94203530794,-875.465735504884));
#1190=CARTESIAN_POINT('',(683.095064864809,600.94203530794,-872.465735504884));
#1191=CARTESIAN_POINT('Origin',(680.095064864809,600.94203530794,-872.465735504884));
#1192=CARTESIAN_POINT('',(683.095064864809,600.94203530794,-858.465735504884));
#1193=CARTESIAN_POINT('',(683.095064864809,600.94203530794,-875.465735504884));
#1194=CARTESIAN_POINT('',(680.095064864809,600.94203530794,-855.465735504884));
#1195=CARTESIAN_POINT('Origin',(680.095064864809,600.94203530794,-858.465735504884));
#1196=CARTESIAN_POINT('',(663.095064864809,600.94203530794,-855.465735504884));
#1197=CARTESIAN_POINT('',(334.047532432404,600.94203530794,-855.465735504884));
#1198=CARTESIAN_POINT('',(653.095064864809,600.94203530794,-845.465735504884));
#1199=CARTESIAN_POINT('Origin',(663.095064864809,600.94203530794,-845.465735504884));
#1200=CARTESIAN_POINT('',(653.095064864809,600.94203530794,-356.732867752442));
#1201=CARTESIAN_POINT('',(622.595064864789,600.94203530794,-873.005257374213));
#1202=CARTESIAN_POINT('Origin',(622.595064864789,600.94203530794,-870.822444874213));
#1203=CARTESIAN_POINT('',(641.595064864789,600.94203530794,-873.005257374213));
#1204=CARTESIAN_POINT('Origin',(641.595064864789,600.94203530794,-870.822444874213));
#1205=CARTESIAN_POINT('',(660.595064864789,600.94203530794,-873.005257374213));
#1206=CARTESIAN_POINT('Origin',(660.595064864789,600.94203530794,-870.822444874213));
#1207=CARTESIAN_POINT('',(679.595064864789,600.94203530794,-873.005257374213));
#1208=CARTESIAN_POINT('Origin',(679.595064864789,600.94203530794,-870.822444874213));
#1209=CARTESIAN_POINT('',(650.595064864809,600.94203530794,-767.215735504884));
#1210=CARTESIAN_POINT('Origin',(650.595064864809,600.94203530794,-765.715735504884));
#1211=CARTESIAN_POINT('',(650.595064864809,600.94203530794,-786.715735504884));
#1212=CARTESIAN_POINT('Origin',(650.595064864809,600.94203530794,-785.215735504884));
#1213=CARTESIAN_POINT('',(625.125064864809,600.94203530794,-767.215735504884));
#1214=CARTESIAN_POINT('Origin',(625.125064864809,600.94203530794,-765.715735504884));
#1215=CARTESIAN_POINT('',(625.125064864809,600.94203530794,-786.715735504884));
#1216=CARTESIAN_POINT('Origin',(625.125064864809,600.94203530794,-785.215735504884));
#1217=CARTESIAN_POINT('',(650.595064864809,600.94203530794,-812.215735504884));
#1218=CARTESIAN_POINT('Origin',(650.595064864809,600.94203530794,-810.715735504884));
#1219=CARTESIAN_POINT('',(650.595064864809,600.94203530794,-722.215735504884));
#1220=CARTESIAN_POINT('Origin',(650.595064864809,600.94203530794,-720.715735504884));
#1221=CARTESIAN_POINT('',(625.125064864809,600.94203530794,-812.215735504884));
#1222=CARTESIAN_POINT('Origin',(625.125064864809,600.94203530794,-810.715735504884));
#1223=CARTESIAN_POINT('',(625.125064864809,600.94203530794,-722.215735504884));
#1224=CARTESIAN_POINT('Origin',(625.125064864809,600.94203530794,-720.715735504884));
#1225=CARTESIAN_POINT('',(650.595064864809,600.94203530794,-831.715735504884));
#1226=CARTESIAN_POINT('Origin',(650.595064864809,600.94203530794,-830.215735504884));
#1227=CARTESIAN_POINT('',(650.595064864809,600.94203530794,-741.715735504884));
#1228=CARTESIAN_POINT('Origin',(650.595064864809,600.94203530794,-740.215735504884));
#1229=CARTESIAN_POINT('',(625.125064864809,600.94203530794,-831.715735504884));
#1230=CARTESIAN_POINT('Origin',(625.125064864809,600.94203530794,-830.215735504884));
#1231=CARTESIAN_POINT('',(625.125064864809,600.94203530794,-741.715735504884));
#1232=CARTESIAN_POINT('Origin',(625.125064864809,600.94203530794,-740.215735504884));
#1233=CARTESIAN_POINT('',(622.595064864789,600.94203530794,-682.291838635555));
#1234=CARTESIAN_POINT('Origin',(622.595064864789,600.94203530794,-680.109026135556));
#1235=CARTESIAN_POINT('',(679.595064864789,600.94203530794,-682.291838635555));
#1236=CARTESIAN_POINT('Origin',(679.595064864789,600.94203530794,-680.109026135556));
#1237=CARTESIAN_POINT('',(660.595064864789,600.94203530794,-682.291838635555));
#1238=CARTESIAN_POINT('Origin',(660.595064864789,600.94203530794,-680.109026135556));
#1239=CARTESIAN_POINT('',(641.595064864789,600.94203530794,-682.291838635555));
#1240=CARTESIAN_POINT('Origin',(641.595064864789,600.94203530794,-680.109026135556));
#1241=CARTESIAN_POINT('Origin',(683.095064864809,611.04203530794,-875.465735504884));
#1242=CARTESIAN_POINT('',(683.095064864809,611.04203530794,-678.465735504884));
#1243=CARTESIAN_POINT('',(683.095064864809,611.04203530794,-875.465735504884));
#1244=CARTESIAN_POINT('',(683.095064864809,611.04203530794,-678.465735504884));
#1245=CARTESIAN_POINT('Origin',(653.095064864809,611.04203530794,-875.465735504884));
#1246=CARTESIAN_POINT('',(653.095064864809,611.04203530794,-845.465735504884));
#1247=CARTESIAN_POINT('',(653.095064864809,611.04203530794,-845.465735504884));
#1248=CARTESIAN_POINT('',(653.095064864809,611.04203530794,-418.732867752442));
#1249=CARTESIAN_POINT('Origin',(663.095064864809,611.04203530794,-845.465735504884));
#1250=CARTESIAN_POINT('',(663.095064864809,611.04203530794,-855.465735504884));
#1251=CARTESIAN_POINT('',(663.095064864809,611.04203530794,-855.465735504884));
#1252=CARTESIAN_POINT('Origin',(663.095064864809,611.04203530794,-845.465735504884));
#1253=CARTESIAN_POINT('Origin',(668.095064864809,611.04203530794,-855.465735504884));
#1254=CARTESIAN_POINT('',(680.095064864809,611.04203530794,-855.465735504884));
#1255=CARTESIAN_POINT('',(680.095064864809,611.04203530794,-855.465735504884));
#1256=CARTESIAN_POINT('',(334.047532432404,611.04203530794,-855.465735504884));
#1257=CARTESIAN_POINT('Origin',(680.095064864809,611.04203530794,-858.465735504884));
#1258=CARTESIAN_POINT('',(683.095064864809,611.04203530794,-858.465735504884));
#1259=CARTESIAN_POINT('',(683.095064864809,611.04203530794,-858.465735504884));
#1260=CARTESIAN_POINT('Origin',(680.095064864809,611.04203530794,-858.465735504884));
#1261=CARTESIAN_POINT('Origin',(0.,611.04203530794,0.));
#1262=CARTESIAN_POINT('',(683.095064864809,611.04203530794,-872.465735504884));
#1263=CARTESIAN_POINT('',(683.095064864809,611.04203530794,-875.465735504884));
#1264=CARTESIAN_POINT('',(680.095064864809,611.04203530794,-875.465735504884));
#1265=CARTESIAN_POINT('Origin',(680.095064864809,611.04203530794,-872.465735504884));
#1266=CARTESIAN_POINT('',(622.095064864809,611.04203530794,-875.465735504884));
#1267=CARTESIAN_POINT('',(619.095064864809,611.04203530794,-875.465735504884));
#1268=CARTESIAN_POINT('',(619.095064864809,611.04203530794,-872.465735504884));
#1269=CARTESIAN_POINT('Origin',(622.095064864809,611.04203530794,-872.465735504884));
#1270=CARTESIAN_POINT('',(619.095064864809,611.04203530794,-678.465735504884));
#1271=CARTESIAN_POINT('',(619.095064864809,611.04203530794,-875.465735504884));
#1272=CARTESIAN_POINT('',(622.095064864809,611.04203530794,-675.465735504884));
#1273=CARTESIAN_POINT('Origin',(622.095064864809,611.04203530794,-678.465735504884));
#1274=CARTESIAN_POINT('',(680.095064864809,611.04203530794,-675.465735504884));
#1275=CARTESIAN_POINT('',(619.095064864809,611.04203530794,-675.465735504884));
#1276=CARTESIAN_POINT('Origin',(680.095064864809,611.04203530794,-678.465735504884));
#1277=CARTESIAN_POINT('',(622.595064864789,611.04203530794,-873.005257374213));
#1278=CARTESIAN_POINT('Origin',(622.595064864789,611.04203530794,-870.822444874213));
#1279=CARTESIAN_POINT('',(641.595064864789,611.04203530794,-873.005257374213));
#1280=CARTESIAN_POINT('Origin',(641.595064864789,611.04203530794,-870.822444874213));
#1281=CARTESIAN_POINT('',(660.595064864789,611.04203530794,-873.005257374213));
#1282=CARTESIAN_POINT('Origin',(660.595064864789,611.04203530794,-870.822444874213));
#1283=CARTESIAN_POINT('',(679.595064864789,611.04203530794,-873.005257374213));
#1284=CARTESIAN_POINT('Origin',(679.595064864789,611.04203530794,-870.822444874213));
#1285=CARTESIAN_POINT('',(625.125064864809,611.04203530794,-741.715735504884));
#1286=CARTESIAN_POINT('Origin',(625.125064864809,611.04203530794,-740.215735504884));
#1287=CARTESIAN_POINT('',(625.125064864809,611.04203530794,-831.715735504884));
#1288=CARTESIAN_POINT('Origin',(625.125064864809,611.04203530794,-830.215735504884));
#1289=CARTESIAN_POINT('',(650.595064864809,611.04203530794,-741.715735504884));
#1290=CARTESIAN_POINT('Origin',(650.595064864809,611.04203530794,-740.215735504884));
#1291=CARTESIAN_POINT('',(650.595064864809,611.04203530794,-831.715735504884));
#1292=CARTESIAN_POINT('Origin',(650.595064864809,611.04203530794,-830.215735504884));
#1293=CARTESIAN_POINT('',(625.125064864809,611.04203530794,-722.215735504884));
#1294=CARTESIAN_POINT('Origin',(625.125064864809,611.04203530794,-720.715735504884));
#1295=CARTESIAN_POINT('',(625.125064864809,611.04203530794,-812.215735504884));
#1296=CARTESIAN_POINT('Origin',(625.125064864809,611.04203530794,-810.715735504884));
#1297=CARTESIAN_POINT('',(650.595064864809,611.04203530794,-722.215735504884));
#1298=CARTESIAN_POINT('Origin',(650.595064864809,611.04203530794,-720.715735504884));
#1299=CARTESIAN_POINT('',(650.595064864809,611.04203530794,-812.215735504884));
#1300=CARTESIAN_POINT('Origin',(650.595064864809,611.04203530794,-810.715735504884));
#1301=CARTESIAN_POINT('',(625.125064864809,611.04203530794,-786.715735504884));
#1302=CARTESIAN_POINT('Origin',(625.125064864809,611.04203530794,-785.215735504884));
#1303=CARTESIAN_POINT('',(625.125064864809,611.04203530794,-767.215735504884));
#1304=CARTESIAN_POINT('Origin',(625.125064864809,611.04203530794,-765.715735504884));
#1305=CARTESIAN_POINT('',(650.595064864809,611.04203530794,-786.715735504884));
#1306=CARTESIAN_POINT('Origin',(650.595064864809,611.04203530794,-785.215735504884));
#1307=CARTESIAN_POINT('',(650.595064864809,611.04203530794,-767.215735504884));
#1308=CARTESIAN_POINT('Origin',(650.595064864809,611.04203530794,-765.715735504884));
#1309=CARTESIAN_POINT('',(641.595064864789,611.04203530794,-682.291838635555));
#1310=CARTESIAN_POINT('Origin',(641.595064864789,611.04203530794,-680.109026135556));
#1311=CARTESIAN_POINT('',(660.595064864789,611.04203530794,-682.291838635555));
#1312=CARTESIAN_POINT('Origin',(660.595064864789,611.04203530794,-680.109026135556));
#1313=CARTESIAN_POINT('',(679.595064864789,611.04203530794,-682.291838635555));
#1314=CARTESIAN_POINT('Origin',(679.595064864789,611.04203530794,-680.109026135556));
#1315=CARTESIAN_POINT('',(622.595064864789,611.04203530794,-682.291838635555));
#1316=CARTESIAN_POINT('Origin',(622.595064864789,611.04203530794,-680.109026135556));
#1317=CARTESIAN_POINT('Origin',(683.095064864809,611.04203530794,-875.465735504884));
#1318=CARTESIAN_POINT('',(683.095064864809,611.04203530794,-872.465735504884));
#1319=CARTESIAN_POINT('Origin',(679.595064864789,600.94203530794,-870.822444874213));
#1320=CARTESIAN_POINT('',(679.595064864789,600.94203530794,-873.005257374213));
#1321=CARTESIAN_POINT('Origin',(660.595064864789,600.94203530794,-870.822444874213));
#1322=CARTESIAN_POINT('',(660.595064864789,600.94203530794,-873.005257374213));
#1323=CARTESIAN_POINT('Origin',(641.595064864789,600.94203530794,-870.822444874213));
#1324=CARTESIAN_POINT('',(641.595064864789,600.94203530794,-873.005257374213));
#1325=CARTESIAN_POINT('Origin',(622.595064864789,600.94203530794,-870.822444874213));
#1326=CARTESIAN_POINT('',(622.595064864789,600.94203530794,-873.005257374213));
#1327=CARTESIAN_POINT('Origin',(619.095064864809,611.04203530794,-875.465735504884));
#1328=CARTESIAN_POINT('',(680.095064864809,611.04203530794,-875.465735504884));
#1329=CARTESIAN_POINT('',(622.095064864809,611.04203530794,-875.465735504884));
#1330=CARTESIAN_POINT('Origin',(680.095064864809,611.04203530794,-872.465735504884));
#1331=CARTESIAN_POINT('Origin',(622.095064864809,611.04203530794,-872.465735504884));
#1332=CARTESIAN_POINT('',(619.095064864809,611.04203530794,-872.465735504884));
#1333=CARTESIAN_POINT('Origin',(625.125064864809,605.99203530794,-740.215735504884));
#1334=CARTESIAN_POINT('',(625.125064864809,605.99203530794,-741.715735504884));
#1335=CARTESIAN_POINT('Origin',(625.125064864809,605.99203530794,-830.215735504884));
#1336=CARTESIAN_POINT('',(625.125064864809,605.99203530794,-831.715735504884));
#1337=CARTESIAN_POINT('Origin',(650.595064864809,605.99203530794,-740.215735504884));
#1338=CARTESIAN_POINT('',(650.595064864809,605.99203530794,-741.715735504884));
#1339=CARTESIAN_POINT('Origin',(650.595064864809,605.99203530794,-830.215735504884));
#1340=CARTESIAN_POINT('',(650.595064864809,605.99203530794,-831.715735504884));
#1341=CARTESIAN_POINT('Origin',(625.125064864809,605.99203530794,-720.715735504884));
#1342=CARTESIAN_POINT('',(625.125064864809,605.99203530794,-722.215735504884));
#1343=CARTESIAN_POINT('Origin',(625.125064864809,605.99203530794,-810.715735504884));
#1344=CARTESIAN_POINT('',(625.125064864809,605.99203530794,-812.215735504884));
#1345=CARTESIAN_POINT('Origin',(650.595064864809,605.48703530794,-720.715735504884));
#1346=CARTESIAN_POINT('',(650.595064864809,605.48703530794,-722.215735504884));
#1347=CARTESIAN_POINT('Origin',(650.595064864809,605.48703530794,-810.715735504884));
#1348=CARTESIAN_POINT('',(650.595064864809,605.48703530794,-812.215735504884));
#1349=CARTESIAN_POINT('Origin',(650.595064864809,605.48703530794,-765.715735504884));
#1350=CARTESIAN_POINT('',(650.595064864809,605.48703530794,-767.215735504884));
#1351=CARTESIAN_POINT('Origin',(650.595064864809,605.99203530794,-785.215735504884));
#1352=CARTESIAN_POINT('',(650.595064864809,605.99203530794,-786.715735504884));
#1353=CARTESIAN_POINT('Origin',(625.125064864809,605.99203530794,-765.715735504884));
#1354=CARTESIAN_POINT('',(625.125064864809,605.99203530794,-767.215735504884));
#1355=CARTESIAN_POINT('Origin',(625.125064864809,605.99203530794,-785.215735504884));
#1356=CARTESIAN_POINT('',(625.125064864809,605.99203530794,-786.715735504884));
#1357=CARTESIAN_POINT('Origin',(641.595064864789,600.94203530794,-680.109026135556));
#1358=CARTESIAN_POINT('',(641.595064864789,600.94203530794,-682.291838635555));
#1359=CARTESIAN_POINT('Origin',(660.595064864789,600.94203530794,-680.109026135556));
#1360=CARTESIAN_POINT('',(660.595064864789,600.94203530794,-682.291838635555));
#1361=CARTESIAN_POINT('Origin',(679.595064864789,600.94203530794,-680.109026135556));
#1362=CARTESIAN_POINT('',(679.595064864789,600.94203530794,-682.291838635555));
#1363=CARTESIAN_POINT('Origin',(622.595064864789,600.94203530794,-680.109026135556));
#1364=CARTESIAN_POINT('',(622.595064864789,600.94203530794,-682.291838635555));
#1365=CARTESIAN_POINT('Origin',(619.095064864809,611.04203530794,-875.465735504884));
#1366=CARTESIAN_POINT('',(619.095064864809,611.04203530794,-678.465735504884));
#1367=CARTESIAN_POINT('Origin',(619.095064864809,611.04203530794,-675.465735504884));
#1368=CARTESIAN_POINT('',(680.095064864809,611.04203530794,-675.465735504884));
#1369=CARTESIAN_POINT('',(622.095064864809,611.04203530794,-675.465735504884));
#1370=CARTESIAN_POINT('Origin',(680.095064864809,611.04203530794,-678.465735504884));
#1371=CARTESIAN_POINT('Origin',(622.095064864809,611.04203530794,-678.465735504884));
#1372=UNCERTAINTY_MEASURE_WITH_UNIT(LENGTH_MEASURE(0.01),#1376,
'DISTANCE_ACCURACY_VALUE',
'Maximum model space distance between geometric entities at asserted c
onnectivities');
#1373=UNCERTAINTY_MEASURE_WITH_UNIT(LENGTH_MEASURE(0.01),#1376,
'DISTANCE_ACCURACY_VALUE',
'Maximum model space distance between geometric entities at asserted c
onnectivities');
#1374=(
GEOMETRIC_REPRESENTATION_CONTEXT(3)
GLOBAL_UNCERTAINTY_ASSIGNED_CONTEXT((#1372))
GLOBAL_UNIT_ASSIGNED_CONTEXT((#1376,#1378,#1379))
REPRESENTATION_CONTEXT('','3D')
);
#1375=(
GEOMETRIC_REPRESENTATION_CONTEXT(3)
GLOBAL_UNCERTAINTY_ASSIGNED_CONTEXT((#1373))
GLOBAL_UNIT_ASSIGNED_CONTEXT((#1376,#1378,#1379))
REPRESENTATION_CONTEXT('','3D')
);
#1376=(
LENGTH_UNIT()
NAMED_UNIT(*)
SI_UNIT(.MILLI.,.METRE.)
);
#1377=(
LENGTH_UNIT()
NAMED_UNIT(*)
SI_UNIT($,.METRE.)
);
#1378=(
NAMED_UNIT(*)
PLANE_ANGLE_UNIT()
SI_UNIT($,.RADIAN.)
);
#1379=(
NAMED_UNIT(*)
SI_UNIT($,.STERADIAN.)
SOLID_ANGLE_UNIT()
);
#1380=SHAPE_DEFINITION_REPRESENTATION(#1381,#1382);
#1381=PRODUCT_DEFINITION_SHAPE('',$,#1384);
#1382=SHAPE_REPRESENTATION('',(#816),#1374);
#1383=PRODUCT_DEFINITION_CONTEXT('part definition',#1388,'design');
#1384=PRODUCT_DEFINITION('Spout Drain Platform','Spout Drain Platform',
#1385,#1383);
#1385=PRODUCT_DEFINITION_FORMATION('',$,#1390);
#1386=PRODUCT_RELATED_PRODUCT_CATEGORY('Spout Drain Platform',
'Spout Drain Platform',(#1390));
#1387=APPLICATION_PROTOCOL_DEFINITION('international standard',
'automotive_design',2009,#1388);
#1388=APPLICATION_CONTEXT(
'Core Data for Automotive Mechanical Design Process');
#1389=PRODUCT_CONTEXT('part definition',#1388,'mechanical');
#1390=PRODUCT('Spout Drain Platform','Spout Drain Platform',$,(#1389));
#1391=PRESENTATION_STYLE_ASSIGNMENT((#1393));
#1392=PRESENTATION_STYLE_ASSIGNMENT((#1394));
#1393=SURFACE_STYLE_USAGE(.BOTH.,#1395);
#1394=SURFACE_STYLE_USAGE(.BOTH.,#1396);
#1395=SURFACE_SIDE_STYLE('',(#1397));
#1396=SURFACE_SIDE_STYLE('',(#1398));
#1397=SURFACE_STYLE_FILL_AREA(#1399);
#1398=SURFACE_STYLE_FILL_AREA(#1400);
#1399=FILL_AREA_STYLE('Steel - Satin',(#1401));
#1400=FILL_AREA_STYLE('Opaque(202,209,238)',(#1402));
#1401=FILL_AREA_STYLE_COLOUR('Steel - Satin',#1403);
#1402=FILL_AREA_STYLE_COLOUR('Opaque(202,209,238)',#1404);
#1403=COLOUR_RGB('Steel - Satin',0.627450980392157,0.627450980392157,0.627450980392157);
#1404=COLOUR_RGB('Opaque(202,209,238)',0.792156862745098,0.819607843137255,
0.933333333333333);
ENDSEC;
END-ISO-10303-21;
