ISO-10303-21;
HEADER;
/* Generated by software containing ST-Developer
 * from STEP Tools, Inc. (www.steptools.com) 
 */

FILE_DESCRIPTION(
/* description */ ('STEP AP203'),
/* implementation_level */ '2;1');

FILE_NAME(
/* name */ 'Barbed Hose Fitting 0.25in to 0.75in for Vac.step',
/* time_stamp */ '2026-03-01T13:01:56-05:00',
/* author */ (''),
/* organization */ (''),
/* preprocessor_version */ 'ST-DEVELOPER v20.1',
/* originating_system */ 'Autodesk Translation Framework v14.24.0.0',
/* authorisation */ '');

FILE_SCHEMA (('AUTOMOTIVE_DESIGN { 1 0 10303 214 3 1 1 }'));
ENDSEC;

DATA;
#10=MECHANICAL_DESIGN_GEOMETRIC_PRESENTATION_REPRESENTATION('',(#13),#1284);
#11=SHAPE_REPRESENTATION_RELATIONSHIP('SRR','None',#1294,#12);
#12=ADVANCED_BREP_SHAPE_REPRESENTATION('',(#14),#1283);
#13=STYLED_ITEM('',(#1303),#14);
#14=MANIFOLD_SOLID_BREP('Body1',#743);
#15=B_SPLINE_CURVE_WITH_KNOTS('',3,(#1174,#1175,#1176,#1177,#1178,#1179,
#1180,#1181,#1182,#1183,#1184,#1185,#1186,#1187,#1188,#1189,#1190,#1191),
 .UNSPECIFIED.,.F.,.F.,(4,2,2,2,2,2,2,2,4),(-1.0077397053093,-0.881339977376937,
-0.754940249444579,-0.629405051049613,-0.503869852654647,-0.378334654259682,
-0.252799455864716,-0.126399727932358,0.),.UNSPECIFIED.);
#16=B_SPLINE_CURVE_WITH_KNOTS('',3,(#1193,#1194,#1195,#1196,#1197,#1198,
#1199,#1200,#1201,#1202,#1203,#1204,#1205,#1206,#1207,#1208,#1209,#1210),
 .UNSPECIFIED.,.F.,.F.,(4,2,2,2,2,2,2,2,4),(-1.00773970530929,-0.881339977376937,
-0.754940249444578,-0.629405051049613,-0.503869852654647,-0.378334654259682,
-0.252799455864716,-0.126399727932358,0.),.UNSPECIFIED.);
#17=CYLINDRICAL_SURFACE('',#764,0.388);
#18=CYLINDRICAL_SURFACE('',#793,0.1275);
#19=CYLINDRICAL_SURFACE('',#794,0.1675);
#20=CYLINDRICAL_SURFACE('',#797,0.2479751760834);
#21=CYLINDRICAL_SURFACE('',#799,0.248007680889961);
#22=CYLINDRICAL_SURFACE('',#801,0.21);
#23=FACE_BOUND('',#103,.T.);
#24=FACE_BOUND('',#109,.T.);
#25=FACE_BOUND('',#122,.T.);
#26=FACE_BOUND('',#125,.T.);
#27=FACE_BOUND('',#131,.T.);
#28=FACE_BOUND('',#146,.T.);
#29=FACE_BOUND('',#148,.T.);
#30=FACE_BOUND('',#150,.T.);
#31=PLANE('',#761);
#32=PLANE('',#768);
#33=PLANE('',#769);
#34=PLANE('',#770);
#35=PLANE('',#771);
#36=PLANE('',#773);
#37=PLANE('',#774);
#38=PLANE('',#775);
#39=PLANE('',#776);
#40=PLANE('',#777);
#41=PLANE('',#778);
#42=PLANE('',#779);
#43=PLANE('',#780);
#44=PLANE('',#781);
#45=PLANE('',#782);
#46=PLANE('',#786);
#47=PLANE('',#790);
#48=PLANE('',#804);
#49=PLANE('',#805);
#50=PLANE('',#806);
#51=PLANE('',#807);
#52=PLANE('',#808);
#53=PLANE('',#809);
#54=PLANE('',#810);
#55=PLANE('',#811);
#56=PLANE('',#822);
#57=PLANE('',#823);
#58=PLANE('',#824);
#59=FACE_OUTER_BOUND('',#101,.T.);
#60=FACE_OUTER_BOUND('',#102,.T.);
#61=FACE_OUTER_BOUND('',#104,.T.);
#62=FACE_OUTER_BOUND('',#105,.T.);
#63=FACE_OUTER_BOUND('',#106,.T.);
#64=FACE_OUTER_BOUND('',#107,.T.);
#65=FACE_OUTER_BOUND('',#108,.T.);
#66=FACE_OUTER_BOUND('',#110,.T.);
#67=FACE_OUTER_BOUND('',#111,.T.);
#68=FACE_OUTER_BOUND('',#112,.T.);
#69=FACE_OUTER_BOUND('',#113,.T.);
#70=FACE_OUTER_BOUND('',#114,.T.);
#71=FACE_OUTER_BOUND('',#115,.T.);
#72=FACE_OUTER_BOUND('',#116,.T.);
#73=FACE_OUTER_BOUND('',#117,.T.);
#74=FACE_OUTER_BOUND('',#118,.T.);
#75=FACE_OUTER_BOUND('',#119,.T.);
#76=FACE_OUTER_BOUND('',#120,.T.);
#77=FACE_OUTER_BOUND('',#121,.T.);
#78=FACE_OUTER_BOUND('',#123,.T.);
#79=FACE_OUTER_BOUND('',#124,.T.);
#80=FACE_OUTER_BOUND('',#126,.T.);
#81=FACE_OUTER_BOUND('',#127,.T.);
#82=FACE_OUTER_BOUND('',#128,.T.);
#83=FACE_OUTER_BOUND('',#129,.T.);
#84=FACE_OUTER_BOUND('',#130,.T.);
#85=FACE_OUTER_BOUND('',#132,.T.);
#86=FACE_OUTER_BOUND('',#133,.T.);
#87=FACE_OUTER_BOUND('',#134,.T.);
#88=FACE_OUTER_BOUND('',#135,.T.);
#89=FACE_OUTER_BOUND('',#136,.T.);
#90=FACE_OUTER_BOUND('',#137,.T.);
#91=FACE_OUTER_BOUND('',#138,.T.);
#92=FACE_OUTER_BOUND('',#139,.T.);
#93=FACE_OUTER_BOUND('',#140,.T.);
#94=FACE_OUTER_BOUND('',#141,.T.);
#95=FACE_OUTER_BOUND('',#142,.T.);
#96=FACE_OUTER_BOUND('',#143,.T.);
#97=FACE_OUTER_BOUND('',#144,.T.);
#98=FACE_OUTER_BOUND('',#145,.T.);
#99=FACE_OUTER_BOUND('',#147,.T.);
#100=FACE_OUTER_BOUND('',#149,.T.);
#101=EDGE_LOOP('',(#491,#492,#493,#494,#495));
#102=EDGE_LOOP('',(#496));
#103=EDGE_LOOP('',(#497,#498,#499,#500));
#104=EDGE_LOOP('',(#501,#502,#503,#504,#505,#506,#507));
#105=EDGE_LOOP('',(#508,#509,#510,#511,#512,#513));
#106=EDGE_LOOP('',(#514,#515,#516,#517,#518,#519));
#107=EDGE_LOOP('',(#520,#521,#522,#523,#524));
#108=EDGE_LOOP('',(#525,#526,#527,#528));
#109=EDGE_LOOP('',(#529));
#110=EDGE_LOOP('',(#530,#531,#532,#533,#534));
#111=EDGE_LOOP('',(#535,#536,#537,#538,#539,#540));
#112=EDGE_LOOP('',(#541,#542,#543,#544));
#113=EDGE_LOOP('',(#545,#546,#547,#548,#549,#550));
#114=EDGE_LOOP('',(#551,#552,#553,#554,#555));
#115=EDGE_LOOP('',(#556,#557,#558,#559));
#116=EDGE_LOOP('',(#560,#561,#562,#563,#564,#565,#566,#567,#568));
#117=EDGE_LOOP('',(#569,#570,#571,#572,#573,#574));
#118=EDGE_LOOP('',(#575,#576,#577,#578,#579,#580));
#119=EDGE_LOOP('',(#581,#582,#583,#584,#585));
#120=EDGE_LOOP('',(#586,#587,#588,#589));
#121=EDGE_LOOP('',(#590));
#122=EDGE_LOOP('',(#591));
#123=EDGE_LOOP('',(#592,#593,#594,#595));
#124=EDGE_LOOP('',(#596));
#125=EDGE_LOOP('',(#597));
#126=EDGE_LOOP('',(#598,#599,#600,#601,#602));
#127=EDGE_LOOP('',(#603,#604,#605,#606,#607));
#128=EDGE_LOOP('',(#608,#609,#610,#611));
#129=EDGE_LOOP('',(#612,#613,#614,#615));
#130=EDGE_LOOP('',(#616,#617,#618,#619,#620));
#131=EDGE_LOOP('',(#621,#622));
#132=EDGE_LOOP('',(#623,#624,#625,#626,#627));
#133=EDGE_LOOP('',(#628,#629,#630,#631));
#134=EDGE_LOOP('',(#632,#633,#634,#635));
#135=EDGE_LOOP('',(#636,#637,#638,#639,#640));
#136=EDGE_LOOP('',(#641,#642,#643,#644,#645,#646,#647,#648,#649));
#137=EDGE_LOOP('',(#650,#651,#652,#653,#654));
#138=EDGE_LOOP('',(#655,#656,#657,#658));
#139=EDGE_LOOP('',(#659,#660,#661,#662));
#140=EDGE_LOOP('',(#663,#664,#665,#666,#667,#668,#669,#670));
#141=EDGE_LOOP('',(#671,#672,#673,#674));
#142=EDGE_LOOP('',(#675,#676,#677,#678));
#143=EDGE_LOOP('',(#679,#680,#681,#682));
#144=EDGE_LOOP('',(#683,#684,#685,#686));
#145=EDGE_LOOP('',(#687));
#146=EDGE_LOOP('',(#688));
#147=EDGE_LOOP('',(#689));
#148=EDGE_LOOP('',(#690));
#149=EDGE_LOOP('',(#691));
#150=EDGE_LOOP('',(#692));
#151=LINE('',#1043,#224);
#152=LINE('',#1050,#225);
#153=LINE('',#1053,#226);
#154=LINE('',#1056,#227);
#155=LINE('',#1065,#228);
#156=LINE('',#1067,#229);
#157=LINE('',#1069,#230);
#158=LINE('',#1071,#231);
#159=LINE('',#1073,#232);
#160=LINE('',#1074,#233);
#161=LINE('',#1077,#234);
#162=LINE('',#1079,#235);
#163=LINE('',#1081,#236);
#164=LINE('',#1083,#237);
#165=LINE('',#1084,#238);
#166=LINE('',#1087,#239);
#167=LINE('',#1089,#240);
#168=LINE('',#1090,#241);
#169=LINE('',#1093,#242);
#170=LINE('',#1094,#243);
#171=LINE('',#1099,#244);
#172=LINE('',#1101,#245);
#173=LINE('',#1102,#246);
#174=LINE('',#1105,#247);
#175=LINE('',#1107,#248);
#176=LINE('',#1109,#249);
#177=LINE('',#1110,#250);
#178=LINE('',#1112,#251);
#179=LINE('',#1115,#252);
#180=LINE('',#1117,#253);
#181=LINE('',#1118,#254);
#182=LINE('',#1121,#255);
#183=LINE('',#1123,#256);
#184=LINE('',#1124,#257);
#185=LINE('',#1127,#258);
#186=LINE('',#1128,#259);
#187=LINE('',#1131,#260);
#188=LINE('',#1133,#261);
#189=LINE('',#1135,#262);
#190=LINE('',#1137,#263);
#191=LINE('',#1139,#264);
#192=LINE('',#1140,#265);
#193=LINE('',#1143,#266);
#194=LINE('',#1144,#267);
#195=LINE('',#1147,#268);
#196=LINE('',#1149,#269);
#197=LINE('',#1150,#270);
#198=LINE('',#1152,#271);
#199=LINE('',#1157,#272);
#200=LINE('',#1165,#273);
#201=LINE('',#1192,#274);
#202=LINE('',#1213,#275);
#203=LINE('',#1219,#276);
#204=LINE('',#1222,#277);
#205=LINE('',#1225,#278);
#206=LINE('',#1228,#279);
#207=LINE('',#1231,#280);
#208=LINE('',#1237,#281);
#209=LINE('',#1238,#282);
#210=LINE('',#1239,#283);
#211=LINE('',#1242,#284);
#212=LINE('',#1243,#285);
#213=LINE('',#1246,#286);
#214=LINE('',#1247,#287);
#215=LINE('',#1249,#288);
#216=LINE('',#1250,#289);
#217=LINE('',#1254,#290);
#218=LINE('',#1256,#291);
#219=LINE('',#1258,#292);
#220=LINE('',#1261,#293);
#221=LINE('',#1265,#294);
#222=LINE('',#1270,#295);
#223=LINE('',#1276,#296);
#224=VECTOR('',#833,0.325067527661702);
#225=VECTOR('',#840,0.393700787401575);
#226=VECTOR('',#843,0.393700787401575);
#227=VECTOR('',#846,0.36084391824352);
#228=VECTOR('',#855,0.393700787401575);
#229=VECTOR('',#856,0.393700787401575);
#230=VECTOR('',#857,0.393700787401575);
#231=VECTOR('',#858,0.393700787401575);
#232=VECTOR('',#859,0.393700787401575);
#233=VECTOR('',#860,0.393700787401575);
#234=VECTOR('',#863,0.393700787401575);
#235=VECTOR('',#864,0.393700787401575);
#236=VECTOR('',#865,0.393700787401575);
#237=VECTOR('',#866,0.393700787401575);
#238=VECTOR('',#867,0.393700787401575);
#239=VECTOR('',#870,0.393700787401575);
#240=VECTOR('',#871,0.393700787401575);
#241=VECTOR('',#872,0.393700787401575);
#242=VECTOR('',#875,0.393700787401575);
#243=VECTOR('',#876,0.393700787401575);
#244=VECTOR('',#881,0.393700787401575);
#245=VECTOR('',#882,0.393700787401575);
#246=VECTOR('',#883,0.393700787401575);
#247=VECTOR('',#886,0.393700787401575);
#248=VECTOR('',#887,0.393700787401575);
#249=VECTOR('',#888,0.393700787401575);
#250=VECTOR('',#889,0.393700787401575);
#251=VECTOR('',#892,0.393700787401575);
#252=VECTOR('',#895,0.393700787401575);
#253=VECTOR('',#896,0.393700787401575);
#254=VECTOR('',#897,0.393700787401575);
#255=VECTOR('',#900,0.393700787401575);
#256=VECTOR('',#901,0.393700787401575);
#257=VECTOR('',#902,0.393700787401575);
#258=VECTOR('',#905,0.393700787401575);
#259=VECTOR('',#906,0.393700787401575);
#260=VECTOR('',#909,0.393700787401575);
#261=VECTOR('',#910,0.393700787401575);
#262=VECTOR('',#911,0.393700787401575);
#263=VECTOR('',#912,0.393700787401575);
#264=VECTOR('',#913,0.393700787401575);
#265=VECTOR('',#914,0.393700787401575);
#266=VECTOR('',#917,0.393700787401575);
#267=VECTOR('',#918,39.3700787401575);
#268=VECTOR('',#921,39.3700787401575);
#269=VECTOR('',#922,0.393700787401575);
#270=VECTOR('',#923,0.393700787401575);
#271=VECTOR('',#926,0.393700787401575);
#272=VECTOR('',#931,0.140813502627909);
#273=VECTOR('',#942,0.177694052731976);
#274=VECTOR('',#951,0.1275);
#275=VECTOR('',#954,0.1675);
#276=VECTOR('',#961,0.393700787401575);
#277=VECTOR('',#964,0.393700787401575);
#278=VECTOR('',#967,0.393700787401575);
#279=VECTOR('',#970,0.393700787401575);
#280=VECTOR('',#973,0.21);
#281=VECTOR('',#980,39.3700787401575);
#282=VECTOR('',#981,0.393700787401575);
#283=VECTOR('',#982,0.393700787401575);
#284=VECTOR('',#985,39.3700787401575);
#285=VECTOR('',#986,0.393700787401575);
#286=VECTOR('',#989,39.3700787401575);
#287=VECTOR('',#990,0.393700787401575);
#288=VECTOR('',#993,0.393700787401575);
#289=VECTOR('',#994,0.393700787401575);
#290=VECTOR('',#1001,0.393700787401575);
#291=VECTOR('',#1004,0.393700787401575);
#292=VECTOR('',#1007,0.1975);
#293=VECTOR('',#1010,0.217952789707944);
#294=VECTOR('',#1015,0.1675);
#295=VECTOR('',#1020,0.19782342121996);
#296=VECTOR('',#1027,0.187758736975968);
#297=CIRCLE('',#758,0.388);
#298=CIRCLE('',#759,0.388);
#299=CIRCLE('',#760,0.262135055323407);
#300=CIRCLE('',#762,0.248007680889961);
#301=CIRCLE('',#763,0.2479751760834);
#302=CIRCLE('',#765,0.388);
#303=CIRCLE('',#766,0.388);
#304=CIRCLE('',#767,0.388);
#305=CIRCLE('',#772,0.217952789707944);
#306=CIRCLE('',#784,0.152613727489138);
#307=CIRCLE('',#785,0.129013277766681);
#308=CIRCLE('',#787,0.1275);
#309=CIRCLE('',#789,0.177694052731976);
#310=CIRCLE('',#791,0.21);
#311=CIRCLE('',#792,0.1675);
#312=CIRCLE('',#795,0.1675);
#313=CIRCLE('',#796,0.1675);
#314=CIRCLE('',#798,0.2479751760834);
#315=CIRCLE('',#800,0.248007680889961);
#316=CIRCLE('',#802,0.21);
#317=CIRCLE('',#803,0.21);
#318=CIRCLE('',#814,0.177773307231099);
#319=CIRCLE('',#817,0.19782342121996);
#320=CIRCLE('',#818,0.168309152170965);
#321=CIRCLE('',#820,0.187758736975968);
#322=CIRCLE('',#821,0.158244467926973);
#323=VERTEX_POINT('',#1038);
#324=VERTEX_POINT('',#1039);
#325=VERTEX_POINT('',#1042);
#326=VERTEX_POINT('',#1046);
#327=VERTEX_POINT('',#1047);
#328=VERTEX_POINT('',#1049);
#329=VERTEX_POINT('',#1051);
#330=VERTEX_POINT('',#1055);
#331=VERTEX_POINT('',#1057);
#332=VERTEX_POINT('',#1059);
#333=VERTEX_POINT('',#1063);
#334=VERTEX_POINT('',#1064);
#335=VERTEX_POINT('',#1066);
#336=VERTEX_POINT('',#1068);
#337=VERTEX_POINT('',#1070);
#338=VERTEX_POINT('',#1072);
#339=VERTEX_POINT('',#1076);
#340=VERTEX_POINT('',#1078);
#341=VERTEX_POINT('',#1080);
#342=VERTEX_POINT('',#1082);
#343=VERTEX_POINT('',#1086);
#344=VERTEX_POINT('',#1088);
#345=VERTEX_POINT('',#1092);
#346=VERTEX_POINT('',#1095);
#347=VERTEX_POINT('',#1098);
#348=VERTEX_POINT('',#1100);
#349=VERTEX_POINT('',#1104);
#350=VERTEX_POINT('',#1106);
#351=VERTEX_POINT('',#1108);
#352=VERTEX_POINT('',#1114);
#353=VERTEX_POINT('',#1116);
#354=VERTEX_POINT('',#1120);
#355=VERTEX_POINT('',#1122);
#356=VERTEX_POINT('',#1126);
#357=VERTEX_POINT('',#1130);
#358=VERTEX_POINT('',#1132);
#359=VERTEX_POINT('',#1134);
#360=VERTEX_POINT('',#1136);
#361=VERTEX_POINT('',#1138);
#362=VERTEX_POINT('',#1142);
#363=VERTEX_POINT('',#1146);
#364=VERTEX_POINT('',#1148);
#365=VERTEX_POINT('',#1154);
#366=VERTEX_POINT('',#1156);
#367=VERTEX_POINT('',#1160);
#368=VERTEX_POINT('',#1163);
#369=VERTEX_POINT('',#1167);
#370=VERTEX_POINT('',#1169);
#371=VERTEX_POINT('',#1172);
#372=VERTEX_POINT('',#1173);
#373=VERTEX_POINT('',#1212);
#374=VERTEX_POINT('',#1214);
#375=VERTEX_POINT('',#1218);
#376=VERTEX_POINT('',#1220);
#377=VERTEX_POINT('',#1224);
#378=VERTEX_POINT('',#1226);
#379=VERTEX_POINT('',#1230);
#380=VERTEX_POINT('',#1232);
#381=VERTEX_POINT('',#1236);
#382=VERTEX_POINT('',#1241);
#383=VERTEX_POINT('',#1245);
#384=VERTEX_POINT('',#1260);
#385=VERTEX_POINT('',#1264);
#386=VERTEX_POINT('',#1267);
#387=VERTEX_POINT('',#1269);
#388=VERTEX_POINT('',#1273);
#389=VERTEX_POINT('',#1275);
#390=EDGE_CURVE('',#323,#324,#297,.T.);
#391=EDGE_CURVE('',#324,#323,#298,.T.);
#392=EDGE_CURVE('',#323,#325,#151,.T.);
#393=EDGE_CURVE('',#325,#325,#299,.T.);
#394=EDGE_CURVE('',#326,#327,#300,.T.);
#395=EDGE_CURVE('',#328,#327,#152,.T.);
#396=EDGE_CURVE('',#329,#328,#301,.T.);
#397=EDGE_CURVE('',#326,#329,#153,.T.);
#398=EDGE_CURVE('',#324,#330,#154,.T.);
#399=EDGE_CURVE('',#330,#331,#302,.T.);
#400=EDGE_CURVE('',#331,#332,#303,.T.);
#401=EDGE_CURVE('',#332,#330,#304,.T.);
#402=EDGE_CURVE('',#333,#334,#155,.T.);
#403=EDGE_CURVE('',#334,#335,#156,.T.);
#404=EDGE_CURVE('',#335,#336,#157,.T.);
#405=EDGE_CURVE('',#336,#337,#158,.T.);
#406=EDGE_CURVE('',#337,#338,#159,.T.);
#407=EDGE_CURVE('',#338,#333,#160,.T.);
#408=EDGE_CURVE('',#339,#333,#161,.T.);
#409=EDGE_CURVE('',#339,#340,#162,.T.);
#410=EDGE_CURVE('',#340,#341,#163,.T.);
#411=EDGE_CURVE('',#342,#341,#164,.T.);
#412=EDGE_CURVE('',#342,#334,#165,.T.);
#413=EDGE_CURVE('',#338,#343,#166,.T.);
#414=EDGE_CURVE('',#343,#344,#167,.T.);
#415=EDGE_CURVE('',#344,#339,#168,.T.);
#416=EDGE_CURVE('',#345,#337,#169,.T.);
#417=EDGE_CURVE('',#343,#345,#170,.T.);
#418=EDGE_CURVE('',#346,#346,#305,.T.);
#419=EDGE_CURVE('',#336,#347,#171,.T.);
#420=EDGE_CURVE('',#347,#348,#172,.T.);
#421=EDGE_CURVE('',#348,#345,#173,.T.);
#422=EDGE_CURVE('',#335,#349,#174,.T.);
#423=EDGE_CURVE('',#350,#349,#175,.T.);
#424=EDGE_CURVE('',#350,#351,#176,.T.);
#425=EDGE_CURVE('',#351,#347,#177,.T.);
#426=EDGE_CURVE('',#349,#342,#178,.T.);
#427=EDGE_CURVE('',#341,#352,#179,.T.);
#428=EDGE_CURVE('',#352,#353,#180,.T.);
#429=EDGE_CURVE('',#353,#350,#181,.T.);
#430=EDGE_CURVE('',#353,#354,#182,.T.);
#431=EDGE_CURVE('',#354,#355,#183,.T.);
#432=EDGE_CURVE('',#355,#351,#184,.T.);
#433=EDGE_CURVE('',#356,#352,#185,.T.);
#434=EDGE_CURVE('',#354,#356,#186,.T.);
#435=EDGE_CURVE('',#348,#357,#187,.T.);
#436=EDGE_CURVE('',#358,#357,#188,.T.);
#437=EDGE_CURVE('',#359,#358,#189,.T.);
#438=EDGE_CURVE('',#360,#359,#190,.T.);
#439=EDGE_CURVE('',#361,#360,#191,.T.);
#440=EDGE_CURVE('',#361,#344,#192,.T.);
#441=EDGE_CURVE('',#355,#362,#193,.T.);
#442=EDGE_CURVE('',#362,#357,#194,.T.);
#443=EDGE_CURVE('',#361,#363,#195,.T.);
#444=EDGE_CURVE('',#363,#364,#196,.T.);
#445=EDGE_CURVE('',#364,#340,#197,.T.);
#446=EDGE_CURVE('',#364,#356,#198,.T.);
#447=EDGE_CURVE('',#365,#365,#306,.T.);
#448=EDGE_CURVE('',#365,#366,#199,.T.);
#449=EDGE_CURVE('',#366,#366,#307,.T.);
#450=EDGE_CURVE('',#367,#367,#308,.T.);
#451=EDGE_CURVE('',#368,#368,#309,.F.);
#452=EDGE_CURVE('',#368,#365,#200,.T.);
#453=EDGE_CURVE('',#369,#369,#310,.T.);
#454=EDGE_CURVE('',#370,#370,#311,.T.);
#455=EDGE_CURVE('',#371,#372,#15,.T.);
#456=EDGE_CURVE('',#372,#367,#201,.T.);
#457=EDGE_CURVE('',#372,#371,#16,.T.);
#458=EDGE_CURVE('',#370,#373,#202,.T.);
#459=EDGE_CURVE('',#373,#374,#312,.T.);
#460=EDGE_CURVE('',#374,#373,#313,.T.);
#461=EDGE_CURVE('',#375,#328,#203,.T.);
#462=EDGE_CURVE('',#376,#375,#314,.T.);
#463=EDGE_CURVE('',#376,#329,#204,.T.);
#464=EDGE_CURVE('',#377,#326,#205,.T.);
#465=EDGE_CURVE('',#378,#377,#315,.T.);
#466=EDGE_CURVE('',#378,#327,#206,.T.);
#467=EDGE_CURVE('',#369,#379,#207,.T.);
#468=EDGE_CURVE('',#380,#379,#316,.T.);
#469=EDGE_CURVE('',#379,#380,#317,.T.);
#470=EDGE_CURVE('',#381,#360,#208,.T.);
#471=EDGE_CURVE('',#331,#381,#209,.T.);
#472=EDGE_CURVE('',#331,#363,#210,.T.);
#473=EDGE_CURVE('',#382,#359,#211,.T.);
#474=EDGE_CURVE('',#381,#382,#212,.F.);
#475=EDGE_CURVE('',#383,#358,#213,.T.);
#476=EDGE_CURVE('',#382,#383,#214,.F.);
#477=EDGE_CURVE('',#332,#362,#215,.T.);
#478=EDGE_CURVE('',#383,#332,#216,.T.);
#479=EDGE_CURVE('',#377,#376,#217,.T.);
#480=EDGE_CURVE('',#375,#378,#218,.T.);
#481=EDGE_CURVE('',#375,#380,#219,.T.);
#482=EDGE_CURVE('',#346,#384,#220,.T.);
#483=EDGE_CURVE('',#384,#384,#318,.T.);
#484=EDGE_CURVE('',#385,#374,#221,.T.);
#485=EDGE_CURVE('',#386,#386,#319,.F.);
#486=EDGE_CURVE('',#386,#387,#222,.T.);
#487=EDGE_CURVE('',#387,#387,#320,.F.);
#488=EDGE_CURVE('',#388,#388,#321,.F.);
#489=EDGE_CURVE('',#388,#389,#223,.T.);
#490=EDGE_CURVE('',#389,#389,#322,.F.);
#491=ORIENTED_EDGE('',*,*,#390,.T.);
#492=ORIENTED_EDGE('',*,*,#391,.T.);
#493=ORIENTED_EDGE('',*,*,#392,.T.);
#494=ORIENTED_EDGE('',*,*,#393,.T.);
#495=ORIENTED_EDGE('',*,*,#392,.F.);
#496=ORIENTED_EDGE('',*,*,#393,.F.);
#497=ORIENTED_EDGE('',*,*,#394,.T.);
#498=ORIENTED_EDGE('',*,*,#395,.F.);
#499=ORIENTED_EDGE('',*,*,#396,.F.);
#500=ORIENTED_EDGE('',*,*,#397,.F.);
#501=ORIENTED_EDGE('',*,*,#390,.F.);
#502=ORIENTED_EDGE('',*,*,#391,.F.);
#503=ORIENTED_EDGE('',*,*,#398,.T.);
#504=ORIENTED_EDGE('',*,*,#399,.T.);
#505=ORIENTED_EDGE('',*,*,#400,.T.);
#506=ORIENTED_EDGE('',*,*,#401,.T.);
#507=ORIENTED_EDGE('',*,*,#398,.F.);
#508=ORIENTED_EDGE('',*,*,#402,.T.);
#509=ORIENTED_EDGE('',*,*,#403,.T.);
#510=ORIENTED_EDGE('',*,*,#404,.T.);
#511=ORIENTED_EDGE('',*,*,#405,.T.);
#512=ORIENTED_EDGE('',*,*,#406,.T.);
#513=ORIENTED_EDGE('',*,*,#407,.T.);
#514=ORIENTED_EDGE('',*,*,#402,.F.);
#515=ORIENTED_EDGE('',*,*,#408,.F.);
#516=ORIENTED_EDGE('',*,*,#409,.T.);
#517=ORIENTED_EDGE('',*,*,#410,.T.);
#518=ORIENTED_EDGE('',*,*,#411,.F.);
#519=ORIENTED_EDGE('',*,*,#412,.T.);
#520=ORIENTED_EDGE('',*,*,#407,.F.);
#521=ORIENTED_EDGE('',*,*,#413,.T.);
#522=ORIENTED_EDGE('',*,*,#414,.T.);
#523=ORIENTED_EDGE('',*,*,#415,.T.);
#524=ORIENTED_EDGE('',*,*,#408,.T.);
#525=ORIENTED_EDGE('',*,*,#406,.F.);
#526=ORIENTED_EDGE('',*,*,#416,.F.);
#527=ORIENTED_EDGE('',*,*,#417,.F.);
#528=ORIENTED_EDGE('',*,*,#413,.F.);
#529=ORIENTED_EDGE('',*,*,#418,.F.);
#530=ORIENTED_EDGE('',*,*,#405,.F.);
#531=ORIENTED_EDGE('',*,*,#419,.T.);
#532=ORIENTED_EDGE('',*,*,#420,.T.);
#533=ORIENTED_EDGE('',*,*,#421,.T.);
#534=ORIENTED_EDGE('',*,*,#416,.T.);
#535=ORIENTED_EDGE('',*,*,#404,.F.);
#536=ORIENTED_EDGE('',*,*,#422,.T.);
#537=ORIENTED_EDGE('',*,*,#423,.F.);
#538=ORIENTED_EDGE('',*,*,#424,.T.);
#539=ORIENTED_EDGE('',*,*,#425,.T.);
#540=ORIENTED_EDGE('',*,*,#419,.F.);
#541=ORIENTED_EDGE('',*,*,#403,.F.);
#542=ORIENTED_EDGE('',*,*,#412,.F.);
#543=ORIENTED_EDGE('',*,*,#426,.F.);
#544=ORIENTED_EDGE('',*,*,#422,.F.);
#545=ORIENTED_EDGE('',*,*,#423,.T.);
#546=ORIENTED_EDGE('',*,*,#426,.T.);
#547=ORIENTED_EDGE('',*,*,#411,.T.);
#548=ORIENTED_EDGE('',*,*,#427,.T.);
#549=ORIENTED_EDGE('',*,*,#428,.T.);
#550=ORIENTED_EDGE('',*,*,#429,.T.);
#551=ORIENTED_EDGE('',*,*,#429,.F.);
#552=ORIENTED_EDGE('',*,*,#430,.T.);
#553=ORIENTED_EDGE('',*,*,#431,.T.);
#554=ORIENTED_EDGE('',*,*,#432,.T.);
#555=ORIENTED_EDGE('',*,*,#424,.F.);
#556=ORIENTED_EDGE('',*,*,#428,.F.);
#557=ORIENTED_EDGE('',*,*,#433,.F.);
#558=ORIENTED_EDGE('',*,*,#434,.F.);
#559=ORIENTED_EDGE('',*,*,#430,.F.);
#560=ORIENTED_EDGE('',*,*,#414,.F.);
#561=ORIENTED_EDGE('',*,*,#417,.T.);
#562=ORIENTED_EDGE('',*,*,#421,.F.);
#563=ORIENTED_EDGE('',*,*,#435,.T.);
#564=ORIENTED_EDGE('',*,*,#436,.F.);
#565=ORIENTED_EDGE('',*,*,#437,.F.);
#566=ORIENTED_EDGE('',*,*,#438,.F.);
#567=ORIENTED_EDGE('',*,*,#439,.F.);
#568=ORIENTED_EDGE('',*,*,#440,.T.);
#569=ORIENTED_EDGE('',*,*,#420,.F.);
#570=ORIENTED_EDGE('',*,*,#425,.F.);
#571=ORIENTED_EDGE('',*,*,#432,.F.);
#572=ORIENTED_EDGE('',*,*,#441,.T.);
#573=ORIENTED_EDGE('',*,*,#442,.T.);
#574=ORIENTED_EDGE('',*,*,#435,.F.);
#575=ORIENTED_EDGE('',*,*,#415,.F.);
#576=ORIENTED_EDGE('',*,*,#440,.F.);
#577=ORIENTED_EDGE('',*,*,#443,.T.);
#578=ORIENTED_EDGE('',*,*,#444,.T.);
#579=ORIENTED_EDGE('',*,*,#445,.T.);
#580=ORIENTED_EDGE('',*,*,#409,.F.);
#581=ORIENTED_EDGE('',*,*,#427,.F.);
#582=ORIENTED_EDGE('',*,*,#410,.F.);
#583=ORIENTED_EDGE('',*,*,#445,.F.);
#584=ORIENTED_EDGE('',*,*,#446,.T.);
#585=ORIENTED_EDGE('',*,*,#433,.T.);
#586=ORIENTED_EDGE('',*,*,#447,.T.);
#587=ORIENTED_EDGE('',*,*,#448,.T.);
#588=ORIENTED_EDGE('',*,*,#449,.T.);
#589=ORIENTED_EDGE('',*,*,#448,.F.);
#590=ORIENTED_EDGE('',*,*,#449,.F.);
#591=ORIENTED_EDGE('',*,*,#450,.T.);
#592=ORIENTED_EDGE('',*,*,#451,.F.);
#593=ORIENTED_EDGE('',*,*,#452,.T.);
#594=ORIENTED_EDGE('',*,*,#447,.F.);
#595=ORIENTED_EDGE('',*,*,#452,.F.);
#596=ORIENTED_EDGE('',*,*,#453,.F.);
#597=ORIENTED_EDGE('',*,*,#454,.F.);
#598=ORIENTED_EDGE('',*,*,#455,.T.);
#599=ORIENTED_EDGE('',*,*,#456,.T.);
#600=ORIENTED_EDGE('',*,*,#450,.F.);
#601=ORIENTED_EDGE('',*,*,#456,.F.);
#602=ORIENTED_EDGE('',*,*,#457,.T.);
#603=ORIENTED_EDGE('',*,*,#454,.T.);
#604=ORIENTED_EDGE('',*,*,#458,.T.);
#605=ORIENTED_EDGE('',*,*,#459,.T.);
#606=ORIENTED_EDGE('',*,*,#460,.T.);
#607=ORIENTED_EDGE('',*,*,#458,.F.);
#608=ORIENTED_EDGE('',*,*,#461,.F.);
#609=ORIENTED_EDGE('',*,*,#462,.F.);
#610=ORIENTED_EDGE('',*,*,#463,.T.);
#611=ORIENTED_EDGE('',*,*,#396,.T.);
#612=ORIENTED_EDGE('',*,*,#464,.F.);
#613=ORIENTED_EDGE('',*,*,#465,.F.);
#614=ORIENTED_EDGE('',*,*,#466,.T.);
#615=ORIENTED_EDGE('',*,*,#394,.F.);
#616=ORIENTED_EDGE('',*,*,#453,.T.);
#617=ORIENTED_EDGE('',*,*,#467,.T.);
#618=ORIENTED_EDGE('',*,*,#468,.F.);
#619=ORIENTED_EDGE('',*,*,#469,.F.);
#620=ORIENTED_EDGE('',*,*,#467,.F.);
#621=ORIENTED_EDGE('',*,*,#457,.F.);
#622=ORIENTED_EDGE('',*,*,#455,.F.);
#623=ORIENTED_EDGE('',*,*,#439,.T.);
#624=ORIENTED_EDGE('',*,*,#470,.F.);
#625=ORIENTED_EDGE('',*,*,#471,.F.);
#626=ORIENTED_EDGE('',*,*,#472,.T.);
#627=ORIENTED_EDGE('',*,*,#443,.F.);
#628=ORIENTED_EDGE('',*,*,#438,.T.);
#629=ORIENTED_EDGE('',*,*,#473,.F.);
#630=ORIENTED_EDGE('',*,*,#474,.F.);
#631=ORIENTED_EDGE('',*,*,#470,.T.);
#632=ORIENTED_EDGE('',*,*,#437,.T.);
#633=ORIENTED_EDGE('',*,*,#475,.F.);
#634=ORIENTED_EDGE('',*,*,#476,.F.);
#635=ORIENTED_EDGE('',*,*,#473,.T.);
#636=ORIENTED_EDGE('',*,*,#436,.T.);
#637=ORIENTED_EDGE('',*,*,#442,.F.);
#638=ORIENTED_EDGE('',*,*,#477,.F.);
#639=ORIENTED_EDGE('',*,*,#478,.F.);
#640=ORIENTED_EDGE('',*,*,#475,.T.);
#641=ORIENTED_EDGE('',*,*,#446,.F.);
#642=ORIENTED_EDGE('',*,*,#444,.F.);
#643=ORIENTED_EDGE('',*,*,#472,.F.);
#644=ORIENTED_EDGE('',*,*,#399,.F.);
#645=ORIENTED_EDGE('',*,*,#401,.F.);
#646=ORIENTED_EDGE('',*,*,#477,.T.);
#647=ORIENTED_EDGE('',*,*,#441,.F.);
#648=ORIENTED_EDGE('',*,*,#431,.F.);
#649=ORIENTED_EDGE('',*,*,#434,.T.);
#650=ORIENTED_EDGE('',*,*,#478,.T.);
#651=ORIENTED_EDGE('',*,*,#400,.F.);
#652=ORIENTED_EDGE('',*,*,#471,.T.);
#653=ORIENTED_EDGE('',*,*,#474,.T.);
#654=ORIENTED_EDGE('',*,*,#476,.T.);
#655=ORIENTED_EDGE('',*,*,#463,.F.);
#656=ORIENTED_EDGE('',*,*,#479,.F.);
#657=ORIENTED_EDGE('',*,*,#464,.T.);
#658=ORIENTED_EDGE('',*,*,#397,.T.);
#659=ORIENTED_EDGE('',*,*,#466,.F.);
#660=ORIENTED_EDGE('',*,*,#480,.F.);
#661=ORIENTED_EDGE('',*,*,#461,.T.);
#662=ORIENTED_EDGE('',*,*,#395,.T.);
#663=ORIENTED_EDGE('',*,*,#465,.T.);
#664=ORIENTED_EDGE('',*,*,#479,.T.);
#665=ORIENTED_EDGE('',*,*,#462,.T.);
#666=ORIENTED_EDGE('',*,*,#481,.T.);
#667=ORIENTED_EDGE('',*,*,#468,.T.);
#668=ORIENTED_EDGE('',*,*,#469,.T.);
#669=ORIENTED_EDGE('',*,*,#481,.F.);
#670=ORIENTED_EDGE('',*,*,#480,.T.);
#671=ORIENTED_EDGE('',*,*,#418,.T.);
#672=ORIENTED_EDGE('',*,*,#482,.T.);
#673=ORIENTED_EDGE('',*,*,#483,.F.);
#674=ORIENTED_EDGE('',*,*,#482,.F.);
#675=ORIENTED_EDGE('',*,*,#484,.T.);
#676=ORIENTED_EDGE('',*,*,#459,.F.);
#677=ORIENTED_EDGE('',*,*,#460,.F.);
#678=ORIENTED_EDGE('',*,*,#484,.F.);
#679=ORIENTED_EDGE('',*,*,#485,.F.);
#680=ORIENTED_EDGE('',*,*,#486,.T.);
#681=ORIENTED_EDGE('',*,*,#487,.T.);
#682=ORIENTED_EDGE('',*,*,#486,.F.);
#683=ORIENTED_EDGE('',*,*,#488,.F.);
#684=ORIENTED_EDGE('',*,*,#489,.T.);
#685=ORIENTED_EDGE('',*,*,#490,.T.);
#686=ORIENTED_EDGE('',*,*,#489,.F.);
#687=ORIENTED_EDGE('',*,*,#488,.T.);
#688=ORIENTED_EDGE('',*,*,#487,.F.);
#689=ORIENTED_EDGE('',*,*,#451,.T.);
#690=ORIENTED_EDGE('',*,*,#490,.F.);
#691=ORIENTED_EDGE('',*,*,#485,.T.);
#692=ORIENTED_EDGE('',*,*,#483,.T.);
#693=CONICAL_SURFACE('',#757,0.325067527661703,0.698131700797729);
#694=CONICAL_SURFACE('',#783,0.140813502627909,0.671940352445402);
#695=CONICAL_SURFACE('',#788,0.177694052731976,0.148341576847103);
#696=CONICAL_SURFACE('',#812,0.1975,0.785398163397448);
#697=CONICAL_SURFACE('',#813,0.217952789707944,0.200701454406933);
#698=CONICAL_SURFACE('',#815,0.174445927106677,1.39626340159546);
#699=CONICAL_SURFACE('',#816,0.19782342121996,0.148341576847103);
#700=CONICAL_SURFACE('',#819,0.187758736975968,0.148341576847103);
#701=ADVANCED_FACE('',(#59),#693,.T.);
#702=ADVANCED_FACE('',(#60,#23),#31,.T.);
#703=ADVANCED_FACE('',(#61),#17,.T.);
#704=ADVANCED_FACE('',(#62),#32,.T.);
#705=ADVANCED_FACE('',(#63),#33,.T.);
#706=ADVANCED_FACE('',(#64),#34,.T.);
#707=ADVANCED_FACE('',(#65,#24),#35,.F.);
#708=ADVANCED_FACE('',(#66),#36,.T.);
#709=ADVANCED_FACE('',(#67),#37,.T.);
#710=ADVANCED_FACE('',(#68),#38,.T.);
#711=ADVANCED_FACE('',(#69),#39,.T.);
#712=ADVANCED_FACE('',(#70),#40,.T.);
#713=ADVANCED_FACE('',(#71),#41,.T.);
#714=ADVANCED_FACE('',(#72),#42,.T.);
#715=ADVANCED_FACE('',(#73),#43,.T.);
#716=ADVANCED_FACE('',(#74),#44,.T.);
#717=ADVANCED_FACE('',(#75),#45,.T.);
#718=ADVANCED_FACE('',(#76),#694,.T.);
#719=ADVANCED_FACE('',(#77,#25),#46,.F.);
#720=ADVANCED_FACE('',(#78),#695,.T.);
#721=ADVANCED_FACE('',(#79,#26),#47,.F.);
#722=ADVANCED_FACE('',(#80),#18,.F.);
#723=ADVANCED_FACE('',(#81),#19,.F.);
#724=ADVANCED_FACE('',(#82),#20,.F.);
#725=ADVANCED_FACE('',(#83),#21,.F.);
#726=ADVANCED_FACE('',(#84,#27),#22,.F.);
#727=ADVANCED_FACE('',(#85),#48,.T.);
#728=ADVANCED_FACE('',(#86),#49,.F.);
#729=ADVANCED_FACE('',(#87),#50,.F.);
#730=ADVANCED_FACE('',(#88),#51,.T.);
#731=ADVANCED_FACE('',(#89),#52,.T.);
#732=ADVANCED_FACE('',(#90),#53,.F.);
#733=ADVANCED_FACE('',(#91),#54,.T.);
#734=ADVANCED_FACE('',(#92),#55,.T.);
#735=ADVANCED_FACE('',(#93),#696,.F.);
#736=ADVANCED_FACE('',(#94),#697,.T.);
#737=ADVANCED_FACE('',(#95),#698,.F.);
#738=ADVANCED_FACE('',(#96),#699,.T.);
#739=ADVANCED_FACE('',(#97),#700,.T.);
#740=ADVANCED_FACE('',(#98,#28),#56,.T.);
#741=ADVANCED_FACE('',(#99,#29),#57,.T.);
#742=ADVANCED_FACE('',(#100,#30),#58,.T.);
#743=CLOSED_SHELL('',(#701,#702,#703,#704,#705,#706,#707,#708,#709,#710,
#711,#712,#713,#714,#715,#716,#717,#718,#719,#720,#721,#722,#723,#724,#725,
#726,#727,#728,#729,#730,#731,#732,#733,#734,#735,#736,#737,#738,#739,#740,
#741,#742));
#744=DERIVED_UNIT_ELEMENT(#746,1.);
#745=DERIVED_UNIT_ELEMENT(#1288,-3.);
#746=(
MASS_UNIT()
NAMED_UNIT(*)
SI_UNIT(.KILO.,.GRAM.)
);
#747=DERIVED_UNIT((#744,#745));
#748=MEASURE_REPRESENTATION_ITEM('density measure',
POSITIVE_RATIO_MEASURE(7850.),#747);
#749=PROPERTY_DEFINITION_REPRESENTATION(#754,#751);
#750=PROPERTY_DEFINITION_REPRESENTATION(#755,#752);
#751=REPRESENTATION('material name',(#753),#1283);
#752=REPRESENTATION('density',(#748),#1283);
#753=DESCRIPTIVE_REPRESENTATION_ITEM('Steel','Steel');
#754=PROPERTY_DEFINITION('material property','material name',#1296);
#755=PROPERTY_DEFINITION('material property','density of part',#1296);
#756=AXIS2_PLACEMENT_3D('',#1036,#825,#826);
#757=AXIS2_PLACEMENT_3D('',#1037,#827,#828);
#758=AXIS2_PLACEMENT_3D('',#1040,#829,#830);
#759=AXIS2_PLACEMENT_3D('',#1041,#831,#832);
#760=AXIS2_PLACEMENT_3D('',#1044,#834,#835);
#761=AXIS2_PLACEMENT_3D('',#1045,#836,#837);
#762=AXIS2_PLACEMENT_3D('',#1048,#838,#839);
#763=AXIS2_PLACEMENT_3D('',#1052,#841,#842);
#764=AXIS2_PLACEMENT_3D('',#1054,#844,#845);
#765=AXIS2_PLACEMENT_3D('',#1058,#847,#848);
#766=AXIS2_PLACEMENT_3D('',#1060,#849,#850);
#767=AXIS2_PLACEMENT_3D('',#1061,#851,#852);
#768=AXIS2_PLACEMENT_3D('',#1062,#853,#854);
#769=AXIS2_PLACEMENT_3D('',#1075,#861,#862);
#770=AXIS2_PLACEMENT_3D('',#1085,#868,#869);
#771=AXIS2_PLACEMENT_3D('',#1091,#873,#874);
#772=AXIS2_PLACEMENT_3D('',#1096,#877,#878);
#773=AXIS2_PLACEMENT_3D('',#1097,#879,#880);
#774=AXIS2_PLACEMENT_3D('',#1103,#884,#885);
#775=AXIS2_PLACEMENT_3D('',#1111,#890,#891);
#776=AXIS2_PLACEMENT_3D('',#1113,#893,#894);
#777=AXIS2_PLACEMENT_3D('',#1119,#898,#899);
#778=AXIS2_PLACEMENT_3D('',#1125,#903,#904);
#779=AXIS2_PLACEMENT_3D('',#1129,#907,#908);
#780=AXIS2_PLACEMENT_3D('',#1141,#915,#916);
#781=AXIS2_PLACEMENT_3D('',#1145,#919,#920);
#782=AXIS2_PLACEMENT_3D('',#1151,#924,#925);
#783=AXIS2_PLACEMENT_3D('',#1153,#927,#928);
#784=AXIS2_PLACEMENT_3D('',#1155,#929,#930);
#785=AXIS2_PLACEMENT_3D('',#1158,#932,#933);
#786=AXIS2_PLACEMENT_3D('',#1159,#934,#935);
#787=AXIS2_PLACEMENT_3D('',#1161,#936,#937);
#788=AXIS2_PLACEMENT_3D('',#1162,#938,#939);
#789=AXIS2_PLACEMENT_3D('',#1164,#940,#941);
#790=AXIS2_PLACEMENT_3D('',#1166,#943,#944);
#791=AXIS2_PLACEMENT_3D('',#1168,#945,#946);
#792=AXIS2_PLACEMENT_3D('',#1170,#947,#948);
#793=AXIS2_PLACEMENT_3D('',#1171,#949,#950);
#794=AXIS2_PLACEMENT_3D('',#1211,#952,#953);
#795=AXIS2_PLACEMENT_3D('',#1215,#955,#956);
#796=AXIS2_PLACEMENT_3D('',#1216,#957,#958);
#797=AXIS2_PLACEMENT_3D('',#1217,#959,#960);
#798=AXIS2_PLACEMENT_3D('',#1221,#962,#963);
#799=AXIS2_PLACEMENT_3D('',#1223,#965,#966);
#800=AXIS2_PLACEMENT_3D('',#1227,#968,#969);
#801=AXIS2_PLACEMENT_3D('',#1229,#971,#972);
#802=AXIS2_PLACEMENT_3D('',#1233,#974,#975);
#803=AXIS2_PLACEMENT_3D('',#1234,#976,#977);
#804=AXIS2_PLACEMENT_3D('',#1235,#978,#979);
#805=AXIS2_PLACEMENT_3D('',#1240,#983,#984);
#806=AXIS2_PLACEMENT_3D('',#1244,#987,#988);
#807=AXIS2_PLACEMENT_3D('',#1248,#991,#992);
#808=AXIS2_PLACEMENT_3D('',#1251,#995,#996);
#809=AXIS2_PLACEMENT_3D('',#1252,#997,#998);
#810=AXIS2_PLACEMENT_3D('',#1253,#999,#1000);
#811=AXIS2_PLACEMENT_3D('',#1255,#1002,#1003);
#812=AXIS2_PLACEMENT_3D('',#1257,#1005,#1006);
#813=AXIS2_PLACEMENT_3D('',#1259,#1008,#1009);
#814=AXIS2_PLACEMENT_3D('',#1262,#1011,#1012);
#815=AXIS2_PLACEMENT_3D('',#1263,#1013,#1014);
#816=AXIS2_PLACEMENT_3D('',#1266,#1016,#1017);
#817=AXIS2_PLACEMENT_3D('',#1268,#1018,#1019);
#818=AXIS2_PLACEMENT_3D('',#1271,#1021,#1022);
#819=AXIS2_PLACEMENT_3D('',#1272,#1023,#1024);
#820=AXIS2_PLACEMENT_3D('',#1274,#1025,#1026);
#821=AXIS2_PLACEMENT_3D('',#1277,#1028,#1029);
#822=AXIS2_PLACEMENT_3D('',#1278,#1030,#1031);
#823=AXIS2_PLACEMENT_3D('',#1279,#1032,#1033);
#824=AXIS2_PLACEMENT_3D('',#1280,#1034,#1035);
#825=DIRECTION('axis',(0.,0.,1.));
#826=DIRECTION('refdir',(1.,0.,0.));
#827=DIRECTION('center_axis',(0.,-1.,0.));
#828=DIRECTION('ref_axis',(0.,2.0837128353235E-15,-1.));
#829=DIRECTION('center_axis',(0.,1.,0.));
#830=DIRECTION('ref_axis',(0.,3.49148133884313E-15,-1.));
#831=DIRECTION('center_axis',(0.,1.,0.));
#832=DIRECTION('ref_axis',(0.,3.49148133884313E-15,-1.));
#833=DIRECTION('',(7.87187788734199E-17,0.766044443118978,-0.64278760968654));
#834=DIRECTION('center_axis',(0.,-1.,0.));
#835=DIRECTION('ref_axis',(0.,0.,-1.));
#836=DIRECTION('center_axis',(0.,1.,0.));
#837=DIRECTION('ref_axis',(1.,0.,0.));
#838=DIRECTION('center_axis',(0.,-1.,0.));
#839=DIRECTION('ref_axis',(0.,0.,1.));
#840=DIRECTION('',(0.,0.,-1.));
#841=DIRECTION('center_axis',(0.,1.,0.));
#842=DIRECTION('ref_axis',(0.,0.,1.));
#843=DIRECTION('',(0.,0.,-1.));
#844=DIRECTION('center_axis',(0.,1.,3.49148133884313E-15));
#845=DIRECTION('ref_axis',(0.,-3.49148133884313E-15,1.));
#846=DIRECTION('',(0.,-1.,-3.49148133884313E-15));
#847=DIRECTION('center_axis',(0.,1.,3.49148133884313E-15));
#848=DIRECTION('ref_axis',(0.,-3.49148133884313E-15,1.));
#849=DIRECTION('center_axis',(0.,1.,3.49148133884313E-15));
#850=DIRECTION('ref_axis',(0.,-3.49148133884313E-15,1.));
#851=DIRECTION('center_axis',(0.,1.,3.49148133884313E-15));
#852=DIRECTION('ref_axis',(0.,-3.49148133884313E-15,1.));
#853=DIRECTION('center_axis',(0.,-0.707106781186548,0.707106781186548));
#854=DIRECTION('ref_axis',(1.,0.,0.));
#855=DIRECTION('',(0.577350269189626,-0.577350269189626,-0.577350269189626));
#856=DIRECTION('',(1.,0.,0.));
#857=DIRECTION('',(0.577350269189626,0.577350269189626,0.577350269189626));
#858=DIRECTION('',(-0.577350269189626,0.577350269189626,0.577350269189626));
#859=DIRECTION('',(-1.,0.,0.));
#860=DIRECTION('',(-0.577350269189626,-0.577350269189626,-0.577350269189626));
#861=DIRECTION('center_axis',(-0.707106781186547,-0.707106781186548,0.));
#862=DIRECTION('ref_axis',(0.,0.,1.));
#863=DIRECTION('',(0.577350269189626,-0.577350269189626,0.577350269189626));
#864=DIRECTION('',(0.,0.,-1.));
#865=DIRECTION('',(0.577350269189625,-0.577350269189625,-0.577350269189627));
#866=DIRECTION('',(-0.577350269189626,0.577350269189626,-0.577350269189626));
#867=DIRECTION('',(0.,0.,1.));
#868=DIRECTION('center_axis',(-0.707106781186547,-1.54536659319269E-16,
0.707106781186548));
#869=DIRECTION('ref_axis',(0.707106781186548,0.,0.707106781186547));
#870=DIRECTION('',(-2.18547839493141E-16,1.,0.));
#871=DIRECTION('',(-0.707106781186548,0.,-0.707106781186547));
#872=DIRECTION('',(2.18547839493141E-16,-1.,0.));
#873=DIRECTION('center_axis',(0.,0.,-1.));
#874=DIRECTION('ref_axis',(-1.,0.,0.));
#875=DIRECTION('',(1.09273919746571E-16,-1.,0.));
#876=DIRECTION('',(1.,2.18547839493141E-16,0.));
#877=DIRECTION('center_axis',(0.,0.,1.));
#878=DIRECTION('ref_axis',(-1.,0.,0.));
#879=DIRECTION('center_axis',(0.707106781186548,7.72683296596346E-17,0.707106781186548));
#880=DIRECTION('ref_axis',(0.707106781186548,0.,-0.707106781186548));
#881=DIRECTION('',(0.577350269189626,0.577350269189626,-0.577350269189626));
#882=DIRECTION('',(-1.09273919746571E-16,1.,0.));
#883=DIRECTION('',(-0.707106781186548,0.,0.707106781186548));
#884=DIRECTION('center_axis',(0.707106781186548,-0.707106781186547,0.));
#885=DIRECTION('ref_axis',(0.,0.,-1.));
#886=DIRECTION('',(0.,0.,-1.));
#887=DIRECTION('',(-0.577350269189626,-0.577350269189626,0.577350269189626));
#888=DIRECTION('',(0.577350269189625,0.577350269189625,0.577350269189627));
#889=DIRECTION('',(0.,0.,1.));
#890=DIRECTION('center_axis',(0.,-1.,0.));
#891=DIRECTION('ref_axis',(0.,0.,-1.));
#892=DIRECTION('',(-1.,0.,-2.91397119324188E-16));
#893=DIRECTION('center_axis',(2.06048879092359E-16,-0.707106781186548,-0.707106781186547));
#894=DIRECTION('ref_axis',(-1.,0.,-2.91397119324188E-16));
#895=DIRECTION('',(0.577350269189627,0.577350269189625,-0.577350269189625));
#896=DIRECTION('',(1.,0.,2.91397119324188E-16));
#897=DIRECTION('',(0.577350269189628,-0.577350269189625,0.577350269189625));
#898=DIRECTION('center_axis',(0.707106781186547,2.54985487876794E-15,-0.707106781186548));
#899=DIRECTION('ref_axis',(-0.707106781186548,0.,-0.707106781186547));
#900=DIRECTION('',(-1.09273919746571E-16,1.,3.49676543189026E-15));
#901=DIRECTION('',(0.707106781186548,-2.47258654910831E-15,0.707106781186547));
#902=DIRECTION('',(1.09273919746571E-16,-1.,-3.49676543189026E-15));
#903=DIRECTION('center_axis',(2.91397119324188E-16,3.49676543189026E-15,
-1.));
#904=DIRECTION('ref_axis',(-1.,0.,-2.91397119324188E-16));
#905=DIRECTION('',(0.,-1.,0.));
#906=DIRECTION('',(-1.,-2.18547839493141E-16,0.));
#907=DIRECTION('center_axis',(0.,1.,0.));
#908=DIRECTION('ref_axis',(0.,0.,1.));
#909=DIRECTION('',(0.,0.,-1.));
#910=DIRECTION('',(1.,0.,-3.81527851617393E-31));
#911=DIRECTION('',(0.866025403784439,0.,-0.5));
#912=DIRECTION('',(0.866025403784438,0.,0.5));
#913=DIRECTION('',(1.,0.,-7.63055703234786E-31));
#914=DIRECTION('',(0.,0.,1.));
#915=DIRECTION('center_axis',(1.,1.09273919746571E-16,0.));
#916=DIRECTION('ref_axis',(0.,0.,-1.));
#917=DIRECTION('',(-2.91397119324188E-16,-3.49676543189026E-15,1.));
#918=DIRECTION('',(0.,-1.,-3.49148133884313E-15));
#919=DIRECTION('center_axis',(-1.,-2.18547839493141E-16,0.));
#920=DIRECTION('ref_axis',(0.,0.,1.));
#921=DIRECTION('',(0.,1.,3.49148133884313E-15));
#922=DIRECTION('',(-8.26032029379906E-31,3.49148133884313E-15,-1.));
#923=DIRECTION('',(0.,-1.,0.));
#924=DIRECTION('center_axis',(-0.707106781186548,2.31804988978904E-15,-0.707106781186548));
#925=DIRECTION('ref_axis',(-0.707106781186548,0.,0.707106781186548));
#926=DIRECTION('',(0.707106781186548,2.47258654910831E-15,-0.707106781186548));
#927=DIRECTION('center_axis',(-3.14955504622921E-16,-9.94198652092298E-31,
-1.));
#928=DIRECTION('ref_axis',(3.31818166204885E-17,1.,0.));
#929=DIRECTION('center_axis',(0.,0.,1.));
#930=DIRECTION('ref_axis',(6.12323399573677E-17,1.,0.));
#931=DIRECTION('',(3.43379816384259E-16,0.622505707372663,0.7826152594273));
#932=DIRECTION('center_axis',(0.,0.,-1.));
#933=DIRECTION('ref_axis',(0.,1.,0.));
#934=DIRECTION('center_axis',(0.,0.,-1.));
#935=DIRECTION('ref_axis',(-1.,0.,0.));
#936=DIRECTION('center_axis',(0.,0.,-1.));
#937=DIRECTION('ref_axis',(1.,0.,0.));
#938=DIRECTION('center_axis',(0.,-2.50383743367439E-32,-1.));
#939=DIRECTION('ref_axis',(0.,1.,-2.50383743367439E-32));
#940=DIRECTION('center_axis',(0.,2.50383743367439E-32,1.));
#941=DIRECTION('ref_axis',(0.,1.,-2.50383743367439E-32));
#942=DIRECTION('',(1.81000502993619E-17,0.147798126871877,0.989017549739722));
#943=DIRECTION('center_axis',(0.,-1.,2.22044604925031E-16));
#944=DIRECTION('ref_axis',(0.,-2.22044604925031E-16,-1.));
#945=DIRECTION('center_axis',(0.,-1.,2.22044604925031E-16));
#946=DIRECTION('ref_axis',(0.,-2.22044604925031E-16,-1.));
#947=DIRECTION('center_axis',(0.,1.,-2.22044604925031E-16));
#948=DIRECTION('ref_axis',(0.,0.,-1.));
#949=DIRECTION('center_axis',(0.,0.,1.));
#950=DIRECTION('ref_axis',(1.,0.,0.));
#951=DIRECTION('',(0.,0.,1.));
#952=DIRECTION('center_axis',(0.,-1.,0.));
#953=DIRECTION('ref_axis',(0.,0.,-1.));
#954=DIRECTION('',(0.,-1.,0.));
#955=DIRECTION('center_axis',(0.,-1.,0.));
#956=DIRECTION('ref_axis',(0.,0.,-1.));
#957=DIRECTION('center_axis',(0.,-1.,0.));
#958=DIRECTION('ref_axis',(0.,0.,-1.));
#959=DIRECTION('center_axis',(0.,1.,0.));
#960=DIRECTION('ref_axis',(0.,0.,1.));
#961=DIRECTION('',(0.,1.,0.));
#962=DIRECTION('center_axis',(0.,1.,0.));
#963=DIRECTION('ref_axis',(0.,0.,1.));
#964=DIRECTION('',(0.,1.,0.));
#965=DIRECTION('center_axis',(0.,1.,0.));
#966=DIRECTION('ref_axis',(0.,0.,1.));
#967=DIRECTION('',(0.,1.,0.));
#968=DIRECTION('center_axis',(0.,1.,0.));
#969=DIRECTION('ref_axis',(0.,0.,1.));
#970=DIRECTION('',(0.,1.,0.));
#971=DIRECTION('center_axis',(0.,1.,-2.22044604925031E-16));
#972=DIRECTION('ref_axis',(1.,0.,0.));
#973=DIRECTION('',(0.,1.,-2.22044604925031E-16));
#974=DIRECTION('center_axis',(0.,-1.,2.22044604925031E-16));
#975=DIRECTION('ref_axis',(1.,0.,0.));
#976=DIRECTION('center_axis',(0.,-1.,2.22044604925031E-16));
#977=DIRECTION('ref_axis',(1.,0.,0.));
#978=DIRECTION('center_axis',(7.63055703234786E-31,-3.49148133884313E-15,
1.));
#979=DIRECTION('ref_axis',(0.,1.,3.49148133884313E-15));
#980=DIRECTION('',(0.,-1.,-3.49148133884313E-15));
#981=DIRECTION('',(1.,2.66419474834208E-45,-7.63055703234786E-31));
#982=DIRECTION('',(-1.,-2.18547839493141E-16,0.));
#983=DIRECTION('center_axis',(0.5,3.02371153627746E-15,-0.866025403784438));
#984=DIRECTION('ref_axis',(-0.866025403784438,1.97215226305253E-31,-0.5));
#985=DIRECTION('',(0.,-1.,-3.49148133884313E-15));
#986=DIRECTION('',(-0.866025403784438,1.74574066942157E-15,-0.5));
#987=DIRECTION('center_axis',(-0.5,3.02371153627746E-15,-0.866025403784439));
#988=DIRECTION('ref_axis',(-0.866025403784439,0.,0.5));
#989=DIRECTION('',(0.,-1.,-3.49148133884313E-15));
#990=DIRECTION('',(-0.866025403784439,-1.74574066942157E-15,0.5));
#991=DIRECTION('center_axis',(3.81527851617393E-31,-3.49148133884313E-15,
1.));
#992=DIRECTION('ref_axis',(0.,-1.,-3.49148133884313E-15));
#993=DIRECTION('',(1.,1.09273919746571E-16,0.));
#994=DIRECTION('',(1.,1.33209737417104E-45,-3.81527851617393E-31));
#995=DIRECTION('center_axis',(-3.22658697084771E-33,1.,3.49676543189026E-15));
#996=DIRECTION('ref_axis',(1.,-2.13197763483799E-30,6.10622663543836E-16));
#997=DIRECTION('center_axis',(0.,1.,3.49148133884313E-15));
#998=DIRECTION('ref_axis',(0.,-3.49148133884313E-15,1.));
#999=DIRECTION('center_axis',(-1.,0.,0.));
#1000=DIRECTION('ref_axis',(0.,0.,1.));
#1001=DIRECTION('',(0.,-0.707106781186547,-0.707106781186548));
#1002=DIRECTION('center_axis',(-1.,0.,0.));
#1003=DIRECTION('ref_axis',(0.,0.,1.));
#1004=DIRECTION('',(0.,0.707106781186547,-0.707106781186548));
#1005=DIRECTION('center_axis',(0.,1.,0.));
#1006=DIRECTION('ref_axis',(0.,0.,1.));
#1007=DIRECTION('',(8.65956056235493E-17,-0.707106781186547,0.707106781186547));
#1008=DIRECTION('center_axis',(0.,0.,-1.));
#1009=DIRECTION('ref_axis',(-1.,0.,0.));
#1010=DIRECTION('',(-0.199356753882342,2.44141610530417E-17,0.979926979259932));
#1011=DIRECTION('center_axis',(0.,2.50383743367439E-32,1.));
#1012=DIRECTION('ref_axis',(-1.,0.,0.));
#1013=DIRECTION('center_axis',(0.,1.,0.));
#1014=DIRECTION('ref_axis',(0.,0.,1.));
#1015=DIRECTION('',(-1.2060416625019E-16,0.173648177666934,-0.984807753012207));
#1016=DIRECTION('center_axis',(0.,-2.50383743367439E-32,-1.));
#1017=DIRECTION('ref_axis',(0.,1.,-2.50383743367439E-32));
#1018=DIRECTION('center_axis',(0.,2.50383743367439E-32,1.));
#1019=DIRECTION('ref_axis',(0.,1.,-2.50383743367439E-32));
#1020=DIRECTION('',(1.81000502993619E-17,0.147798126871877,0.989017549739722));
#1021=DIRECTION('center_axis',(0.,2.50383743367439E-32,1.));
#1022=DIRECTION('ref_axis',(0.,1.,-2.50383743367439E-32));
#1023=DIRECTION('center_axis',(0.,-2.50383743367439E-32,-1.));
#1024=DIRECTION('ref_axis',(0.,1.,-2.50383743367439E-32));
#1025=DIRECTION('center_axis',(0.,2.50383743367439E-32,1.));
#1026=DIRECTION('ref_axis',(0.,1.,-2.50383743367439E-32));
#1027=DIRECTION('',(1.81000502993619E-17,0.147798126871877,0.989017549739723));
#1028=DIRECTION('center_axis',(0.,2.50383743367439E-32,1.));
#1029=DIRECTION('ref_axis',(0.,1.,-2.50383743367439E-32));
#1030=DIRECTION('center_axis',(0.,-2.50383743367439E-32,-1.));
#1031=DIRECTION('ref_axis',(0.,1.,-2.50383743367439E-32));
#1032=DIRECTION('center_axis',(0.,-2.50383743367439E-32,-1.));
#1033=DIRECTION('ref_axis',(0.,1.,-2.50383743367439E-32));
#1034=DIRECTION('center_axis',(0.,-2.50383743367439E-32,-1.));
#1035=DIRECTION('ref_axis',(0.,1.,-2.50383743367439E-32));
#1036=CARTESIAN_POINT('',(0.,0.,0.));
#1037=CARTESIAN_POINT('Origin',(1.23122097289805E-31,0.875032546295149,
2.79329870585667E-15));
#1038=CARTESIAN_POINT('',(4.75162958069174E-17,0.800032546295147,0.388000000000003));
#1039=CARTESIAN_POINT('',(-4.75162958069172E-17,0.80003254629515,-0.387999999999997));
#1040=CARTESIAN_POINT('Origin',(1.23122097289805E-31,0.800032546295149,
2.79329870585667E-15));
#1041=CARTESIAN_POINT('Origin',(1.23122097289805E-31,0.800032546295149,
2.79329870585667E-15));
#1042=CARTESIAN_POINT('',(-3.21022856446123E-17,0.950032546295149,0.26213505532341));
#1043=CARTESIAN_POINT('',(-3.98092907257648E-17,0.875032546295148,0.325067527661706));
#1044=CARTESIAN_POINT('Origin',(1.23122097289805E-31,0.950032546295149,
2.79329870585667E-15));
#1045=CARTESIAN_POINT('Origin',(-0.35,0.950032546295149,0.0151389308281409));
#1046=CARTESIAN_POINT('',(0.,0.950032546295149,0.248007680889961));
#1047=CARTESIAN_POINT('',(0.,0.950032546295149,-0.248007680889961));
#1048=CARTESIAN_POINT('Origin',(0.,0.950032546295149,0.));
#1049=CARTESIAN_POINT('',(0.,0.950032546295149,-0.2479751760834));
#1050=CARTESIAN_POINT('',(0.,0.950032546295149,-0.193999999999997));
#1051=CARTESIAN_POINT('',(0.,0.950032546295149,0.2479751760834));
#1052=CARTESIAN_POINT('Origin',(0.,0.950032546295149,0.));
#1053=CARTESIAN_POINT('',(0.,0.950032546295149,0.123987588041701));
#1054=CARTESIAN_POINT('Origin',(1.23122097289805E-31,0.391324865405187,
1.36630346498751E-15));
#1055=CARTESIAN_POINT('',(-4.75162958069172E-17,0.291324865405189,-0.387999999999999));
#1056=CARTESIAN_POINT('',(-4.75162958069172E-17,0.391324865405189,-0.387999999999999));
#1057=CARTESIAN_POINT('',(-0.360153670905444,0.291324865405187,0.144337567297407));
#1058=CARTESIAN_POINT('Origin',(1.23122097289805E-31,0.291324865405187,
1.0171553311032E-15));
#1059=CARTESIAN_POINT('',(0.360153670905444,0.291324865405187,0.144337567297408));
#1060=CARTESIAN_POINT('Origin',(1.23122097289805E-31,0.291324865405187,
1.0171553311032E-15));
#1061=CARTESIAN_POINT('Origin',(1.23122097289805E-31,0.291324865405187,
1.0171553311032E-15));
#1062=CARTESIAN_POINT('Origin',(0.16139702342662,-0.357173121792589,0.321324865405187));
#1063=CARTESIAN_POINT('',(-0.3,-0.307173121792589,0.371324865405187));
#1064=CARTESIAN_POINT('',(-0.15,-0.457173121792589,0.221324865405187));
#1065=CARTESIAN_POINT('',(-0.179656757311798,-0.427516364480791,0.250981622716985));
#1066=CARTESIAN_POINT('',(0.15,-0.457173121792589,0.221324865405187));
#1067=CARTESIAN_POINT('',(0.16139702342662,-0.457173121792589,0.221324865405187));
#1068=CARTESIAN_POINT('',(0.3,-0.307173121792589,0.371324865405187));
#1069=CARTESIAN_POINT('',(0.233455765120671,-0.373717356671918,0.304780630525858));
#1070=CARTESIAN_POINT('',(0.25,-0.257173121792589,0.421324865405187));
#1071=CARTESIAN_POINT('',(0.222952925114654,-0.230126046907242,0.448371940290534));
#1072=CARTESIAN_POINT('',(-0.25,-0.257173121792589,0.421324865405187));
#1073=CARTESIAN_POINT('',(0.16139702342662,-0.257173121792589,0.421324865405187));
#1074=CARTESIAN_POINT('',(-0.193210178522015,-0.200383300314604,0.478114686883173));
#1075=CARTESIAN_POINT('Origin',(-0.3,-0.307173121792589,0.210662432702594));
#1076=CARTESIAN_POINT('',(-0.45,-0.157173121792589,0.221324865405187));
#1077=CARTESIAN_POINT('',(-0.406667389690648,-0.200505732101941,0.26465747571454));
#1078=CARTESIAN_POINT('',(-0.45,-0.157173121792589,-0.238675134594814));
#1079=CARTESIAN_POINT('',(-0.45,-0.157173121792589,0.210662432702594));
#1080=CARTESIAN_POINT('',(-0.3,-0.307173121792589,-0.388675134594814));
#1081=CARTESIAN_POINT('',(-0.545834056357315,-0.061339065435274,-0.142841078237498));
#1082=CARTESIAN_POINT('',(-0.15,-0.457173121792589,-0.238675134594814));
#1083=CARTESIAN_POINT('',(-0.0824879736630941,-0.524685148129495,-0.171163108257908));
#1084=CARTESIAN_POINT('',(-0.15,-0.457173121792589,0.210662432702594));
#1085=CARTESIAN_POINT('Origin',(-0.35,0.0721687836487031,0.321324865405187));
#1086=CARTESIAN_POINT('',(-0.25,0.290675134594813,0.421324865405187));
#1087=CARTESIAN_POINT('',(-0.25,0.0721687836487031,0.421324865405187));
#1088=CARTESIAN_POINT('',(-0.45,0.290675134594813,0.221324865405187));
#1089=CARTESIAN_POINT('',(-0.415,0.290675134594813,0.256324865405187));
#1090=CARTESIAN_POINT('',(-0.45,0.0721687836487031,0.221324865405187));
#1091=CARTESIAN_POINT('Origin',(7.28711777400248E-17,0.288675134594813,
0.421324865405187));
#1092=CARTESIAN_POINT('',(0.25,0.290675134594813,0.421324865405187));
#1093=CARTESIAN_POINT('',(0.25,0.21650635094611,0.421324865405187));
#1094=CARTESIAN_POINT('',(-0.25,0.290675134594813,0.421324865405187));
#1095=CARTESIAN_POINT('',(0.217952789707944,2.6691518628107E-17,0.421324865405187));
#1096=CARTESIAN_POINT('Origin',(0.,0.,0.421324865405187));
#1097=CARTESIAN_POINT('Origin',(0.35,0.21650635094611,0.321324865405187));
#1098=CARTESIAN_POINT('',(0.45,-0.157173121792589,0.221324865405187));
#1099=CARTESIAN_POINT('',(0.430723650906882,-0.176449470885707,0.240601214498305));
#1100=CARTESIAN_POINT('',(0.45,0.290675134594813,0.221324865405187));
#1101=CARTESIAN_POINT('',(0.45,0.21650635094611,0.221324865405187));
#1102=CARTESIAN_POINT('',(0.270662432702594,0.290675134594813,0.400662432702594));
#1103=CARTESIAN_POINT('Origin',(0.3,-0.307173121792589,0.210662432702594));
#1104=CARTESIAN_POINT('',(0.15,-0.457173121792589,-0.238675134594814));
#1105=CARTESIAN_POINT('',(0.15,-0.457173121792589,0.210662432702594));
#1106=CARTESIAN_POINT('',(0.3,-0.307173121792589,-0.388675134594814));
#1107=CARTESIAN_POINT('',(0.184399503904437,-0.422773617888152,-0.27307463849925));
#1108=CARTESIAN_POINT('',(0.45,-0.157173121792589,-0.238675134594813));
#1109=CARTESIAN_POINT('',(0.569890317573549,-0.0372828042190394,-0.118784817021264));
#1110=CARTESIAN_POINT('',(0.45,-0.157173121792589,0.210662432702594));
#1111=CARTESIAN_POINT('Origin',(0.32279404685324,-0.457173121792589,0.421324865405187));
#1112=CARTESIAN_POINT('',(0.305734590724027,-0.457173121792589,-0.238675134594814));
#1113=CARTESIAN_POINT('Origin',(0.305734590724027,-0.357173121792589,-0.338675134594814));
#1114=CARTESIAN_POINT('',(-0.25,-0.257173121792589,-0.438675134594814));
#1115=CARTESIAN_POINT('',(-0.103099773071582,-0.110272894864172,-0.585575361523231));
#1116=CARTESIAN_POINT('',(0.25,-0.257173121792589,-0.438675134594814));
#1117=CARTESIAN_POINT('',(0.305734590724027,-0.257173121792589,-0.438675134594814));
#1118=CARTESIAN_POINT('',(0.180955042096691,-0.18812816388928,-0.507720092498123));
#1119=CARTESIAN_POINT('Origin',(0.35,0.612831216351298,-0.338675134594811));
#1120=CARTESIAN_POINT('',(0.25,0.291324865405189,-0.438675134594812));
#1121=CARTESIAN_POINT('',(0.25,0.612831216351298,-0.438675134594811));
#1122=CARTESIAN_POINT('',(0.45,0.291324865405188,-0.238675134594812));
#1123=CARTESIAN_POINT('',(0.2125,0.291324865405189,-0.476175134594812));
#1124=CARTESIAN_POINT('',(0.45,0.612831216351298,-0.238675134594811));
#1125=CARTESIAN_POINT('Origin',(0.288675134594813,1.08132486540519,-0.438675134594809));
#1126=CARTESIAN_POINT('',(-0.25,0.291324865405189,-0.438675134594812));
#1127=CARTESIAN_POINT('',(-0.25,-0.357173121792589,-0.438675134594814));
#1128=CARTESIAN_POINT('',(-0.25,0.291324865405189,-0.438675134594812));
#1129=CARTESIAN_POINT('Origin',(-0.288675134594813,0.290675134594813,0.));
#1130=CARTESIAN_POINT('',(0.45,0.290675134594813,0.144337567297408));
#1131=CARTESIAN_POINT('',(0.45,0.290675134594813,0.));
#1132=CARTESIAN_POINT('',(0.25,0.290675134594813,0.144337567297408));
#1133=CARTESIAN_POINT('',(-0.0193375672974064,0.290675134594813,0.144337567297408));
#1134=CARTESIAN_POINT('',(0.,0.290675134594813,0.288675134594814));
#1135=CARTESIAN_POINT('',(-0.0457531754730554,0.290675134594813,0.315090742770463));
#1136=CARTESIAN_POINT('',(-0.25,0.290675134594813,0.144337567297407));
#1137=CARTESIAN_POINT('',(-0.295753175473055,0.290675134594813,0.117921959121759));
#1138=CARTESIAN_POINT('',(-0.45,0.290675134594813,0.144337567297407));
#1139=CARTESIAN_POINT('',(-0.269337567297407,0.290675134594813,0.144337567297407));
#1140=CARTESIAN_POINT('',(-0.45,0.290675134594813,0.));
#1141=CARTESIAN_POINT('Origin',(0.45,0.144337567297407,0.));
#1142=CARTESIAN_POINT('',(0.45,0.291324865405187,0.144337567297408));
#1143=CARTESIAN_POINT('',(0.45,0.291324865405188,-0.288675134594812));
#1144=CARTESIAN_POINT('',(0.45,1.08132486540519,0.14433756729741));
#1145=CARTESIAN_POINT('Origin',(-0.45,-0.144337567297407,0.));
#1146=CARTESIAN_POINT('',(-0.45,0.291324865405187,0.144337567297407));
#1147=CARTESIAN_POINT('',(-0.45,1.08132486540519,0.14433756729741));
#1148=CARTESIAN_POINT('',(-0.45,0.291324865405188,-0.238675134594812));
#1149=CARTESIAN_POINT('',(-0.45,0.291324865405187,1.26913129245965E-15));
#1150=CARTESIAN_POINT('',(-0.45,-0.357173121792589,-0.238675134594814));
#1151=CARTESIAN_POINT('Origin',(-0.35,0.468493649053892,-0.338675134594811));
#1152=CARTESIAN_POINT('',(-0.3375,0.291324865405189,-0.351175134594812));
#1153=CARTESIAN_POINT('Origin',(-4.67244782188797E-18,1.47491987227028E-32,
1.19648960215909));
#1154=CARTESIAN_POINT('',(0.,-0.152613727489138,1.181654338913));
#1155=CARTESIAN_POINT('Origin',(-9.34489564377593E-18,0.,1.181654338913));
#1156=CARTESIAN_POINT('',(-1.57995697664475E-17,-0.129013277766681,1.21132486540519));
#1157=CARTESIAN_POINT('',(-2.65895761707756E-17,-0.140813502627909,1.19648960215909));
#1158=CARTESIAN_POINT('Origin',(0.,2.94983974454057E-32,1.21132486540519));
#1159=CARTESIAN_POINT('Origin',(0.,0.,1.21132486540519));
#1160=CARTESIAN_POINT('',(-0.1275,1.56142466891288E-17,1.21132486540519));
#1161=CARTESIAN_POINT('Origin',(0.,0.,1.21132486540519));
#1162=CARTESIAN_POINT('Origin',(0.,2.53845264919141E-32,1.01382486540519));
#1163=CARTESIAN_POINT('',(2.17612452905735E-17,-0.177694052731976,1.01382486540519));
#1164=CARTESIAN_POINT('Origin',(0.,2.53845264919141E-32,1.01382486540519));
#1165=CARTESIAN_POINT('',(-2.17612452905735E-17,-0.177694052731976,1.01382486540519));
#1166=CARTESIAN_POINT('Origin',(0.,-0.13,2.88657986402541E-17));
#1167=CARTESIAN_POINT('',(-0.21,-0.13,5.45833814223485E-17));
#1168=CARTESIAN_POINT('Origin',(0.,-0.13,2.88657986402541E-17));
#1169=CARTESIAN_POINT('',(2.05128338857182E-17,-0.13,0.1675));
#1170=CARTESIAN_POINT('Origin',(0.,-0.13,0.));
#1171=CARTESIAN_POINT('Origin',(0.,0.,0.65));
#1172=CARTESIAN_POINT('',(0.1275,3.70513544200373E-17,0.166864465959652));
#1173=CARTESIAN_POINT('',(-0.1275,3.70513544200373E-17,0.166864465959652));
#1174=CARTESIAN_POINT('Ctrl Pts',(0.1275,-1.36592399683213E-17,0.166864465959652));
#1175=CARTESIAN_POINT('Ctrl Pts',(0.1275,-0.0165878908047714,0.166864465959652));
#1176=CARTESIAN_POINT('Ctrl Pts',(0.124093194780713,-0.0338144476779707,
0.169598041976367));
#1177=CARTESIAN_POINT('Ctrl Pts',(0.110978472050723,-0.0650102023501184,
0.178455562305124));
#1178=CARTESIAN_POINT('Ctrl Pts',(0.101274269144751,-0.079037960057819,
0.184377512647544));
#1179=CARTESIAN_POINT('Ctrl Pts',(0.0791140043117217,-0.101198224890848,
0.194911398195858));
#1180=CARTESIAN_POINT('Ctrl Pts',(0.0650657072628351,-0.110955125834695,
0.200314366048039));
#1181=CARTESIAN_POINT('Ctrl Pts',(0.0337587993028521,-0.124116601308424,
0.207893567365863));
#1182=CARTESIAN_POINT('Ctrl Pts',(0.0164744354849036,-0.1275,0.21));
#1183=CARTESIAN_POINT('Ctrl Pts',(-0.0164744354849037,-0.1275,0.21));
#1184=CARTESIAN_POINT('Ctrl Pts',(-0.0337587993028522,-0.124116601308424,
0.207893567365863));
#1185=CARTESIAN_POINT('Ctrl Pts',(-0.0650657072628351,-0.110955125834695,
0.200314366048039));
#1186=CARTESIAN_POINT('Ctrl Pts',(-0.0791140043117217,-0.101198224890848,
0.194911398195858));
#1187=CARTESIAN_POINT('Ctrl Pts',(-0.101274269144751,-0.079037960057819,
0.184377512647544));
#1188=CARTESIAN_POINT('Ctrl Pts',(-0.110978472050723,-0.0650102023501183,
0.178455562305124));
#1189=CARTESIAN_POINT('Ctrl Pts',(-0.124093194780713,-0.0338144476779707,
0.169598041976367));
#1190=CARTESIAN_POINT('Ctrl Pts',(-0.1275,-0.0165878908047714,0.166864465959652));
#1191=CARTESIAN_POINT('Ctrl Pts',(-0.1275,0.,0.166864465959652));
#1192=CARTESIAN_POINT('',(-0.1275,-1.56142466891288E-17,0.65));
#1193=CARTESIAN_POINT('Ctrl Pts',(-0.1275,-5.46369598732853E-18,0.166864465959652));
#1194=CARTESIAN_POINT('Ctrl Pts',(-0.1275,0.0165878908047714,0.166864465959652));
#1195=CARTESIAN_POINT('Ctrl Pts',(-0.124093194780713,0.0338144476779707,
0.169598041976367));
#1196=CARTESIAN_POINT('Ctrl Pts',(-0.110978472050723,0.0650102023501183,
0.178455562305124));
#1197=CARTESIAN_POINT('Ctrl Pts',(-0.101274269144751,0.079037960057819,
0.184377512647544));
#1198=CARTESIAN_POINT('Ctrl Pts',(-0.0791140043117217,0.101198224890848,
0.194911398195858));
#1199=CARTESIAN_POINT('Ctrl Pts',(-0.0650657072628351,0.110955125834695,
0.200314366048039));
#1200=CARTESIAN_POINT('Ctrl Pts',(-0.0337587993028521,0.124116601308424,
0.207893567365863));
#1201=CARTESIAN_POINT('Ctrl Pts',(-0.0164744354849036,0.1275,0.21));
#1202=CARTESIAN_POINT('Ctrl Pts',(0.0164744354849036,0.1275,0.21));
#1203=CARTESIAN_POINT('Ctrl Pts',(0.0337587993028521,0.124116601308424,
0.207893567365863));
#1204=CARTESIAN_POINT('Ctrl Pts',(0.0650657072628351,0.110955125834695,
0.200314366048039));
#1205=CARTESIAN_POINT('Ctrl Pts',(0.0791140043117217,0.101198224890848,
0.194911398195858));
#1206=CARTESIAN_POINT('Ctrl Pts',(0.101274269144751,0.079037960057819,0.184377512647544));
#1207=CARTESIAN_POINT('Ctrl Pts',(0.110978472050723,0.0650102023501184,
0.178455562305124));
#1208=CARTESIAN_POINT('Ctrl Pts',(0.124093194780713,0.0338144476779707,
0.169598041976367));
#1209=CARTESIAN_POINT('Ctrl Pts',(0.1275,0.0165878908047714,0.166864465959652));
#1210=CARTESIAN_POINT('Ctrl Pts',(0.1275,-5.46369598732853E-18,0.166864465959652));
#1211=CARTESIAN_POINT('Origin',(0.,0.,0.));
#1212=CARTESIAN_POINT('',(-2.05128338857182E-17,-0.13111706447543,0.1675));
#1213=CARTESIAN_POINT('',(-2.05128338857182E-17,0.,0.1675));
#1214=CARTESIAN_POINT('',(-2.05128338857182E-17,-0.13111706447543,-0.1675));
#1215=CARTESIAN_POINT('Origin',(0.,-0.13111706447543,0.));
#1216=CARTESIAN_POINT('Origin',(0.,-0.13111706447543,0.));
#1217=CARTESIAN_POINT('Origin',(0.,0.700000041488587,0.));
#1218=CARTESIAN_POINT('',(0.,0.700000041488587,-0.247975176083399));
#1219=CARTESIAN_POINT('',(0.,0.700000041488587,-0.247975176083399));
#1220=CARTESIAN_POINT('',(0.,0.700000041488587,0.247975176083399));
#1221=CARTESIAN_POINT('Origin',(0.,0.700000041488587,0.));
#1222=CARTESIAN_POINT('',(0.,0.700000041488587,0.247975176083399));
#1223=CARTESIAN_POINT('Origin',(0.,0.700032546295149,0.));
#1224=CARTESIAN_POINT('',(0.,0.700032546295149,0.248007680889961));
#1225=CARTESIAN_POINT('',(0.,0.700032546295149,0.248007680889961));
#1226=CARTESIAN_POINT('',(0.,0.700032546295149,-0.248007680889961));
#1227=CARTESIAN_POINT('Origin',(0.,0.700032546295149,0.));
#1228=CARTESIAN_POINT('',(0.,0.700032546295149,-0.248007680889961));
#1229=CARTESIAN_POINT('Origin',(0.,0.9,-1.99840144432528E-16));
#1230=CARTESIAN_POINT('',(-0.21,0.662024865405187,-1.72716632471536E-16));
#1231=CARTESIAN_POINT('',(-0.21,0.9,-1.74122561650434E-16));
#1232=CARTESIAN_POINT('',(-2.57175827820944E-17,0.662024865405187,-0.21));
#1233=CARTESIAN_POINT('Origin',(0.,0.662024865405187,-1.46999049689442E-16));
#1234=CARTESIAN_POINT('Origin',(0.,0.662024865405187,-1.46999049689442E-16));
#1235=CARTESIAN_POINT('Origin',(-0.25,0.288675134594813,0.144337567297407));
#1236=CARTESIAN_POINT('',(-0.25,0.291324865405187,0.144337567297407));
#1237=CARTESIAN_POINT('',(-0.25,1.08132486540519,0.14433756729741));
#1238=CARTESIAN_POINT('',(-0.125,0.291324865405187,0.144337567297407));
#1239=CARTESIAN_POINT('',(-0.25,0.291324865405187,0.144337567297407));
#1240=CARTESIAN_POINT('Origin',(-0.25,1.08132486540519,0.14433756729741));
#1241=CARTESIAN_POINT('',(-1.14532586948347E-16,0.291324865405187,0.288675134594814));
#1242=CARTESIAN_POINT('',(-1.14532586948347E-16,1.08132486540519,0.288675134594817));
#1243=CARTESIAN_POINT('',(-0.1875,0.291324865405187,0.180421959121759));
#1244=CARTESIAN_POINT('Origin',(-1.14532586948347E-16,1.08132486540519,
0.288675134594817));
#1245=CARTESIAN_POINT('',(0.25,0.291324865405187,0.144337567297408));
#1246=CARTESIAN_POINT('',(0.25,1.08132486540519,0.14433756729741));
#1247=CARTESIAN_POINT('',(0.0624999999999999,0.291324865405187,0.252590742770462));
#1248=CARTESIAN_POINT('Origin',(0.25,0.291324865405187,0.144337567297408));
#1249=CARTESIAN_POINT('',(0.25,0.291324865405187,0.144337567297408));
#1250=CARTESIAN_POINT('',(0.125,0.291324865405187,0.144337567297408));
#1251=CARTESIAN_POINT('Origin',(-0.25,0.291324865405188,-0.288675134594812));
#1252=CARTESIAN_POINT('Origin',(1.23122097289805E-31,0.291324865405187,
1.0171553311032E-15));
#1253=CARTESIAN_POINT('Origin',(0.,0.700000041488587,-0.387999999999998));
#1254=CARTESIAN_POINT('',(0.,0.649524865405187,0.1975));
#1255=CARTESIAN_POINT('Origin',(0.,0.700000041488587,-0.387999999999998));
#1256=CARTESIAN_POINT('',(0.,0.649524865405187,-0.1975));
#1257=CARTESIAN_POINT('Origin',(0.,0.649524865405187,0.));
#1258=CARTESIAN_POINT('',(-2.41867742831602E-17,0.649524865405187,-0.1975));
#1259=CARTESIAN_POINT('Origin',(0.,0.,0.421324865405187));
#1260=CARTESIAN_POINT('',(0.177773307231099,2.17709511674404E-17,0.618824865405187));
#1261=CARTESIAN_POINT('',(0.217952789707944,-2.6691518628107E-17,0.421324865405187));
#1262=CARTESIAN_POINT('Origin',(0.,0.,0.618824865405187));
#1263=CARTESIAN_POINT('Origin',(0.,-0.129892310120488,0.));
#1264=CARTESIAN_POINT('',(0.,-0.160651833744098,0.));
#1265=CARTESIAN_POINT('',(-2.13634646255485E-17,-0.129892310120488,-0.174445927106677));
#1266=CARTESIAN_POINT('Origin',(0.,1.54943686289003E-32,0.618824865405187));
#1267=CARTESIAN_POINT('',(2.42263819593403E-17,-0.19782342121996,0.618824865405187));
#1268=CARTESIAN_POINT('Origin',(0.,1.54943686289003E-32,0.618824865405187));
#1269=CARTESIAN_POINT('',(2.06119264473377E-17,-0.168309152170965,0.816324865405187));
#1270=CARTESIAN_POINT('',(-2.42263819593403E-17,-0.19782342121996,0.618824865405187));
#1271=CARTESIAN_POINT('Origin',(0.,2.04394475604072E-32,0.816324865405187));
#1272=CARTESIAN_POINT('Origin',(0.,2.04394475604072E-32,0.816324865405187));
#1273=CARTESIAN_POINT('',(2.29938136249569E-17,-0.187758736975968,0.816324865405187));
#1274=CARTESIAN_POINT('Origin',(0.,2.04394475604072E-32,0.816324865405187));
#1275=CARTESIAN_POINT('',(1.93793581129544E-17,-0.158244467926973,1.01382486540519));
#1276=CARTESIAN_POINT('',(-2.29938136249569E-17,-0.187758736975968,0.816324865405187));
#1277=CARTESIAN_POINT('Origin',(0.,2.53845264919141E-32,1.01382486540519));
#1278=CARTESIAN_POINT('Origin',(0.,0.125,0.816324865405187));
#1279=CARTESIAN_POINT('Origin',(0.,0.125,1.01382486540519));
#1280=CARTESIAN_POINT('Origin',(0.,0.125,0.618824865405187));
#1281=UNCERTAINTY_MEASURE_WITH_UNIT(LENGTH_MEASURE(0.000393700787401575),
#1286,'DISTANCE_ACCURACY_VALUE',
'Maximum model space distance between geometric entities at asserted c
onnectivities');
#1282=UNCERTAINTY_MEASURE_WITH_UNIT(LENGTH_MEASURE(0.000393700787401575),
#1286,'DISTANCE_ACCURACY_VALUE',
'Maximum model space distance between geometric entities at asserted c
onnectivities');
#1283=(
GEOMETRIC_REPRESENTATION_CONTEXT(3)
GLOBAL_UNCERTAINTY_ASSIGNED_CONTEXT((#1281))
GLOBAL_UNIT_ASSIGNED_CONTEXT((#1286,#1290,#1291))
REPRESENTATION_CONTEXT('','3D')
);
#1284=(
GEOMETRIC_REPRESENTATION_CONTEXT(3)
GLOBAL_UNCERTAINTY_ASSIGNED_CONTEXT((#1282))
GLOBAL_UNIT_ASSIGNED_CONTEXT((#1286,#1290,#1291))
REPRESENTATION_CONTEXT('','3D')
);
#1285=DIMENSIONAL_EXPONENTS(1.,0.,0.,0.,0.,0.,0.);
#1286=(
CONVERSION_BASED_UNIT('inch',#1289)
LENGTH_UNIT()
NAMED_UNIT(#1285)
);
#1287=(
LENGTH_UNIT()
NAMED_UNIT(*)
SI_UNIT(.MILLI.,.METRE.)
);
#1288=(
LENGTH_UNIT()
NAMED_UNIT(*)
SI_UNIT($,.METRE.)
);
#1289=LENGTH_MEASURE_WITH_UNIT(LENGTH_MEASURE(25.4),#1287);
#1290=(
NAMED_UNIT(*)
PLANE_ANGLE_UNIT()
SI_UNIT($,.RADIAN.)
);
#1291=(
NAMED_UNIT(*)
SI_UNIT($,.STERADIAN.)
SOLID_ANGLE_UNIT()
);
#1292=SHAPE_DEFINITION_REPRESENTATION(#1293,#1294);
#1293=PRODUCT_DEFINITION_SHAPE('',$,#1296);
#1294=SHAPE_REPRESENTATION('',(#756),#1283);
#1295=PRODUCT_DEFINITION_CONTEXT('part definition',#1300,'design');
#1296=PRODUCT_DEFINITION(
'5346K122_Brass Barbed Hose Fitting for Air and Water',
'Barbed Hose Fitting 0.25in to 0.75in for Vac',#1297,#1295);
#1297=PRODUCT_DEFINITION_FORMATION('',$,#1302);
#1298=PRODUCT_RELATED_PRODUCT_CATEGORY(
'Barbed Hose Fitting 0.25in to 0.75in for Vac',
'Barbed Hose Fitting 0.25in to 0.75in for Vac',(#1302));
#1299=APPLICATION_PROTOCOL_DEFINITION('international standard',
'automotive_design',2009,#1300);
#1300=APPLICATION_CONTEXT(
'Core Data for Automotive Mechanical Design Process');
#1301=PRODUCT_CONTEXT('part definition',#1300,'mechanical');
#1302=PRODUCT('5346K122_Brass Barbed Hose Fitting for Air and Water',
'Barbed Hose Fitting 0.25in to 0.75in for Vac','STEP AP203',(#1301));
#1303=PRESENTATION_STYLE_ASSIGNMENT((#1304));
#1304=SURFACE_STYLE_USAGE(.BOTH.,#1305);
#1305=SURFACE_SIDE_STYLE('',(#1306));
#1306=SURFACE_STYLE_FILL_AREA(#1307);
#1307=FILL_AREA_STYLE('Steel - Satin',(#1308));
#1308=FILL_AREA_STYLE_COLOUR('Steel - Satin',#1309);
#1309=COLOUR_RGB('Steel - Satin',0.627450980392157,0.627450980392157,0.627450980392157);
ENDSEC;
END-ISO-10303-21;
