ISO-10303-21;
HEADER;
/* Generated by software containing ST-Developer
 * from STEP Tools, Inc. (www.steptools.com) 
 */

FILE_DESCRIPTION(
/* description */ ('STEP AP214'),
/* implementation_level */ '2;1');

FILE_NAME(
/* name */ 'Door Alignment.step',
/* time_stamp */ '2026-03-08T16:29:56-04:00',
/* author */ (''),
/* organization */ (''),
/* preprocessor_version */ 'ST-DEVELOPER v20.1',
/* originating_system */ 'Autodesk Translation Framework v14.24.0.0',
/* authorisation */ '');

FILE_SCHEMA (('AUTOMOTIVE_DESIGN { 1 0 10303 214 3 1 1 }'));
ENDSEC;

DATA;
#10=MECHANICAL_DESIGN_GEOMETRIC_PRESENTATION_REPRESENTATION('',(#13),#661);
#11=SHAPE_REPRESENTATION_RELATIONSHIP('SRR','None',#668,#12);
#12=ADVANCED_BREP_SHAPE_REPRESENTATION('',(#14),#660);
#13=STYLED_ITEM('',(#678),#14);
#14=MANIFOLD_SOLID_BREP('Body1',#393);
#15=ELLIPSE('',#432,6.68215908221287,4.725);
#16=FACE_BOUND('',#52,.T.);
#17=FACE_BOUND('',#63,.T.);
#18=CYLINDRICAL_SURFACE('',#411,1.);
#19=CYLINDRICAL_SURFACE('',#414,2.);
#20=CYLINDRICAL_SURFACE('',#425,3.175);
#21=CYLINDRICAL_SURFACE('',#428,3.175);
#22=CYLINDRICAL_SURFACE('',#431,4.725);
#23=CYLINDRICAL_SURFACE('',#437,4.725);
#24=FACE_OUTER_BOUND('',#44,.T.);
#25=FACE_OUTER_BOUND('',#45,.T.);
#26=FACE_OUTER_BOUND('',#46,.T.);
#27=FACE_OUTER_BOUND('',#47,.T.);
#28=FACE_OUTER_BOUND('',#48,.T.);
#29=FACE_OUTER_BOUND('',#49,.T.);
#30=FACE_OUTER_BOUND('',#50,.T.);
#31=FACE_OUTER_BOUND('',#51,.T.);
#32=FACE_OUTER_BOUND('',#53,.T.);
#33=FACE_OUTER_BOUND('',#54,.T.);
#34=FACE_OUTER_BOUND('',#55,.T.);
#35=FACE_OUTER_BOUND('',#56,.T.);
#36=FACE_OUTER_BOUND('',#57,.T.);
#37=FACE_OUTER_BOUND('',#58,.T.);
#38=FACE_OUTER_BOUND('',#59,.T.);
#39=FACE_OUTER_BOUND('',#60,.T.);
#40=FACE_OUTER_BOUND('',#61,.T.);
#41=FACE_OUTER_BOUND('',#62,.T.);
#42=FACE_OUTER_BOUND('',#64,.T.);
#43=FACE_OUTER_BOUND('',#65,.T.);
#44=EDGE_LOOP('',(#251,#252,#253,#254,#255,#256,#257,#258,#259));
#45=EDGE_LOOP('',(#260,#261,#262,#263));
#46=EDGE_LOOP('',(#264,#265,#266,#267));
#47=EDGE_LOOP('',(#268,#269,#270,#271));
#48=EDGE_LOOP('',(#272,#273,#274,#275));
#49=EDGE_LOOP('',(#276,#277,#278,#279,#280,#281,#282,#283,#284));
#50=EDGE_LOOP('',(#285,#286,#287,#288));
#51=EDGE_LOOP('',(#289,#290,#291,#292));
#52=EDGE_LOOP('',(#293,#294,#295,#296));
#53=EDGE_LOOP('',(#297,#298,#299,#300));
#54=EDGE_LOOP('',(#301,#302,#303,#304,#305,#306,#307,#308));
#55=EDGE_LOOP('',(#309,#310,#311,#312));
#56=EDGE_LOOP('',(#313,#314,#315,#316));
#57=EDGE_LOOP('',(#317,#318,#319,#320));
#58=EDGE_LOOP('',(#321,#322,#323,#324));
#59=EDGE_LOOP('',(#325,#326,#327,#328,#329));
#60=EDGE_LOOP('',(#330,#331,#332,#333));
#61=EDGE_LOOP('',(#334,#335,#336,#337,#338));
#62=EDGE_LOOP('',(#339,#340,#341,#342));
#63=EDGE_LOOP('',(#343,#344,#345,#346));
#64=EDGE_LOOP('',(#347,#348,#349,#350));
#65=EDGE_LOOP('',(#351,#352,#353,#354,#355,#356,#357,#358));
#66=LINE('',#553,#108);
#67=LINE('',#557,#109);
#68=LINE('',#559,#110);
#69=LINE('',#561,#111);
#70=LINE('',#563,#112);
#71=LINE('',#565,#113);
#72=LINE('',#566,#114);
#73=LINE('',#569,#115);
#74=LINE('',#571,#116);
#75=LINE('',#572,#117);
#76=LINE('',#575,#118);
#77=LINE('',#579,#119);
#78=LINE('',#580,#120);
#79=LINE('',#583,#121);
#80=LINE('',#587,#122);
#81=LINE('',#589,#123);
#82=LINE('',#591,#124);
#83=LINE('',#593,#125);
#84=LINE('',#594,#126);
#85=LINE('',#596,#127);
#86=LINE('',#597,#128);
#87=LINE('',#599,#129);
#88=LINE('',#604,#130);
#89=LINE('',#607,#131);
#90=LINE('',#611,#132);
#91=LINE('',#613,#133);
#92=LINE('',#617,#134);
#93=LINE('',#618,#135);
#94=LINE('',#622,#136);
#95=LINE('',#623,#137);
#96=LINE('',#624,#138);
#97=LINE('',#628,#139);
#98=LINE('',#631,#140);
#99=LINE('',#632,#141);
#100=LINE('',#637,#142);
#101=LINE('',#639,#143);
#102=LINE('',#641,#144);
#103=LINE('',#642,#145);
#104=LINE('',#647,#146);
#105=LINE('',#650,#147);
#106=LINE('',#652,#148);
#107=LINE('',#653,#149);
#108=VECTOR('',#445,10.);
#109=VECTOR('',#448,10.);
#110=VECTOR('',#449,10.);
#111=VECTOR('',#450,10.);
#112=VECTOR('',#451,10.);
#113=VECTOR('',#452,10.);
#114=VECTOR('',#453,10.);
#115=VECTOR('',#456,10.);
#116=VECTOR('',#457,10.);
#117=VECTOR('',#458,10.);
#118=VECTOR('',#461,10.);
#119=VECTOR('',#466,10.);
#120=VECTOR('',#467,10.);
#121=VECTOR('',#470,10.);
#122=VECTOR('',#475,10.);
#123=VECTOR('',#476,10.);
#124=VECTOR('',#477,10.);
#125=VECTOR('',#478,10.);
#126=VECTOR('',#479,10.);
#127=VECTOR('',#482,1000.);
#128=VECTOR('',#483,1000.);
#129=VECTOR('',#486,10.);
#130=VECTOR('',#489,1000.);
#131=VECTOR('',#492,1000.);
#132=VECTOR('',#497,10.);
#133=VECTOR('',#498,1000.);
#134=VECTOR('',#501,1000.);
#135=VECTOR('',#502,10.);
#136=VECTOR('',#505,1000.);
#137=VECTOR('',#506,1000.);
#138=VECTOR('',#507,1000.);
#139=VECTOR('',#512,1000.);
#140=VECTOR('',#515,1000.);
#141=VECTOR('',#516,1000.);
#142=VECTOR('',#523,10.);
#143=VECTOR('',#524,1000.);
#144=VECTOR('',#525,1000.);
#145=VECTOR('',#526,1000.);
#146=VECTOR('',#531,1000.);
#147=VECTOR('',#536,10.);
#148=VECTOR('',#537,1000.);
#149=VECTOR('',#538,1000.);
#150=CIRCLE('',#408,2.);
#151=CIRCLE('',#409,1.);
#152=CIRCLE('',#412,1.);
#153=CIRCLE('',#415,2.);
#154=CIRCLE('',#419,3.175);
#155=CIRCLE('',#420,3.175);
#156=CIRCLE('',#423,4.725);
#157=CIRCLE('',#426,3.175);
#158=CIRCLE('',#429,3.175);
#159=CIRCLE('',#433,4.725);
#160=CIRCLE('',#436,4.725);
#161=VERTEX_POINT('',#549);
#162=VERTEX_POINT('',#550);
#163=VERTEX_POINT('',#552);
#164=VERTEX_POINT('',#554);
#165=VERTEX_POINT('',#556);
#166=VERTEX_POINT('',#558);
#167=VERTEX_POINT('',#560);
#168=VERTEX_POINT('',#562);
#169=VERTEX_POINT('',#564);
#170=VERTEX_POINT('',#568);
#171=VERTEX_POINT('',#570);
#172=VERTEX_POINT('',#574);
#173=VERTEX_POINT('',#578);
#174=VERTEX_POINT('',#582);
#175=VERTEX_POINT('',#586);
#176=VERTEX_POINT('',#588);
#177=VERTEX_POINT('',#590);
#178=VERTEX_POINT('',#592);
#179=VERTEX_POINT('',#600);
#180=VERTEX_POINT('',#601);
#181=VERTEX_POINT('',#603);
#182=VERTEX_POINT('',#605);
#183=VERTEX_POINT('',#610);
#184=VERTEX_POINT('',#612);
#185=VERTEX_POINT('',#614);
#186=VERTEX_POINT('',#616);
#187=VERTEX_POINT('',#620);
#188=VERTEX_POINT('',#621);
#189=VERTEX_POINT('',#626);
#190=VERTEX_POINT('',#630);
#191=VERTEX_POINT('',#636);
#192=VERTEX_POINT('',#638);
#193=VERTEX_POINT('',#640);
#194=VERTEX_POINT('',#644);
#195=VERTEX_POINT('',#646);
#196=VERTEX_POINT('',#651);
#197=EDGE_CURVE('',#161,#162,#150,.T.);
#198=EDGE_CURVE('',#163,#161,#66,.T.);
#199=EDGE_CURVE('',#164,#163,#151,.T.);
#200=EDGE_CURVE('',#165,#164,#67,.T.);
#201=EDGE_CURVE('',#166,#165,#68,.T.);
#202=EDGE_CURVE('',#167,#166,#69,.T.);
#203=EDGE_CURVE('',#168,#167,#70,.T.);
#204=EDGE_CURVE('',#169,#168,#71,.T.);
#205=EDGE_CURVE('',#162,#169,#72,.T.);
#206=EDGE_CURVE('',#170,#164,#73,.T.);
#207=EDGE_CURVE('',#170,#171,#74,.T.);
#208=EDGE_CURVE('',#165,#171,#75,.T.);
#209=EDGE_CURVE('',#163,#172,#76,.T.);
#210=EDGE_CURVE('',#172,#170,#152,.T.);
#211=EDGE_CURVE('',#173,#161,#77,.T.);
#212=EDGE_CURVE('',#173,#172,#78,.T.);
#213=EDGE_CURVE('',#162,#174,#79,.T.);
#214=EDGE_CURVE('',#174,#173,#153,.T.);
#215=EDGE_CURVE('',#175,#174,#80,.T.);
#216=EDGE_CURVE('',#176,#175,#81,.T.);
#217=EDGE_CURVE('',#177,#176,#82,.T.);
#218=EDGE_CURVE('',#178,#177,#83,.T.);
#219=EDGE_CURVE('',#171,#178,#84,.T.);
#220=EDGE_CURVE('',#167,#177,#85,.T.);
#221=EDGE_CURVE('',#176,#168,#86,.T.);
#222=EDGE_CURVE('',#175,#169,#87,.T.);
#223=EDGE_CURVE('',#179,#180,#154,.T.);
#224=EDGE_CURVE('',#180,#181,#88,.T.);
#225=EDGE_CURVE('',#181,#182,#155,.T.);
#226=EDGE_CURVE('',#182,#179,#89,.T.);
#227=EDGE_CURVE('',#166,#183,#90,.F.);
#228=EDGE_CURVE('',#183,#184,#91,.T.);
#229=EDGE_CURVE('',#184,#185,#156,.T.);
#230=EDGE_CURVE('',#185,#186,#92,.T.);
#231=EDGE_CURVE('',#186,#178,#93,.F.);
#232=EDGE_CURVE('',#187,#188,#94,.T.);
#233=EDGE_CURVE('',#181,#188,#95,.T.);
#234=EDGE_CURVE('',#187,#180,#96,.T.);
#235=EDGE_CURVE('',#188,#189,#157,.T.);
#236=EDGE_CURVE('',#182,#189,#97,.T.);
#237=EDGE_CURVE('',#189,#190,#98,.T.);
#238=EDGE_CURVE('',#190,#179,#99,.T.);
#239=EDGE_CURVE('',#190,#187,#158,.T.);
#240=EDGE_CURVE('',#183,#191,#100,.F.);
#241=EDGE_CURVE('',#192,#191,#101,.T.);
#242=EDGE_CURVE('',#192,#193,#102,.T.);
#243=EDGE_CURVE('',#184,#193,#103,.T.);
#244=EDGE_CURVE('',#191,#194,#15,.F.);
#245=EDGE_CURVE('',#195,#194,#104,.T.);
#246=EDGE_CURVE('',#195,#192,#159,.T.);
#247=EDGE_CURVE('',#194,#186,#105,.F.);
#248=EDGE_CURVE('',#185,#196,#106,.T.);
#249=EDGE_CURVE('',#196,#195,#107,.T.);
#250=EDGE_CURVE('',#193,#196,#160,.T.);
#251=ORIENTED_EDGE('',*,*,#197,.F.);
#252=ORIENTED_EDGE('',*,*,#198,.F.);
#253=ORIENTED_EDGE('',*,*,#199,.F.);
#254=ORIENTED_EDGE('',*,*,#200,.F.);
#255=ORIENTED_EDGE('',*,*,#201,.F.);
#256=ORIENTED_EDGE('',*,*,#202,.F.);
#257=ORIENTED_EDGE('',*,*,#203,.F.);
#258=ORIENTED_EDGE('',*,*,#204,.F.);
#259=ORIENTED_EDGE('',*,*,#205,.F.);
#260=ORIENTED_EDGE('',*,*,#200,.T.);
#261=ORIENTED_EDGE('',*,*,#206,.F.);
#262=ORIENTED_EDGE('',*,*,#207,.T.);
#263=ORIENTED_EDGE('',*,*,#208,.F.);
#264=ORIENTED_EDGE('',*,*,#199,.T.);
#265=ORIENTED_EDGE('',*,*,#209,.T.);
#266=ORIENTED_EDGE('',*,*,#210,.T.);
#267=ORIENTED_EDGE('',*,*,#206,.T.);
#268=ORIENTED_EDGE('',*,*,#198,.T.);
#269=ORIENTED_EDGE('',*,*,#211,.F.);
#270=ORIENTED_EDGE('',*,*,#212,.T.);
#271=ORIENTED_EDGE('',*,*,#209,.F.);
#272=ORIENTED_EDGE('',*,*,#197,.T.);
#273=ORIENTED_EDGE('',*,*,#213,.T.);
#274=ORIENTED_EDGE('',*,*,#214,.T.);
#275=ORIENTED_EDGE('',*,*,#211,.T.);
#276=ORIENTED_EDGE('',*,*,#214,.F.);
#277=ORIENTED_EDGE('',*,*,#215,.F.);
#278=ORIENTED_EDGE('',*,*,#216,.F.);
#279=ORIENTED_EDGE('',*,*,#217,.F.);
#280=ORIENTED_EDGE('',*,*,#218,.F.);
#281=ORIENTED_EDGE('',*,*,#219,.F.);
#282=ORIENTED_EDGE('',*,*,#207,.F.);
#283=ORIENTED_EDGE('',*,*,#210,.F.);
#284=ORIENTED_EDGE('',*,*,#212,.F.);
#285=ORIENTED_EDGE('',*,*,#203,.T.);
#286=ORIENTED_EDGE('',*,*,#220,.T.);
#287=ORIENTED_EDGE('',*,*,#217,.T.);
#288=ORIENTED_EDGE('',*,*,#221,.T.);
#289=ORIENTED_EDGE('',*,*,#204,.T.);
#290=ORIENTED_EDGE('',*,*,#221,.F.);
#291=ORIENTED_EDGE('',*,*,#216,.T.);
#292=ORIENTED_EDGE('',*,*,#222,.T.);
#293=ORIENTED_EDGE('',*,*,#223,.T.);
#294=ORIENTED_EDGE('',*,*,#224,.T.);
#295=ORIENTED_EDGE('',*,*,#225,.T.);
#296=ORIENTED_EDGE('',*,*,#226,.T.);
#297=ORIENTED_EDGE('',*,*,#205,.T.);
#298=ORIENTED_EDGE('',*,*,#222,.F.);
#299=ORIENTED_EDGE('',*,*,#215,.T.);
#300=ORIENTED_EDGE('',*,*,#213,.F.);
#301=ORIENTED_EDGE('',*,*,#202,.T.);
#302=ORIENTED_EDGE('',*,*,#227,.T.);
#303=ORIENTED_EDGE('',*,*,#228,.T.);
#304=ORIENTED_EDGE('',*,*,#229,.T.);
#305=ORIENTED_EDGE('',*,*,#230,.T.);
#306=ORIENTED_EDGE('',*,*,#231,.T.);
#307=ORIENTED_EDGE('',*,*,#218,.T.);
#308=ORIENTED_EDGE('',*,*,#220,.F.);
#309=ORIENTED_EDGE('',*,*,#232,.T.);
#310=ORIENTED_EDGE('',*,*,#233,.F.);
#311=ORIENTED_EDGE('',*,*,#224,.F.);
#312=ORIENTED_EDGE('',*,*,#234,.F.);
#313=ORIENTED_EDGE('',*,*,#235,.T.);
#314=ORIENTED_EDGE('',*,*,#236,.F.);
#315=ORIENTED_EDGE('',*,*,#225,.F.);
#316=ORIENTED_EDGE('',*,*,#233,.T.);
#317=ORIENTED_EDGE('',*,*,#237,.T.);
#318=ORIENTED_EDGE('',*,*,#238,.T.);
#319=ORIENTED_EDGE('',*,*,#226,.F.);
#320=ORIENTED_EDGE('',*,*,#236,.T.);
#321=ORIENTED_EDGE('',*,*,#239,.T.);
#322=ORIENTED_EDGE('',*,*,#234,.T.);
#323=ORIENTED_EDGE('',*,*,#223,.F.);
#324=ORIENTED_EDGE('',*,*,#238,.F.);
#325=ORIENTED_EDGE('',*,*,#228,.F.);
#326=ORIENTED_EDGE('',*,*,#240,.T.);
#327=ORIENTED_EDGE('',*,*,#241,.F.);
#328=ORIENTED_EDGE('',*,*,#242,.T.);
#329=ORIENTED_EDGE('',*,*,#243,.F.);
#330=ORIENTED_EDGE('',*,*,#241,.T.);
#331=ORIENTED_EDGE('',*,*,#244,.T.);
#332=ORIENTED_EDGE('',*,*,#245,.F.);
#333=ORIENTED_EDGE('',*,*,#246,.T.);
#334=ORIENTED_EDGE('',*,*,#247,.T.);
#335=ORIENTED_EDGE('',*,*,#230,.F.);
#336=ORIENTED_EDGE('',*,*,#248,.T.);
#337=ORIENTED_EDGE('',*,*,#249,.T.);
#338=ORIENTED_EDGE('',*,*,#245,.T.);
#339=ORIENTED_EDGE('',*,*,#250,.F.);
#340=ORIENTED_EDGE('',*,*,#242,.F.);
#341=ORIENTED_EDGE('',*,*,#246,.F.);
#342=ORIENTED_EDGE('',*,*,#249,.F.);
#343=ORIENTED_EDGE('',*,*,#232,.F.);
#344=ORIENTED_EDGE('',*,*,#239,.F.);
#345=ORIENTED_EDGE('',*,*,#237,.F.);
#346=ORIENTED_EDGE('',*,*,#235,.F.);
#347=ORIENTED_EDGE('',*,*,#229,.F.);
#348=ORIENTED_EDGE('',*,*,#243,.T.);
#349=ORIENTED_EDGE('',*,*,#250,.T.);
#350=ORIENTED_EDGE('',*,*,#248,.F.);
#351=ORIENTED_EDGE('',*,*,#201,.T.);
#352=ORIENTED_EDGE('',*,*,#208,.T.);
#353=ORIENTED_EDGE('',*,*,#219,.T.);
#354=ORIENTED_EDGE('',*,*,#231,.F.);
#355=ORIENTED_EDGE('',*,*,#247,.F.);
#356=ORIENTED_EDGE('',*,*,#244,.F.);
#357=ORIENTED_EDGE('',*,*,#240,.F.);
#358=ORIENTED_EDGE('',*,*,#227,.F.);
#359=PLANE('',#407);
#360=PLANE('',#410);
#361=PLANE('',#413);
#362=PLANE('',#416);
#363=PLANE('',#417);
#364=PLANE('',#418);
#365=PLANE('',#421);
#366=PLANE('',#422);
#367=PLANE('',#424);
#368=PLANE('',#427);
#369=PLANE('',#430);
#370=PLANE('',#434);
#371=PLANE('',#435);
#372=PLANE('',#438);
#373=ADVANCED_FACE('',(#24),#359,.T.);
#374=ADVANCED_FACE('',(#25),#360,.T.);
#375=ADVANCED_FACE('',(#26),#18,.T.);
#376=ADVANCED_FACE('',(#27),#361,.T.);
#377=ADVANCED_FACE('',(#28),#19,.T.);
#378=ADVANCED_FACE('',(#29),#362,.T.);
#379=ADVANCED_FACE('',(#30),#363,.T.);
#380=ADVANCED_FACE('',(#31,#16),#364,.F.);
#381=ADVANCED_FACE('',(#32),#365,.F.);
#382=ADVANCED_FACE('',(#33),#366,.T.);
#383=ADVANCED_FACE('',(#34),#367,.F.);
#384=ADVANCED_FACE('',(#35),#20,.F.);
#385=ADVANCED_FACE('',(#36),#368,.F.);
#386=ADVANCED_FACE('',(#37),#21,.F.);
#387=ADVANCED_FACE('',(#38),#369,.F.);
#388=ADVANCED_FACE('',(#39),#22,.F.);
#389=ADVANCED_FACE('',(#40),#370,.F.);
#390=ADVANCED_FACE('',(#41,#17),#371,.T.);
#391=ADVANCED_FACE('',(#42),#23,.F.);
#392=ADVANCED_FACE('',(#43),#372,.F.);
#393=CLOSED_SHELL('',(#373,#374,#375,#376,#377,#378,#379,#380,#381,#382,
#383,#384,#385,#386,#387,#388,#389,#390,#391,#392));
#394=DERIVED_UNIT_ELEMENT(#396,1.);
#395=DERIVED_UNIT_ELEMENT(#663,-3.);
#396=(
MASS_UNIT()
NAMED_UNIT(*)
SI_UNIT(.KILO.,.GRAM.)
);
#397=DERIVED_UNIT((#394,#395));
#398=MEASURE_REPRESENTATION_ITEM('density measure',
POSITIVE_RATIO_MEASURE(7850.),#397);
#399=PROPERTY_DEFINITION_REPRESENTATION(#404,#401);
#400=PROPERTY_DEFINITION_REPRESENTATION(#405,#402);
#401=REPRESENTATION('material name',(#403),#660);
#402=REPRESENTATION('density',(#398),#660);
#403=DESCRIPTIVE_REPRESENTATION_ITEM('Steel','Steel');
#404=PROPERTY_DEFINITION('material property','material name',#670);
#405=PROPERTY_DEFINITION('material property','density of part',#670);
#406=AXIS2_PLACEMENT_3D('',#547,#439,#440);
#407=AXIS2_PLACEMENT_3D('',#548,#441,#442);
#408=AXIS2_PLACEMENT_3D('',#551,#443,#444);
#409=AXIS2_PLACEMENT_3D('',#555,#446,#447);
#410=AXIS2_PLACEMENT_3D('',#567,#454,#455);
#411=AXIS2_PLACEMENT_3D('',#573,#459,#460);
#412=AXIS2_PLACEMENT_3D('',#576,#462,#463);
#413=AXIS2_PLACEMENT_3D('',#577,#464,#465);
#414=AXIS2_PLACEMENT_3D('',#581,#468,#469);
#415=AXIS2_PLACEMENT_3D('',#584,#471,#472);
#416=AXIS2_PLACEMENT_3D('',#585,#473,#474);
#417=AXIS2_PLACEMENT_3D('',#595,#480,#481);
#418=AXIS2_PLACEMENT_3D('',#598,#484,#485);
#419=AXIS2_PLACEMENT_3D('',#602,#487,#488);
#420=AXIS2_PLACEMENT_3D('',#606,#490,#491);
#421=AXIS2_PLACEMENT_3D('',#608,#493,#494);
#422=AXIS2_PLACEMENT_3D('',#609,#495,#496);
#423=AXIS2_PLACEMENT_3D('',#615,#499,#500);
#424=AXIS2_PLACEMENT_3D('',#619,#503,#504);
#425=AXIS2_PLACEMENT_3D('',#625,#508,#509);
#426=AXIS2_PLACEMENT_3D('',#627,#510,#511);
#427=AXIS2_PLACEMENT_3D('',#629,#513,#514);
#428=AXIS2_PLACEMENT_3D('',#633,#517,#518);
#429=AXIS2_PLACEMENT_3D('',#634,#519,#520);
#430=AXIS2_PLACEMENT_3D('',#635,#521,#522);
#431=AXIS2_PLACEMENT_3D('',#643,#527,#528);
#432=AXIS2_PLACEMENT_3D('',#645,#529,#530);
#433=AXIS2_PLACEMENT_3D('',#648,#532,#533);
#434=AXIS2_PLACEMENT_3D('',#649,#534,#535);
#435=AXIS2_PLACEMENT_3D('',#654,#539,#540);
#436=AXIS2_PLACEMENT_3D('',#655,#541,#542);
#437=AXIS2_PLACEMENT_3D('',#656,#543,#544);
#438=AXIS2_PLACEMENT_3D('',#657,#545,#546);
#439=DIRECTION('axis',(0.,0.,1.));
#440=DIRECTION('refdir',(1.,0.,0.));
#441=DIRECTION('center_axis',(1.,0.,0.));
#442=DIRECTION('ref_axis',(0.,1.,0.));
#443=DIRECTION('center_axis',(-1.,0.,0.));
#444=DIRECTION('ref_axis',(0.,0.984807753012208,0.173648177666933));
#445=DIRECTION('',(0.,0.342020143325669,-0.939692620785908));
#446=DIRECTION('center_axis',(-1.,0.,0.));
#447=DIRECTION('ref_axis',(0.,-0.173648177666905,0.984807753012212));
#448=DIRECTION('',(0.,0.,1.));
#449=DIRECTION('',(0.,0.707106781186548,0.707106781186547));
#450=DIRECTION('',(0.,1.,0.));
#451=DIRECTION('',(0.,0.,1.));
#452=DIRECTION('',(0.,-1.,0.));
#453=DIRECTION('',(0.,0.,-1.));
#454=DIRECTION('center_axis',(0.,-1.,0.));
#455=DIRECTION('ref_axis',(0.,0.,-1.));
#456=DIRECTION('',(1.,0.,0.));
#457=DIRECTION('',(0.,0.,-1.));
#458=DIRECTION('',(-1.,0.,0.));
#459=DIRECTION('center_axis',(1.,0.,0.));
#460=DIRECTION('ref_axis',(0.,-0.173648177666905,0.984807753012212));
#461=DIRECTION('',(-1.,0.,0.));
#462=DIRECTION('center_axis',(1.,0.,0.));
#463=DIRECTION('ref_axis',(0.,-0.173648177666905,0.984807753012212));
#464=DIRECTION('center_axis',(0.,0.939692620785908,0.342020143325669));
#465=DIRECTION('ref_axis',(1.,0.,0.));
#466=DIRECTION('',(1.,0.,0.));
#467=DIRECTION('',(0.,-0.342020143325669,0.939692620785908));
#468=DIRECTION('center_axis',(-1.,0.,0.));
#469=DIRECTION('ref_axis',(0.,0.984807753012208,0.173648177666933));
#470=DIRECTION('',(-1.,0.,0.));
#471=DIRECTION('center_axis',(1.,0.,0.));
#472=DIRECTION('ref_axis',(0.,0.984807753012208,0.173648177666933));
#473=DIRECTION('center_axis',(-1.,0.,0.));
#474=DIRECTION('ref_axis',(0.,0.,1.));
#475=DIRECTION('',(0.,0.,1.));
#476=DIRECTION('',(0.,1.,0.));
#477=DIRECTION('',(0.,0.,-1.));
#478=DIRECTION('',(0.,-1.,0.));
#479=DIRECTION('',(0.,-0.707106781186548,-0.707106781186547));
#480=DIRECTION('center_axis',(0.,-1.,0.));
#481=DIRECTION('ref_axis',(0.,0.,-1.));
#482=DIRECTION('',(-1.,0.,0.));
#483=DIRECTION('',(1.,0.,0.));
#484=DIRECTION('center_axis',(0.,0.,1.));
#485=DIRECTION('ref_axis',(1.,0.,0.));
#486=DIRECTION('',(1.,0.,0.));
#487=DIRECTION('center_axis',(0.,0.,1.));
#488=DIRECTION('ref_axis',(-1.,0.,0.));
#489=DIRECTION('',(0.,1.,0.));
#490=DIRECTION('center_axis',(0.,0.,1.));
#491=DIRECTION('ref_axis',(1.,0.,0.));
#492=DIRECTION('',(0.,-1.,0.));
#493=DIRECTION('center_axis',(0.,-1.,0.));
#494=DIRECTION('ref_axis',(0.,0.,-1.));
#495=DIRECTION('center_axis',(0.,0.,1.));
#496=DIRECTION('ref_axis',(1.,0.,0.));
#497=DIRECTION('',(1.,0.,0.));
#498=DIRECTION('',(0.,-1.,0.));
#499=DIRECTION('center_axis',(0.,0.,-1.));
#500=DIRECTION('ref_axis',(-1.,0.,0.));
#501=DIRECTION('',(9.8634100387051E-18,1.,0.));
#502=DIRECTION('',(1.,0.,0.));
#503=DIRECTION('center_axis',(1.,0.,0.));
#504=DIRECTION('ref_axis',(0.,1.,0.));
#505=DIRECTION('',(0.,1.,0.));
#506=DIRECTION('',(0.,0.,1.));
#507=DIRECTION('',(0.,0.,-1.));
#508=DIRECTION('center_axis',(0.,0.,1.));
#509=DIRECTION('ref_axis',(1.,0.,0.));
#510=DIRECTION('center_axis',(0.,0.,1.));
#511=DIRECTION('ref_axis',(1.,0.,0.));
#512=DIRECTION('',(0.,0.,1.));
#513=DIRECTION('center_axis',(-1.,0.,0.));
#514=DIRECTION('ref_axis',(0.,0.,1.));
#515=DIRECTION('',(0.,-1.,0.));
#516=DIRECTION('',(0.,0.,-1.));
#517=DIRECTION('center_axis',(0.,0.,-1.));
#518=DIRECTION('ref_axis',(-1.,0.,0.));
#519=DIRECTION('center_axis',(0.,0.,1.));
#520=DIRECTION('ref_axis',(-1.,0.,0.));
#521=DIRECTION('center_axis',(1.,0.,0.));
#522=DIRECTION('ref_axis',(0.,1.,0.));
#523=DIRECTION('',(0.,-0.707106781186548,-0.707106781186547));
#524=DIRECTION('',(0.,0.,1.));
#525=DIRECTION('',(0.,-1.,0.));
#526=DIRECTION('',(0.,0.,-1.));
#527=DIRECTION('center_axis',(0.,0.,1.));
#528=DIRECTION('ref_axis',(1.,0.,0.));
#529=DIRECTION('center_axis',(0.,0.707106781186547,-0.707106781186548));
#530=DIRECTION('ref_axis',(0.,0.707106781186548,0.707106781186547));
#531=DIRECTION('',(0.,0.,1.));
#532=DIRECTION('center_axis',(0.,0.,-1.));
#533=DIRECTION('ref_axis',(1.,0.,0.));
#534=DIRECTION('center_axis',(-1.,9.8634100387051E-18,0.));
#535=DIRECTION('ref_axis',(0.,0.,1.));
#536=DIRECTION('',(6.97448412399184E-18,0.707106781186548,0.707106781186547));
#537=DIRECTION('',(0.,0.,-1.));
#538=DIRECTION('',(9.8634100387051E-18,1.,0.));
#539=DIRECTION('center_axis',(0.,0.,1.));
#540=DIRECTION('ref_axis',(1.,0.,0.));
#541=DIRECTION('center_axis',(0.,0.,-1.));
#542=DIRECTION('ref_axis',(-1.,0.,0.));
#543=DIRECTION('center_axis',(0.,0.,-1.));
#544=DIRECTION('ref_axis',(-1.,0.,0.));
#545=DIRECTION('center_axis',(0.,0.707106781186547,-0.707106781186548));
#546=DIRECTION('ref_axis',(0.,0.707106781186548,0.707106781186547));
#547=CARTESIAN_POINT('',(0.,0.,0.));
#548=CARTESIAN_POINT('Origin',(10.,0.,0.));
#549=CARTESIAN_POINT('',(10.,75.8793852415718,110.038927768908));
#550=CARTESIAN_POINT('',(10.,76.,109.354887482257));
#551=CARTESIAN_POINT('Origin',(10.,74.,109.354887482257));
#552=CARTESIAN_POINT('',(10.,69.9396926207859,126.358099123019));
#553=CARTESIAN_POINT('',(10.,87.2366273615062,78.8351614971099));
#554=CARTESIAN_POINT('',(10.,68.,126.016078979693));
#555=CARTESIAN_POINT('Origin',(10.,69.,126.016078979693));
#556=CARTESIAN_POINT('',(10.,68.,22.1213203435597));
#557=CARTESIAN_POINT('',(10.,68.,5.));
#558=CARTESIAN_POINT('',(10.,55.8786796564404,10.));
#559=CARTESIAN_POINT('',(10.,39.9393398282202,-5.93933982822018));
#560=CARTESIAN_POINT('',(10.,-0.999999999999996,10.));
#561=CARTESIAN_POINT('',(10.,20.,10.));
#562=CARTESIAN_POINT('',(10.,-0.999999999999996,0.));
#563=CARTESIAN_POINT('',(10.,-1.,0.));
#564=CARTESIAN_POINT('',(10.,76.,0.));
#565=CARTESIAN_POINT('',(10.,20.,0.));
#566=CARTESIAN_POINT('',(10.,76.,0.));
#567=CARTESIAN_POINT('Origin',(-12.5,68.,10.));
#568=CARTESIAN_POINT('',(-10.,68.,126.016078979693));
#569=CARTESIAN_POINT('',(-12.5,68.,126.016078979693));
#570=CARTESIAN_POINT('',(-10.,68.,22.1213203435596));
#571=CARTESIAN_POINT('',(-10.,68.,5.));
#572=CARTESIAN_POINT('',(0.,68.,22.1213203435596));
#573=CARTESIAN_POINT('Origin',(-12.5,69.,126.016078979693));
#574=CARTESIAN_POINT('',(-10.,69.9396926207859,126.358099123019));
#575=CARTESIAN_POINT('',(-12.5,69.9396926207859,126.358099123019));
#576=CARTESIAN_POINT('Origin',(-10.,69.,126.016078979693));
#577=CARTESIAN_POINT('Origin',(-12.5,72.104241719908,120.41104934988));
#578=CARTESIAN_POINT('',(-10.,75.8793852415718,110.038927768908));
#579=CARTESIAN_POINT('',(0.,75.8793852415718,110.038927768908));
#580=CARTESIAN_POINT('',(-10.,91.9157384991266,65.9794093033791));
#581=CARTESIAN_POINT('Origin',(0.,74.,109.354887482257));
#582=CARTESIAN_POINT('',(-10.,76.,109.354887482257));
#583=CARTESIAN_POINT('',(0.,76.,109.354887482257));
#584=CARTESIAN_POINT('Origin',(-10.,74.,109.354887482257));
#585=CARTESIAN_POINT('Origin',(-10.,80.,0.));
#586=CARTESIAN_POINT('',(-10.,76.,0.));
#587=CARTESIAN_POINT('',(-10.,76.,0.));
#588=CARTESIAN_POINT('',(-10.,-0.999999999999996,0.));
#589=CARTESIAN_POINT('',(-10.,60.,0.));
#590=CARTESIAN_POINT('',(-10.,-0.999999999999996,10.));
#591=CARTESIAN_POINT('',(-10.,-0.999999999999996,0.));
#592=CARTESIAN_POINT('',(-10.,55.8786796564404,10.));
#593=CARTESIAN_POINT('',(-10.,60.,10.));
#594=CARTESIAN_POINT('',(-10.,59.9393398282202,14.0606601717798));
#595=CARTESIAN_POINT('Origin',(-12.5,-1.,0.));
#596=CARTESIAN_POINT('',(-12.5,-1.,10.));
#597=CARTESIAN_POINT('',(-12.5,-1.,0.));
#598=CARTESIAN_POINT('Origin',(0.,40.,0.));
#599=CARTESIAN_POINT('',(6.25,76.,0.));
#600=CARTESIAN_POINT('',(-3.175,6.75435792747639,0.));
#601=CARTESIAN_POINT('',(3.175,6.75435792747639,0.));
#602=CARTESIAN_POINT('Origin',(0.,6.75435792747639,0.));
#603=CARTESIAN_POINT('',(3.175,63.0342357926629,0.));
#604=CARTESIAN_POINT('',(3.175,23.3771789637382,0.));
#605=CARTESIAN_POINT('',(-3.175,63.0342357926629,0.));
#606=CARTESIAN_POINT('Origin',(0.,63.0342357926629,0.));
#607=CARTESIAN_POINT('',(-3.175,51.5171178963315,0.));
#608=CARTESIAN_POINT('Origin',(12.5,76.,0.));
#609=CARTESIAN_POINT('Origin',(0.,40.,10.));
#610=CARTESIAN_POINT('',(4.725,55.8786796564404,10.));
#611=CARTESIAN_POINT('',(6.25,55.8786796564404,10.));
#612=CARTESIAN_POINT('',(4.725,6.75435792747639,10.));
#613=CARTESIAN_POINT('',(4.725,23.3771789637382,10.));
#614=CARTESIAN_POINT('',(-4.725,6.75435792747639,10.));
#615=CARTESIAN_POINT('Origin',(-2.77555756156289E-16,6.75435792747639,10.));
#616=CARTESIAN_POINT('',(-4.725,55.8786796564404,10.));
#617=CARTESIAN_POINT('',(-4.725,51.5171178963315,10.));
#618=CARTESIAN_POINT('',(6.25,55.8786796564404,10.));
#619=CARTESIAN_POINT('Origin',(3.175,6.75435792747639,10.));
#620=CARTESIAN_POINT('',(3.175,6.75435792747639,5.));
#621=CARTESIAN_POINT('',(3.175,63.0342357926629,5.));
#622=CARTESIAN_POINT('',(3.175,20.824327393773,5.));
#623=CARTESIAN_POINT('',(3.175,63.0342357926629,10.));
#624=CARTESIAN_POINT('',(3.175,6.75435792747639,10.));
#625=CARTESIAN_POINT('Origin',(0.,63.0342357926629,10.));
#626=CARTESIAN_POINT('',(-3.175,63.0342357926629,5.));
#627=CARTESIAN_POINT('Origin',(0.,63.0342357926629,5.));
#628=CARTESIAN_POINT('',(-3.175,63.0342357926629,10.));
#629=CARTESIAN_POINT('Origin',(-3.175,63.0342357926629,10.));
#630=CARTESIAN_POINT('',(-3.175,6.75435792747639,5.));
#631=CARTESIAN_POINT('',(-3.175,48.9642663263663,5.));
#632=CARTESIAN_POINT('',(-3.175,6.75435792747639,10.));
#633=CARTESIAN_POINT('Origin',(0.,6.75435792747639,10.));
#634=CARTESIAN_POINT('Origin',(0.,6.75435792747639,5.));
#635=CARTESIAN_POINT('Origin',(4.725,6.75435792747639,10.));
#636=CARTESIAN_POINT('',(4.725,63.0342357926629,17.1555561362225));
#637=CARTESIAN_POINT('',(4.725,44.1279293100893,-1.75075034635108));
#638=CARTESIAN_POINT('',(4.725,63.0342357926629,5.));
#639=CARTESIAN_POINT('',(4.725,63.0342357926629,10.));
#640=CARTESIAN_POINT('',(4.725,6.75435792747639,5.));
#641=CARTESIAN_POINT('',(4.725,6.75435792747639,5.));
#642=CARTESIAN_POINT('',(4.725,6.75435792747639,10.));
#643=CARTESIAN_POINT('Origin',(0.,63.0342357926629,10.));
#644=CARTESIAN_POINT('',(-4.725,63.0342357926629,17.1555561362225));
#645=CARTESIAN_POINT('Origin',(0.,63.0342357926629,17.1555561362225));
#646=CARTESIAN_POINT('',(-4.725,63.0342357926629,5.));
#647=CARTESIAN_POINT('',(-4.725,63.0342357926629,10.));
#648=CARTESIAN_POINT('Origin',(0.,63.0342357926629,5.));
#649=CARTESIAN_POINT('Origin',(-4.725,63.0342357926629,10.));
#650=CARTESIAN_POINT('',(-4.725,58.1978987763859,12.3192191199455));
#651=CARTESIAN_POINT('',(-4.725,6.75435792747639,5.));
#652=CARTESIAN_POINT('',(-4.725,6.75435792747639,10.));
#653=CARTESIAN_POINT('',(-4.725,63.0342357926629,5.));
#654=CARTESIAN_POINT('Origin',(0.,34.8942968600697,5.));
#655=CARTESIAN_POINT('Origin',(-2.77555756156289E-16,6.75435792747639,5.));
#656=CARTESIAN_POINT('Origin',(-2.77555756156289E-16,6.75435792747639,10.));
#657=CARTESIAN_POINT('Origin',(12.5,56.9393398282202,11.0606601717798));
#658=UNCERTAINTY_MEASURE_WITH_UNIT(LENGTH_MEASURE(0.01),#662,
'DISTANCE_ACCURACY_VALUE',
'Maximum model space distance between geometric entities at asserted c
onnectivities');
#659=UNCERTAINTY_MEASURE_WITH_UNIT(LENGTH_MEASURE(0.01),#662,
'DISTANCE_ACCURACY_VALUE',
'Maximum model space distance between geometric entities at asserted c
onnectivities');
#660=(
GEOMETRIC_REPRESENTATION_CONTEXT(3)
GLOBAL_UNCERTAINTY_ASSIGNED_CONTEXT((#658))
GLOBAL_UNIT_ASSIGNED_CONTEXT((#662,#664,#665))
REPRESENTATION_CONTEXT('','3D')
);
#661=(
GEOMETRIC_REPRESENTATION_CONTEXT(3)
GLOBAL_UNCERTAINTY_ASSIGNED_CONTEXT((#659))
GLOBAL_UNIT_ASSIGNED_CONTEXT((#662,#664,#665))
REPRESENTATION_CONTEXT('','3D')
);
#662=(
LENGTH_UNIT()
NAMED_UNIT(*)
SI_UNIT(.MILLI.,.METRE.)
);
#663=(
LENGTH_UNIT()
NAMED_UNIT(*)
SI_UNIT($,.METRE.)
);
#664=(
NAMED_UNIT(*)
PLANE_ANGLE_UNIT()
SI_UNIT($,.RADIAN.)
);
#665=(
NAMED_UNIT(*)
SI_UNIT($,.STERADIAN.)
SOLID_ANGLE_UNIT()
);
#666=SHAPE_DEFINITION_REPRESENTATION(#667,#668);
#667=PRODUCT_DEFINITION_SHAPE('',$,#670);
#668=SHAPE_REPRESENTATION('',(#406),#660);
#669=PRODUCT_DEFINITION_CONTEXT('part definition',#674,'design');
#670=PRODUCT_DEFINITION('2026-03-01-20-13-29-005','Door Alignment',#671,
#669);
#671=PRODUCT_DEFINITION_FORMATION('',$,#676);
#672=PRODUCT_RELATED_PRODUCT_CATEGORY('Door Alignment','Door Alignment',
(#676));
#673=APPLICATION_PROTOCOL_DEFINITION('international standard',
'automotive_design',2009,#674);
#674=APPLICATION_CONTEXT(
'Core Data for Automotive Mechanical Design Process');
#675=PRODUCT_CONTEXT('part definition',#674,'mechanical');
#676=PRODUCT('2026-03-01-20-13-29-005','Door Alignment','STEP AP214',(#675));
#677=PRESENTATION_STYLE_ASSIGNMENT((#679));
#678=PRESENTATION_STYLE_ASSIGNMENT((#680));
#679=SURFACE_STYLE_USAGE(.BOTH.,#681);
#680=SURFACE_STYLE_USAGE(.BOTH.,#682);
#681=SURFACE_SIDE_STYLE('',(#683));
#682=SURFACE_SIDE_STYLE('',(#684));
#683=SURFACE_STYLE_FILL_AREA(#685);
#684=SURFACE_STYLE_FILL_AREA(#686);
#685=FILL_AREA_STYLE('Steel - Satin',(#687));
#686=FILL_AREA_STYLE('Opaque(202,209,238)',(#688));
#687=FILL_AREA_STYLE_COLOUR('Steel - Satin',#689);
#688=FILL_AREA_STYLE_COLOUR('Opaque(202,209,238)',#690);
#689=COLOUR_RGB('Steel - Satin',0.627450980392157,0.627450980392157,0.627450980392157);
#690=COLOUR_RGB('Opaque(202,209,238)',0.792156862745098,0.819607843137255,
0.933333333333333);
ENDSEC;
END-ISO-10303-21;
